<?xml version="1.0" encoding="iso-8859-1"?>
<!-- Generator: Adobe Illustrator 23.1.0, SVG Export Plug-In . SVG Version: 6.00 Build 0)  -->
<svg version="1.1" xmlns="http://www.w3.org/2000/svg" xmlns:xlink="http://www.w3.org/1999/xlink" x="0px" y="0px"
	 viewBox="0 0 360.018 158.608" style="enable-background:new 0 0 360.018 158.608;" xml:space="preserve">
<g id="underwater-scene-silhouette-clip-art-2">
	<g>
		<path style="stroke:#000000;stroke-width:0.25;stroke-linecap:round;stroke-linejoin:round;stroke-miterlimit:10;" d="
			M355.66,137.29c-0.438-1.314-0.936-2.666-1.921-3.641c-1.383-1.369-3.458-1.738-5.401-1.838c-2.714-0.139-7.284-0.593-10.221-2.16
			c0.183-0.059,0.371-0.118,0.578-0.183c0.102-0.032,0.213-0.075,0.319-0.112c0,0,0.001,0,0.002,0
			c1.184-0.091,2.448,0.102,3.904,0.149c1.43,0.043,3.163-0.097,4.607-1.084c1.392-0.989,1.903-2.172,3.093-3.062
			c-0.763-0.105-1.54,0.18-2.219,0.458c-0.68,0.294-1.288,0.621-1.835,0.797c-1.053,0.35-2.234,0.324-3.573,0.29
			c-0.249-0.006-0.508-0.012-0.772-0.016c0.489-0.926,0.645-1.918,0.654-2.809c0.008-1.182-0.263-2.143-0.214-2.818
			c0.032-0.697,0.387-1.522,0.907-2.303c0.494-0.81,1.166-1.62,1.562-2.576c-0.841,0.584-1.672,1.067-2.507,1.715
			c-0.796,0.665-1.626,1.52-1.973,2.778c-0.169,0.624-0.187,1.221-0.191,1.733c-0.008,0.522-0.002,0.933-0.05,1.352
			c-0.081,0.83-0.307,1.567-0.681,2.025c-0.334,0.458-0.99,0.798-1.897,1.176c-0.443,0.195-1.505,1.005-1.737,0.879
			c0.48-0.361,0.975-0.864,1.291-1.488c0.33-0.616,0.479-1.259,0.57-1.858c0.154-1.126,0.099-2.139,0.099-3.069
			c0.535-0.98,1.171-1.814,2.058-2.618c1.114-1.051,2.502-1.98,3.811-3.14c-1.477,0.143-2.912,0.489-4.293,1.135
			c0.072-0.077,0.138-0.156,0.213-0.232c1.288-1.342,3.226-2.365,4.753-3.9c-2.043,0.59-4.094,1.004-6.049,2.316
			c-0.951,0.647-1.84,1.539-2.415,2.705c-0.496,1.027-0.638,2.114-0.668,3.096c-0.08,0.155-0.159,0.311-0.231,0.466
			c-0.156,0.345-0.29,0.687-0.419,1.028c-0.097-0.484-0.227-0.935-0.333-1.345c-0.288-1.027-0.59-1.974-0.7-2.839
			c-0.124-0.871-0.039-1.6,0.286-2.326c0.331-0.726,0.904-1.416,1.612-1.991c1.409-1.174,3.445-1.794,5.474-2.555
			c-2.125-0.302-4.414-0.3-6.589,0.839c-1.058,0.567-2.021,1.42-2.683,2.559c-0.325,0.568-0.555,1.222-0.667,1.883
			c-0.106,0.662-0.093,1.321-0.013,1.933c0.175,1.229,0.574,2.287,0.938,3.261c0.375,0.99,0.709,1.838,0.686,2.54
			c-0.008,0.707-0.445,1.592-1.035,2.403c-0.225,0.334-0.478,0.651-0.746,0.963c-0.349,0.107-0.719,0.191-1.105,0.243
			c-0.665-0.076-1.113-0.29-1.134-0.786c-0.192-4.647-0.384-9.293-0.576-13.94c-0.122-2.946-2.527-5.162-5.471-5.329
			c-0.097-0.006-0.193-0.022-0.29-0.032c0.149-0.247,0.292-0.499,0.423-0.768c0.696-1.429,0.761-3.328,1.649-4.641
			c1.854-2.74,5.109-1.896,7.68-1.892c3.41,0.005,9.627-0.682,8.504-5.434c-0.385-1.629-2.895-0.939-2.509,0.692
			c0.541,2.287-11.955,1.866-13.986,3.261c-0.008,0.005-0.014,0.012-0.022,0.017c1.415-2.51,4.27-4.626,6.25-6.136
			c1.314-1.002,0.019-3.264-1.313-2.247c-4.06,3.098-9.732,7.576-8.13,13.39c0,0,0,0,0,0c-0.364,0.964-0.737,1.927-1.277,2.803
			c-0.01-0.005-0.019-0.008-0.029-0.013c-0.462-0.701-0.955-1.353-1.27-2.299c-0.327-0.982-0.368-1.771-1.029-2.645
			c-0.495-0.654-1.107-1.166-1.783-1.598c2.506-1.537,3.556-4.521,3.035-7.545c-0.284-1.647-2.792-0.949-2.509,0.692
			c0.529,3.069-1.32,4.726-3.953,5.172c-2.016-0.906-3.904-1.941-4.635-4.328c-0.489-1.597-3.002-0.916-2.509,0.692
			c0.64,2.09,1.834,3.473,3.484,4.572c-0.215,0.179-0.42,0.379-0.751,0.62c-1.502,1.093-2.472,1.06-4.056,1.619
			c-1.462,0.515-2.647,1.333-3.466,2.395c-0.42-0.71-1.03-1.277-2.099-1.707c-1.343-0.541-2.729-0.356-4.134-0.436
			c-0.871-0.049-1.687-0.213-2.433-0.474c0.577-0.631,1.055-1.272,1.345-1.933c1.064-1.089,2.481-1.533,4.142-1.78
			c2.018-0.3,3.666-1.106,5.001-2.671c1.081-1.267-0.751-3.117-1.84-1.84c-1.877,2.2-4.173,1.501-6.5,2.558
			c0.147-1.425,0.168-2.841,0.227-4.228c0.029-0.047,0.061-0.089,0.087-0.143c0.59-1.235,1.456-2.504,2.734-3.111
			c1.343-0.637,2.747-0.645,4.001-1.533c2.088-1.479,3.379-4.108,4.296-6.415c0.619-1.556-1.897-2.232-2.509-0.692
			c-0.588,1.479-1.375,3.028-2.467,4.206c-1.178,1.271-2.462,1.318-3.958,1.897c-0.522,0.202-1.007,0.473-1.457,0.792
			c0.527-1.632,1.448-3.176,3.112-4.588c1.279-1.085-0.57-2.918-1.84-1.84c-6.101,5.175-3.186,11.827-5.795,18.466
			c-0.231,0.589-0.546,1.075-0.907,1.5c-1.632-1.46-2.417-3.704-1.837-6.455c0.344-1.634-2.164-2.332-2.509-0.692
			c-0.653,3.101-0.242,6.203,1.953,8.638c0.089,0.099,0.179,0.186,0.268,0.277c-1.377,0.925-2.77,1.778-3.347,3.53
			c-0.093,0.281-0.165,0.585-0.228,0.895c-2.062-1.504-3.483-2.572-4.552-5.241c-1.023-2.552-2.7-3.958-5.235-4.948
			c-0.227-0.089-0.464-0.179-0.706-0.27c-0.003-0.003-0.005-0.007-0.009-0.01c-4.606-4.435,1.876-6.056,3.563-8.973
			c1.512-2.615,0.499-6.969-0.021-9.733c-0.309-1.644-2.818-0.948-2.509,0.692c0.632,3.361,1.235,6.475-1.316,8.976
			c-1.049,1.028-2.07,1.908-2.907,3.148c-1.053,1.56-1.313,2.938-0.976,4.24c-4.034-1.827-7.66-4.565-5.378-9.754
			c0.668-1.519-1.574-2.845-2.247-1.313c-2.89,6.573,1.898,12.076,7.967,14.266c2.592,0.935,5.226,1.213,6.801,3.733
			c0.681,1.089,0.993,2.357,1.544,3.502c-0.32-0.022-0.639-0.044-0.963-0.052c-3.075-0.077-4.56,0.181-6.566-2.598
			c-1.721-2.383-3.193-3.979-6.062-4.96c-1.588-0.543-2.27,1.97-0.692,2.509c3.859,1.32,4.346,5.512,7.85,7.051
			c2.96,1.301,6.642,0.44,9.763,1.18c0.007,0.002,0.014,0.001,0.021,0.003c0.293,0.174,0.585,0.357,0.87,0.566
			c0.139,0.102,0.259,0.207,0.387,0.311c-0.592,0.149-1.225,0.373-1.906,0.651c-2.774,1.133-6.811,1.648-9.895,1.214
			c-2.997-0.422-5.041-3.033-7.605-4.407c-1.476-0.791-2.792,1.455-1.313,2.247c3.816,2.046,5.633,4.742,10.227,4.734
			c1.892-0.003,3.935,0.049,5.812-0.195c1.979-0.257,6.089-2.723,7.182-0.522c0.524,2.026,0.128,4.27-0.4,6.669
			c-3.378,0.276-6.915-1.334-9.399-3.759c-3.106-3.032-6.059,5.742-7.8,1.766c-8.528,1.684-8.618,1.21-13.081,7.604
			c-0.038-0.018-0.075-0.039-0.113-0.057c-0.693-0.314-1.385-0.628-2.078-0.942c-0.732-0.332-1.48-0.666-2.252-0.878
			c0.315-1.027,0.571-2.072,0.592-3.142c0.027-1.388-0.393-2.846-1.415-3.785c-0.272-0.25-0.586-0.461-0.939-0.568
			c-0.453-0.137-0.937-0.097-1.409-0.065c-1.314,0.089-2.647,0.1-3.918,0.447c-0.665,0.181-1.34,0.481-1.731,1.048
			c-0.364,0.529-0.424,1.205-0.44,1.846c-0.036,1.515,0.117,3.034,0.449,4.512c-0.676,0.106-1.326,0.382-1.794,0.875
			c-0.663,0.699-0.874,1.706-0.909,2.673c-0.117-0.122-0.233-0.244-0.361-0.357c-0.245-0.218-0.517-0.422-0.835-0.503
			c-0.267-0.068-0.549-0.045-0.823-0.008c-1.531,0.205-3.005,0.824-4.224,1.774c-0.384,0.299-0.756,0.649-0.925,1.106
			c-0.186,0.501-0.102,1.056-0.017,1.584c0.124,0.766,0.254,1.534,0.492,2.272c-3.963,0.81-8.291-0.195-11.484-2.678
			c-0.342-0.651-0.722-1.306-1.132-2.026c0.136-0.766,0.444-1.582,1.229-1.891c0.587-0.231,1.426-0.048,2.035-0.066
			c0.963-0.028,1.863-0.173,2.665-0.749c1.754-1.259,2.635-3.75,2.959-5.785c0.191-1.2-1.646-1.717-1.839-0.507
			c-0.223,1.399-0.647,2.766-1.486,3.929c-1.226,1.7-2.846,0.92-4.562,1.293c-0.768,0.167-1.345,0.548-1.784,1.055
			c-0.195-3.713,4.306-6.433,5.504-9.843c0.509-1.449,0.657-2.985,0.445-4.506c-0.221-1.583-2.769-5.965,0.441-6.695
			c1.196-0.272,0.69-2.111-0.507-1.839c-1.518,0.345-2.73,1.244-3.191,2.782c-0.788,2.631,1.64,5.009,1.379,7.712
			c-0.242,2.497-1.977,4.515-3.523,6.559c0.354-1.202,0.71-2.408,0.863-3.62c0.55-4.354-2.005-6.718-4.892-9.003
			c0.102-0.111,0.204-0.222,0.306-0.335c1.899-2.122,2.936-4.546,1.879-7.327c-0.432-1.136-2.276-0.643-1.839,0.507
			c1.003,2.641-0.348,4.295-1.935,5.904c-0.576-0.458-1.146-0.925-1.688-1.418c-0.906-0.825-2.258,0.52-1.348,1.348
			c0.539,0.49,1.128,0.945,1.734,1.39c-0.707,0.749-1.346,1.541-1.718,2.465c-0.344,0.854-0.447,1.712-0.403,2.566
			c-0.879-1.411-2.36-2.343-3.612-3.401c-1.484-1.253-2.442-2.566-2.216-4.691c0.2-1.881,2.149-3.511,3.478-4.681
			c0.923-0.813-0.43-2.157-1.348-1.348c-1.985,1.748-4.014,3.871-4.139,6.681c-0.126,2.83,1.799,4.479,3.809,6.122
			c1.873,1.531,3.269,2.716,2.723,5.418c-0.337,1.665-1.393,3.134-1.767,4.804c-0.499,2.227,0.048,4.315,0.957,6.288
			c-2.008-0.856-4.202-1.465-5.923-2.712c-2.28-1.652-3.559-4.032-2.854-6.835c0.403-1.603,1.151-3.076,1.232-4.757
			c0.133-2.783-1.127-5.283-3.161-7.108c-0.911-0.817-2.264,0.527-1.348,1.348c3.664,3.286,2.226,6.445,1.333,10.462
			c-0.513,2.305,0.024,4.427,1.455,6.298c1.542,2.016,3.81,3.201,6.092,4.19c1.224,0.531,3.012,0.922,4.168,1.75
			c-0.629,0.591-1.363,1.368-2.77,2.352c-1.908,1.334-4.312,1.748-6.577,1.208c-6.288-1.499-12.575-2.999-18.863-4.498
			c-1.84-0.439-3.745-0.88-5.604-0.533c-1.438,0.268-2.797,1-4.259,0.987c-1.462-0.013-2.811-1.07-5.723-2.351
			c-5.52,1.183-3.973,1.481-7.692-1.912c-2.244-2.047-3.675-4.733-4.633-7.611c0.02-0.026,0.043-0.047,0.062-0.076
			c0.436-0.661,1.021-1.278,1.763-1.597c0.902-0.388,1.857-0.061,2.795-0.272c1.46-0.328,2.076-1.607,3.155-2.488
			c1.298-1.06-0.553-2.892-1.84-1.84c-0.584,0.477-1.037,1.424-1.711,1.743c-0.745,0.353-1.942-0.018-2.781,0.231
			c-0.786,0.233-1.485,0.642-2.098,1.16c-0.172-0.449-0.417-0.739-0.7-1.033c0.08-0.056,0.159-0.113,0.233-0.178
			c1.809-1.604,3.632-2.498,5.903-3.329c1.56-0.571,0.886-3.087-0.692-2.509c-1.247,0.456-2.512,0.913-3.696,1.52
			c-0.908,0.465-1.708,1.196-2.546,1.79c0.195-0.417,0.472-0.86,0.73-1.387c0.733-1.499-1.51-2.819-2.247-1.313
			c-0.645,1.318-1.601,2.634-1.569,4.093c-0.28,0.105-0.548,0.215-0.803,0.335c-0.118-0.56-0.195-1.128-0.1-1.737
			c0.325-2.075,2.593-3.229,4.232-4.552c1.304-1.052-0.548-2.883-1.84-1.84c-2.278,1.838-5.376,3.284-5.437,6.343
			c-1.174-0.986-2.733-1.53-3.972-2.426c1.089-3.399,3.497-6.544,4.294-10.151c0.361-1.632-2.147-2.329-2.509-0.692
			c-0.696,3.148-2.481,5.811-3.721,8.646c-1.66-2.939-1.07-6.715-1.011-10.04c0.03-1.675-2.573-1.675-2.602,0
			c-0.079,4.457-1.207,10.048,2.524,13.244c0.01,0.009,0.02,0.016,0.03,0.024c-0.21,1.043-0.29,2.131-0.165,3.297
			c0.114,1.058,0.37,2.044,0.736,2.982c-0.595-0.119-1.242-0.137-1.782-0.377c-1.389-0.619-1.748-1.775-2.193-3.073
			c-0.54-1.575-3.054-0.899-2.509,0.692c0.804,2.347,1.824,4.302,4.373,4.972c0.935,0.246,1.774,0.3,2.574,0.885
			c0.558,0.408,0.972,0.982,1.51,1.416c0.691,0.558,1.351,0.989,1.881,1.505c0.192,0.285,0.378,0.572,0.555,0.858
			c-1.473,0.666-2.746,1.26-4.285,3.469c-1.087,1.561-2.153,3.219-3.618,4.395c-0.032-0.096-0.064-0.192-0.101-0.284
			c-0.798-2.008-2.374-3.696-4.323-4.63c-0.319-0.153-0.666-0.289-1.016-0.242c-0.26,0.035-0.496,0.168-0.723,0.299
			c-2.347,1.36-4.604,2.874-6.765,4.513c1.088-1.95,2.109-3.935,2.939-6.006c0.508-1.268,0.95-2.609,0.847-3.971
			c-0.031-0.415-0.123-0.845-0.39-1.163c-0.238-0.283-0.586-0.444-0.922-0.596c-0.693-0.314-1.385-0.628-2.078-0.942
			c-0.732-0.332-1.48-0.666-2.252-0.878c0.315-1.027,0.571-2.072,0.592-3.142c0.027-1.388-0.393-2.846-1.415-3.785
			c-0.272-0.25-0.586-0.461-0.939-0.568c-0.453-0.137-0.937-0.097-1.409-0.065c-1.314,0.089-2.647,0.1-3.918,0.447
			c-0.665,0.181-1.34,0.481-1.731,1.048c-0.289,0.42-0.385,0.933-0.42,1.449c-0.207,0.127-0.4,0.28-0.581,0.441
			c-0.176,0.156-0.336,0.326-0.498,0.494c-0.048-1.335-0.34-2.727-1.255-3.692c-0.646-0.681-1.544-1.063-2.477-1.209
			c0.458-2.042,0.67-4.139,0.62-6.232c-0.021-0.886-0.104-1.82-0.607-2.55c-0.54-0.783-1.472-1.197-2.39-1.448
			c-1.755-0.479-3.596-0.495-5.411-0.617c-0.652-0.044-1.321-0.1-1.946,0.09c-0.487,0.148-0.922,0.44-1.297,0.784
			c-1.412,1.297-1.992,3.31-1.954,5.228c0.029,1.477,0.383,2.921,0.817,4.339c-1.066,0.293-2.099,0.754-3.11,1.212
			c-0.956,0.434-1.913,0.867-2.869,1.301c-0.465,0.211-0.945,0.433-1.274,0.823c-0.37,0.44-0.496,1.034-0.539,1.607
			c-0.142,1.881,0.468,3.733,1.17,5.484c1.147,2.86,2.557,5.601,4.059,8.295c-2.985-2.264-6.102-4.354-9.343-6.233
			c-0.314-0.182-0.639-0.365-0.998-0.414c-0.484-0.065-0.963,0.123-1.403,0.334c-2.691,1.291-4.867,3.621-5.969,6.395
			c-0.253,0.637-0.452,1.347-0.242,2c0.02,0.063,0.06,0.114,0.086,0.173c-0.53-0.397-1.015-0.847-1.435-1.372
			c-2.394-2.994-3.735-7.055-6.411-9.594c-0.455-0.432-1.098-0.64-1.7-0.594c0.341-0.361,0.692-0.742,1.044-1.138
			c0.112-0.044,0.225-0.092,0.332-0.121c0.318-0.089,0.588-0.107,1.044-0.175c0.436-0.071,1.032-0.178,1.653-0.529
			c0.635-0.353,1.113-0.872,1.458-1.368c0.69-1.015,0.99-2.059,1.174-3.063c0.163-0.991,0.198-1.914,0.221-2.762
			c0.017-0.85,0.048-1.61,0.125-2.425c0.155-1.62,0.458-3.247,0.975-5.074c-1.677,0.945-2.878,2.597-3.615,4.387
			c-0.337,0.798-0.556,1.673-0.706,2.498c-0.017-0.074-0.034-0.156-0.051-0.226c-0.213-0.852-0.349-1.45-0.403-2.182
			c-0.068-0.708-0.062-1.44,0.002-2.176c0.215-2.974,1.356-5.905,2.509-9.064c0.572-1.576,1.079-3.243,1.406-4.947
			c0.288-1.711,0.406-3.48,0.056-5.161c-0.811,3.32-2.351,6.087-3.954,8.998c-0.796,1.46-1.584,2.982-2.225,4.63
			c-0.27,0.694-0.498,1.414-0.694,2.149c-0.763-1.984-1.796-3.704-2.65-5.334c-0.915-1.716-1.575-3.341-1.877-5.195
			c-0.673-3.708-0.081-7.733,0.256-11.822c-0.879,1.859-1.613,3.768-2.181,5.779c-0.53,2.013-0.876,4.134-0.78,6.321
			c0.049,1.089,0.201,2.207,0.5,3.288c0.286,1.079,0.699,2.098,1.129,3.064c0.873,1.93,1.848,3.636,2.453,5.349
			c0.619,1.68,0.921,3.545,1.139,5.482c0.183,1.633,0.297,3.222,0.127,4.673c-0.231-0.49-0.5-0.957-0.792-1.383
			c-0.356-0.521-0.73-0.994-1.098-1.441c-0.127-0.238-0.267-0.469-0.418-0.691c-0.412-0.592-0.877-1.087-1.352-1.525
			c-0.263-0.354-0.515-0.71-0.745-1.073c-0.99-1.529-1.674-3.166-1.924-4.862c-0.133-0.849-0.148-1.659-0.032-2.513
			c0.097-0.864,0.328-1.789,0.544-2.798c0.214-0.998,0.424-2.127,0.453-3.247c0.04-1.115-0.047-2.215-0.229-3.284
			c-0.358-2.141-1.134-4.15-2.08-5.997c-0.986-1.838-2.12-3.532-3.39-5.14c1.239,3.902,2.651,7.672,2.758,11.435
			c0.038,0.934,0.001,1.855-0.109,2.75c-0.123,0.891-0.322,1.743-0.599,2.697c-0.265,0.947-0.557,1.972-0.742,3.105
			c-0.121,0.777-0.153,1.594-0.11,2.397c-0.529-0.974-0.97-2.009-1.305-3.083c-0.453-1.474-0.762-3.042-0.833-4.647
			c-0.109-1.612,0.019-3.25,0.367-4.936c-1.058,1.374-1.691,3.065-2.066,4.801c-0.332,1.746-0.408,3.569-0.131,5.378
			c0.549,3.606,2.361,7.105,5.297,9.552c1.486,1.19,2.808,1.944,3.576,2.925c0.623,0.742,0.968,1.752,1.14,2.907
			c-0.693-0.397-1.528-0.618-2.193-0.664c-3.051-0.089-5.007-0.967-5.896-3.068c-0.491-1.075-0.783-2.489-1.24-3.986
			c-0.239-0.751-0.507-1.543-0.924-2.323c-0.407-0.793-0.936-1.474-1.439-2.059c-0.507-0.591-0.997-1.101-1.422-1.627
			c-0.432-0.531-0.834-1.104-1.212-1.706c-0.771-1.202-1.373-2.536-1.957-3.952c-0.179,1.528-0.003,3.088,0.391,4.622
			c0.213,0.762,0.487,1.517,0.844,2.245c0.357,0.739,0.781,1.404,1.144,2.017c0.367,0.616,0.667,1.18,0.872,1.742
			c0.203,0.572,0.377,1.204,0.521,1.888c0.312,1.368,0.538,2.909,1.256,4.56c0.373,0.817,0.908,1.654,1.597,2.335
			c0.701,0.671,1.527,1.207,2.395,1.546c0.013,0.005,0.026,0.008,0.039,0.013c-0.115,0.019-0.236,0.043-0.332,0.044
			c-0.283,0.02-0.479-0.006-0.759-0.112c-0.273-0.09-0.571-0.262-0.873-0.491c-0.61-0.46-1.19-1.13-1.711-1.882
			c-1.065-1.541-1.896-3.481-3.058-5.355c-0.24,2.18-0.168,4.355,0.614,6.568c0.405,1.11,1.024,2.192,1.967,3.128
			c0.473,0.466,1.055,0.881,1.742,1.195c0.678,0.307,1.535,0.462,2.293,0.411c1.498-0.136,2.477-0.648,3.202-0.804
			c0.637-0.176,1.355-0.141,2.179,0.088c-1.509,0.365-2.383,1.753-4.152,1.894c-2.324,0.186-3.699,2.719-5.64,4.011
			c-2.263,1.507-3.405,7.446-5.734,8.839c-5.357,3.205-11.993,1.703-17.309,4.982c0.005-0.011,0.01-0.024,0.015-0.035
			c0.335-0.685,0.773-1.271,1.285-1.666c0.474-0.384,1.156-0.62,2.067-1.003c0.887-0.401,2.017-0.979,2.658-2.275
			c0.311-0.651,0.368-1.377,0.282-1.956c-0.076-0.595-0.26-1.087-0.451-1.547c-0.81-1.861-2.007-3.074-2.793-4.774
			c-0.281,1.916,0.576,3.814,0.849,5.388c0.173,0.818,0.146,1.503-0.078,1.766c-0.211,0.336-0.762,0.71-1.506,1.012
			c-0.372,0.167-0.801,0.338-1.262,0.566c0.027-0.126,0.059-0.254,0.081-0.378c0.151-0.959,0.127-1.883,0.025-2.789
			c-0.225-1.846-0.865-3.448-1.497-4.975c-0.649-1.524-1.286-2.964-1.853-4.622c-0.527,1.684-0.395,3.521-0.114,5.19
			c0.283,1.672,0.706,3.251,0.881,4.722c0.095,0.747,0.14,1.499,0.11,2.198c-0.013,0.349-0.059,0.682-0.12,0.98
			c-0.006,0.025-0.015,0.047-0.022,0.072c-0.031-0.513-0.081-1.029-0.176-1.552c-0.127-0.659-0.3-1.334-0.594-1.992
			c-0.148-0.329-0.317-0.656-0.519-0.973c-0.209-0.33-0.439-0.612-0.609-0.825c-1.426-1.782-2.49-3.72-3.141-5.881
			c-0.307-1.079-0.541-2.203-0.64-3.37c-0.115-1.169-0.095-2.367-0.068-3.618c-1.217,2.174-1.726,4.816-1.376,7.421
			c0.33,2.605,1.557,5.103,3.21,7.068c0.214,0.257,0.367,0.446,0.494,0.622c0.134,0.189,0.254,0.396,0.367,0.615
			c0.217,0.443,0.406,0.935,0.545,1.459c0.287,1.048,0.442,2.193,0.549,3.36c0.027,0.302,0.044,0.612,0.066,0.918
			c-0.178-0.394-0.392-0.769-0.628-1.117c-0.825-1.223-1.933-2.137-2.956-2.939c-1.022-0.8-1.993-1.529-2.694-2.352
			c-1.397-1.535-1.74-3.982-1.942-6.462c-0.161-2.473-0.001-4.99,0.387-7.599c-1.411,2.238-2.201,4.882-2.418,7.578
			c-0.116,1.353-0.106,2.705,0.14,4.125c0.125,0.706,0.334,1.42,0.633,2.119c0.307,0.695,0.74,1.368,1.23,1.937
			c0.997,1.138,2.154,1.923,3.214,2.643c1.065,0.708,2.032,1.389,2.817,2.2c0.766,0.819,1.282,1.759,1.367,2.938
			c0.016,0.149,0.01,0.305,0.014,0.457c-0.054,0.036-0.109,0.069-0.163,0.105c-0.251-0.267-0.521-0.516-0.826-0.722
			c-0.967-0.676-2.144-1.048-3.344-1.078c-1.186-0.006-2.014,0.148-2.592-0.039c-0.318-0.077-0.628-0.216-0.902-0.403
			c-0.284-0.182-0.504-0.399-0.738-0.702c-0.468-0.589-0.883-1.535-1.516-2.416c-1.224-1.725-2.891-3.12-4.812-3.819
			c1.274,1.583,2.307,3.159,3.038,4.839c0.373,0.806,0.615,1.735,1.246,2.78c0.311,0.512,0.77,1.025,1.289,1.41
			c0.525,0.383,1.119,0.666,1.752,0.832c0.638,0.164,1.319,0.174,1.858,0.129l1.41-0.149c0.431-0.032,0.872,0.001,1.306,0.086
			l-9.445,2.456c-3.784,1.596-5.593,6.162-5.261,10.256c0.179,2.208,0.851,4.312,1.734,6.35h357.995
			C359.356,151.28,357.943,144.143,355.66,137.29z M141.746,116.688c-0.052,0.526-0.122,1.018-0.194,1.497
			c-1.005-1.208-1.981-2.426-2.52-3.983c-0.417-1.205-0.544-2.345-0.481-3.446C140.569,111.949,142.122,112.908,141.746,116.688z
			 M149.156,117.775c-0.46,0.374-0.914,0.688-1.307,0.768c-1.021,0.209-2.006,0.554-2.792,1.237
			c-0.055,0.048-0.106,0.086-0.16,0.131c0.172-0.896,0.449-1.803,0.871-2.795c0.3-0.705,0.599-1.185,0.736-1.882
			c0.379-0.582,0.967-0.867,1.626-1.062c0.112,0.108,0.224,0.22,0.332,0.351C149.251,115.481,149.318,116.62,149.156,117.775z
			 M210.98,128.453c-0.25,0.04-0.482,0.086-0.685,0.142c-0.934-1.577-1.837-3.215-2.066-5.052c-0.241-1.935,0.399-3.392,1.1-5.149
			c0.425-1.064,0.791-2.121,0.892-3.192c0.32,0.907,0.69,1.799,1.001,2.666C212.589,121.681,212.88,125.097,210.98,128.453z
			 M216.181,120.693c-0.459,1.808-0.817,3.716-0.351,5.567c0.077,0.307,0.176,0.599,0.284,0.885c-0.826,0.24-1.956,0.727-2.69,0.99
			c0.066-0.137,0.138-0.27,0.197-0.41c1.252-2.994,0.763-6.289-0.189-9.292c-0.542-1.709-1.417-3.338-1.817-5.091
			c-0.529-2.32,0.418-3.784,1.681-5.201c1.253,0.923,2.448,1.903,3.289,3.167C218.558,114.273,216.96,117.62,216.181,120.693z
			 M297.665,116.462c-0.418,0.476-0.74,0.964-0.992,1.464c-0.74-0.554-1.417-1.215-2.276-1.545
			c-2.448-0.939-4.858,1.119-7.291,2.188c0.591-3.012,0.877-6.184-0.631-8.968c-0.158-0.292-0.335-0.565-0.524-0.824
			c0.038-1.783,1.787-3.405,3.564-5.031c1.566,0.64,3.26,0.704,5.186,1.051c2.564,0.463,3.794,1.652,4.208,4.036
			c0.327,1.882,0.62,0.739,0.462,3.737C299.215,115.533,299.14,114.786,297.665,116.462z M312.196,107.79
			c-2.898,0.684-5.388,2.594-6.609,5.31c-1.328,2.952-3.642,5.784-6.268,5.803c0.162-0.324,0.35-0.644,0.579-0.957
			c0.891-1.217,2.1-1.788,2.684-3.296c0.898-2.319-0.135-4.407-0.954-6.539c0.026-3.698,3.542-3.295,6.185-4.57
			c1.048-0.505,0.828-0.726,1.819-1.37c0.764-0.497,1.489-0.615,2.225-0.68c1.846,0.96,2.913,1.792,4.105,4.375
			c0.082,0.179,0.228,0.469,0.385,0.788C315.294,106.893,314.052,107.351,312.196,107.79z"/>
		<path style="stroke:#000000;stroke-width:0.25;stroke-linecap:round;stroke-linejoin:round;stroke-miterlimit:10;" d="
			M153.847,82.065c1.804,0,3.266-1.462,3.266-3.266c0-1.804-1.462-3.266-3.266-3.266c-1.804,0-3.266,1.462-3.266,3.266
			C150.581,80.603,152.043,82.065,153.847,82.065z"/>
		<path style="stroke:#000000;stroke-width:0.25;stroke-linecap:round;stroke-linejoin:round;stroke-miterlimit:10;" d="
			M158.485,71.179c0-0.784-0.636-1.42-1.42-1.42c-0.784,0-1.42,0.636-1.42,1.42c0,0.784,0.636,1.42,1.42,1.42
			C157.849,72.598,158.485,71.963,158.485,71.179z"/>
		<path style="stroke:#000000;stroke-width:0.25;stroke-linecap:round;stroke-linejoin:round;stroke-miterlimit:10;" d="
			M152.38,67.108c-0.993,0-1.799,0.805-1.799,1.799c0,0.993,0.805,1.799,1.799,1.799c0.993,0,1.799-0.805,1.799-1.799
			C154.178,67.913,153.373,67.108,152.38,67.108z"/>
		<path style="stroke:#000000;stroke-width:0.25;stroke-linecap:round;stroke-linejoin:round;stroke-miterlimit:10;" d="
			M155.125,62.659c0.706,0,1.278-0.572,1.278-1.278c0-0.706-0.572-1.278-1.278-1.278c-0.706,0-1.278,0.572-1.278,1.278
			C153.847,62.087,154.419,62.659,155.125,62.659z"/>
		<path style="stroke:#000000;stroke-width:0.25;stroke-linecap:round;stroke-linejoin:round;stroke-miterlimit:10;" d="
			M285.264,80.812c1.804,0,3.267-1.463,3.267-3.267s-1.463-3.267-3.267-3.267s-3.267,1.463-3.267,3.267
			S283.46,80.812,285.264,80.812z"/>
		<path style="stroke:#000000;stroke-width:0.25;stroke-linecap:round;stroke-linejoin:round;stroke-miterlimit:10;" d="
			M289.904,69.921c0-0.785-0.636-1.421-1.421-1.421c-0.784,0-1.42,0.636-1.42,1.421c0,0.784,0.636,1.42,1.42,1.42
			C289.269,71.341,289.904,70.705,289.904,69.921z"/>
		<path style="stroke:#000000;stroke-width:0.25;stroke-linecap:round;stroke-linejoin:round;stroke-miterlimit:10;" d="
			M283.797,65.849c-0.994,0-1.799,0.806-1.799,1.799c0,0.994,0.806,1.799,1.799,1.799c0.994,0,1.799-0.806,1.799-1.799
			C285.596,66.654,284.79,65.849,283.797,65.849z"/>
		<path style="stroke:#000000;stroke-width:0.25;stroke-linecap:round;stroke-linejoin:round;stroke-miterlimit:10;" d="
			M286.543,61.397c0.706,0,1.279-0.572,1.279-1.278c0-0.706-0.572-1.279-1.279-1.279c-0.706,0-1.279,0.573-1.279,1.279
			C285.264,60.825,285.837,61.397,286.543,61.397z"/>
		<path style="stroke:#000000;stroke-width:0.25;stroke-linecap:round;stroke-linejoin:round;stroke-miterlimit:10;" d="
			M183.244,112.665c1.213,0,2.196-0.983,2.196-2.196c0-1.213-0.983-2.197-2.196-2.197c-1.213,0-2.196,0.983-2.196,2.197
			C181.047,111.681,182.031,112.665,183.244,112.665z"/>
		
			<circle style="stroke:#000000;stroke-width:0.25;stroke-linecap:round;stroke-linejoin:round;stroke-miterlimit:10;" cx="180.092" cy="103.433" r="0.955"/>
		<path style="stroke:#000000;stroke-width:0.25;stroke-linecap:round;stroke-linejoin:round;stroke-miterlimit:10;" d="
			M184.103,104.388c0,0.668,0.542,1.21,1.21,1.21s1.21-0.542,1.21-1.21c0-0.668-0.542-1.21-1.21-1.21
			S184.103,103.72,184.103,104.388z"/>
		
			<circle style="stroke:#000000;stroke-width:0.25;stroke-linecap:round;stroke-linejoin:round;stroke-miterlimit:10;" cx="184.103" cy="98.754" r="0.859"/>
		<path style="stroke:#000000;stroke-width:0.25;stroke-linecap:round;stroke-linejoin:round;stroke-miterlimit:10;" d="
			M83.745,29.075c1.213,0,2.196-0.983,2.196-2.197c0-1.213-0.983-2.196-2.196-2.196c-1.213,0-2.197,0.983-2.197,2.196
			C81.548,28.091,82.531,29.075,83.745,29.075z"/>
		<path style="stroke:#000000;stroke-width:0.25;stroke-linecap:round;stroke-linejoin:round;stroke-miterlimit:10;" d="
			M84.954,21.753c0,0.527,0.428,0.955,0.955,0.955s0.955-0.428,0.955-0.955c0-0.527-0.428-0.955-0.955-0.955
			S84.954,21.226,84.954,21.753z"/>
		<path style="stroke:#000000;stroke-width:0.25;stroke-linecap:round;stroke-linejoin:round;stroke-miterlimit:10;" d="
			M80.402,22.644c0.668,0,1.21-0.542,1.21-1.21s-0.542-1.21-1.21-1.21s-1.21,0.542-1.21,1.21S79.734,22.644,80.402,22.644z"/>
		<path style="stroke:#000000;stroke-width:0.25;stroke-linecap:round;stroke-linejoin:round;stroke-miterlimit:10;" d="
			M84.604,16.023c0.475,0,0.859-0.385,0.859-0.859s-0.385-0.86-0.859-0.86c-0.475,0-0.859,0.385-0.859,0.86
			S84.129,16.023,84.604,16.023z"/>
		<path style="stroke:#000000;stroke-width:0.25;stroke-linecap:round;stroke-linejoin:round;stroke-miterlimit:10;" d="
			M83.458,35.76c0,0.633,0.513,1.146,1.146,1.146c0.633,0,1.146-0.513,1.146-1.146c0-0.633-0.513-1.146-1.146-1.146
			C83.971,34.614,83.458,35.127,83.458,35.76z"/>
		<path style="stroke:#000000;stroke-width:0.25;stroke-linecap:round;stroke-linejoin:round;stroke-miterlimit:10;" d="
			M116.536,29.618c2.028,3.755,2.693,8.075,3.265,12.305c0.105,0.774,0.07,2.669,0.057,4.372c-0.747,1.583-1.717,3.085-2.713,4.502
			c-1.564,2.226-3.248,4.364-4.997,6.447c-1.912,2.278-3.77,4.618-5.867,6.733c2.848-1.431,13.285-12.437,13.846-13.155
			c0.857-1.097,1.928-1.993,3.024-2.866c1.68-0.624,3.472-1.29,4.167-1.522c4.048-1.351,8.219-2.66,12.483-2.497
			c4.798,0.184,9.302,2.21,13.926,3.501c5.099,1.423,10.444,1.962,15.725,1.585c-10.716-5.31-20.064-12.747-24.828-23.704
			c0.623-0.398,1.564-1.041,1.883-1.717c0.478-1.015,1.123-2.013,0.756-3.265c-0.148,0.883-0.432,1.799-1.103,2.391
			c-0.526,0.464-1.224,0.672-1.902,0.853c-0.271,0.072-0.543,0.142-0.815,0.211c-0.536,0.136-1.103,0.036-1.555-0.282
			c-1.66-1.169-5.685-4.052-5.866-4.631c-0.287-0.922-0.489-2.215,0.033-3.028c0.522-0.813,1.136-1.587,1.911-2.164
			c-1.703,0.419-3.239,2.179-4.112,3.987c-0.152,0.061-0.472,0.114-0.662,0.125c-12.078,0.696-24.698-5.19-34.301-12.549
			c1.991,4.906,4.831,9.465,8.358,13.413C110.45,22.245,114.254,25.394,116.536,29.618z"/>
		<path style="stroke:#000000;stroke-width:0.25;stroke-linecap:round;stroke-linejoin:round;stroke-miterlimit:10;" d="
			M233.794,79.888c1.635,0.534,3.086,0.76,4.632,1.513c0.979,0.477,2.149,0.98,3.105,1.501c1.844,1.005,4.205,0.99,6.036-0.038
			c0.548-0.308,1.057-0.707,1.406-1.23c0.439-0.657,0.596-1.459,0.702-2.242c0.009-0.069,0.013-0.138,0.021-0.206
			c0.835,0.926,1.132,1.603,2.373,1.602c-0.082-0.712-0.114-0.863-0.099-1.599c0.022-1.089,0.436-2.139,0.479-3.227
			c0.003-0.083-0.007-0.186-0.083-0.22c-0.041-0.019-0.09-0.01-0.134,0c-0.676,0.159-1.223,0.643-1.843,0.957
			c-0.171,0.086-0.349,0.156-0.53,0.216c0.003-0.131,0.014-0.262,0.014-0.393c0.005-1.156-0.1-2.373-0.744-3.332
			c-0.773-1.152-2.218-1.728-3.606-1.728c-4.913,0-5.87,2.303-6.323,2.659c-1.044,0.82-1.624,1.674-2.476,2.693
			c-1.118,1.337-2.647,1.556-3.434,2.259C233.086,79.255,233.529,79.801,233.794,79.888z"/>
		<path style="stroke:#000000;stroke-width:0.25;stroke-linecap:round;stroke-linejoin:round;stroke-miterlimit:10;" d="
			M268.498,63.222c0.003-0.083-0.007-0.186-0.082-0.221c-0.041-0.019-0.09-0.01-0.134,0c-0.676,0.159-1.223,0.643-1.843,0.957
			c-0.171,0.087-0.349,0.156-0.53,0.216c0.003-0.131,0.014-0.262,0.015-0.393c0.005-1.156-0.1-2.373-0.744-3.332
			c-0.773-1.152-2.218-1.728-3.606-1.728c-4.913,0-5.87,2.303-6.323,2.659c-1.044,0.82-1.624,1.674-2.476,2.693
			c-1.118,1.337-2.647,1.556-3.434,2.259c-0.208,0.186,0.236,0.732,0.5,0.818c1.635,0.534,3.086,0.76,4.632,1.513
			c0.979,0.477,2.149,0.98,3.105,1.501c1.844,1.005,4.205,0.99,6.036-0.038c0.548-0.308,1.057-0.707,1.407-1.23
			c0.439-0.657,0.596-1.459,0.702-2.242c0.009-0.069,0.012-0.138,0.021-0.206c0.835,0.926,1.132,1.603,2.373,1.602
			c-0.082-0.712-0.114-0.863-0.099-1.599C268.04,65.36,268.455,64.31,268.498,63.222z"/>
		<path style="stroke:#000000;stroke-width:0.25;stroke-linecap:round;stroke-linejoin:round;stroke-miterlimit:10;" d="
			M41.965,59.932c0.118,0.347,0.126,0.725,0.25,1.07c0.126,0.348,0.373,0.651,0.689,0.845c-0.306,0.281-0.517,0.665-0.588,1.075
			c-0.072,0.413-0.011,0.859-0.197,1.234c-0.151,0.304-0.439,0.51-0.717,0.705c0.077,0.06,0.18,0.076,0.278,0.081
			c0.52,0.024,1.025-0.21,1.428-0.54c0.403-0.329,0.72-0.749,1.036-1.163c0.251-0.329,0.503-0.659,0.71-1.017
			c1.685,0.717,2.796,1.377,4.721,1.806c0.009,0.057,0.019,0.114,0.027,0.17c0.069,0.481-0.014,1.134-0.221,1.574
			c0.579-0.194,1.168-0.393,1.664-0.749c0.315-0.226,0.59-0.527,0.758-0.872c0.177-0.021,0.355-0.045,0.536-0.075
			c1.395-0.233,3.776-1.585,4.609-2.728c0.059-0.081,0.119-0.169,0.125-0.269c0.014-0.232-2.305-1.766-5.873-2.282
			c-0.896-0.545-1.927-0.866-2.974-0.923c0.505,0.201,0.841,1.366,0.521,1.458c-1.46,0.418-3.125,1.048-4.014,1.423
			c-0.046-0.056-1.236-1.409-2.247-1.905c-0.58-0.284-1.24-0.444-1.876-0.331c0.204,0.263,0.527,0.4,0.787,0.607
			C41.657,59.332,41.857,59.616,41.965,59.932z"/>
		<path style="stroke:#000000;stroke-width:0.25;stroke-linecap:round;stroke-linejoin:round;stroke-miterlimit:10;" d="
			M73.286,63.28c-1.46,0.418-3.125,1.048-4.014,1.423c-0.046-0.056-1.236-1.409-2.247-1.905c-0.58-0.284-1.24-0.444-1.876-0.331
			c0.204,0.263,0.527,0.4,0.787,0.607c0.262,0.208,0.462,0.492,0.57,0.808c0.118,0.347,0.126,0.725,0.251,1.07
			c0.126,0.348,0.373,0.651,0.689,0.845c-0.306,0.281-0.517,0.665-0.588,1.075c-0.072,0.413-0.011,0.859-0.197,1.234
			c-0.151,0.304-0.439,0.51-0.717,0.705c0.077,0.06,0.18,0.076,0.278,0.081c0.52,0.024,1.025-0.21,1.428-0.54
			c0.403-0.329,0.72-0.749,1.036-1.163c0.251-0.329,0.503-0.66,0.71-1.017c1.685,0.717,2.796,1.377,4.721,1.806
			c0.009,0.057,0.019,0.114,0.027,0.17c0.069,0.481-0.014,1.134-0.221,1.574c0.579-0.194,1.168-0.393,1.664-0.749
			c0.315-0.226,0.59-0.527,0.758-0.872c0.177-0.021,0.355-0.045,0.536-0.075c1.395-0.233,3.776-1.585,4.609-2.728
			c0.059-0.081,0.119-0.169,0.125-0.269c0.014-0.232-2.305-1.766-5.873-2.282c-0.896-0.545-1.927-0.866-2.974-0.923
			C73.27,62.022,73.606,63.188,73.286,63.28z"/>
		<path style="stroke:#000000;stroke-width:0.25;stroke-linecap:round;stroke-linejoin:round;stroke-miterlimit:10;" d="
			M95.803,71.939c-1.46,0.419-3.125,1.048-4.014,1.423c-0.046-0.056-1.236-1.409-2.247-1.905c-0.58-0.284-1.24-0.444-1.876-0.331
			c0.204,0.263,0.527,0.4,0.787,0.607c0.262,0.208,0.462,0.492,0.57,0.808c0.118,0.347,0.126,0.725,0.251,1.07
			c0.126,0.348,0.373,0.651,0.689,0.845c-0.306,0.281-0.517,0.665-0.588,1.075c-0.072,0.413-0.011,0.859-0.197,1.234
			c-0.151,0.304-0.439,0.51-0.717,0.705c0.077,0.06,0.18,0.076,0.278,0.081c0.52,0.024,1.025-0.21,1.428-0.54
			c0.403-0.329,0.72-0.749,1.036-1.163c0.251-0.329,0.503-0.66,0.71-1.017c1.685,0.717,2.796,1.377,4.721,1.806
			c0.009,0.057,0.019,0.114,0.027,0.17c0.069,0.481-0.014,1.134-0.221,1.574c0.579-0.194,1.168-0.393,1.664-0.749
			c0.315-0.226,0.59-0.527,0.758-0.872c0.177-0.021,0.355-0.045,0.536-0.075c1.395-0.233,3.776-1.585,4.609-2.728
			c0.059-0.081,0.119-0.169,0.125-0.269c0.014-0.232-2.305-1.766-5.873-2.282c-0.896-0.545-1.927-0.866-2.974-0.923
			C95.788,70.681,96.124,71.847,95.803,71.939z"/>
		<path style="stroke:#000000;stroke-width:0.25;stroke-linecap:round;stroke-linejoin:round;stroke-miterlimit:10;" d="
			M79.99,56.942c0.118,0.347,0.126,0.725,0.25,1.07c0.126,0.348,0.373,0.651,0.689,0.845c-0.306,0.281-0.516,0.665-0.588,1.075
			c-0.072,0.413-0.011,0.859-0.197,1.234c-0.151,0.304-0.439,0.51-0.717,0.705c0.077,0.06,0.18,0.076,0.278,0.081
			c0.52,0.024,1.025-0.21,1.428-0.54c0.403-0.329,0.72-0.749,1.036-1.163c0.251-0.329,0.503-0.66,0.71-1.017
			c1.685,0.717,2.796,1.377,4.721,1.806c0.009,0.057,0.019,0.114,0.027,0.17c0.069,0.481-0.014,1.134-0.221,1.574
			c0.579-0.194,1.168-0.393,1.664-0.749c0.315-0.226,0.59-0.527,0.758-0.872c0.177-0.021,0.355-0.045,0.536-0.075
			c1.395-0.233,3.776-1.585,4.609-2.728c0.059-0.081,0.119-0.169,0.125-0.269c0.014-0.232-2.305-1.766-5.873-2.282
			c-0.896-0.545-1.927-0.866-2.974-0.923c0.505,0.201,0.841,1.366,0.521,1.458c-1.46,0.418-3.125,1.048-4.014,1.423
			c-0.046-0.056-1.236-1.409-2.247-1.905c-0.58-0.284-1.24-0.444-1.876-0.331c0.204,0.263,0.527,0.4,0.787,0.607
			C79.682,56.342,79.882,56.626,79.99,56.942z"/>
		<path style="stroke:#000000;stroke-width:0.25;stroke-linecap:round;stroke-linejoin:round;stroke-miterlimit:10;" d="
			M318.692,32.696c-1.702-0.25-3.522-0.794-5.437-1.226c-0.304-0.069-0.49-0.394-0.372-0.683c0.422-1.028,1.029-1.978,1.724-2.848
			c0.471-0.59,0.998-1.178,1.178-1.912c-1.191-0.075-2.272,0.64-3.249,1.324c-1.272,0.89-2.561,1.806-3.659,2.892
			c-0.123,0.121-0.296,0.173-0.465,0.136c-4.904-1.102-9.754-2.184-13.071-2.898c-3.258-0.701-6.332-1.221-9.242-1.596
			c-0.383-0.049-0.567-0.483-0.345-0.799c1.019-1.446,3.75-4.376,5.766-5.915c0.391-0.299,0.169-0.934-0.323-0.913
			c-7.694,0.337-16.694,6.008-17.827,6.78c-0.077,0.053-0.166,0.065-0.258,0.08c-14.379,2.31-24.932,5.547-28.911,7.909
			c-0.575,0.341-1.188,0.772-1.323,1.427c-0.224,1.085,0.949,1.902,1.966,2.342c0.665,0.288,1.339,0.553,2.021,0.798
			c0.458,0.164,0.444,0.832-0.026,0.961c-0.012,0.003-0.024,0.007-0.036,0.01c-0.443,0.124-0.493,0.749-0.078,0.948
			c4.992,2.388,16.348,5.066,29.536,5.903c0.112,0.007,0.219,0.052,0.302,0.128c1.109,1.005,2.341,1.883,3.639,2.628
			c2.274,1.307,4.746,2.23,7.273,2.945c0.464,0.131,0.836-0.39,0.558-0.784c-0.928-1.315-1.956-3.082-2.495-4.063
			c-0.184-0.335,0.05-0.741,0.432-0.749c7.246-0.154,15.746-0.855,22.63-2.603c0.14-0.036,0.284-0.006,0.402,0.078
			c0.421,0.298,0.864,0.564,1.322,0.79c1.713,0.846,3.602,1.25,5.479,1.619c-0.756-0.241-1.283-1.029-1.627-1.779
			c-0.246-0.536-0.445-1.09-0.622-1.652c-0.082-0.262,0.065-0.54,0.324-0.63c2.092-0.719,3.958-2.028,6.07-2.467
			c4.517-0.937,7.68,7.615,15.262,9.337c-0.234-0.733-0.698-1.4-1.164-2.054c-2.336-3.279-2.673-3.275-4.749-6.673
			c-0.438-0.716-0.859-1.465-1.084-2.239c2.419-4.093,16-13.948,19.603-16.99c0.376-0.317-7.326-1.471-24.576,11.832
			C321.854,33.161,319.285,32.783,318.692,32.696z"/>
		<path style="stroke:#000000;stroke-width:0.25;stroke-linecap:round;stroke-linejoin:round;stroke-miterlimit:10;" d="
			M285.962,10.655c2.473,1.183,8.099,2.51,14.632,2.925c0.056,0.004,0.108,0.026,0.15,0.063c0.549,0.498,1.16,0.933,1.803,1.302
			c1.127,0.647,2.351,1.105,3.603,1.459c0.23,0.065,0.414-0.193,0.277-0.388c-0.46-0.652-0.969-1.527-1.236-2.013
			c-0.091-0.166,0.025-0.367,0.214-0.371c3.59-0.076,7.801-0.424,11.211-1.29c0.069-0.018,0.141-0.003,0.199,0.038
			c0.208,0.147,0.428,0.279,0.655,0.391c0.849,0.419,1.784,0.619,2.714,0.802c-0.374-0.12-0.636-0.51-0.806-0.881
			c-0.122-0.266-0.221-0.54-0.308-0.818c-0.041-0.13,0.032-0.268,0.161-0.312c1.036-0.356,1.961-1.005,3.007-1.222
			c2.238-0.464,1.23,1.802,4.987,2.655c-0.116-0.363-0.78-3.079-0.892-3.462c1.198-2.028,7.926-6.91,9.711-8.417
			c0.186-0.157-3.629-0.729-12.175,5.861c-0.688,0.53-1.96,0.343-2.254,0.3c-0.843-0.124-1.745-0.393-2.694-0.607
			c-0.151-0.034-0.243-0.195-0.184-0.338c0.209-0.509,0.51-0.98,0.854-1.411c0.234-0.292,0.494-0.584,0.584-0.947
			c-0.59-0.037-1.125,0.317-1.61,0.656c-0.63,0.441-1.269,0.895-1.813,1.433c-0.061,0.06-0.147,0.086-0.23,0.067
			c-2.429-0.546-4.832-1.082-6.475-1.436c-1.614-0.347-3.137-0.605-4.578-0.791c-0.19-0.025-0.281-0.24-0.171-0.396
			c0.505-0.716,2.94-3.393,2.697-3.383c-3.812,0.167-8.27,2.976-8.832,3.359c-0.038,0.026-0.082,0.032-0.128,0.04
			c-7.123,1.144-12.351,2.748-14.323,3.918c-0.285,0.169-0.588,0.383-0.655,0.707C283.945,8.686,285.756,10.557,285.962,10.655z"/>
		<path style="stroke:#000000;stroke-width:0.25;stroke-linecap:round;stroke-linejoin:round;stroke-miterlimit:10;" d="
			M238.975,18.102c1.228,0.536,3.038,0.884,5.417,1.155c-0.509,0.611-0.852,1.363-0.951,2.153c0.553-0.544,1.276-0.877,1.99-1.18
			c0.595-0.252,1.2-0.477,1.806-0.703c0.989,0.079,2.032,0.155,3.17,0.228c0.047,0.003,0.092,0.021,0.128,0.049
			c0.47,0.384,5.815,2.138,5.696,1.988c-0.395-0.501-1.898-1.965-1.737-1.967c3.049-0.036,6.625-0.274,9.516-0.914
			c0.059-0.013,2.752,0.626,3.532,0.594c-0.153-0.234-1.424-1.141-1.315-1.174c0.878-0.265,1.659-0.755,2.547-0.915
			c1.898-0.341,3.738,1.332,6.935,2.008c-0.101-0.278-3.364-2.305-3.462-2.599c1.005-1.542,6.69-5.23,8.197-6.37
			c0.157-0.119-3.088-0.58-10.306,4.402c-0.581,0.401-1.663,0.25-1.913,0.215c-0.717-0.1-1.485-0.312-2.292-0.481
			c-0.128-0.027-0.207-0.151-0.159-0.26c0.174-0.388,0.607-1.554,0.68-1.831c-0.502-0.032-1.909,1.205-2.368,1.613
			c-0.051,0.046-0.124,0.065-0.195,0.05c-2.067-0.433-4.112-0.858-5.51-1.138c-1.374-0.276-2.669-0.482-3.895-0.633
			c-0.161-0.02-0.24-0.185-0.148-0.304c0.424-0.544,1.205-1.854,0.998-1.847c-3.237,0.104-5.735,1.501-6.21,1.79
			c-0.032,0.02-0.07,0.024-0.109,0.029c-6.044,0.829-9.459,2.695-11.126,3.577c-0.241,0.127-0.497,0.289-0.552,0.536
			C237.249,16.585,238.8,18.026,238.975,18.102z"/>
		<path style="stroke:#000000;stroke-width:0.25;stroke-linecap:round;stroke-linejoin:round;stroke-miterlimit:10;" d="
			M196.813,43.165c1.804,0,3.266-1.462,3.266-3.266s-1.462-3.266-3.266-3.266c-1.804,0-3.266,1.462-3.266,3.266
			S195.01,43.165,196.813,43.165z"/>
		<path style="stroke:#000000;stroke-width:0.25;stroke-linecap:round;stroke-linejoin:round;stroke-miterlimit:10;" d="
			M198.612,32.278c0,0.784,0.636,1.42,1.42,1.42c0.784,0,1.42-0.636,1.42-1.42s-0.636-1.42-1.42-1.42
			C199.247,30.858,198.612,31.494,198.612,32.278z"/>
		
			<circle style="stroke:#000000;stroke-width:0.25;stroke-linecap:round;stroke-linejoin:round;stroke-miterlimit:10;" cx="195.346" cy="30.006" r="1.799"/>
		<path style="stroke:#000000;stroke-width:0.25;stroke-linecap:round;stroke-linejoin:round;stroke-miterlimit:10;" d="
			M198.091,23.759c0.706,0,1.278-0.572,1.278-1.278c0-0.706-0.572-1.278-1.278-1.278s-1.278,0.572-1.278,1.278
			C196.813,23.186,197.386,23.759,198.091,23.759z"/>
		<path style="stroke:#000000;stroke-width:0.25;stroke-linecap:round;stroke-linejoin:round;stroke-miterlimit:10;" d="
			M194.139,49.247c0,0.993,0.805,1.799,1.799,1.799c0.993,0,1.799-0.805,1.799-1.799c0-0.993-0.805-1.799-1.799-1.799
			C194.945,47.448,194.139,48.253,194.139,49.247z"/>
		<path style="stroke:#000000;stroke-width:0.25;stroke-linecap:round;stroke-linejoin:round;stroke-miterlimit:10;" d="
			M10.424,87.79c0.208,0.035,0.414,0.062,0.617,0.087c0.194,0.398,0.51,0.745,0.873,1.006c0.572,0.41,1.251,0.64,1.918,0.864
			c-0.238-0.507-0.334-1.26-0.254-1.814c0.009-0.064,0.02-0.13,0.031-0.196c2.219-0.494,3.5-1.255,5.442-2.082
			c0.238,0.412,0.528,0.794,0.818,1.173c0.365,0.476,0.73,0.961,1.194,1.34s1.047,0.65,1.646,0.622
			c0.113-0.005,0.231-0.023,0.32-0.093c-0.32-0.224-0.653-0.462-0.827-0.812c-0.215-0.433-0.144-0.947-0.227-1.423
			c-0.082-0.472-0.325-0.915-0.678-1.239c0.364-0.223,0.648-0.573,0.794-0.974c0.144-0.398,0.153-0.833,0.289-1.234
			c0.124-0.365,0.355-0.692,0.657-0.932c0.3-0.238,0.673-0.396,0.908-0.699c-0.733-0.131-1.494,0.054-2.163,0.381
			c-1.166,0.571-2.538,2.132-2.59,2.196c-1.025-0.432-2.943-1.158-4.627-1.64c-0.37-0.106,0.018-1.45,0.6-1.681
			c-1.207,0.065-2.396,0.435-3.429,1.064c-4.112,0.596-6.786,2.364-6.77,2.631c0.007,0.115,0.076,0.217,0.144,0.311
			C6.071,85.963,8.817,87.521,10.424,87.79z"/>
		<path style="stroke:#000000;stroke-width:0.25;stroke-linecap:round;stroke-linejoin:round;stroke-miterlimit:10;" d="
			M41.032,35.679c1.688,0.385,2.232-0.269,3.161,0.244c0.299,0.165,0.741-0.015,0.944,0.234c0.08,0.098,0.118,0.221,0.216,0.307
			c0.141,0.125,0.342,0.131,0.545,0.116c-0.334,0.593-0.605,1.209-0.795,1.846c-0.022,0.073-0.039,0.157,0.028,0.226
			c0.068,0.069,0.193,0.094,0.305,0.112c1.037,0.171,2.073,0.355,3.108,0.539c-0.174,0.023-0.357,0.029-0.527,0.058
			c-0.438,0.074-0.839,0.34-1.078,0.714c-0.065,0.101-0.12,0.212-0.209,0.293c-0.155,0.139-0.38,0.161-0.57,0.247
			c-0.19,0.086-0.358,0.319-0.242,0.492c0.073,0.11,0.221,0.134,0.353,0.146c1.748,0.161,3.536-0.125,5.147-0.822
			c0.281-0.122,0.559-0.265,0.808-0.443l3.103,0.27c1.341,0.063,3.974,0.036,5.663-0.859c0.003,0.053,0.006,0.106,0.02,0.161
			c0.068,0.256,0.266,0.475,0.277,0.739c0.017,0.39-1.407,2.14-0.684,2.263c0.253,0.043,0.511-0.037,0.755-0.117
			c1.356-0.445,2.595-1.196,3.738-2.051c0.347-0.26,0.692-0.535,0.944-0.888c0.447-0.625,0.522-1.473,0.261-2.191
			c0.782-0.606,1.188-2,1.034-2.916c0.081-0.018,0.163-0.035,0.243-0.052c1.266-0.277,2.553-0.535,3.913-0.616
			c0.84-0.05,1.793-0.061,2.296-0.493c0.269-0.231,0.36-0.552,0.358-0.872c-0.002-0.485-0.211-1-0.655-1.422
			c-0.444-0.423-2.279-1.057-3.996-0.971c-1.945,0.098-3.267,0.844-4.725,1.563c-1.401-0.571-2.928-0.944-4.465-1.122
			c-0.091-0.437-0.292-0.99-0.795-1.882c-1.458-2.589-8.377-4.055-9.3-2.884c-0.18,0.228,0.033,0.551,0.409,0.687
			c0.482,0.174,0.962,0.356,1.395,0.592c0.517,0.282,0.97,0.654,1.156,1.077c0.126,0.285,0.123,0.578,0.07,0.856
			c-0.009,0.044-0.017,0.094,0.019,0.136c0.036,0.042,0.107,0.065,0.171,0.083c0.403,0.113,0.819,0.192,1.234,0.237
			c0.173,0.018,0.358,0.034,0.506,0.113c0.3,0.16,0.264,0.456,0.298,0.702c0.006,0.044,0.017,0.092,0.059,0.129
			c0.045,0.041,0.116,0.062,0.182,0.082c0.1,0.03,0.199,0.064,0.297,0.099c-2.891,0.378-5.416,1.458-7.297,2.929
			c-0.229,0.179-0.449,0.365-0.661,0.555C42.155,33.106,40.474,35.552,41.032,35.679z"/>
	</g>
</g>
<g id="Layer_1">
</g>
</svg>
