<?xml version="1.0" encoding="iso-8859-1"?>
<!-- Generator: Adobe Illustrator 23.1.0, SVG Export Plug-In . SVG Version: 6.00 Build 0)  -->
<svg version="1.1" xmlns="http://www.w3.org/2000/svg" xmlns:xlink="http://www.w3.org/1999/xlink" x="0px" y="0px"
	 viewBox="0 0 468.583 156.346" style="enable-background:new 0 0 468.583 156.346;" xml:space="preserve">
<g id="underwater-scene-silhouette-clip-art-1">
	<g>
		<path style="stroke:#000000;stroke-width:0.25;stroke-linecap:round;stroke-linejoin:round;stroke-miterlimit:10;" d="
			M463.318,135.327c-0.791-2.103-0.828-4.74-2.654-6.049c-1.972-1.414-4.737-0.347-7.114-0.83c-1.682-0.341-3.123-1.458-4.796-1.839
			c-0.855-0.195-1.741-0.19-2.618-0.185c-1.541,0.01-3.081,0.019-4.622,0.029c-2.29-0.807-4.397-2.129-6.12-3.839
			c-0.664-0.659-1.278-1.377-1.906-2.077c0.402-0.052,0.801-0.154,1.145-0.31c0.576-0.263,1.064-0.611,1.46-1.002
			c0.79-0.785,1.309-1.692,1.649-2.622c0.655-1.855,0.716-3.678,0.515-5.505c-0.973,1.571-1.67,3.197-2.563,4.489
			c-0.436,0.631-0.922,1.192-1.434,1.578c-0.253,0.192-0.503,0.336-0.732,0.411c-0.235,0.089-0.4,0.111-0.636,0.094
			c-0.081-0.001-0.182-0.021-0.279-0.036c0.011-0.004,0.022-0.007,0.033-0.011c0.727-0.284,1.419-0.734,2.007-1.296
			c0.578-0.571,1.026-1.272,1.339-1.957c0.602-1.384,0.791-2.676,1.053-3.823c0.121-0.573,0.267-1.103,0.437-1.582
			c0.172-0.471,0.423-0.944,0.731-1.461c0.304-0.514,0.66-1.071,0.959-1.69c0.3-0.61,0.529-1.243,0.708-1.881
			c0.33-1.285,0.478-2.593,0.328-3.874c-0.49,1.187-0.995,2.305-1.641,3.312c-0.316,0.504-0.653,0.985-1.016,1.43
			c-0.356,0.441-0.767,0.868-1.192,1.364c-0.422,0.491-0.866,1.061-1.206,1.726c-0.349,0.654-0.574,1.318-0.774,1.947
			c-0.383,1.255-0.628,2.44-1.039,3.341c-0.745,1.761-2.385,2.497-4.942,2.571c-0.557,0.038-1.257,0.223-1.838,0.556
			c0.144-0.969,0.433-1.815,0.955-2.437c0.643-0.822,1.751-1.454,2.997-2.452c2.461-2.051,3.98-4.984,4.44-8.007
			c0.233-1.516,0.168-3.044-0.11-4.508c-0.314-1.455-0.845-2.873-1.731-4.024c0.292,1.413,0.399,2.786,0.308,4.137
			c-0.06,1.346-0.319,2.66-0.698,3.895c-0.281,0.9-0.651,1.767-1.094,2.584c0.036-0.674,0.01-1.358-0.092-2.009
			c-0.155-0.949-0.4-1.809-0.622-2.603c-0.232-0.8-0.399-1.514-0.502-2.261c-0.092-0.75-0.123-1.523-0.091-2.305
			c0.089-3.154,1.273-6.315,2.312-9.585c-1.065,1.348-2.015,2.768-2.842,4.309c-0.793,1.548-1.444,3.233-1.743,5.027
			c-0.153,0.896-0.226,1.818-0.192,2.753c0.025,0.939,0.2,1.885,0.38,2.722c0.181,0.845,0.375,1.621,0.456,2.345
			c0.097,0.716,0.084,1.394-0.027,2.106c-0.209,1.422-0.783,2.794-1.613,4.076c-0.193,0.304-0.404,0.602-0.625,0.899
			c-0.398,0.368-0.787,0.782-1.133,1.279c-0.127,0.186-0.244,0.38-0.35,0.579c-0.308,0.375-0.622,0.771-0.921,1.208
			c-0.245,0.357-0.47,0.748-0.664,1.159c-0.142-1.216-0.047-2.548,0.106-3.917c0.182-1.624,0.435-3.187,0.954-4.595
			c0.507-1.435,1.324-2.865,2.056-4.483c0.36-0.81,0.706-1.663,0.946-2.568c0.25-0.906,0.378-1.843,0.419-2.756
			c0.081-1.833-0.21-3.611-0.654-5.298c-0.477-1.685-1.091-3.285-1.828-4.844c0.283,3.427,0.779,6.801,0.215,9.909
			c-0.253,1.555-0.806,2.917-1.573,4.355c-0.715,1.367-1.582,2.808-2.221,4.471c-0.164-0.616-0.355-1.22-0.582-1.801
			c-0.537-1.382-1.198-2.658-1.865-3.881c-0.371-0.674-0.737-1.339-1.088-2.007c0.302-0.513,0.572-1.044,0.761-1.611
			c0.263-0.788,0.397-1.612,0.53-2.431c0.089-0.548,0.175-1.124-0.017-1.644c-0.176-0.474-0.562-0.837-0.96-1.148
			c-1.265-0.986-2.796-1.629-4.385-1.842c-0.284-0.038-0.577-0.062-0.854,0.009c-0.33,0.084-0.613,0.296-0.867,0.522
			c-0.132,0.117-0.253,0.245-0.374,0.371c-0.036-1.004-0.256-2.05-0.944-2.776c-0.486-0.512-1.161-0.799-1.863-0.909
			c0.344-1.535,0.504-3.112,0.466-4.685c-0.016-0.666-0.078-1.368-0.456-1.917c-0.406-0.589-1.107-0.9-1.797-1.089
			c-1.319-0.36-2.704-0.372-4.068-0.464c-0.49-0.033-0.993-0.075-1.463,0.068c-0.366,0.111-0.693,0.331-0.975,0.59
			c-1.062,0.975-1.498,2.489-1.469,3.93c0.022,1.111,0.288,2.196,0.614,3.262c-0.802,0.22-1.578,0.567-2.338,0.912
			c-0.655,0.297-1.31,0.594-1.965,0.891c-0.539-0.843-1.225-1.643-2.072-2.323c-0.852-0.696-1.896-1.19-2.937-1.488
			c-1.059-0.318-2.107-0.358-3.102-0.357c-0.985,0.05-1.923,0.166-2.803,0.341c-0.696,0.136-1.358,0.288-2.005,0.439
			c-0.285-0.329-0.565-0.662-0.811-1.03c-1.25-1.787-2.053-3.965-2.524-6.249c-0.947-4.596-0.275-9.644,0.047-14.723
			c-0.996,2.353-1.821,4.756-2.445,7.271c-0.577,2.514-0.938,5.161-0.718,7.874c0.211,2.602,0.916,5.25,2.314,7.636
			c-1.073,0.085-2.115,0.026-3.135-0.321c-0.797-0.264-1.558-0.706-2.275-1.265c-0.837-1.681-1.63-3.498-2.52-5.295
			c-1.016-1.944-2.184-3.912-3.824-5.391c1.854,3.975,2.209,8.098,3.69,12.405c0.757,2.13,1.811,4.268,3.463,6.132
			c0.828,0.926,1.832,1.747,2.959,2.395c0.039,0.022,0.079,0.038,0.118,0.059c-0.159-0.032-0.32-0.06-0.472-0.104
			c-1.879-0.487-3.643-1.82-5.037-3.536c-1.415-1.704-2.508-3.79-3.474-6.034c-0.97-2.24-1.886-4.603-2.976-6.93
			c-1.134-2.298-2.47-4.593-4.335-6.35c2.314,4.553,2.874,9.392,4.357,14.363c0.728,2.474,1.769,5.009,3.436,7.284
			c1.64,2.248,3.991,4.255,7.004,5.068c3.062,0.774,5.825,0.149,8.162-0.095c0.396-0.043,0.781-0.08,1.16-0.104
			c-2.11,0.797-4.141,1.641-6.162,2.329c-2.077,0.704-4.208,1.371-5.96,1.311c-0.887-0.025-1.603-0.234-2.24-0.661
			c-0.648-0.44-1.275-1.204-1.914-2.114c-0.644-0.901-1.322-1.962-2.267-2.903c-0.937-0.915-2.007-1.652-3.146-2.195
			c-2.298-1.032-4.892-1.301-7.145-0.579c2.339,0.172,4.468,0.977,6.151,2.273c0.842,0.637,1.578,1.38,2.151,2.209
			c0.562,0.813,1.015,1.778,1.575,2.84c0.562,1.046,1.238,2.24,2.409,3.238c1.167,1.027,2.748,1.552,4.156,1.678
			c1.43,0.135,2.76-0.05,4.006-0.304c0.905-0.208,1.766-0.457,2.618-0.725c-0.993,0.985-1.779,2.169-2.248,3.493
			c-0.236,0.669-0.409,1.381-0.845,1.941c-1.818,2.334-5.735,0.003-8.475,1.12c-2.292,0.934-2.927,3.876-4.682,5.622
			c-0.627,0.624-1.394,1.088-2.068,1.66c-1.939,1.645-2.932,3.975-3.485,6.494c-2.072-0.514-4.262-0.271-5.604,1.299
			c-0.726,0.85-1.336,2.121-2.453,2.077c-0.967-0.038-1.532-1.067-1.969-1.931c-3.658-7.246-11.859-11.935-19.959-11.411
			c-0.835,0.054-1.701,0.149-2.57,0.229c0.329-0.543,0.619-1.108,0.82-1.711c0.263-0.788,0.397-1.612,0.53-2.431
			c0.089-0.547,0.175-1.124-0.017-1.644c-0.176-0.474-0.562-0.837-0.96-1.148c-1.265-0.986-2.796-1.629-4.385-1.842
			c-0.284-0.038-0.577-0.062-0.854,0.009c-0.33,0.084-0.613,0.296-0.867,0.522c-0.132,0.117-0.253,0.245-0.374,0.371
			c-0.036-1.004-0.256-2.05-0.944-2.776c-0.486-0.512-1.161-0.799-1.863-0.909c0.344-1.535,0.504-3.112,0.466-4.685
			c-0.016-0.666-0.078-1.368-0.456-1.917c-0.406-0.589-1.107-0.9-1.797-1.089c-1.319-0.36-2.704-0.372-4.068-0.464
			c-0.49-0.033-0.993-0.075-1.463,0.068c-0.366,0.111-0.693,0.331-0.975,0.59c-1.008,0.926-1.447,2.336-1.465,3.71
			c-0.719,0.741-1.293,1.636-1.689,2.598c-0.276,0.652-0.454,1.364-0.58,2.041c-0.007,0.003-0.015,0.007-0.022,0.01
			c-0.011-0.049-0.022-0.101-0.033-0.146c-0.179-0.714-0.292-1.216-0.338-1.829c-0.057-0.594-0.052-1.207,0.001-1.824
			c0.18-2.493,1.136-4.95,2.103-7.598c0.479-1.321,0.904-2.718,1.179-4.147c0.241-1.434,0.34-2.917,0.047-4.326
			c-0.68,2.783-1.971,5.102-3.314,7.542c-0.667,1.224-1.328,2.499-1.865,3.881c-0.227,0.582-0.418,1.186-0.582,1.801
			c-0.64-1.663-1.506-3.105-2.221-4.471c-0.767-1.438-1.32-2.8-1.573-4.355c-0.564-3.108-0.068-6.482,0.215-9.909
			c-0.737,1.559-1.352,3.159-1.828,4.844c-0.444,1.687-0.354,3.575-0.131,5.397c0.521,4.25,2.391,8.273,2.898,9.709
			c0.519,1.408,0.772,2.971,0.954,4.595c0.154,1.369,0.249,2.701,0.107,3.917c-0.194-0.411-0.419-0.802-0.664-1.159
			c-0.298-0.437-0.612-0.833-0.921-1.208c-0.107-0.199-0.224-0.393-0.35-0.579c-0.346-0.496-0.735-0.911-1.133-1.279
			c-0.22-0.297-0.432-0.595-0.625-0.899c-0.829-1.282-1.404-2.654-1.613-4.076c-0.111-0.712-0.124-1.39-0.027-2.106
			c0.081-0.725,0.275-1.5,0.456-2.345c0.18-0.837,0.355-1.783,0.38-2.722c0.034-0.935-0.039-1.857-0.192-2.753
			c-0.3-1.794-0.95-3.479-1.743-5.027c-0.826-1.54-1.777-2.961-2.842-4.309c1.039,3.27,2.222,6.431,2.312,9.585
			c0.032,0.783,0.001,1.555-0.091,2.305c-0.103,0.747-0.27,1.461-0.502,2.261c-0.222,0.794-0.467,1.653-0.622,2.603
			c-0.102,0.651-0.128,1.336-0.092,2.009c-0.444-0.817-0.813-1.684-1.094-2.584c-0.38-1.235-0.638-2.549-0.698-3.895
			c-0.092-1.351,0.016-2.724,0.308-4.137c-0.887,1.152-1.417,2.569-1.731,4.024c-0.278,1.464-0.342,2.992-0.11,4.508
			c0.46,3.023,1.979,5.956,4.44,8.007c1.246,0.998,2.354,1.629,2.997,2.452c0.522,0.622,0.811,1.468,0.955,2.437
			c-0.581-0.333-1.281-0.518-1.838-0.556c-2.557-0.074-4.197-0.811-4.942-2.571c-0.412-0.901-0.656-2.086-1.039-3.341
			c-0.201-0.629-0.425-1.293-0.774-1.947c-0.341-0.665-0.784-1.236-1.206-1.726c-0.425-0.496-0.836-0.923-1.192-1.364
			c-0.362-0.445-0.699-0.926-1.016-1.43c-0.646-1.008-1.151-2.125-1.641-3.312c-0.15,1.28-0.003,2.589,0.328,3.874
			c0.178,0.638,0.408,1.271,0.708,1.881c0.299,0.619,0.655,1.177,0.959,1.69c0.308,0.516,0.559,0.989,0.731,1.461
			c0.17,0.479,0.316,1.01,0.437,1.582c0.261,1.146,0.451,2.439,1.053,3.823c0.313,0.685,0.761,1.387,1.339,1.957
			c0.588,0.562,1.28,1.012,2.007,1.296c0.011,0.004,0.022,0.007,0.033,0.011c-0.096,0.016-0.198,0.036-0.279,0.036
			c-0.237,0.016-0.402-0.005-0.636-0.094c-0.229-0.075-0.479-0.219-0.732-0.411c-0.511-0.386-0.998-0.947-1.434-1.578
			c-0.893-1.291-1.59-2.917-2.563-4.489c-0.201,1.827-0.141,3.65,0.515,5.505c0.34,0.93,0.858,1.837,1.649,2.622
			c0.043,0.042,0.098,0.077,0.142,0.118c-6.25,1.156-12.093,1.887-19.572,1.178c-2.137-0.202-4.841-4.924-6.736-6.796
			c0.698-0.484,1.532-0.864,2.42-1.392c1.953-1.161,1.953-2.804,2.83-4.675c0.815-1.738-1.77-3.263-2.59-1.514
			c-0.445,0.949-0.553,2.453-1.25,3.23c-0.696,0.775-1.98,0.995-2.852,1.526c-0.779,0.474-1.429,1.098-1.948,1.815
			c-0.057-2.238,0.282-4.372,1.657-6.237c1.196-1.622,1.423-3.066,1.182-5.083c-0.226-1.893-3.229-1.916-3,0
			c0.177,1.482-0.129,2.406-0.922,3.639c-0.23,0.358-0.454,0.679-0.656,1.015c-0.843-2.5-1.375-4.794-0.675-7.927
			c0.42-1.881-2.471-2.684-2.893-0.798c-0.633,2.833-0.744,5.667,0.009,8.495c0.364,1.366,1.109,2.51,1.559,3.818
			c0.442,1.286,0.422,2.33,0.227,3.34c-0.37,0.023-0.726,0.044-1.067,0.061c-0.035-0.906-0.127-1.8-0.425-2.64
			c-0.821-2.321-3.043-3.559-3.354-6.145c-0.39-3.241,1.63-7.052-1.471-9.292c-1.567-1.132-3.066,1.469-1.514,2.59
			c0.876,0.633,0.2,3.515-0.023,5.026c-0.272-0.263-0.547-0.531-0.81-0.847c-1.726-2.077-1.469-5.839-2.593-8.387
			c-0.778-1.763-3.363-0.238-2.59,1.514c1.227,2.78,0.472,6.049,2.513,8.438c1.069,1.252,1.902,2.011,2.502,3.539
			c-3.435-1.462-6.858-2.881-6.745-7.108c0.052-1.931-2.948-1.93-3,0c-0.083,3.124,1.222,5.894,3.868,7.629
			c2.808,1.841,8.746,2.301,9.577,6.023c-1.886,1.166-3.085,4.635-4.727,6.393c-1.726,1.846-5.099,4.597-7.604,4.927
			c-3.953,0.521-4.766,4.41-8.719,4.931c-1.407,0.185-2.89,0.362-4.205-0.171c-1.703-0.69-3.071-2.526-4.893-2.287
			c-1.773,0.232-2.627,2.25-3.988,3.411c-1.957,1.669-4.847,1.455-7.394,1.1c-3.137-0.436-6.262-0.952-9.377-1.528
			c-0.028-0.034-0.051-0.071-0.079-0.105c0.346-0.13,0.692-0.261,1.034-0.402c0.945-0.39,1.912-0.852,2.526-1.669
			c0.675-0.898,0.817-2.081,0.849-3.204c0.081-2.839-0.396-5.693-1.395-8.352c-0.067-0.177-0.147-0.367-0.311-0.46
			c-0.2-0.113-0.45-0.044-0.669,0.028c-2.213,0.727-4.434,1.459-6.571,2.38c-0.074-0.094,2.12-2.257,2.9-3.525
			c0.319-0.518,0.646-1.06,0.709-1.665c0.057-0.553-0.112-1.102-0.312-1.621c-0.461-1.198-1.205-1.805-2.032-2.787
			c-0.845-1.004-4.74,0.828-5.922,2.244c0.167-1.902-0.774-3.936-2.217-5.276c-1.894-1.759-4.441-2.599-6.902-3.389
			c-0.713-0.229-1.554-0.441-2.16,0c-0.346,0.251-0.53,0.663-0.695,1.057c-1.013,2.422-1.842,4.918-2.524,7.454
			c-0.485-0.2-0.982-0.372-1.477-0.546c0.155-0.95,0.223-1.913,0.2-2.875c-0.013-0.54-0.064-1.108-0.37-1.553
			c-0.329-0.477-0.897-0.729-1.456-0.882c-0.954-0.26-1.951-0.297-2.94-0.355c0.011-1.962-0.085-4.115-0.498-5.604
			c-0.387-1.398-1.065-2.844-2.352-3.514c-0.892-0.465-1.944-0.486-2.95-0.461c-1.497,0.037-2.067-0.084-3.488,0.387
			c-0.792,0.263-2.103,1.951-2.125,2.281c-0.185,2.793,0.482,4.471,1.083,7.205c0.388,1.763,0.728,3.536,1.035,5.315
			c-0.057-0.119-0.102-0.242-0.161-0.361c-0.531-1.052-1.192-2.098-2.203-2.703c-1.769-1.057-4.022-0.476-5.991,0.133
			c-0.368,0.114-0.756,0.241-1.006,0.534c-0.211,0.248-0.291,0.58-0.348,0.9c-0.441,2.459,0.063,4.951,0.995,7.296
			c-0.264-0.158-0.527-0.316-0.791-0.474c-0.146-0.088-0.302-0.178-0.472-0.182c-0.359-0.008-0.603,0.35-0.774,0.665
			c-0.857,1.584-1.649,3.204-2.372,4.853c-0.032,0.073-0.064,0.153-0.044,0.229c0.023,0.086,0.105,0.141,0.18,0.189
			c1.405,0.879,2.811,1.758,4.216,2.637c-0.316,1.12-0.806,2.171-1.556,3.072c-1.87,2.247-5.708,2.988-7.703,0.852
			c-1.365-1.461-1.676-3.923-3.491-4.76c-1.044-0.482-2.259-0.245-3.392-0.048c-3.465,0.602-7.008,0.72-10.511,0.394
			c0.014-0.02,0.031-0.034,0.044-0.055c0.502-0.762,1.177-1.473,2.033-1.841c1.04-0.447,2.141-0.071,3.222-0.314
			c1.683-0.378,2.394-1.852,3.637-2.869c1.496-1.222-0.638-3.334-2.121-2.121c-0.673,0.55-1.195,1.642-1.972,2.009
			c-0.859,0.406-2.239-0.021-3.206,0.266c-0.906,0.269-1.712,0.74-2.419,1.337c-0.198-0.517-0.481-0.852-0.807-1.191
			c0.092-0.064,0.183-0.13,0.268-0.205c2.085-1.849,4.187-2.879,6.805-3.837c1.798-0.658,1.021-3.558-0.798-2.893
			c-1.438,0.526-2.896,1.053-4.261,1.752c-1.046,0.536-1.969,1.378-2.935,2.064c0.224-0.48,0.544-0.992,0.841-1.599
			c0.845-1.728-1.741-3.25-2.59-1.514c-0.743,1.519-1.846,3.037-1.808,4.719c-0.323,0.121-0.632,0.248-0.926,0.386
			c-0.136-0.645-0.225-1.301-0.115-2.003c0.374-2.392,2.989-3.723,4.878-5.247c1.503-1.212-0.632-3.323-2.121-2.121
			c-2.626,2.119-6.197,3.786-6.268,7.312c-1.353-1.136-3.15-1.764-4.579-2.796c1.256-3.918,4.031-7.544,4.951-11.702
			c0.416-1.881-2.476-2.685-2.893-0.798c-0.802,3.629-2.86,6.699-4.289,9.967c-1.913-3.388-1.234-7.741-1.166-11.574
			c0.034-1.931-2.966-1.931-3,0c-0.091,5.138-1.391,11.583,2.909,15.268c0.011,0.01,0.023,0.018,0.034,0.028
			c-0.099,0.492-0.173,0.992-0.215,1.504c-0.097-0.169-0.19-0.339-0.294-0.504c-1.379-2.195-4.085-4.064-6.452-3.006
			c-2.42,1.082-3.046,2.457-5.553,3.318c-0.965,0.332-2.058,2.343-3.074,2.247c-2.798-0.266-5.596-0.123-8.382,0.226
			c0.08-0.655,0.118-1.283,0.134-1.858c0.014-0.713,0.04-1.349,0.105-2.033c0.13-1.358,0.383-2.721,0.818-4.253
			c-1.405,0.792-2.413,2.177-3.03,3.677c-0.283,0.669-0.466,1.402-0.592,2.094c-0.015-0.062-0.028-0.131-0.043-0.189
			c-0.179-0.714-0.292-1.216-0.338-1.829c-0.057-0.594-0.052-1.207,0.001-1.824c0.18-2.493,1.136-4.95,2.103-7.598
			c0.479-1.321,0.904-2.718,1.179-4.147c0.241-1.434,0.34-2.917,0.047-4.326c-0.68,2.783-1.971,5.102-3.314,7.542
			c-0.667,1.224-1.328,2.499-1.865,3.881c-0.227,0.582-0.418,1.186-0.582,1.801c-0.639-1.663-1.506-3.105-2.221-4.471
			c-0.767-1.438-1.32-2.8-1.573-4.355c-0.564-3.108-0.068-6.482,0.215-9.909c-0.737,1.559-1.352,3.159-1.828,4.844
			c-0.444,1.687-0.735,3.465-0.654,5.298c0.041,0.913,0.169,1.85,0.419,2.756c0.24,0.905,0.586,1.758,0.946,2.568
			c0.732,1.618,1.549,3.048,2.056,4.483c0.519,1.408,0.772,2.971,0.954,4.595c0.154,1.369,0.249,2.701,0.107,3.917
			c-0.194-0.411-0.419-0.802-0.664-1.159c-0.298-0.437-0.612-0.833-0.921-1.208c-0.107-0.199-0.224-0.393-0.35-0.579
			c-0.346-0.496-0.735-0.911-1.133-1.279c-0.22-0.297-0.432-0.595-0.624-0.899c-0.829-1.282-1.404-2.654-1.613-4.076
			c-0.111-0.712-0.124-1.39-0.027-2.106c0.081-0.725,0.275-1.5,0.456-2.345c0.18-0.837,0.355-1.783,0.38-2.722
			c0.034-0.935-0.039-1.857-0.192-2.753c-0.3-1.794-0.95-3.479-1.743-5.027c-0.826-1.54-1.777-2.961-2.842-4.309
			c1.039,3.27,2.222,6.431,2.312,9.585c0.032,0.783,0.001,1.555-0.091,2.305c-0.103,0.747-0.27,1.461-0.502,2.261
			c-0.222,0.794-0.467,1.653-0.622,2.603c-0.102,0.651-0.128,1.336-0.092,2.009c-0.444-0.817-0.813-1.684-1.094-2.584
			c-0.38-1.235-0.638-2.549-0.698-3.895c-0.092-1.351,0.016-2.724,0.308-4.137c-0.887,1.152-1.417,2.569-1.731,4.024
			c-0.278,1.464-0.342,2.992-0.11,4.508c0.46,3.023,1.979,5.956,4.44,8.007c1.246,0.998,2.354,1.629,2.997,2.452
			c0.522,0.622,0.811,1.468,0.955,2.437c-0.581-0.333-1.281-0.518-1.838-0.556c-2.557-0.074-4.197-0.811-4.942-2.571
			c-0.412-0.901-0.656-2.086-1.039-3.341c-0.201-0.629-0.425-1.293-0.774-1.947c-0.341-0.665-0.784-1.236-1.206-1.726
			c-0.425-0.496-0.836-0.923-1.192-1.364c-0.362-0.445-0.699-0.926-1.016-1.43c-0.646-1.008-1.151-2.125-1.641-3.313
			c-0.15,1.28-0.003,2.589,0.328,3.874c0.178,0.638,0.408,1.271,0.708,1.881c0.299,0.619,0.655,1.177,0.959,1.69
			c0.308,0.516,0.559,0.989,0.731,1.461c0.17,0.479,0.316,1.01,0.437,1.582c0.261,1.146,0.451,2.439,1.053,3.823
			c0.313,0.685,0.761,1.387,1.339,1.957c0.588,0.562,1.28,1.012,2.007,1.296c0.011,0.004,0.022,0.007,0.033,0.011
			c-0.096,0.016-0.198,0.036-0.279,0.036c-0.237,0.016-0.402-0.005-0.636-0.094c-0.229-0.075-0.479-0.219-0.732-0.411
			c-0.511-0.386-0.998-0.947-1.434-1.578c-0.893-1.291-1.59-2.917-2.563-4.489c-0.201,1.827-0.141,3.65,0.515,5.505
			c0.34,0.93,0.858,1.837,1.649,2.622c0.397,0.391,0.884,0.738,1.46,1.001c0.568,0.258,1.286,0.387,1.922,0.345
			c0.243-0.022,0.457-0.063,0.67-0.105c-4.633,5.831-13.469,5.711-20.937,5.013c-1.734-0.162-3.569-0.362-4.953-1.419
			c-1.677-1.281-2.644-3.73-4.229-4.846c-0.285-1.233-0.546-2.468-0.569-3.729c-0.032-1.797,0.418-3.565,0.9-5.297
			c0.574-2.062,1.219-4.153,2.471-5.889c0.481-0.667,1.054-1.286,1.36-2.05s0.272-1.745-0.347-2.286
			c-0.811-0.709-2.114-0.288-2.929,0.417c-0.824,0.713-1.426,1.679-1.702,2.734c-0.414,1.587-0.229,3.565-1.552,4.534
			c-1.101-1.029-1.297-2.666-1.808-4.083c-0.454-1.26-1.203-2.413-2.169-3.341c-0.315-0.303-0.805-0.591-1.154-0.329
			c-0.271,0.204-0.261,0.608-0.209,0.943c0.386,2.469,1.598,4.716,2.515,7.04c0.876,2.222,1.484,4.709,0.816,6.985
			c-0.014-0.027-0.028-0.053-0.042-0.08c-0.825-1.581-1.822-3.309-3.533-3.81c-0.3-0.088-0.665-0.118-0.885,0.103
			c-0.209,0.21-0.195,0.549-0.149,0.842c0.211,1.363,0.782,2.669,1.639,3.75c0.93,1.173,2.201,2.105,2.835,3.461
			c0.023,0.048,0.034,0.1,0.055,0.149c-0.332,0.069-0.665,0.104-1.005,0.06c-2.013-0.257-2.939-2.9-4.899-3.428
			c-0.832-0.224-1.696-0.022-2.544,0.192c-0.023-0.453-0.057-0.905-0.113-1.356c-0.156-1.26-0.456-2.503-0.534-3.771
			c-0.079-1.291,0.076-2.586,0.316-3.858c0.692-3.668,2.105-7.199,4.134-10.333c0.487-0.753,1.015-1.489,1.68-2.091
			c0.842-0.762,1.899-1.308,2.555-2.236s0.662-2.478-0.363-2.966c-0.87-0.414-1.888,0.181-2.555,0.877
			c-1.74,1.819-2.484,4.39-4.111,6.31c-0.175,0.206-0.403,0.422-0.671,0.39c-0.321-0.038-0.486-0.398-0.574-0.709
			c-0.684-2.419-0.504-5.323-2.353-7.026c-1.584,1.103-1.759,3.416-1.262,5.28s1.498,3.596,1.731,5.512
			c0.473,3.89-2.287,7.676-2.284,11.478c-0.269-0.538-0.552-1.068-0.867-1.58c-0.696-1.132-1.514-2.233-1.809-3.529
			c-0.261-1.149-0.088-2.375-0.438-3.5c-0.559-1.797-2.561-3.016-4.414-2.687c-0.152,0.027-0.313,0.07-0.41,0.19
			c-0.103,0.128-0.106,0.307-0.101,0.471c0.09,2.854,0.973,5.679,2.524,8.076c1.215,1.878,2.845,3.526,3.617,5.626
			c0.217,0.591,0.347,1.198,0.429,1.813c-1.719-0.234-3.398-0.765-4.928-1.585c-0.758-0.407-1.524-0.894-2.384-0.917
			c-0.822-0.022-1.587,0.385-2.308,0.782c-2.099,1.154-4.199,2.309-6.298,3.463v43.155h468.333v-16.087
			C466.145,139.408,464.173,137.602,463.318,135.327z M111.082,114.35c-0.016,0.166-0.038,0.322-0.057,0.483
			c-0.515-0.083-1.029-0.245-1.513-0.471c-0.631-0.875-1.187-1.805-1.558-2.878c-0.481-1.389-0.627-2.704-0.555-3.973
			C109.724,108.888,111.514,109.994,111.082,114.35z M116.172,113.86c0.171-0.368,0.309-0.746,0.395-1.184
			c0.437-0.671,1.115-0.999,1.875-1.224c0.129,0.124,0.258,0.254,0.382,0.404c0.697,0.846,0.902,1.817,0.877,2.824
			C118.513,114.462,117.337,114.184,116.172,113.86z M381.507,91.273c-1.841-0.384-3.287-1.132-4.606-2.418
			c-0.543-0.53-1.038-1.142-1.508-1.793c1.482,0.827,3.248,1.118,4.842,1.13c0.272,0.001,0.537-0.016,0.804-0.026
			c0.204,0.204,0.41,0.406,0.624,0.596c1.074,0.941,2.221,1.707,3.351,2.391c0.473,0.274,0.939,0.536,1.404,0.797
			C384.648,91.721,382.981,91.602,381.507,91.273z M393.546,91.491l-3.258-1.912c-1.09-0.631-2.204-1.239-3.221-1.857
			c-0.054-0.032-0.101-0.066-0.155-0.098c1.04-0.054,1.999-0.016,2.805,0.228c1.67,0.382,2.989,1.847,4.021,3.755
			C393.675,91.568,393.61,91.53,393.546,91.491z M419.344,110.136c-0.046,0.614-0.159,1.115-0.338,1.829
			c-0.015,0.058-0.028,0.128-0.043,0.189c-0.126-0.692-0.309-1.425-0.592-2.094c-0.492-1.194-1.24-2.299-2.229-3.106
			c-0.173-2.015-0.102-4.103-1.211-5.522c0.489-0.395,0.967-0.803,1.415-1.244c0.186-0.183,0.358-0.38,0.533-0.573
			c0.12,0.368,0.231,0.743,0.36,1.1c0.966,2.648,1.922,5.105,2.103,7.598C419.396,108.929,419.401,109.542,419.344,110.136z"/>
		<path style="stroke:#000000;stroke-width:0.25;stroke-linecap:round;stroke-linejoin:round;stroke-miterlimit:10;" d="
			M106.729,36.267c-0.168,0.505-5.782,3.992-5.956,4.471c5.5-1.163,8.666-4.041,11.931-3.455c1.527,0.274,2.871,1.117,4.382,1.574
			c0.188,0.057-2,1.617-2.263,2.019c1.343,0.055,5.975-1.045,6.076-1.022c4.975,1.101,11.126,1.512,16.372,1.573
			c0.276,0.003-2.309,2.523-2.989,3.384c-0.203,0.258,8.992-2.76,9.8-3.42c0.061-0.05,0.138-0.08,0.219-0.085
			c1.957-0.126,3.752-0.256,5.454-0.393c1.041,0.388,2.083,0.775,3.107,1.209c1.229,0.521,2.472,1.093,3.424,2.029
			c-0.17-1.359-0.759-2.653-1.635-3.704c4.093-0.466,7.207-1.066,9.32-1.988c0.301-0.132,2.969-2.61,2.813-3.315
			c-0.094-0.426-0.535-0.703-0.95-0.922c-2.869-1.517-8.742-4.727-19.141-6.153c-0.067-0.009-0.131-0.017-0.187-0.051
			c-0.816-0.497-5.114-2.901-10.684-3.079c-0.356-0.011,0.987,2.242,1.717,3.178c0.159,0.204,0.024,0.488-0.254,0.522
			c-2.109,0.261-4.337,0.616-6.701,1.09c-2.406,0.483-5.924,1.214-9.48,1.958c-0.122,0.026-0.248-0.007-0.336-0.086
			c-0.789-0.702-3.211-2.829-4.074-2.774c0.127,0.477,0.87,2.483,1.171,3.15c0.084,0.187-0.052,0.4-0.273,0.447
			c-1.389,0.292-2.71,0.656-3.944,0.828c-0.43,0.06-2.292,0.32-3.291-0.37c-12.419-8.571-18.002-7.777-17.731-7.573
			C95.22,27.269,105,33.614,106.729,36.267z"/>
		<path style="stroke:#000000;stroke-width:0.25;stroke-linecap:round;stroke-linejoin:round;stroke-miterlimit:10;" d="
			M312.649,78.053c1.229-4.552,3.786-4.486,6.649-4.89c1.476-0.208,1.78-0.677,4.4-0.777c2.329-0.089,3.263,0.896,5.474,1.634
			c0.38,0.127,1.358,0.49,2.276,0.831c0.599,0.477,1.184,0.966,1.652,1.565c0.306,0.392,6.007,6.404,7.563,7.185
			c-1.145-1.155-2.16-2.433-3.204-3.677c-0.955-1.138-1.875-2.306-2.729-3.521c-0.544-0.774-1.074-1.594-1.482-2.459
			c-0.007-0.93-0.026-1.965,0.031-2.388c0.313-2.31,2.243-2.538,3.267-4.154c1.404-2.215,1.707-5.257,6.987-2.048
			c-4.301-8.671-12.021-5.262-18.618-5.642c-0.104-0.006-0.279-0.035-0.362-0.068c-0.477-0.987-1.316-1.949-2.246-2.178
			c0.423,0.315,0.759,0.738,1.044,1.182c0.285,0.444,0.175,1.15,0.018,1.654c-0.098,0.317-1.248,0.559-2.155,1.198
			c-0.247,0.174-0.556,0.228-0.849,0.154c-0.149-0.038-0.297-0.076-0.445-0.115c-0.37-0.099-0.752-0.212-1.039-0.466
			c-0.367-0.324-0.522-0.824-0.603-1.306c-0.2,0.684,0.152,1.229,0.413,1.783c0.174,0.369,0.688,0.721,1.028,0.938
			C317.117,68.472,309.599,70.907,312.649,78.053z"/>
		<path style="stroke:#000000;stroke-width:0.25;stroke-linecap:round;stroke-linejoin:round;stroke-miterlimit:10;" d="
			M330.925,44.26c3.512-0.782,6.933-2.008,10.576-2.119c3.239-0.099,6.406,0.693,9.481,1.511c0.528,0.14,1.889,0.544,3.165,0.921
			c0.832,0.528,1.646,1.071,2.297,1.735c0.426,0.435,8.353,7.097,10.516,7.964c-1.593-1.28-3.003-2.697-4.456-4.076
			c-1.328-1.261-2.607-2.556-3.795-3.903c-0.756-0.858-1.493-1.767-2.06-2.725c-0.01-1.031-0.036-2.178,0.043-2.647
			c0.435-2.56,0.94-5.176,2.48-7.449c1.733-2.558,4.622-4.464,7.051-6.631c2.678-2.39,4.836-5.15,6.348-8.12
			c-7.293,4.455-16.877,8.018-26.05,7.597c-0.144-0.007-0.388-0.039-0.503-0.076c-0.663-1.094-1.83-2.16-3.123-2.414
			c0.589,0.349,1.055,0.818,1.451,1.31s0.243,1.275,0.025,1.833c-0.137,0.351-3.194,2.096-4.455,2.804
			c-0.343,0.193-0.774,0.253-1.181,0.171c-0.207-0.042-0.413-0.084-0.619-0.128c-0.515-0.109-1.045-0.235-1.444-0.516
			c-0.51-0.359-0.725-0.913-0.838-1.448c-0.279,0.758,0.211,1.362,0.574,1.976c0.242,0.409,0.957,0.799,1.43,1.039
			c-3.617,6.633-10.717,11.135-18.856,14.35C322.993,45.448,327.053,45.122,330.925,44.26z"/>
		<path style="stroke:#000000;stroke-width:0.25;stroke-linecap:round;stroke-linejoin:round;stroke-miterlimit:10;" d="
			M46.959,59.968c0.064,0.096,0.076,0.216,0.048,0.328c-0.065,0.261-0.114,0.526-0.144,0.79c-0.013,0.114-0.023,0.229-0.033,0.345
			c-0.031,0.36-0.059,0.701-0.189,1c-0.159,0.368-0.451,0.624-0.669,0.775c-0.279,0.193-0.586,0.326-0.911,0.466
			c-0.463,0.2-0.941,0.407-1.367,0.804c-0.552,0.513-0.918,1.279-0.98,2.049c-0.013,0.166,0.085,0.315,0.232,0.373
			c0.042,0.017,0.088,0.026,0.137,0.026c0.19,0.001,0.353-0.155,0.369-0.344c0.048-0.581,0.333-1.179,0.746-1.564
			c0.332-0.309,0.733-0.483,1.157-0.666c0.063-0.027,0.128-0.056,0.192-0.084c-1.192,1.1-2.368,2.86-2.396,4.819
			c0,0.013,0.002,0.025,0.002,0.037c-0.808,0.367-1.567,1.167-1.593,2.149c-0.004,0.159,0.093,0.298,0.233,0.354
			c0.044,0.018,0.093,0.027,0.144,0.026c0.2-0.003,0.354-0.181,0.363-0.38c0.024-0.544,0.432-1.044,0.913-1.343
			c0.063,0.46,0.166,0.901,0.271,1.331c0.124,0.505,0.242,0.983,0.291,1.487c0.169,1.741-0.57,3.732-1.842,4.963
			c-0.14,0.136-0.178,0.359-0.058,0.513c0.043,0.055,0.097,0.094,0.156,0.118c0.13,0.052,0.285,0.027,0.392-0.077
			c0.19-0.182,0.369-0.38,0.537-0.589c-0.03,0.424-0.009,0.845,0.075,1.245c0.027,0.126,0.114,0.223,0.226,0.268
			c0.077,0.031,0.165,0.036,0.252,0.007c0.187-0.061,0.277-0.268,0.239-0.461c-0.329-1.651,0.576-3.757,1.99-4.615
			c0.086-0.052,0.173-0.1,0.261-0.149c0.299-0.166,0.637-0.353,0.908-0.677c0.384-0.46,0.525-1.064,0.65-1.597l0.045-0.189
			c0.325-1.348,0.913-2.531,1.654-3.375c0.001,0.166,0.005,0.332,0.009,0.5c0.02,0.81,0.039,1.576-0.248,2.289
			c-0.189,0.47-0.497,0.877-0.822,1.307c-0.074,0.098-0.148,0.195-0.22,0.293c-0.689,0.936-1.19,1.879-1.489,2.803
			c-0.358,1.107-0.429,2.223-0.2,3.144c0.03,0.12,0.115,0.212,0.223,0.254c0.069,0.027,0.147,0.034,0.225,0.015
			c0.198-0.049,0.319-0.25,0.269-0.448c-0.196-0.788-0.13-1.761,0.186-2.738c0.274-0.848,0.739-1.72,1.381-2.592
			c0.07-0.096,0.142-0.191,0.214-0.286c0.001-0.002,0.002-0.003,0.004-0.005c-0.028,0.269-0.012,0.538,0.066,0.794
			c0.034,0.112,0.117,0.195,0.217,0.235c0.075,0.03,0.161,0.035,0.245,0.01c0.195-0.06,0.305-0.267,0.245-0.462
			c-0.181-0.589,0.178-1.397,0.627-1.891c0.403-0.444,0.89-0.75,1.406-1.073c0.129-0.081,0.258-0.162,0.386-0.245
			c0.107-0.07,0.22-0.147,0.333-0.229c0.012,0.353,0.006,0.708-0.031,1.069c-0.051,0.496-0.155,0.887-0.319,1.194
			c-0.214,0.401-0.549,0.709-0.903,1.035l-0.134,0.124c-0.58,0.539-1.132,1.135-1.642,1.771c-0.312,0.389-0.628,0.82-0.828,1.331
			c-0.322,0.824-0.275,1.78,0.121,2.436c0.043,0.072,0.107,0.124,0.18,0.152c0.125,0.049,0.274,0.031,0.387-0.071
			c0.132-0.119,0.15-0.321,0.059-0.473c-0.272-0.46-0.296-1.171-0.06-1.774c0.164-0.419,0.441-0.794,0.717-1.138
			c0.487-0.608,1.015-1.177,1.569-1.692l0.131-0.121c0.384-0.353,0.781-0.719,1.054-1.231c0.21-0.394,0.342-0.874,0.402-1.468
			c0.06-0.593,0.045-1.17-0.001-1.736c0.288-0.29,0.552-0.63,0.742-1.042c0.265-0.576,0.339-1.183,0.411-1.77
			c0.023-0.186,0.045-0.372,0.075-0.556c0.033-0.208,0.077-0.415,0.128-0.621c0.04,0.189,0.09,0.375,0.16,0.548
			c0.121,0.298,0.278,0.557,0.429,0.808c0.19,0.314,0.369,0.61,0.459,0.952c0.14,0.533,0.058,1.224-0.219,1.849
			c-0.258,0.581-0.674,1.113-1.203,1.54c-0.159,0.128-0.184,0.361-0.056,0.52c0.041,0.051,0.094,0.089,0.151,0.111
			c0.12,0.048,0.261,0.031,0.369-0.056c0.62-0.5,1.109-1.128,1.415-1.816c0.348-0.784,0.442-1.636,0.258-2.337
			c-0.117-0.446-0.333-0.803-0.542-1.147c-0.143-0.236-0.278-0.459-0.377-0.702c-0.129-0.319-0.19-0.688-0.189-1.072
			c0.001-0.197,0.139-0.366,0.33-0.411c0.491-0.114,0.973-0.306,1.414-0.602c0.657-0.44,1.216-1.12,1.464-1.916
			c0.277-0.89,0.147-1.832-0.105-2.67c-0.395-1.314-1.13-2.463-2.126-3.252c-2.457-1.948-6.196-1.666-8.183,0.554
			c-0.478,0.534-0.795,1.227-1.054,1.911c-0.018,0.049-0.035,0.099-0.05,0.15C46.527,58.841,46.64,59.487,46.959,59.968z
			 M52.715,65.29c0.036-0.526,0.134-1.068,0.29-1.612c0.081-0.282,0.418-0.4,0.659-0.232c0.053,0.037,0.105,0.074,0.155,0.11
			c0.16,0.114,0.216,0.321,0.146,0.505c-0.207,0.545-0.362,1.107-0.451,1.672c-0.03,0.193-0.054,0.387-0.078,0.582
			c-0.068,0.555-0.132,1.079-0.349,1.551c-0.052,0.113-0.114,0.218-0.18,0.32c-0.011-0.086-0.021-0.171-0.032-0.256
			C52.762,67.029,52.655,66.18,52.715,65.29z M52.248,68.92c-0.224,0.192-0.457,0.356-0.671,0.495
			c-0.124,0.081-0.25,0.159-0.375,0.238c-0.448,0.281-0.906,0.576-1.32,0.967c0.155-0.671,0.14-1.349,0.124-2.009
			c-0.004-0.175-0.009-0.349-0.01-0.523c-0.001-0.222,0.007-0.443,0.019-0.664c0.126-0.093,0.254-0.184,0.39-0.277
			c0.374-0.257,0.761-0.522,1.093-0.907c0.184-0.213,0.336-0.444,0.465-0.689c-0.025,0.851,0.078,1.672,0.179,2.469
			C52.181,68.325,52.218,68.624,52.248,68.92z M51.991,62.511c0.001,0.001,0.002,0.001,0.004,0.002l-0.034,0.228
			c-0.171,1.164-0.377,2.27-1.023,3.017c-0.237,0.275-0.524,0.484-0.828,0.694c0.199-1.374,0.651-2.682,1.295-3.785
			C51.525,62.463,51.782,62.401,51.991,62.511z M49.937,61.923c0.033-0.08,0.07-0.157,0.109-0.233
			c0.106-0.206,0.361-0.28,0.571-0.18c0.023,0.011,0.046,0.022,0.069,0.034c0.22,0.112,0.303,0.388,0.175,0.599
			c-0.852,1.403-1.408,3.125-1.56,4.906c-1.504,1.266-2.159,3.218-2.416,4.284l-0.046,0.194c-0.111,0.475-0.226,0.967-0.498,1.292
			c-0.182,0.218-0.433,0.357-0.699,0.505c-0.096,0.053-0.192,0.107-0.286,0.164c-0.326,0.198-0.627,0.449-0.899,0.737
			c0.079-0.522,0.099-1.044,0.05-1.549c-0.054-0.557-0.183-1.083-0.308-1.592c-0.119-0.485-0.232-0.951-0.282-1.432
			c0.299-0.064,0.605-0.087,0.925-0.109c0.41-0.028,0.835-0.057,1.27-0.18c1.371-0.388,2.607-1.715,3.076-3.301
			c0.191-0.646,0.254-1.305,0.316-1.941C49.58,63.343,49.65,62.608,49.937,61.923z M49.501,61.139
			c-0.091,0.159-0.173,0.325-0.246,0.498c-0.33,0.789-0.41,1.614-0.487,2.412c-0.061,0.63-0.118,1.225-0.289,1.803
			c-0.393,1.331-1.45,2.483-2.568,2.799c-0.361,0.102-0.729,0.127-1.119,0.154c-0.291,0.02-0.589,0.042-0.893,0.096
			c0.095-1.499,1.03-3.181,2.429-4.338c0.162-0.134,0.328-0.261,0.493-0.388c0.375-0.288,0.763-0.585,1.111-0.962
			c0.57-0.618,0.963-1.353,1.253-2.16C49.3,61.085,49.405,61.114,49.501,61.139z M47.321,62.724c0.177-0.41,0.212-0.827,0.247-1.23
			c0.009-0.108,0.018-0.217,0.031-0.324c0.021-0.19,0.057-0.379,0.099-0.567c0.067,0.03,0.136,0.057,0.208,0.079
			c0.038,0.011,0.076,0.022,0.114,0.034c0.246,0.073,0.377,0.346,0.274,0.58c-0.233,0.528-0.525,1.007-0.903,1.416
			c-0.04,0.043-0.082,0.082-0.123,0.123C47.285,62.798,47.304,62.763,47.321,62.724z"/>
		<path style="stroke:#000000;stroke-width:0.25;stroke-linecap:round;stroke-linejoin:round;stroke-miterlimit:10;" d="
			M78.581,78.884c0.088,0.071,0.186,0.122,0.29,0.158c0.225,0.077,0.471,0.064,0.698-0.008l0.47-0.148
			c0.203-0.064,0.406,0.09,0.403,0.303c-0.006,0.395,0.029,0.794,0.115,1.183c0.148,0.674,0.454,1.343,0.928,1.865
			c0.464,0.52,0.995,0.855,1.48,1.168c0.488,0.31,0.947,0.595,1.31,0.95c0.178,0.178,0.327,0.376,0.446,0.591
			c0.055,0.105,0.09,0.2,0.098,0.276c0.01,0.071-0.01,0.157-0.065,0.262c-0.109,0.202-0.327,0.47-0.443,0.755
			c-0.126,0.284-0.203,0.595-0.197,0.907c-0.001,0.624,0.424,1.234,1.005,1.341c-0.273-0.096-0.483-0.307-0.604-0.549
			c-0.123-0.245-0.167-0.516-0.126-0.777c0.037-0.261,0.142-0.508,0.286-0.727c0.072-0.11,0.153-0.214,0.242-0.311
			c0.089-0.099,0.197-0.203,0.299-0.339c0.101-0.133,0.202-0.319,0.221-0.536c0.019-0.212-0.027-0.399-0.079-0.558
			c-0.108-0.311-0.263-0.603-0.452-0.865c-0.383-0.519-0.855-0.918-1.279-1.297c-0.425-0.377-0.817-0.745-1.057-1.134
			c-0.242-0.376-0.358-0.813-0.383-1.269c-0.012-0.223,0.002-0.446,0.035-0.669c0-0.003,0.004-0.004,0.006-0.002
			c0.277,0.292,0.592,0.492,0.896,0.647c0.472,0.231,0.886,0.327,1.248,0.435c0.364,0.105,0.647,0.198,0.893,0.35
			c0.256,0.154,0.503,0.375,0.736,0.634c0.472,0.533,0.875,1.132,0.931,1.704c0.014,0.145,0.009,0.273-0.024,0.444
			c-0.03,0.167-0.082,0.357-0.128,0.57c-0.045,0.211-0.086,0.458-0.061,0.731c0.024,0.275,0.14,0.562,0.318,0.769
			c0.175,0.209,0.379,0.345,0.567,0.452c0.19,0.108,0.372,0.19,0.539,0.275c0.167,0.084,0.306,0.17,0.447,0.276
			c0.135,0.11,0.265,0.23,0.379,0.368c0.458,0.547,0.704,1.3,0.607,2.044c-0.024,0.191-0.059,0.389-0.068,0.596
			c-0.01,0.203,0.012,0.43,0.128,0.617c0.112,0.189,0.316,0.302,0.515,0.335c0.201,0.035,0.402,0.015,0.593-0.029
			c-0.195,0.022-0.395,0.017-0.577-0.038c-0.182-0.054-0.338-0.172-0.411-0.335c-0.075-0.16-0.074-0.347-0.043-0.53
			c0.029-0.185,0.085-0.37,0.133-0.565c0.202-0.804,0.037-1.7-0.434-2.419c-0.117-0.181-0.258-0.348-0.411-0.504
			c-0.155-0.151-0.337-0.294-0.51-0.407c-0.342-0.223-0.67-0.419-0.798-0.634c-0.064-0.104-0.085-0.202-0.082-0.32
			c0.006-0.12,0.04-0.265,0.098-0.432c0.056-0.166,0.13-0.349,0.197-0.563c0.068-0.208,0.12-0.472,0.125-0.721
			c0.013-0.504-0.12-0.976-0.298-1.391c-0.159-0.365-0.349-0.689-0.558-1.002l0.305,0.1c0.572,0.189,1.112,0.387,1.57,0.674
			c0.441,0.277,0.839,0.682,1.061,1.155c0.111,0.236,0.177,0.487,0.182,0.741c0.002,0.064-0.007,0.126-0.008,0.19
			c-0.012,0.063-0.02,0.124-0.035,0.191c-0.016,0.072-0.06,0.187-0.042,0.352c0.021,0.167,0.117,0.291,0.196,0.365
			c0.17,0.148,0.285,0.197,0.419,0.29l0.392,0.251c0.258,0.169,0.531,0.333,0.772,0.503c0.234,0.17,0.455,0.389,0.494,0.667
			c0.018,0.139-0.012,0.289-0.084,0.417c-0.072,0.126-0.202,0.229-0.36,0.237c0.157,0.017,0.317-0.069,0.417-0.198
			c0.1-0.129,0.161-0.291,0.165-0.462c0.003-0.355-0.227-0.647-0.452-0.871c-0.235-0.225-0.47-0.417-0.703-0.624l-0.351-0.306
			c-0.109-0.099-0.258-0.215-0.309-0.285c-0.027-0.037-0.02-0.051-0.012-0.04c0.004,0.009,0.013-0.027,0.046-0.1
			c0.031-0.08,0.06-0.17,0.088-0.256c0.018-0.089,0.043-0.178,0.054-0.269c0.051-0.364,0.009-0.736-0.093-1.081
			c-0.209-0.692-0.635-1.28-1.175-1.749c-0.535-0.458-1.134-0.776-1.701-1.063l-0.827-0.416c-0.259-0.136-0.528-0.281-0.724-0.419
			c-0.199-0.138-0.317-0.277-0.347-0.374c-0.031-0.092-0.046-0.221-0.019-0.387c0.03-0.219,0.152-0.482,0.337-0.797
			c0.094-0.159,0.305-0.197,0.454-0.088c0.073,0.053,0.146,0.101,0.219,0.145c0.414,0.251,0.828,0.39,1.228,0.491
			c0.805,0.188,1.484,0.199,2.084,0.365c0.301,0.081,0.569,0.191,0.814,0.37c0.246,0.177,0.466,0.41,0.643,0.683
			c0.348,0.538,0.52,1.231,0.404,1.927c-0.001,0.004,0.005,0.006,0.006,0.002c0.292-0.643,0.327-1.431,0.089-2.159
			c-0.12-0.369-0.308-0.726-0.567-1.044c-0.256-0.322-0.601-0.589-0.948-0.787c-0.699-0.403-1.39-0.711-1.958-0.907
			c-0.351-0.121,0.051-0.102,0.181-0.236c1.909-1.972-2.287-4.817-4.523-5.279c-3.809-0.788-6.027,2.785-6.461,4.673
			c-0.188,0.819-0.139,1.677,0.021,2.501C78.187,78.269,78.295,78.653,78.581,78.884z M83.755,77.721
			c0.2-0.063,0.405,0.082,0.413,0.292c0.006,0.22,0.039,0.452,0.106,0.683c-0.106-0.052-0.205-0.105-0.283-0.158
			c-0.232-0.151-0.395-0.345-0.422-0.461c-0.019-0.06-0.01-0.09-0.002-0.143C83.598,77.791,83.755,77.721,83.755,77.721z"/>
		<path style="stroke:#000000;stroke-width:0.25;stroke-linecap:round;stroke-linejoin:round;stroke-miterlimit:10;" d="
			M230.824,101.057c0.003-0.083-0.007-0.186-0.082-0.22c-0.041-0.019-0.09-0.01-0.134,0c-0.676,0.159-1.223,0.643-1.843,0.957
			c-0.171,0.086-0.349,0.156-0.53,0.216c0.003-0.131,0.014-0.262,0.014-0.393c0.005-1.156-0.1-2.373-0.744-3.332
			c-0.773-1.152-2.218-1.728-3.606-1.728c-4.913,0-5.87,2.303-6.323,2.659c-1.044,0.82-1.624,1.674-2.476,2.693
			c-1.118,1.337-2.647,1.556-3.434,2.259c-0.208,0.186,0.236,0.732,0.5,0.818c1.635,0.534,3.086,0.76,4.632,1.513
			c0.979,0.477,2.149,0.98,3.105,1.501c1.844,1.005,4.205,0.99,6.036-0.038c0.548-0.308,1.057-0.707,1.407-1.23
			c0.439-0.657,0.596-1.459,0.702-2.242c0.009-0.069,0.013-0.138,0.021-0.206c0.835,0.926,1.132,1.603,2.373,1.602
			c-0.082-0.712-0.114-0.863-0.099-1.599C230.366,103.196,230.781,102.146,230.824,101.057z"/>
		<path style="stroke:#000000;stroke-width:0.25;stroke-linecap:round;stroke-linejoin:round;stroke-miterlimit:10;" d="
			M249.196,78.259c0.009,0.069,0.012,0.138,0.021,0.206c0.106,0.783,0.263,1.585,0.702,2.242c0.349,0.523,0.858,0.922,1.406,1.23
			c1.831,1.028,4.192,1.043,6.036,0.038c0.956-0.521,2.126-1.024,3.105-1.501c1.546-0.753,2.997-0.979,4.632-1.513
			c0.265-0.086,0.708-0.633,0.5-0.818c-0.787-0.703-2.315-0.922-3.434-2.259c-0.852-1.019-1.431-1.872-2.476-2.693
			c-0.453-0.356-1.41-2.659-6.323-2.659c-1.387,0-2.833,0.576-3.606,1.728c-0.644,0.96-0.749,2.177-0.744,3.332
			c0.001,0.131,0.012,0.262,0.015,0.393c-0.182-0.06-0.36-0.13-0.53-0.216c-0.62-0.314-1.166-0.797-1.843-0.957
			c-0.044-0.01-0.092-0.019-0.134,0c-0.076,0.035-0.086,0.137-0.083,0.22c0.043,1.088,0.458,2.138,0.479,3.227
			c0.015,0.736-0.017,0.887-0.099,1.599C248.063,79.862,248.361,79.185,249.196,78.259z"/>
		<path style="stroke:#000000;stroke-width:0.25;stroke-linecap:round;stroke-linejoin:round;stroke-miterlimit:10;" d="
			M137.054,76.2c0-1.804-1.462-3.266-3.266-3.266c-1.804,0-3.266,1.462-3.266,3.266c0,1.804,1.462,3.266,3.266,3.266
			C135.592,79.466,137.054,78.004,137.054,76.2z"/>
		<path style="stroke:#000000;stroke-width:0.25;stroke-linecap:round;stroke-linejoin:round;stroke-miterlimit:10;" d="
			M138.426,68.579c0-0.784-0.636-1.42-1.42-1.42c-0.784,0-1.42,0.636-1.42,1.42c0,0.784,0.636,1.42,1.42,1.42
			C137.79,69.999,138.426,69.363,138.426,68.579z"/>
		<path style="stroke:#000000;stroke-width:0.25;stroke-linecap:round;stroke-linejoin:round;stroke-miterlimit:10;" d="
			M132.321,64.509c-0.993,0-1.799,0.805-1.799,1.799c0,0.993,0.805,1.799,1.799,1.799c0.993,0,1.799-0.805,1.799-1.799
			C134.119,65.314,133.314,64.509,132.321,64.509z"/>
		<path style="stroke:#000000;stroke-width:0.25;stroke-linecap:round;stroke-linejoin:round;stroke-miterlimit:10;" d="
			M135.066,60.059c0.706,0,1.278-0.572,1.278-1.278c0-0.706-0.572-1.278-1.278-1.278s-1.278,0.572-1.278,1.278
			C133.788,59.487,134.36,60.059,135.066,60.059z"/>
		<path style="stroke:#000000;stroke-width:0.25;stroke-linecap:round;stroke-linejoin:round;stroke-miterlimit:10;" d="
			M131.114,85.548c0,0.993,0.805,1.799,1.799,1.799c0.993,0,1.799-0.805,1.799-1.799c0-0.993-0.805-1.799-1.799-1.799
			C131.919,83.749,131.114,84.554,131.114,85.548z"/>
		<path style="stroke:#000000;stroke-width:0.25;stroke-linecap:round;stroke-linejoin:round;stroke-miterlimit:10;" d="
			M395.999,60.809c1.213,0,2.196-0.983,2.196-2.197c0-1.213-0.983-2.196-2.196-2.196s-2.197,0.983-2.197,2.196
			C393.802,59.826,394.786,60.809,395.999,60.809z"/>
		<path style="stroke:#000000;stroke-width:0.25;stroke-linecap:round;stroke-linejoin:round;stroke-miterlimit:10;" d="
			M397.208,53.488c0,0.527,0.428,0.955,0.955,0.955s0.955-0.428,0.955-0.955c0-0.527-0.428-0.955-0.955-0.955
			S397.208,52.96,397.208,53.488z"/>
		<path style="stroke:#000000;stroke-width:0.25;stroke-linecap:round;stroke-linejoin:round;stroke-miterlimit:10;" d="
			M392.656,54.379c0.668,0,1.21-0.542,1.21-1.21s-0.542-1.21-1.21-1.21c-0.668,0-1.21,0.542-1.21,1.21
			S391.988,54.379,392.656,54.379z"/>
		<path style="stroke:#000000;stroke-width:0.25;stroke-linecap:round;stroke-linejoin:round;stroke-miterlimit:10;" d="
			M396.859,47.758c0.475,0,0.859-0.385,0.859-0.859s-0.385-0.86-0.859-0.86c-0.475,0-0.859,0.385-0.859,0.86
			S396.384,47.758,396.859,47.758z"/>
		<path style="stroke:#000000;stroke-width:0.25;stroke-linecap:round;stroke-linejoin:round;stroke-miterlimit:10;" d="
			M395.713,67.494c0,0.633,0.513,1.146,1.146,1.146c0.633,0,1.146-0.513,1.146-1.146c0-0.633-0.513-1.146-1.146-1.146
			C396.226,66.349,395.713,66.862,395.713,67.494z"/>
		<path style="stroke:#000000;stroke-width:0.25;stroke-linecap:round;stroke-linejoin:round;stroke-miterlimit:10;" d="
			M167.125,18.816c3.065,2.023,7.055,1.563,10.726,1.435c4.12-0.144,8.319,0.281,12.233,1.517
			c6.023,7.468,20.356,19.567,41.625,22.34c-3.015,2.969-6.513,5.489-10.133,7.703c-1.709,1.045-3.551,2.134-4.424,3.938
			c3.124-0.194,6.234-0.628,9.292-1.297c3.995-0.873,8.026-2.216,11.087-4.929c1.477-1.31,2.677-3.001,3.399-4.84
			c1.857-0.006,3.763-0.097,5.705-0.255c-1.944,2.504-4.17,4.849-5.917,7.497c-1.742,2.639-3.002,5.595-3.699,8.678
			c2.176-1.955,4.862-3.235,7.28-4.882c4.696-3.199,8.362-7.867,10.423-13.158c6.14-2.628,10.673-7.434,14.453-10.528
			c5.027-4.116,9.455-5.012,12.188-10.906c1.069-2.306,3.417-8.552-0.658-8.789c-11.86-0.688-28.515,5.204-36.851,6.911
			c-10.689,2.636-23.832,3.978-34.758,2.625c-4.363-0.54-8.923-1.547-12.59-3.822c3.197-3.757,8.932-5.149,11.954-9.195
			c1.835-2.457,2.443-5.786,1.594-8.733c-3.712,2.921-7.955,5.164-12.458,6.587c-1.388,0.439-2.821,0.809-4.06,1.573
			c-2.181,1.345-3.41,3.698-4.011,6.24c-1.313-0.753-2.701-1.32-4.202-1.439c-2.223-0.176-4.384,0.645-6.539,1.217
			c-4.289,1.137-8.832,1.302-13.192,0.477C164.703,16.116,165.787,17.933,167.125,18.816z"/>
		<path style="stroke:#000000;stroke-width:0.25;stroke-linecap:round;stroke-linejoin:round;stroke-miterlimit:10;" d="
			M413.389,62.169c0.118,0.347,0.126,0.725,0.251,1.07c0.126,0.348,0.373,0.651,0.689,0.845c-0.306,0.281-0.517,0.665-0.588,1.075
			c-0.072,0.413-0.011,0.859-0.197,1.234c-0.151,0.304-0.439,0.51-0.717,0.705c0.077,0.061,0.18,0.076,0.278,0.081
			c0.52,0.024,1.025-0.21,1.428-0.54c0.403-0.329,0.72-0.749,1.036-1.163c0.252-0.329,0.503-0.66,0.71-1.017
			c1.685,0.717,2.796,1.377,4.721,1.806c0.009,0.057,0.019,0.114,0.027,0.17c0.069,0.481-0.014,1.134-0.221,1.574
			c0.579-0.194,1.168-0.393,1.664-0.749c0.315-0.226,0.59-0.527,0.758-0.872c0.177-0.021,0.355-0.045,0.536-0.075
			c1.395-0.233,3.776-1.585,4.609-2.728c0.059-0.081,0.119-0.169,0.125-0.269c0.014-0.232-2.305-1.766-5.873-2.282
			c-0.896-0.545-1.927-0.866-2.974-0.923c0.506,0.201,0.841,1.366,0.521,1.458c-1.46,0.418-3.125,1.048-4.014,1.423
			c-0.046-0.056-1.236-1.409-2.247-1.905c-0.58-0.284-1.24-0.444-1.876-0.331c0.204,0.263,0.527,0.4,0.787,0.607
			C413.081,61.569,413.282,61.853,413.389,62.169z"/>
		<path style="stroke:#000000;stroke-width:0.25;stroke-linecap:round;stroke-linejoin:round;stroke-miterlimit:10;" d="
			M442.686,70.226c-1.46,0.418-3.125,1.048-4.014,1.423c-0.046-0.056-1.236-1.409-2.247-1.905c-0.58-0.284-1.24-0.444-1.876-0.331
			c0.204,0.263,0.527,0.4,0.787,0.607c0.262,0.208,0.462,0.492,0.57,0.808c0.118,0.347,0.126,0.725,0.25,1.07
			c0.126,0.348,0.373,0.651,0.689,0.845c-0.306,0.281-0.517,0.665-0.588,1.075c-0.072,0.413-0.011,0.859-0.197,1.234
			c-0.151,0.304-0.439,0.51-0.717,0.705c0.077,0.061,0.18,0.076,0.278,0.081c0.52,0.024,1.025-0.21,1.428-0.54
			c0.403-0.329,0.72-0.749,1.036-1.163c0.251-0.329,0.503-0.66,0.71-1.017c1.685,0.717,2.796,1.377,4.721,1.806
			c0.009,0.057,0.019,0.114,0.027,0.17c0.069,0.481-0.014,1.134-0.221,1.574c0.579-0.194,1.168-0.393,1.664-0.749
			c0.315-0.226,0.59-0.527,0.758-0.872c0.177-0.021,0.355-0.045,0.536-0.075c1.395-0.233,3.776-1.585,4.609-2.728
			c0.059-0.081,0.119-0.169,0.125-0.269c0.014-0.232-2.305-1.766-5.873-2.282c-0.896-0.545-1.927-0.866-2.974-0.923
			C442.671,68.968,443.007,70.134,442.686,70.226z"/>
		<path style="stroke:#000000;stroke-width:0.25;stroke-linecap:round;stroke-linejoin:round;stroke-miterlimit:10;" d="
			M426.873,55.229c0.118,0.347,0.126,0.725,0.251,1.07c0.126,0.348,0.373,0.651,0.689,0.845c-0.306,0.281-0.517,0.665-0.588,1.075
			c-0.072,0.413-0.011,0.859-0.197,1.234c-0.151,0.304-0.439,0.51-0.717,0.705c0.077,0.061,0.18,0.076,0.278,0.081
			c0.52,0.024,1.025-0.21,1.428-0.54s0.72-0.749,1.036-1.163c0.251-0.329,0.503-0.66,0.71-1.017
			c1.685,0.717,2.796,1.377,4.721,1.806c0.009,0.057,0.019,0.114,0.027,0.17c0.069,0.481-0.014,1.134-0.221,1.574
			c0.579-0.194,1.168-0.393,1.664-0.749c0.315-0.226,0.59-0.527,0.758-0.872c0.177-0.021,0.355-0.045,0.536-0.075
			c1.395-0.233,3.776-1.585,4.609-2.728c0.059-0.081,0.119-0.169,0.125-0.269c0.014-0.232-2.305-1.766-5.873-2.282
			c-0.896-0.545-1.927-0.866-2.974-0.923c0.505,0.201,0.841,1.366,0.521,1.458c-1.46,0.418-3.125,1.048-4.014,1.423
			c-0.046-0.055-1.236-1.409-2.247-1.905c-0.58-0.284-1.24-0.444-1.876-0.331c0.204,0.263,0.527,0.4,0.787,0.607
			C426.565,54.629,426.765,54.913,426.873,55.229z"/>
		<path style="stroke:#000000;stroke-width:0.25;stroke-linecap:round;stroke-linejoin:round;stroke-miterlimit:10;" d="
			M18.538,39.712c0.118,0.347,0.126,0.725,0.251,1.07c0.126,0.348,0.373,0.651,0.689,0.845c-0.306,0.281-0.517,0.665-0.588,1.075
			c-0.072,0.413-0.011,0.859-0.197,1.234c-0.151,0.304-0.439,0.51-0.717,0.705c0.077,0.061,0.18,0.076,0.278,0.081
			c0.52,0.024,1.025-0.21,1.428-0.54c0.403-0.329,0.72-0.749,1.036-1.163c0.251-0.329,0.503-0.66,0.71-1.017
			c1.685,0.717,2.796,1.377,4.721,1.806c0.009,0.057,0.019,0.114,0.027,0.17c0.069,0.481-0.014,1.134-0.221,1.574
			c0.579-0.194,1.168-0.393,1.664-0.749c0.315-0.226,0.59-0.527,0.758-0.872c0.177-0.021,0.355-0.045,0.536-0.075
			c1.395-0.233,3.776-1.585,4.609-2.728c0.059-0.081,0.119-0.169,0.125-0.269c0.014-0.232-2.305-1.766-5.873-2.282
			c-0.896-0.545-1.927-0.866-2.974-0.923c0.505,0.201,0.841,1.366,0.521,1.458c-1.46,0.418-3.125,1.048-4.014,1.423
			c-0.046-0.056-1.236-1.409-2.247-1.905c-0.58-0.284-1.24-0.444-1.876-0.331c0.204,0.263,0.527,0.4,0.787,0.607
			C18.23,39.111,18.43,39.395,18.538,39.712z"/>
		<path style="stroke:#000000;stroke-width:0.25;stroke-linecap:round;stroke-linejoin:round;stroke-miterlimit:10;" d="
			M7.062,66.69c0.118,0.347,0.126,0.725,0.251,1.07c0.126,0.348,0.373,0.651,0.689,0.845c-0.306,0.281-0.517,0.665-0.588,1.075
			c-0.072,0.413-0.011,0.859-0.197,1.234c-0.151,0.304-0.439,0.51-0.717,0.705c0.077,0.061,0.18,0.076,0.278,0.081
			c0.52,0.024,1.025-0.21,1.428-0.54s0.72-0.749,1.036-1.163c0.251-0.329,0.503-0.66,0.71-1.017
			c1.685,0.717,2.796,1.377,4.721,1.806c0.009,0.057,0.019,0.114,0.027,0.17c0.069,0.481-0.014,1.134-0.221,1.574
			c0.579-0.194,1.168-0.393,1.664-0.749c0.315-0.226,0.59-0.527,0.758-0.872c0.177-0.021,0.355-0.045,0.536-0.075
			c1.395-0.233,3.776-1.585,4.609-2.728c0.059-0.081,0.119-0.169,0.125-0.269c0.014-0.232-2.305-1.766-5.873-2.282
			c-0.896-0.545-1.927-0.866-2.974-0.923c0.505,0.201,0.841,1.366,0.521,1.458c-1.46,0.418-3.125,1.048-4.014,1.423
			c-0.046-0.055-1.236-1.409-2.247-1.905c-0.58-0.284-1.24-0.444-1.876-0.331c0.204,0.263,0.527,0.4,0.787,0.607
			C6.754,66.089,6.954,66.373,7.062,66.69z"/>
		<path style="stroke:#000000;stroke-width:0.25;stroke-linecap:round;stroke-linejoin:round;stroke-miterlimit:10;" d="
			M30.238,44.453c0.204,0.263,0.527,0.4,0.787,0.607c0.262,0.208,0.462,0.492,0.57,0.808c0.118,0.347,0.126,0.725,0.251,1.07
			c0.126,0.348,0.373,0.651,0.689,0.845c-0.306,0.281-0.517,0.665-0.588,1.075c-0.072,0.413-0.011,0.859-0.197,1.234
			c-0.151,0.304-0.439,0.51-0.717,0.705c0.077,0.061,0.18,0.076,0.278,0.081c0.52,0.024,1.025-0.21,1.428-0.54
			s0.72-0.749,1.036-1.163c0.252-0.329,0.503-0.66,0.71-1.017c1.685,0.717,2.796,1.377,4.721,1.806
			c0.009,0.057,0.019,0.114,0.027,0.17c0.069,0.481-0.014,1.134-0.221,1.574c0.579-0.194,1.168-0.393,1.664-0.749
			c0.315-0.226,0.59-0.527,0.758-0.872c0.177-0.021,0.355-0.045,0.536-0.075c1.395-0.233,3.776-1.585,4.609-2.728
			c0.059-0.081,0.119-0.169,0.125-0.269c0.014-0.232-2.305-1.766-5.873-2.282c-0.896-0.545-1.927-0.866-2.974-0.923
			c0.506,0.201,0.841,1.366,0.521,1.458c-1.46,0.418-3.125,1.048-4.014,1.423c-0.046-0.056-1.236-1.409-2.247-1.905
			C31.534,44.5,30.874,44.34,30.238,44.453z"/>
		
			<circle style="stroke:#000000;stroke-width:0.25;stroke-linecap:round;stroke-linejoin:round;stroke-miterlimit:10;" cx="197.513" cy="88.786" r="2.197"/>
		
			<circle style="stroke:#000000;stroke-width:0.25;stroke-linecap:round;stroke-linejoin:round;stroke-miterlimit:10;" cx="194.362" cy="81.751" r="0.955"/>
		<path style="stroke:#000000;stroke-width:0.25;stroke-linecap:round;stroke-linejoin:round;stroke-miterlimit:10;" d="
			M200.792,82.706c0-0.668-0.542-1.21-1.21-1.21s-1.21,0.542-1.21,1.21c0,0.668,0.542,1.21,1.21,1.21S200.792,83.374,200.792,82.706
			z"/>
		
			<circle style="stroke:#000000;stroke-width:0.25;stroke-linecap:round;stroke-linejoin:round;stroke-miterlimit:10;" cx="198.373" cy="77.071" r="0.859"/>
		<path style="stroke:#000000;stroke-width:0.25;stroke-linecap:round;stroke-linejoin:round;stroke-miterlimit:10;" d="M59,53.704
			c0.187-0.089,0.267-0.313,0.178-0.5c-0.103-0.215,0.024-0.546,0.265-0.694c0.252-0.154,0.625-0.163,0.973-0.021
			c0.383,0.157,0.712,0.467,0.956,0.721l0.111,0.116c0.315,0.332,0.672,0.707,1.173,0.863c0.178,0.056,0.371,0.083,0.593,0.083
			c0.079,0,0.161-0.003,0.248-0.01c0.457-0.034,0.896-0.165,1.311-0.352c-0.109,0.211-0.205,0.429-0.274,0.658
			c-0.06,0.199-0.1,0.4-0.133,0.601c-0.123,0.038-0.249,0.082-0.37,0.116c-0.765,0.217-1.67,0.428-2.557,0.349l-0.17-0.017
			c-0.233-0.024-0.497-0.053-0.77-0.009c-0.46,0.077-0.828,0.373-0.938,0.756c-0.077,0.269-0.003,0.573,0.19,0.792
			c0.148,0.168,0.344,0.259,0.549,0.259c0.036,0,0.071-0.003,0.107-0.008c0.205-0.032,0.361-0.222,0.329-0.426
			s-0.209-0.339-0.412-0.311c-0.023-0.013-0.051-0.072-0.043-0.1c0.029-0.101,0.171-0.194,0.339-0.222
			c0.169-0.03,0.362-0.008,0.566,0.014l0.184,0.019c1.011,0.084,1.995-0.141,2.827-0.375c0.025-0.007,0.052-0.017,0.077-0.024
			c-0.01,0.161-0.017,0.322-0.024,0.481c-0.019,0.432-0.037,0.839-0.104,1.24c-0.154,0.916-0.586,1.796-1.216,2.479
			c-0.298,0.323-0.638,0.604-0.996,0.901c-0.331,0.273-0.672,0.556-0.981,0.877c-0.501,0.52-0.812,1.09-0.96,1.654
			c-0.36,0.784-0.411,1.713,0.109,2.466c0.073,0.105,0.19,0.162,0.309,0.162c0.073,0,0.147-0.021,0.213-0.066
			c0.17-0.118,0.213-0.352,0.095-0.522c-0.042-0.061-0.07-0.128-0.101-0.194c0.008,0,0.012,0.008,0.02,0.008
			c0.01,0,0.02,0,0.029-0.001c0.207-0.016,0.361-0.196,0.345-0.403c-0.033-0.437,0.352-0.808,0.831-1.001
			c-0.035,0.108-0.071,0.216-0.105,0.323c-0.281,0.887-0.546,1.726-1.17,2.285c-0.312,0.278-0.698,0.472-1.108,0.676
			c-0.227,0.113-0.454,0.227-0.671,0.355c-0.873,0.517-1.373,1.238-1.372,1.979c0,0.207,0.168,0.375,0.375,0.375c0,0,0,0,0,0
			c0.207,0,0.375-0.168,0.375-0.375c0-0.666,0.702-1.154,1.004-1.333c0.202-0.12,0.413-0.225,0.624-0.33
			c0.436-0.218,0.887-0.442,1.273-0.789c0.777-0.695,1.087-1.672,1.386-2.617c0.074-0.235,0.149-0.462,0.228-0.685
			c0.295,0,0.593,0.022,0.907,0.056c0.446,0.049,0.909,0.098,1.379,0.053c0.235-0.023,0.463-0.083,0.689-0.152
			c0.013,0.115,0.04,0.226,0.099,0.324c0.07,0.118,0.195,0.183,0.322,0.183c0.065,0,0.132-0.017,0.192-0.053
			c0.178-0.106,0.236-0.336,0.129-0.514c-0.017-0.028-0.009-0.111,0.042-0.181c0.082-0.112,0.235-0.193,0.36-0.25
			c0.22-0.102,0.453-0.174,0.691-0.236c-0.078,0.079-0.156,0.157-0.239,0.237c-0.354,0.342-0.719,0.696-0.932,1.184
			c-0.238,0.543-0.226,1.11-0.215,1.659c0.004,0.224,0.009,0.447-0.005,0.667c-0.04,0.598-0.379,1.25-0.858,1.258
			c-0.207,0.004-0.372,0.175-0.368,0.382c0.004,0.205,0.171,0.368,0.375,0.368c0.002,0,0.004,0,0.007,0
			c0.951-0.017,1.53-1.021,1.592-1.958c0.016-0.241,0.012-0.487,0.007-0.731c-0.01-0.489-0.019-0.952,0.153-1.344
			c0.154-0.353,0.451-0.641,0.766-0.945c0.226-0.218,0.458-0.444,0.656-0.709c0.065-0.087,0.117-0.187,0.173-0.282
			c0.017-0.003,0.033-0.005,0.05-0.008c0.295-0.045,0.59-0.091,0.881-0.151c0.914-0.188,2.108-0.639,2.615-1.711
			c0.264-0.561,0.275-1.188,0.26-1.612c-0.009-0.239-0.04-0.476-0.069-0.713c0.259-0.149,0.504-0.321,0.708-0.557
			c0.484-0.562,0.652-1.285,0.772-1.918c0.053-0.282,0.088-0.569,0.129-0.854c0.397-0.158,0.783-0.366,1.129-0.66
			c0.589-0.501,1.064-1.232,1.233-2.048c0.189-0.912-0.014-1.836-0.324-2.646c-0.486-1.269-1.282-2.341-2.297-3.029
			c-2.503-1.7-6.039-1.056-7.745,1.345c-0.41,0.578-0.654,1.297-0.844,2.003c-0.014,0.05-0.025,0.102-0.035,0.154
			c-0.129,0.667,0.033,1.299,0.377,1.747c0.052,0.068,0.07,0.154,0.071,0.241c-0.576,0.553-1.318,0.932-2.113,0.992
			c-0.235,0.018-0.413,0.006-0.561-0.041c-0.316-0.099-0.577-0.373-0.853-0.664l-0.115-0.12c-0.294-0.306-0.699-0.685-1.212-0.895
			c-0.574-0.234-1.192-0.207-1.65,0.076c-0.57,0.351-0.817,1.093-0.55,1.655C58.59,53.713,58.811,53.793,59,53.704z M62.192,63.21
			c-0.574,0.089-1.133,0.368-1.494,0.786c0.003-0.02,0.004-0.04,0.007-0.06c0.137-0.302,0.332-0.579,0.566-0.789
			c0.389-0.35,0.859-0.577,1.343-0.734C62.45,62.667,62.308,62.933,62.192,63.21z M67.101,61.917
			c-0.453,0.762-1.282,1.288-2.165,1.373c-0.396,0.035-0.8-0.006-1.228-0.052c-0.221-0.024-0.446-0.048-0.674-0.061
			c0.095-0.189,0.199-0.372,0.325-0.539c0.136-0.181,0.294-0.341,0.461-0.49c0.107-0.015,0.22-0.036,0.322-0.048l0.116-0.013
			c0.376-0.043,0.766-0.087,1.143-0.247c0.478-0.202,0.853-0.562,1.126-0.853c0.169-0.18,0.321-0.358,0.459-0.536
			c0.22-0.084,0.446-0.166,0.679-0.246C67.539,60.824,67.401,61.41,67.101,61.917z M68.153,62.26
			c-0.147,0.024-0.294,0.053-0.441,0.083c0.01-0.016,0.024-0.028,0.034-0.044c0.403-0.68,0.556-1.443,0.703-2.181
			c0.011,0.258,0.026,0.517,0.011,0.774C68.428,61.421,68.321,61.874,68.153,62.26z M71.509,60.751
			c-0.374,0.792-1.342,1.143-2.087,1.297c-0.138,0.029-0.279,0.048-0.419,0.072c0.108-0.359,0.179-0.751,0.205-1.181
			c0.024-0.404,0.011-0.806-0.018-1.204c0.445-0.124,0.911-0.246,1.41-0.365c0.345-0.082,0.705-0.178,1.057-0.299
			c0.013,0.139,0.035,0.277,0.04,0.416C71.718,60.042,71.66,60.432,71.509,60.751z M72.411,55.181
			c0.031-0.05,0.067-0.097,0.099-0.147c0,0,0.429,0.147,0.53,0.314c0.147,0.242,0.133,0.506,0.081,0.784
			c-0.101,0.537-0.24,1.146-0.603,1.567c-0.082,0.095-0.185,0.167-0.285,0.242c-0.032-0.14-0.053-0.281-0.093-0.419l-0.054-0.182
			c-0.077-0.258-0.15-0.502-0.162-0.739C71.901,56.084,72.172,55.57,72.411,55.181z M71.284,54.807
			c0.153-0.048,0.495-0.028,0.495-0.028c-0.002,0.003-0.005,0.006-0.007,0.01c-0.296,0.481-0.631,1.126-0.596,1.849
			c0.016,0.329,0.105,0.628,0.192,0.918l0.051,0.173c0.055,0.194,0.091,0.393,0.131,0.591c-0.355,0.134-0.745,0.229-1.132,0.321
			c-0.46,0.11-0.889,0.222-1.305,0.336c-0.014-0.124-0.024-0.252-0.038-0.375c-0.021-0.178-0.04-0.353-0.059-0.528
			C69.508,56.781,70.554,55.034,71.284,54.807z M68.966,56.171c0.074-0.746,0.327-1.472,0.696-2.132c0,0,0.525,0.085,0.524,0.282
			c-0.002,0.454-0.825,1.335-1.231,2.088C68.959,56.329,68.959,56.25,68.966,56.171z M67.849,58.759
			c0.161-0.645,0.137-1.295,0.114-1.925c-0.01-0.286-0.021-0.572-0.013-0.856c0.022-0.808,0.207-1.609,0.525-2.354l0.469,0.164
			c-0.382,0.72-0.643,1.505-0.723,2.309c-0.063,0.633-0.027,1.264,0.034,1.883c-0.162,0.447-0.306,0.901-0.411,1.367
			c-0.001,0.003-0.001,0.006-0.002,0.008c-0.08,0.026-0.159,0.052-0.237,0.079C67.706,59.211,67.793,58.986,67.849,58.759z
			 M65.253,54.785c0.222-0.735,0.735-1.38,1.382-1.804c0,0,0.348,0.067,0.406,0.226c0.077,0.209-0.001,0.374-0.145,0.542
			c-0.443,0.515-1.037,0.855-1.658,1.116C65.245,54.839,65.245,54.811,65.253,54.785z M65.039,56.496
			c0.012-0.26,0.026-0.51,0.049-0.758c0.865-0.308,1.733-0.752,2.377-1.501c0.002-0.002,0.003-0.005,0.006-0.008
			c-0.158,0.563-0.255,1.144-0.271,1.728c-0.008,0.3,0.003,0.603,0.014,0.904c0.022,0.604,0.043,1.175-0.092,1.716
			c-0.104,0.417-0.314,0.833-0.618,1.256c-0.603,0.238-1.165,0.493-1.7,0.772c-0.4,0.208-0.858,0.482-1.286,0.825
			c-0.352,0.057-0.721,0.134-1.089,0.25c0.008-0.007,0.014-0.013,0.022-0.02c0.362-0.3,0.737-0.61,1.069-0.97
			c0.728-0.788,1.227-1.805,1.405-2.863C65,57.381,65.02,56.931,65.039,56.496z"/>
	</g>
</g>
<g id="Layer_1">
</g>
</svg>
