<?xml version="1.0" encoding="iso-8859-1"?>
<!-- Generator: Adobe Illustrator 23.1.0, SVG Export Plug-In . SVG Version: 6.00 Build 0)  -->
<svg version="1.1" xmlns="http://www.w3.org/2000/svg" xmlns:xlink="http://www.w3.org/1999/xlink" x="0px" y="0px"
	 viewBox="0 0 289.071 133.268" style="enable-background:new 0 0 289.071 133.268;" xml:space="preserve">
<g id="underwater-scene-silhouette-clip-art-3">
	<g>
		<path style="stroke:#000000;stroke-width:0.25;stroke-linecap:round;stroke-linejoin:round;stroke-miterlimit:10;" d="
			M247.018,17.341c0.184,0.148,0.387,0.255,0.604,0.329c0.468,0.161,0.981,0.133,1.454-0.016l0.98-0.307
			c0.423-0.133,0.846,0.188,0.839,0.632c-0.013,0.822,0.06,1.654,0.24,2.465c0.308,1.404,0.947,2.798,1.934,3.885
			c0.967,1.083,2.073,1.782,3.083,2.433c1.016,0.646,1.974,1.24,2.73,1.98c0.371,0.371,0.681,0.783,0.93,1.232
			c0.115,0.218,0.187,0.416,0.204,0.574c0.02,0.148-0.021,0.328-0.135,0.547c-0.226,0.42-0.682,0.979-0.924,1.573
			c-0.263,0.591-0.422,1.239-0.41,1.89c-0.001,1.3,0.884,2.572,2.094,2.794c-0.568-0.201-1.005-0.639-1.259-1.145
			c-0.257-0.511-0.347-1.075-0.262-1.618c0.078-0.543,0.296-1.057,0.596-1.516c0.15-0.23,0.319-0.446,0.504-0.648
			c0.186-0.206,0.41-0.422,0.624-0.706c0.211-0.278,0.422-0.664,0.461-1.117c0.04-0.441-0.057-0.831-0.164-1.164
			c-0.225-0.647-0.549-1.256-0.943-1.802c-0.798-1.081-1.781-1.913-2.664-2.702c-0.886-0.786-1.702-1.552-2.202-2.362
			c-0.504-0.784-0.746-1.695-0.797-2.644c-0.024-0.464,0.003-0.929,0.073-1.393c0.001-0.006,0.008-0.008,0.012-0.004
			c0.578,0.609,1.234,1.025,1.866,1.348c0.984,0.481,1.845,0.681,2.6,0.906c0.758,0.219,1.348,0.413,1.861,0.729
			c0.533,0.32,1.048,0.78,1.533,1.321c0.984,1.11,1.823,2.359,1.94,3.55c0.029,0.301,0.018,0.569-0.05,0.925
			c-0.063,0.349-0.171,0.743-0.266,1.187c-0.094,0.439-0.178,0.954-0.126,1.523c0.05,0.572,0.293,1.17,0.661,1.602
			c0.365,0.435,0.79,0.719,1.182,0.942c0.396,0.226,0.776,0.397,1.122,0.574c0.348,0.174,0.637,0.355,0.932,0.576
			c0.281,0.229,0.552,0.48,0.789,0.766c0.953,1.139,1.467,2.708,1.265,4.258c-0.049,0.398-0.123,0.811-0.141,1.241
			c-0.021,0.424,0.025,0.895,0.267,1.285c0.234,0.393,0.659,0.63,1.073,0.698c0.419,0.074,0.838,0.032,1.236-0.059
			c-0.406,0.045-0.822,0.035-1.202-0.08c-0.38-0.112-0.705-0.359-0.856-0.698c-0.157-0.334-0.154-0.722-0.09-1.105
			c0.061-0.385,0.176-0.771,0.276-1.178c0.421-1.675,0.077-3.543-0.904-5.041c-0.244-0.377-0.537-0.724-0.856-1.051
			c-0.324-0.315-0.703-0.613-1.063-0.848c-0.713-0.464-1.395-0.874-1.662-1.321c-0.134-0.217-0.177-0.422-0.171-0.667
			c0.012-0.25,0.084-0.551,0.205-0.9c0.117-0.347,0.272-0.728,0.411-1.173c0.142-0.434,0.251-0.984,0.26-1.502
			c0.026-1.05-0.251-2.033-0.622-2.898c-0.331-0.761-0.726-1.436-1.163-2.088l0.635,0.209c1.192,0.394,2.317,0.807,3.271,1.405
			c0.919,0.577,1.747,1.421,2.21,2.406c0.23,0.491,0.369,1.015,0.378,1.544c0.005,0.133-0.014,0.263-0.017,0.397
			c-0.025,0.132-0.042,0.258-0.072,0.399c-0.033,0.15-0.126,0.39-0.087,0.734c0.044,0.348,0.244,0.607,0.408,0.76
			c0.353,0.308,0.593,0.411,0.872,0.605l0.817,0.523c0.538,0.351,1.106,0.693,1.608,1.049c0.487,0.355,0.948,0.81,1.028,1.391
			c0.038,0.29-0.026,0.602-0.175,0.869c-0.15,0.263-0.421,0.477-0.75,0.493c0.327,0.035,0.66-0.144,0.868-0.412
			c0.208-0.269,0.335-0.606,0.343-0.962c0.006-0.74-0.472-1.348-0.942-1.814c-0.49-0.469-0.979-0.868-1.465-1.301l-0.731-0.638
			c-0.227-0.206-0.538-0.448-0.645-0.593c-0.056-0.077-0.041-0.106-0.025-0.084c0.008,0.019,0.028-0.055,0.096-0.208
			c0.065-0.167,0.124-0.354,0.183-0.534c0.038-0.185,0.09-0.372,0.113-0.561c0.105-0.759,0.02-1.534-0.193-2.251
			c-0.437-1.442-1.322-2.666-2.447-3.644c-1.115-0.954-2.362-1.617-3.544-2.216l-1.723-0.866c-0.54-0.283-1.101-0.586-1.508-0.872
			c-0.414-0.287-0.66-0.578-0.724-0.778c-0.064-0.191-0.096-0.461-0.04-0.807c0.062-0.457,0.316-1.005,0.702-1.66
			c0.195-0.331,0.635-0.41,0.946-0.184c0.151,0.11,0.304,0.211,0.455,0.302c0.864,0.524,1.726,0.813,2.559,1.023
			c1.678,0.392,3.092,0.414,4.343,0.761c0.627,0.169,1.185,0.399,1.695,0.772c0.513,0.369,0.972,0.855,1.34,1.422
			c0.725,1.12,1.084,2.566,0.842,4.015c-0.001,0.008,0.01,0.012,0.013,0.005c0.607-1.34,0.681-2.981,0.186-4.498
			c-0.251-0.768-0.642-1.512-1.181-2.174c-0.534-0.67-1.253-1.227-1.975-1.64c-1.456-0.839-2.897-1.48-4.079-1.89
			c-0.731-0.253,0.106-0.212,0.376-0.491c3.978-4.108-4.764-10.036-9.424-10.999c-7.937-1.641-12.558,5.803-13.461,9.737
			c-0.392,1.706-0.29,3.494,0.044,5.211C246.196,16.059,246.421,16.859,247.018,17.341z M257.404,15.36
			c0.066-0.295,0.393-0.442,0.393-0.442c0.417-0.131,0.844,0.171,0.86,0.608c0.013,0.459,0.082,0.943,0.221,1.423
			c-0.221-0.109-0.427-0.218-0.59-0.33c-0.482-0.314-0.823-0.719-0.879-0.961C257.369,15.533,257.388,15.471,257.404,15.36z"/>
		<path style="stroke:#000000;stroke-width:0.25;stroke-linecap:round;stroke-linejoin:round;stroke-miterlimit:10;" d="
			M196.839,45.895c0.091,0.036,0.192,0.055,0.297,0.054c0.413-0.006,0.732-0.373,0.75-0.786c0.05-1.125,0.894-2.158,1.887-2.776
			c0.13,0.95,0.343,1.863,0.561,2.751c0.257,1.045,0.5,2.032,0.601,3.074c0.349,3.6-1.179,7.714-3.807,10.26
			c-0.29,0.281-0.368,0.741-0.119,1.06c0.088,0.113,0.2,0.195,0.322,0.243c0.269,0.107,0.588,0.055,0.811-0.158
			c0.393-0.376,0.762-0.785,1.109-1.219c-0.062,0.876-0.018,1.746,0.156,2.574c0.055,0.26,0.236,0.462,0.466,0.553
			c0.159,0.063,0.341,0.074,0.521,0.015c0.386-0.126,0.574-0.554,0.494-0.952c-0.68-3.413,1.191-7.767,4.113-9.541
			c0.177-0.107,0.358-0.208,0.539-0.308c0.617-0.342,1.317-0.73,1.876-1.4c0.794-0.951,1.086-2.2,1.343-3.302l0.092-0.392
			c0.672-2.787,1.888-5.232,3.419-6.976c0.003,0.343,0.011,0.687,0.019,1.033c0.042,1.675,0.082,3.257-0.512,4.733
			c-0.391,0.972-1.027,1.812-1.7,2.702c-0.153,0.202-0.306,0.404-0.455,0.607c-1.425,1.934-2.46,3.883-3.078,5.793
			c-0.74,2.288-0.886,4.596-0.412,6.499c0.062,0.248,0.239,0.438,0.46,0.526c0.143,0.057,0.305,0.071,0.466,0.031
			c0.409-0.102,0.659-0.516,0.557-0.926c-0.406-1.63-0.269-3.64,0.384-5.66c0.567-1.753,1.528-3.556,2.854-5.357
			c0.146-0.198,0.294-0.394,0.443-0.591c0.003-0.003,0.005-0.007,0.008-0.01c-0.059,0.556-0.025,1.112,0.137,1.641
			c0.071,0.231,0.241,0.403,0.449,0.486c0.156,0.062,0.333,0.073,0.506,0.02c0.403-0.124,0.63-0.551,0.506-0.955
			c-0.374-1.217,0.369-2.888,1.295-3.91c0.833-0.918,1.84-1.55,2.906-2.218c0.267-0.167,0.534-0.335,0.797-0.506
			c0.222-0.144,0.454-0.305,0.688-0.473c0.026,0.73,0.012,1.463-0.064,2.21c-0.105,1.026-0.321,1.833-0.66,2.469
			c-0.443,0.829-1.134,1.466-1.866,2.14l-0.277,0.256c-1.199,1.115-2.341,2.347-3.394,3.661c-0.645,0.804-1.299,1.694-1.712,2.751
			c-0.666,1.703-0.568,3.68,0.251,5.036c0.09,0.148,0.222,0.255,0.372,0.315c0.257,0.102,0.567,0.064,0.801-0.148
			c0.272-0.246,0.309-0.663,0.123-0.979c-0.562-0.95-0.612-2.42-0.124-3.668c0.339-0.865,0.912-1.642,1.482-2.352
			c1.007-1.256,2.098-2.433,3.243-3.498l0.271-0.251c0.794-0.731,1.614-1.486,2.179-2.544c0.435-0.814,0.707-1.807,0.832-3.034
			c0.125-1.225,0.093-2.419-0.002-3.588c0.596-0.599,1.142-1.303,1.533-2.153c0.548-1.191,0.701-2.445,0.85-3.659
			c0.047-0.385,0.094-0.769,0.154-1.15c0.068-0.429,0.16-0.857,0.265-1.284c0.083,0.392,0.187,0.774,0.332,1.133
			c0.249,0.616,0.574,1.152,0.888,1.67c0.393,0.648,0.763,1.26,0.949,1.969c0.29,1.102,0.12,2.531-0.453,3.822
			c-0.533,1.201-1.393,2.302-2.487,3.184c-0.328,0.265-0.38,0.746-0.115,1.074c0.085,0.106,0.194,0.183,0.312,0.23
			c0.248,0.098,0.54,0.064,0.763-0.115c1.282-1.034,2.293-2.333,2.924-3.754c0.72-1.622,0.914-3.382,0.534-4.83
			c-0.243-0.922-0.689-1.659-1.12-2.372c-0.296-0.488-0.575-0.95-0.778-1.452c-0.267-0.659-0.393-1.422-0.391-2.216
			c0.001-0.406,0.287-0.757,0.683-0.849c1.016-0.236,2.012-0.633,2.924-1.243c1.358-0.909,2.514-2.315,3.026-3.961
			c0.572-1.84,0.304-3.786-0.216-5.519c-0.816-2.717-2.335-5.091-4.394-6.723c-5.08-4.027-12.808-3.443-16.915,1.146
			c-0.988,1.104-1.643,2.536-2.18,3.95c-0.038,0.101-0.073,0.205-0.104,0.311c-0.398,1.347-0.164,2.683,0.495,3.677
			c0.132,0.199,0.157,0.447,0.099,0.679c-0.135,0.54-0.236,1.086-0.298,1.634c-0.027,0.236-0.047,0.474-0.067,0.713
			c-0.063,0.745-0.123,1.448-0.39,2.067c-0.328,0.76-0.933,1.29-1.383,1.601c-0.577,0.399-1.212,0.674-1.883,0.964
			c-0.957,0.414-1.945,0.842-2.825,1.661c-1.14,1.061-1.897,2.645-2.025,4.236c-0.027,0.343,0.176,0.651,0.479,0.771
			c0.087,0.035,0.182,0.054,0.283,0.054c0.392,0.002,0.73-0.32,0.762-0.711c0.099-1.2,0.689-2.438,1.542-3.233
			c0.687-0.639,1.515-0.998,2.391-1.377c0.131-0.057,0.263-0.115,0.396-0.173c-2.463,2.273-4.896,5.913-4.953,9.961
			c0,0.026,0.003,0.051,0.003,0.077c-1.67,0.759-3.239,2.412-3.294,4.443C196.349,45.493,196.55,45.78,196.839,45.895z
			 M219.42,32.798c0.074-1.087,0.278-2.208,0.599-3.333c0.167-0.583,0.865-0.827,1.363-0.48c0.11,0.077,0.217,0.152,0.321,0.226
			c0.33,0.236,0.446,0.664,0.301,1.044c-0.428,1.126-0.749,2.289-0.932,3.455c-0.063,0.398-0.112,0.8-0.161,1.202
			c-0.14,1.147-0.273,2.231-0.721,3.205c-0.107,0.233-0.235,0.451-0.371,0.661c-0.022-0.177-0.044-0.354-0.066-0.53
			C219.516,36.392,219.294,34.638,219.42,32.798z M218.455,40.302c-0.463,0.396-0.945,0.736-1.387,1.023
			c-0.257,0.167-0.516,0.329-0.775,0.492c-0.926,0.581-1.872,1.191-2.729,2c0.32-1.387,0.29-2.789,0.256-4.154
			c-0.009-0.362-0.018-0.722-0.02-1.081c-0.003-0.458,0.014-0.916,0.039-1.372c0.26-0.193,0.525-0.381,0.805-0.573
			c0.773-0.531,1.573-1.08,2.26-1.875c0.38-0.44,0.695-0.918,0.962-1.425c-0.052,1.758,0.161,3.456,0.369,5.103
			C218.315,39.071,218.391,39.688,218.455,40.302z M217.923,27.052c0.003,0.001,0.005,0.003,0.008,0.004l-0.069,0.472
			c-0.353,2.405-0.78,4.692-2.114,6.236c-0.491,0.568-1.083,1.001-1.712,1.436c0.411-2.839,1.346-5.545,2.677-7.824
			C216.959,26.954,217.49,26.825,217.923,27.052z M213.677,25.836c0.069-0.165,0.145-0.325,0.225-0.482
			c0.22-0.427,0.747-0.578,1.18-0.372c0.048,0.023,0.096,0.046,0.143,0.071c0.454,0.231,0.626,0.802,0.361,1.237
			c-1.761,2.9-2.911,6.461-3.225,10.141c-3.109,2.617-4.463,6.651-4.994,8.856l-0.095,0.402c-0.23,0.982-0.467,1.998-1.029,2.671
			c-0.376,0.451-0.895,0.739-1.444,1.043c-0.199,0.11-0.397,0.221-0.591,0.338c-0.673,0.409-1.296,0.927-1.858,1.524
			c0.164-1.079,0.205-2.159,0.104-3.201c-0.112-1.152-0.379-2.24-0.638-3.291c-0.247-1.003-0.479-1.967-0.583-2.959
			c0.619-0.131,1.25-0.179,1.912-0.224c0.848-0.057,1.726-0.117,2.625-0.372c2.834-0.802,5.389-3.545,6.358-6.824
			c0.395-1.336,0.526-2.697,0.652-4.013C212.938,28.772,213.084,27.254,213.677,25.836z M208.268,27.493
			c0.366-0.847,0.439-1.709,0.51-2.543c0.019-0.224,0.038-0.448,0.063-0.67c0.044-0.393,0.119-0.784,0.206-1.173
			c0.139,0.062,0.281,0.119,0.429,0.162c0.078,0.023,0.156,0.046,0.235,0.07c0.509,0.15,0.78,0.715,0.566,1.2
			c-0.482,1.091-1.086,2.081-1.867,2.928c-0.082,0.089-0.169,0.17-0.254,0.255C208.193,27.646,208.233,27.573,208.268,27.493z
			 M206.217,31.295c0.334-0.277,0.677-0.54,1.02-0.802c0.775-0.595,1.577-1.21,2.296-1.989c1.178-1.277,1.99-2.796,2.59-4.466
			c0.237,0.066,0.454,0.126,0.653,0.18c-0.187,0.329-0.358,0.671-0.508,1.029c-0.683,1.631-0.847,3.337-1.006,4.987
			c-0.125,1.302-0.244,2.532-0.597,3.727c-0.813,2.752-2.996,5.132-5.309,5.787c-0.746,0.211-1.507,0.263-2.312,0.317
			c-0.602,0.041-1.218,0.086-1.847,0.198C201.393,37.163,203.325,33.686,206.217,31.295z"/>
		<path style="stroke:#000000;stroke-width:0.25;stroke-linecap:round;stroke-linejoin:round;stroke-miterlimit:10;" d="
			M75.151,33.352c-0.079,0.566-0.048,1.167,0.219,1.673c0.499,0.944,1.638,1.302,2.633,1.691c1.611,0.629,3.093,1.544,4.543,2.486
			c0.092,0.06,0.185,0.119,0.277,0.179c-0.299,0.74-0.487,1.539-0.571,2.319c-0.13,1.197-0.079,2.414,0.143,3.597
			c-0.044,0.03-0.088,0.062-0.132,0.091c-1.107,0.74-2.296,1.365-3.313,2.225c-2.391,2.024-3.611,5.345-3.097,8.435
			c0.161,0.968,0.491,1.93,1.112,2.69c0.622,0.76,1.565,1.293,2.546,1.263c0.346-0.011,0.721-0.11,0.922-0.392
			c0.13-0.183,0.167-0.414,0.188-0.638c0.065-0.698,0.008-1.406,0.113-2.099c0.038-0.251,0.101-0.507,0.256-0.707
			c0.155-0.201,0.423-0.332,0.666-0.263c0.092,0.026,0.178,0.079,0.273,0.079c0.171,0,0.292-0.164,0.361-0.32
			c0.208-0.468,0.211-0.997,0.203-1.509c-0.007-0.512-0.018-1.038,0.165-1.516s0.616-0.899,1.128-0.903
			c0.311-0.002,0.674,0.13,0.9-0.084c0.108-0.102,0.145-0.256,0.175-0.401c0.038-0.191,0.071-0.384,0.102-0.577
			c1.13,1.306,2.556,2.356,4.163,2.989c2.069,0.815,4.318,0.938,6.556,0.958c0.24,1.812,0.802,3.6,1.925,5.158
			c1.362,1.891,3.626,3.412,6.251,3.751c0.4,0.052,0.824,0.074,1.196-0.058s0.855-0.569,0.598-0.789
			c-0.247-0.212-3.411-2.38-2.854-4.196c0.21-0.685-1.104-1.05-0.225-3.373c0.049-0.13,0.06-0.271,0.052-0.411
			c1.801,0.048,3.601,0.119,5.4,0.214c0.138,0.007,0.295,0.008,0.392-0.09c0.097-0.097,0.096-0.253,0.087-0.39
			c-0.074-1.194-0.25-2.38-0.508-3.549c0.24,0.1,0.482,0.157,0.681-0.015c0.137-0.119,0.213-0.322,0.333-0.468
			c0.303-0.368,0.79,0.108,1.188-0.078c1.238-0.579,1.731,0.774,3.848,0.694c0.7-0.027-0.007-1.519-0.336-1.853
			c-2.164-2.194-4.878-3.516-7.648-3.759c-0.207-0.413-0.426-0.82-0.658-1.219c-1.896-3.268-4.648-6.091-8.015-7.792
			c0.117-0.025,0.235-0.049,0.353-0.065c0.084-0.012,0.174-0.024,0.238-0.08c0.059-0.052,0.084-0.132,0.102-0.208
			c0.1-0.424,0.127-0.962,0.526-1.138c0.196-0.087,0.421-0.049,0.634-0.02c0.509,0.07,1.026,0.076,1.537,0.021
			c0.082-0.009,0.171-0.023,0.225-0.086c0.054-0.062,0.055-0.152,0.056-0.234c0.002-0.51,0.07-1.03,0.29-1.491
			c0.325-0.683,0.957-1.18,1.645-1.495c0.576-0.264,1.195-0.415,1.815-0.552c0.483-0.107,0.817-0.604,0.656-1.072
			c-0.825-2.404-9.473-2.272-11.845,1.796c-0.816,1.4-1.19,2.306-1.406,3.047c-1.888-0.232-3.811-0.114-5.63,0.398
			c-1.573-1.79-2.976-3.582-5.283-4.448c-2.037-0.764-4.39-0.294-5.024,0.297C75.645,31.657,75.271,32.494,75.151,33.352z"/>
		<path style="stroke:#000000;stroke-width:0.25;stroke-linecap:round;stroke-linejoin:round;stroke-miterlimit:10;" d="
			M17.211,36.48c0.053,0.051,0.109,0.1,0.166,0.147c0.737,0.603,1.632,0.809,2.427,0.66c0.159-0.03,0.321,0.02,0.45,0.117
			c0.302,0.227,0.616,0.433,0.942,0.616c0.14,0.079,0.284,0.154,0.427,0.23c0.448,0.236,0.872,0.458,1.188,0.788
			c0.388,0.405,0.56,0.923,0.635,1.285c0.097,0.465,0.101,0.934,0.106,1.43c0.006,0.706,0.013,1.437,0.293,2.202
			c0.362,0.992,1.151,1.882,2.111,2.381c0.207,0.107,0.453,0.062,0.608-0.096c0.044-0.045,0.081-0.099,0.108-0.162
			c0.105-0.244-0.007-0.54-0.243-0.663c-0.723-0.378-1.341-1.073-1.612-1.815c-0.218-0.597-0.224-1.209-0.23-1.856
			c-0.001-0.097-0.002-0.195-0.004-0.293c0.77,2.137,2.402,4.615,4.915,5.717c0.016,0.007,0.033,0.011,0.049,0.018
			c0.034,1.242,0.652,2.658,1.906,3.227c0.203,0.092,0.435,0.042,0.583-0.108c0.047-0.048,0.085-0.105,0.112-0.171
			c0.105-0.26-0.04-0.555-0.293-0.676c-0.689-0.328-1.112-1.127-1.236-1.909c0.628,0.169,1.253,0.277,1.866,0.375
			c0.72,0.115,1.4,0.224,2.078,0.435c2.34,0.73,4.506,2.769,5.403,5.081c0.099,0.255,0.366,0.425,0.63,0.354
			c0.094-0.025,0.174-0.074,0.237-0.137c0.138-0.14,0.189-0.353,0.115-0.548c-0.131-0.344-0.289-0.683-0.468-1.014
			c0.531,0.269,1.085,0.471,1.649,0.581c0.177,0.034,0.351-0.026,0.468-0.145c0.081-0.083,0.136-0.193,0.147-0.321
			c0.023-0.274-0.195-0.504-0.464-0.56c-2.31-0.475-4.535-2.791-4.873-5.083c-0.021-0.139-0.035-0.278-0.05-0.418
			c-0.051-0.476-0.109-1.015-0.38-1.541c-0.385-0.746-1.088-1.258-1.708-1.709l-0.22-0.161c-1.563-1.154-2.77-2.557-3.455-3.973
			c0.215,0.088,0.432,0.174,0.65,0.26c1.057,0.415,2.055,0.807,2.82,1.567c0.504,0.5,0.861,1.118,1.239,1.773
			c0.086,0.149,0.171,0.297,0.259,0.444c0.832,1.399,1.776,2.559,2.806,3.448c1.234,1.065,2.636,1.765,3.949,1.97
			c0.171,0.027,0.336-0.034,0.449-0.149c0.073-0.074,0.125-0.172,0.142-0.283c0.044-0.282-0.149-0.547-0.431-0.592
			c-1.124-0.176-2.344-0.791-3.433-1.731c-0.945-0.816-1.818-1.891-2.593-3.194c-0.085-0.143-0.168-0.288-0.252-0.432
			c-0.001-0.002-0.003-0.005-0.004-0.007c0.332,0.183,0.688,0.309,1.061,0.347c0.163,0.017,0.315-0.044,0.422-0.152
			c0.08-0.081,0.133-0.189,0.146-0.31c0.029-0.284-0.178-0.539-0.463-0.568c-0.859-0.087-1.706-0.991-2.1-1.839
			c-0.354-0.762-0.483-1.557-0.619-2.399c-0.034-0.211-0.068-0.421-0.106-0.631c-0.032-0.177-0.071-0.364-0.114-0.554
			c0.463,0.176,0.917,0.378,1.363,0.622c0.613,0.336,1.06,0.683,1.367,1.063c0.401,0.495,0.616,1.094,0.844,1.729l0.087,0.24
			c0.38,1.042,0.848,2.08,1.391,3.084c0.332,0.614,0.716,1.257,1.266,1.794c0.888,0.865,2.148,1.324,3.211,1.17
			c0.116-0.017,0.218-0.071,0.294-0.149c0.132-0.134,0.189-0.337,0.119-0.539c-0.082-0.235-0.332-0.368-0.579-0.334
			c-0.741,0.1-1.672-0.256-2.323-0.889c-0.451-0.44-0.785-1.002-1.078-1.545c-0.519-0.96-0.966-1.951-1.329-2.947l-0.085-0.235
			c-0.247-0.688-0.503-1.399-1.014-2.031c-0.394-0.486-0.942-0.917-1.675-1.319c-0.732-0.401-1.486-0.695-2.241-0.944
			c-0.217-0.53-0.513-1.056-0.941-1.525c-0.599-0.656-1.342-1.082-2.06-1.495c-0.228-0.131-0.456-0.261-0.677-0.399
			c-0.25-0.155-0.493-0.326-0.732-0.504c0.267,0.051,0.533,0.088,0.795,0.091c0.45,0.007,0.87-0.055,1.277-0.114
			c0.508-0.074,0.988-0.144,1.479-0.074c0.764,0.11,1.612,0.592,2.267,1.29c0.609,0.649,1.07,1.476,1.333,2.392
			c0.079,0.275,0.366,0.434,0.641,0.355c0.089-0.025,0.166-0.073,0.226-0.134c0.127-0.129,0.182-0.32,0.129-0.507
			c-0.308-1.073-0.852-2.047-1.573-2.815c-0.823-0.877-1.871-1.462-2.875-1.606c-0.64-0.092-1.217-0.007-1.776,0.074
			c-0.383,0.056-0.744,0.109-1.112,0.103c-0.482-0.007-0.991-0.129-1.486-0.34c-0.253-0.108-0.397-0.379-0.351-0.65
			c0.12-0.696,0.135-1.423-0.006-2.153c-0.21-1.087-0.783-2.18-1.676-2.933c-0.998-0.842-2.284-1.188-3.503-1.319
			c-1.911-0.206-3.794,0.117-5.356,0.972c-3.853,2.111-5.525,7.09-3.742,10.864C15.748,34.987,16.47,35.773,17.211,36.48z
			 M34.241,35.337c0.125,0.394,0.21,0.784,0.274,1.135c0.037,0.204,0.07,0.409,0.103,0.614c0.119,0.731,0.25,1.483,0.529,2.231
			c-0.782-0.566-1.665-0.916-2.526-1.255c-0.228-0.09-0.456-0.179-0.68-0.272c-0.287-0.119-0.568-0.25-0.846-0.386
			c-0.052-0.213-0.099-0.428-0.145-0.654c-0.128-0.623-0.26-1.267-0.575-1.905c-0.174-0.353-0.39-0.676-0.636-0.976
			c1.084,0.496,2.2,0.81,3.284,1.114C33.435,35.1,33.841,35.215,34.241,35.337z M27.946,30.527c0.077-0.049,0.152-0.096,0.226-0.141
			c0.235-0.144,0.532-0.103,0.731,0.087c0.59,0.564,1.232,1.071,1.912,1.493c0.232,0.144,0.47,0.281,0.708,0.418
			c0.679,0.39,1.321,0.758,1.811,1.295c0.117,0.128,0.219,0.266,0.315,0.406c-0.116-0.033-0.233-0.066-0.348-0.098
			c-1.222-0.343-2.375-0.667-3.491-1.23c-0.659-0.333-1.306-0.755-1.923-1.252C27.567,31.246,27.598,30.746,27.946,30.527z
			 M25.828,32.177c0.001-0.001,0.003-0.003,0.005-0.004l0.276,0.168c1.409,0.854,2.724,1.724,3.337,2.963
			c0.225,0.456,0.34,0.94,0.445,1.447c-1.665-1.005-3.108-2.301-4.18-3.733C25.512,32.753,25.572,32.388,25.828,32.177z
			 M23.787,33.405c0.027-0.024,0.054-0.048,0.082-0.071c0.264-0.223,0.665-0.179,0.868,0.1c1.346,1.864,3.267,3.52,5.482,4.686
			c0.815,2.631,2.977,4.539,4.214,5.452l0.226,0.165c0.553,0.402,1.124,0.818,1.396,1.346c0.183,0.354,0.225,0.753,0.271,1.176
			c0.016,0.153,0.033,0.306,0.055,0.458c0.078,0.528,0.238,1.053,0.462,1.561c-0.63-0.387-1.294-0.697-1.971-0.909
			c-0.749-0.234-1.498-0.353-2.223-0.469c-0.691-0.11-1.354-0.219-2.001-0.415c0.081-0.421,0.217-0.828,0.364-1.253
			c0.188-0.545,0.382-1.108,0.46-1.737c0.246-1.981-0.793-4.299-2.586-5.768c-0.73-0.598-1.545-1.039-2.334-1.465
			c-0.963-0.52-1.872-1.011-2.601-1.755c-0.085-0.087-0.165-0.176-0.241-0.267C23.5,33.991,23.544,33.621,23.787,33.405z
			 M22.701,34.644c0.156,0.204,0.325,0.4,0.509,0.588c0.838,0.856,1.86,1.408,2.848,1.942c0.78,0.421,1.517,0.819,2.17,1.355
			c1.504,1.233,2.415,3.223,2.214,4.84c-0.065,0.521-0.233,1.01-0.411,1.527c-0.133,0.386-0.267,0.783-0.363,1.205
			c-1.883-0.939-3.545-3.062-4.276-5.498c-0.085-0.282-0.158-0.565-0.232-0.848c-0.167-0.641-0.34-1.303-0.637-1.957
			c-0.487-1.072-1.222-1.979-2.106-2.794C22.521,34.874,22.616,34.754,22.701,34.644z M21.24,36.455
			c0.035-0.043,0.07-0.085,0.106-0.129c0.228-0.278,0.652-0.299,0.898-0.037c0.555,0.589,1.013,1.226,1.336,1.937
			c0.034,0.075,0.062,0.151,0.092,0.226c-0.037-0.044-0.073-0.088-0.113-0.13c-0.432-0.451-0.952-0.724-1.454-0.988
			c-0.135-0.071-0.27-0.142-0.401-0.216c-0.234-0.131-0.458-0.281-0.678-0.437C21.101,36.61,21.174,36.536,21.24,36.455z"/>
		<path style="stroke:#000000;stroke-width:0.25;stroke-linecap:round;stroke-linejoin:round;stroke-miterlimit:10;" d="
			M233.833,56.05c1.213,0,2.196-0.983,2.196-2.196c0-1.213-0.983-2.197-2.196-2.197c-1.213,0-2.197,0.983-2.197,2.197
			C231.636,55.067,232.62,56.05,233.833,56.05z"/>
		<path style="stroke:#000000;stroke-width:0.25;stroke-linecap:round;stroke-linejoin:round;stroke-miterlimit:10;" d="
			M235.042,48.728c0,0.527,0.428,0.955,0.955,0.955c0.527,0,0.955-0.428,0.955-0.955c0-0.527-0.428-0.955-0.955-0.955
			C235.47,47.774,235.042,48.201,235.042,48.728z"/>
		<path style="stroke:#000000;stroke-width:0.25;stroke-linecap:round;stroke-linejoin:round;stroke-miterlimit:10;" d="
			M232.846,48.41c0.668,0,1.21-0.542,1.21-1.21s-0.542-1.21-1.21-1.21c-0.668,0-1.21,0.542-1.21,1.21S232.178,48.41,232.846,48.41z"
			/>
		
			<circle style="stroke:#000000;stroke-width:0.25;stroke-linecap:round;stroke-linejoin:round;stroke-miterlimit:10;" cx="234.692" cy="42.139" r="0.859"/>
		
			<circle style="stroke:#000000;stroke-width:0.25;stroke-linecap:round;stroke-linejoin:round;stroke-miterlimit:10;" cx="235.838" cy="58.788" r="1.146"/>
		<path style="stroke:#000000;stroke-width:0.25;stroke-linecap:round;stroke-linejoin:round;stroke-miterlimit:10;" d="
			M127.562,70.721c1.213,0,2.197-0.983,2.197-2.197c0-1.213-0.983-2.196-2.197-2.196c-1.213,0-2.196,0.983-2.196,2.196
			C125.366,69.738,126.349,70.721,127.562,70.721z"/>
		<path style="stroke:#000000;stroke-width:0.25;stroke-linecap:round;stroke-linejoin:round;stroke-miterlimit:10;" d="
			M128.772,63.4c0,0.527,0.428,0.955,0.955,0.955c0.528,0,0.955-0.428,0.955-0.955c0-0.527-0.427-0.955-0.955-0.955
			C129.199,62.445,128.772,62.872,128.772,63.4z"/>
		<path style="stroke:#000000;stroke-width:0.25;stroke-linecap:round;stroke-linejoin:round;stroke-miterlimit:10;" d="
			M124.22,64.291c0.668,0,1.21-0.542,1.21-1.21s-0.542-1.21-1.21-1.21c-0.668,0-1.21,0.542-1.21,1.21S123.552,64.291,124.22,64.291z
			"/>
		<path style="stroke:#000000;stroke-width:0.25;stroke-linecap:round;stroke-linejoin:round;stroke-miterlimit:10;" d="
			M128.422,57.67c0.475,0,0.86-0.385,0.86-0.859s-0.385-0.86-0.86-0.86c-0.475,0-0.859,0.385-0.859,0.86
			S127.947,57.67,128.422,57.67z"/>
		<path style="stroke:#000000;stroke-width:0.25;stroke-linecap:round;stroke-linejoin:round;stroke-miterlimit:10;" d="
			M127.276,77.406c0,0.633,0.513,1.146,1.146,1.146c0.633,0,1.146-0.513,1.146-1.146c0-0.633-0.513-1.146-1.146-1.146
			C127.789,76.26,127.276,76.774,127.276,77.406z"/>
		<path style="stroke:#000000;stroke-width:0.25;stroke-linecap:round;stroke-linejoin:round;stroke-miterlimit:10;" d="
			M155.913,37.997c1.213,0,2.196-0.983,2.196-2.197c0-1.213-0.983-2.197-2.196-2.197c-1.213,0-2.197,0.983-2.197,2.197
			C153.716,37.013,154.7,37.997,155.913,37.997z"/>
		<path style="stroke:#000000;stroke-width:0.25;stroke-linecap:round;stroke-linejoin:round;stroke-miterlimit:10;" d="
			M157.122,30.675c0,0.527,0.428,0.955,0.955,0.955c0.528,0,0.955-0.428,0.955-0.955s-0.427-0.955-0.955-0.955
			C157.55,29.72,157.122,30.147,157.122,30.675z"/>
		<path style="stroke:#000000;stroke-width:0.25;stroke-linecap:round;stroke-linejoin:round;stroke-miterlimit:10;" d="
			M154.926,30.357c0.668,0,1.21-0.542,1.21-1.21c0-0.668-0.542-1.21-1.21-1.21c-0.668,0-1.21,0.542-1.21,1.21
			C153.716,29.815,154.258,30.357,154.926,30.357z"/>
		<path style="stroke:#000000;stroke-width:0.25;stroke-linecap:round;stroke-linejoin:round;stroke-miterlimit:10;" d="
			M156.772,24.945c0.475,0,0.86-0.385,0.86-0.859c0-0.475-0.385-0.859-0.86-0.859s-0.859,0.385-0.859,0.859
			C155.913,24.56,156.298,24.945,156.772,24.945z"/>
		<path style="stroke:#000000;stroke-width:0.25;stroke-linecap:round;stroke-linejoin:round;stroke-miterlimit:10;" d="
			M41.172,78.676c1.205-0.141,2.068-1.231,1.927-2.436c-0.141-1.205-1.231-2.068-2.436-1.927c-1.205,0.141-2.068,1.231-1.927,2.436
			C38.877,77.954,39.967,78.816,41.172,78.676z"/>
		<path style="stroke:#000000;stroke-width:0.25;stroke-linecap:round;stroke-linejoin:round;stroke-miterlimit:10;" d="
			M43.422,71.042c-0.061-0.524-0.535-0.899-1.059-0.838s-0.899,0.535-0.838,1.059c0.061,0.524,0.535,0.899,1.059,0.838
			S43.483,71.566,43.422,71.042z"/>
		<path style="stroke:#000000;stroke-width:0.25;stroke-linecap:round;stroke-linejoin:round;stroke-miterlimit:10;" d="
			M37.965,70.14c0.077,0.664,0.678,1.139,1.342,1.061s1.139-0.678,1.061-1.342c-0.077-0.664-0.678-1.139-1.342-1.061
			C38.363,68.876,37.888,69.477,37.965,70.14z"/>
		<path style="stroke:#000000;stroke-width:0.25;stroke-linecap:round;stroke-linejoin:round;stroke-miterlimit:10;" d="
			M41.268,64.659c-0.055-0.472-0.482-0.809-0.953-0.754c-0.471,0.055-0.809,0.482-0.754,0.953c0.055,0.471,0.482,0.809,0.953,0.754
			C40.985,65.558,41.323,65.131,41.268,64.659z"/>
		<path style="stroke:#000000;stroke-width:0.25;stroke-linecap:round;stroke-linejoin:round;stroke-miterlimit:10;" d="
			M39.633,84.432c0.629-0.073,1.079-0.642,1.005-1.271s-0.642-1.079-1.271-1.005c-0.629,0.073-1.079,0.642-1.005,1.271
			S39.004,84.506,39.633,84.432z"/>
		<path style="stroke:#000000;stroke-width:0.25;stroke-linecap:round;stroke-linejoin:round;stroke-miterlimit:10;" d="
			M149.987,68.905c0.106,0.018,0.211,0.032,0.315,0.044c0.099,0.203,0.26,0.38,0.445,0.512c0.291,0.209,0.637,0.326,0.977,0.44
			c-0.121-0.258-0.165-0.552-0.125-0.834c0.005-0.033,0.01-0.066,0.016-0.1c1.053-0.104,1.972-0.506,2.767-1.15
			c0.121,0.21,0.269,0.404,0.417,0.597c0.186,0.243,0.372,0.489,0.608,0.683s0.533,0.331,0.838,0.317
			c0.057-0.003,0.118-0.012,0.163-0.047c-0.163-0.114-0.333-0.236-0.421-0.414c-0.109-0.221-0.073-0.482-0.116-0.725
			c-0.042-0.24-0.165-0.466-0.345-0.631c0.185-0.114,0.33-0.292,0.404-0.496c0.073-0.202,0.078-0.424,0.147-0.628
			c0.063-0.186,0.181-0.353,0.334-0.475c0.153-0.121,0.343-0.202,0.462-0.356c-0.373-0.067-0.761,0.027-1.102,0.194
			c-0.34,0.168-0.639,0.407-0.932,0.648c-0.135,0.112-0.269,0.224-0.402,0.338c-0.032,0.027-0.065,0.057-0.091,0.089
			c-0.522-0.22-1.393-0.546-2.251-0.792c-0.188-0.054,0.009-0.738,0.306-0.856c-0.615,0.033-1.22,0.222-1.746,0.542
			c-2.133-0.067-3.456,1.204-3.448,1.34c0.003,0.059,0.038,0.111,0.073,0.158C147.77,67.975,149.168,68.768,149.987,68.905z"/>
		<path style="stroke:#000000;stroke-width:0.25;stroke-linecap:round;stroke-linejoin:round;stroke-miterlimit:10;" d="
			M163.189,72.212c0.073-0.203,0.078-0.424,0.147-0.628c0.063-0.186,0.181-0.353,0.334-0.475c0.153-0.121,0.343-0.202,0.462-0.356
			c-0.373-0.067-0.761,0.027-1.102,0.194c-0.34,0.168-0.639,0.407-0.932,0.648c-0.135,0.112-0.269,0.224-0.402,0.338
			c-0.032,0.027-0.065,0.057-0.091,0.089c-0.522-0.22-1.393-0.546-2.251-0.792c-0.188-0.054,0.009-0.738,0.306-0.856
			c-0.615,0.033-1.22,0.222-1.746,0.542c-2.133-0.067-3.456,1.204-3.448,1.34c0.003,0.059,0.038,0.111,0.073,0.158
			c0.489,0.671,1.887,1.465,2.706,1.602c0.106,0.018,0.211,0.032,0.315,0.044c0.099,0.203,0.26,0.38,0.445,0.512
			c0.291,0.209,0.637,0.326,0.977,0.44c-0.121-0.258-0.165-0.552-0.125-0.834c0.005-0.033,0.01-0.066,0.016-0.1
			c1.053-0.104,1.972-0.506,2.767-1.15c0.121,0.21,0.269,0.404,0.417,0.597c0.186,0.243,0.372,0.489,0.608,0.683
			s0.533,0.331,0.838,0.317c0.058-0.003,0.118-0.012,0.163-0.047c-0.163-0.114-0.333-0.236-0.421-0.414
			c-0.109-0.22-0.073-0.482-0.116-0.725c-0.042-0.24-0.165-0.466-0.345-0.631C162.97,72.594,163.115,72.416,163.189,72.212z"/>
		<path style="stroke:#000000;stroke-width:0.25;stroke-linecap:round;stroke-linejoin:round;stroke-miterlimit:10;" d="
			M158.555,66.099c0.003,0.059,0.038,0.111,0.073,0.158c0.489,0.671,1.887,1.465,2.706,1.602c0.106,0.018,0.211,0.032,0.314,0.044
			c0.099,0.203,0.26,0.38,0.445,0.512c0.291,0.209,0.637,0.326,0.977,0.44c-0.121-0.258-0.165-0.552-0.125-0.834
			c0.005-0.033,0.01-0.066,0.016-0.1c1.053-0.104,1.972-0.506,2.767-1.15c0.121,0.21,0.269,0.404,0.417,0.597
			c0.186,0.243,0.372,0.489,0.608,0.683s0.533,0.331,0.838,0.317c0.058-0.003,0.118-0.012,0.163-0.047
			c-0.163-0.114-0.333-0.236-0.421-0.414c-0.109-0.22-0.073-0.482-0.116-0.725c-0.042-0.241-0.165-0.466-0.345-0.631
			c0.185-0.114,0.33-0.292,0.404-0.496c0.073-0.202,0.078-0.424,0.147-0.628c0.063-0.186,0.181-0.353,0.335-0.475
			c0.153-0.121,0.343-0.202,0.462-0.356c-0.373-0.067-0.761,0.026-1.102,0.194c-0.34,0.168-0.639,0.407-0.932,0.648
			c-0.135,0.112-0.269,0.224-0.402,0.338c-0.032,0.027-0.064,0.057-0.091,0.089c-0.522-0.22-1.393-0.546-2.251-0.792
			c-0.188-0.054,0.009-0.738,0.306-0.856c-0.615,0.033-1.22,0.222-1.746,0.542C159.871,64.692,158.547,65.962,158.555,66.099z"/>
		<path style="stroke:#000000;stroke-width:0.25;stroke-linecap:round;stroke-linejoin:round;stroke-miterlimit:10;" d="
			M169.813,69.091c-0.615,0.033-1.22,0.222-1.746,0.542c-2.133-0.067-3.456,1.204-3.448,1.34c0.004,0.059,0.038,0.111,0.073,0.158
			c0.489,0.671,1.887,1.465,2.706,1.602c0.106,0.018,0.211,0.032,0.315,0.044c0.099,0.203,0.26,0.38,0.445,0.512
			c0.291,0.209,0.637,0.326,0.977,0.44c-0.121-0.258-0.165-0.552-0.125-0.834c0.005-0.033,0.01-0.066,0.016-0.1
			c1.053-0.104,1.972-0.506,2.767-1.15c0.121,0.21,0.269,0.404,0.417,0.597c0.186,0.243,0.372,0.489,0.608,0.683
			c0.237,0.193,0.533,0.331,0.838,0.317c0.057-0.003,0.118-0.012,0.163-0.047c-0.163-0.114-0.333-0.236-0.421-0.414
			c-0.109-0.221-0.073-0.482-0.116-0.725c-0.042-0.241-0.165-0.466-0.345-0.631c0.185-0.114,0.33-0.292,0.404-0.496
			c0.073-0.202,0.078-0.424,0.147-0.628c0.063-0.186,0.181-0.353,0.335-0.475c0.153-0.121,0.343-0.202,0.462-0.356
			c-0.373-0.067-0.761,0.026-1.102,0.194c-0.34,0.168-0.639,0.407-0.932,0.648c-0.135,0.112-0.269,0.224-0.402,0.338
			c-0.032,0.027-0.065,0.057-0.091,0.089c-0.522-0.22-1.393-0.546-2.251-0.792C169.319,69.893,169.516,69.209,169.813,69.091z"/>
		<path style="stroke:#000000;stroke-width:0.25;stroke-linecap:round;stroke-linejoin:round;stroke-miterlimit:10;" d="
			M140.321,73.008c0.106,0.018,0.211,0.032,0.315,0.044c0.099,0.203,0.26,0.38,0.445,0.512c0.291,0.209,0.637,0.326,0.977,0.44
			c-0.121-0.258-0.165-0.552-0.125-0.834c0.005-0.033,0.01-0.066,0.016-0.1c1.053-0.104,1.972-0.506,2.767-1.15
			c0.121,0.21,0.269,0.404,0.417,0.597c0.186,0.243,0.372,0.489,0.608,0.683c0.237,0.193,0.533,0.331,0.838,0.317
			c0.058-0.003,0.118-0.012,0.163-0.047c-0.163-0.114-0.333-0.236-0.421-0.414c-0.109-0.22-0.073-0.482-0.116-0.725
			c-0.042-0.24-0.165-0.466-0.345-0.631c0.185-0.114,0.33-0.292,0.404-0.496c0.073-0.202,0.078-0.424,0.147-0.628
			c0.063-0.186,0.181-0.353,0.334-0.475c0.153-0.121,0.343-0.202,0.462-0.356c-0.373-0.067-0.761,0.027-1.102,0.194
			c-0.34,0.168-0.639,0.407-0.932,0.648c-0.135,0.112-0.269,0.224-0.402,0.338c-0.032,0.027-0.065,0.057-0.091,0.089
			c-0.522-0.22-1.393-0.546-2.251-0.792c-0.188-0.054,0.009-0.738,0.306-0.856c-0.615,0.033-1.22,0.222-1.746,0.542
			c-2.133-0.067-3.456,1.204-3.448,1.34c0.003,0.059,0.038,0.111,0.073,0.158C138.103,72.077,139.502,72.871,140.321,73.008z"/>
		<path style="stroke:#000000;stroke-width:0.25;stroke-linecap:round;stroke-linejoin:round;stroke-miterlimit:10;" d="
			M116.838,92.247c-0.756,1.127-0.88,2.556-0.873,3.913c0.001,0.154,0.014,0.307,0.017,0.461c-0.213-0.07-0.423-0.152-0.623-0.254
			c-0.728-0.369-1.37-0.937-2.164-1.124c-0.052-0.012-0.109-0.022-0.157,0c-0.089,0.041-0.101,0.161-0.097,0.259
			c0.051,1.278,0.538,2.511,0.563,3.79c0.017,0.864-0.02,1.042-0.117,1.878c1.457,0.001,1.807-0.794,2.787-1.882
			c0.01,0.081,0.014,0.162,0.025,0.242c0.124,0.92,0.309,1.861,0.825,2.633c0.41,0.614,1.008,1.083,1.652,1.445
			c2.151,1.207,4.922,1.225,7.088,0.045c1.123-0.612,2.497-1.202,3.646-1.762c1.816-0.884,3.52-1.15,5.44-1.777
			c0.311-0.102,0.831-0.743,0.588-0.961c-0.924-0.826-2.719-1.083-4.032-2.653c-1.001-1.196-1.681-2.199-2.907-3.162
			c-0.531-0.418-1.655-3.122-7.425-3.122C119.443,90.217,117.745,90.893,116.838,92.247z"/>
		<path style="stroke:#000000;stroke-width:0.25;stroke-linecap:round;stroke-linejoin:round;stroke-miterlimit:10;" d="
			M276.41,120.694c-1.407-0.209-2.86,0.099-4.255-0.175c-6.139-1.204-5.973-9.114-12.168-9.984
			c-1.372-0.193-3.423-2.554-4.736-2.113c-2.272,0.762-4.477,1.725-6.582,2.87c-1.778,0.968-4.004,0.347-5.026-1.401
			c-1.008-1.725-2.245-3.723-3.228-4.941c-0.543-0.672-1.572-8.172-2.404-8.403c-1.074-0.299-1.893-1.4-3-1.537
			c-0.198-1.534-0.176-3.07,0.354-4.509c0.684-1.861,2.128-3.322,3.205-4.986c1.375-2.125,2.158-4.628,2.237-7.158
			c0.005-0.145,0.003-0.304-0.089-0.417c-0.059-0.073-0.145-0.113-0.236-0.14c-0.51-0.146-1.046-0.174-1.538,0.022
			c-3.384,1.35-2.454,3.512-2.89,5.432c-0.261,1.148-0.987,2.125-1.603,3.128c-0.279,0.454-0.53,0.924-0.769,1.401
			c0.002-3.37-2.443-6.726-2.024-10.173c0.206-1.698,1.094-3.233,1.534-4.886c0.44-1.653,0.286-3.703-1.118-4.68
			c-1.639,1.51-1.479,4.083-2.085,6.227c-0.078,0.276-0.224,0.594-0.509,0.628c-0.238,0.028-0.44-0.163-0.595-0.345
			c-1.442-1.702-2.102-3.98-3.644-5.592c-0.627-0.656-1.606-1.21-2.406-0.699c-0.664,0.424-0.786,1.32-0.469,2.042
			c0.507,1.153,1.665,1.686,2.552,2.49c0.586,0.531,1.053,1.18,1.483,1.844c1.678,2.588,2.887,5.46,3.53,8.477
			c0.287,1.346,0.503,2.73,0.419,4.109c-0.068,1.124-0.335,2.225-0.473,3.342c-0.18,1.451-0.143,2.919-0.078,4.379
			c0,0.006,0.001,0.012,0.001,0.019c-0.836,0.087-0.945,1.044-1.766,1.221c-0.323,0.07-2.319-0.59-2.638-0.506
			c-1.068,0.28-1.162,0.549-2.176,0.986c-0.3-1.283-0.612-2.564-0.635-3.876c-0.029-1.593,0.37-3.16,0.798-4.695
			c0.509-1.828,1.08-3.68,2.19-5.219c0.426-0.591,0.934-1.14,1.205-1.817s0.241-1.547-0.308-2.026
			c-0.719-0.629-1.874-0.255-2.596,0.37c-0.731,0.632-1.264,1.489-1.508,2.423c-0.367,1.407-0.203,3.16-1.376,4.019
			c-0.976-0.912-1.15-2.363-1.603-3.619c-0.403-1.117-1.066-2.139-1.923-2.961c-0.279-0.268-0.713-0.524-1.023-0.292
			c-0.24,0.18-0.231,0.539-0.185,0.836c0.342,2.188,1.417,4.18,2.229,6.24c0.777,1.969,1.315,4.174,0.723,6.191c0,0,0,0,0,0
			c-0.738-1.42-1.627-2.996-3.169-3.448c-0.266-0.078-0.589-0.104-0.785,0.092c-0.186,0.186-0.172,0.487-0.132,0.746
			c0.187,1.208,0.693,2.366,1.453,3.324c0.825,1.04,1.951,1.865,2.513,3.068c0.342,0.732,0.446,1.542,0.567,2.344
			c-0.771,0.299-2.059,0.969-2.881,0.893c-1.464,1.335-0.895-1.057-3.524-1.518c-0.617-0.108-1.038-1.019-1.627-1.171
			c0.001-0.018,0.002-0.036,0.003-0.054c0.065-1.46,0.102-2.929-0.078-4.379c-0.138-1.117-0.404-2.219-0.473-3.342
			c-0.084-1.378,0.132-2.762,0.419-4.107c0.643-3.016,1.852-5.887,3.528-8.475c0.431-0.665,0.898-1.316,1.486-1.849
			c0.888-0.804,2.046-1.336,2.553-2.49c0.317-0.722,0.195-1.617-0.469-2.042c-0.8-0.511-1.779,0.043-2.406,0.699
			c-1.542,1.612-2.202,3.891-3.644,5.592c-0.155,0.183-0.357,0.374-0.595,0.345c-0.285-0.034-0.431-0.353-0.509-0.628
			c-0.606-2.144-0.446-4.717-2.085-6.227c-1.404,0.978-1.559,3.027-1.118,4.68c0.44,1.653,1.328,3.188,1.534,4.886
			c0.419,3.447-2.027,6.803-2.024,10.173c-0.238-0.477-0.49-0.947-0.769-1.401c-0.617-1.003-1.342-1.979-1.603-3.128
			c-0.437-1.92,0.495-4.083-2.892-5.433c-0.491-0.196-1.024-0.166-1.533-0.022c-0.093,0.026-0.18,0.067-0.239,0.14
			c-0.092,0.113-0.094,0.272-0.089,0.417c0.016,0.496,0.066,0.991,0.135,1.482c-0.411,0.123-1.007,0.612-1.219,0.816
			c-0.857,0.822-1.52,1.844-1.923,2.961c-0.453,1.256-0.627,2.707-1.603,3.619c-1.173-0.859-1.008-2.612-1.376-4.019
			c-0.244-0.935-0.777-1.791-1.508-2.423c-0.723-0.625-1.877-0.998-2.596-0.37c-0.549,0.48-0.579,1.35-0.308,2.026
			c0.272,0.677,0.779,1.225,1.205,1.817c1.109,1.539,1.681,3.392,2.19,5.219c0.427,1.535,0.826,3.102,0.798,4.695
			c-0.035,1.954-0.705,3.84-1.026,5.765c-0.748,0.614-1.234,3.136-1.863,3.888c-2.313,2.762-2.096,4.543-3.175,9.746
			c-1.398,0.547-2.967,0.345-4.288-0.367c-2.728-1.471-5.625-2.297-8.606-2.718c-0.002-0.007-0.001-0.004-0.004-0.012
			c0.799-0.76,1.818-1.259,2.945-1.674c1.073-0.403,2.235-0.857,3.309-1.436c1.071-0.597,2.099-1.305,3.004-2.159
			c0.891-0.861,1.682-1.851,2.252-2.954c1.152-2.175,1.616-4.741,1.058-7.066c-0.086,2.372-0.864,4.586-2.085,6.46
			c-1.23,1.864-2.976,3.32-4.958,4.377c-0.986,0.563-2.02,0.972-3.13,1.444c-1.088,0.49-2.271,1.085-3.138,2.08
			c-0.223,0.245-0.418,0.507-0.59,0.78c-0.81-0.082-1.625-0.14-2.444-0.172c-0.043-0.056-0.063-0.082-0.106-0.138
			c0.154-0.659,0.351-1.301,0.614-1.906c0.573-1.297,1.469-2.382,2.593-3.243c1.128-0.866,2.437-1.553,3.776-2.303
			c1.316-0.776,2.696-1.636,3.775-2.885c1.081-1.24,1.799-2.768,2.116-4.318c0.351-1.549,0.391-3.115,0.318-4.647
			c-0.095-1.534-0.303-3.044-0.609-4.535c-0.049,3.03-0.038,6.095-0.862,8.88c-0.22,0.686-0.473,1.356-0.81,1.971
			c-0.076,0.159-0.179,0.3-0.266,0.451c-0.086,0.152-0.186,0.294-0.295,0.43l-0.313,0.415c-0.111,0.133-0.237,0.255-0.353,0.383
			c-0.936,1.03-2.167,1.798-3.461,2.531c-1.283,0.756-2.671,1.48-3.918,2.502c-1.224,1.036-2.286,2.392-2.795,3.933
			c-0.119,0.334-0.214,0.672-0.296,1.012c-0.138-0.36-0.281-0.718-0.415-1.079c-0.107-0.298-0.211-0.597-0.312-0.896
			c0.075-1.19,0.224-2.364,0.481-3.507c0.247-1.138,0.621-2.24,1.237-3.154l0.227-0.348l0.262-0.324
			c0.165-0.225,0.378-0.411,0.571-0.616c0.421-0.377,0.864-0.744,1.358-1.07c0.977-0.657,2.072-1.229,3.133-1.889
			c1.053-0.667,2.08-1.458,2.816-2.463c-1.948,1.573-4.308,2.109-6.568,3.333c-1.136,0.589-2.204,1.461-2.995,2.562
			c-0.739,1.026-1.164,2.196-1.461,3.356c-0.116-1.469,0.103-2.902,0.796-4.168c0.701-1.381,1.838-2.578,2.929-3.908
			c1.089-1.358,2.027-2.851,2.731-4.431c1.434-3.151,2.111-6.606,1.998-9.992c-0.524,3.342-1.51,6.562-3.067,9.464
			c-0.795,1.44-1.687,2.809-2.772,4.031c-1.069,1.246-2.309,2.505-3.175,4.132c-0.413,0.816-0.723,1.712-0.849,2.629
			c-0.129,0.914-0.131,1.836,0.001,2.722c0.149,1.012,0.407,1.984,0.731,2.921c-0.537-0.546-1.101-1.067-1.691-1.559
			c0.336-2.191,0.954-4.388,1.348-6.689c0.249-1.567,0.387-3.209,0.236-4.828c-0.166-1.613-0.522-3.206-1.131-4.7
			c-0.591-1.499-1.408-2.906-2.429-4.14c-1.043-1.211-2.297-2.257-3.729-2.9c2.528,1.865,4.127,4.585,5.035,7.441
			c0.438,1.437,0.739,2.914,0.811,4.406c0.096,1.489-0.038,2.971-0.3,4.472c-0.234,1.503-0.59,3.014-0.867,4.566
			c-0.049,0.294-0.096,0.591-0.141,0.889c-0.015-0.03-0.029-0.06-0.045-0.089c-0.633-1.179-1.381-2.315-2.177-3.378
			c-0.811-1.038-1.578-2.032-2.128-3.119c-0.54-1.085-0.802-2.295-0.744-3.549c0.038-1.248,0.372-2.511,1.076-3.625
			c-0.974,0.903-1.567,2.201-1.821,3.54c-0.12,0.675-0.158,1.371-0.098,2.068c0.06,0.7,0.246,1.39,0.494,2.042
			c0.498,1.318,1.326,2.425,2.051,3.493c0.418,0.6,0.817,1.204,1.193,1.82c-0.567-0.32-1.123-0.633-1.63-0.974
			c-0.659-0.426-1.235-0.905-1.725-1.482c-0.496-0.573-0.906-1.234-1.253-1.934c-0.708-1.398-1.112-2.966-1.343-4.553
			c-0.423-3.203,0.016-6.522,0.663-9.796c-1.252,3.09-2.068,6.455-1.85,9.914c0.104,1.724,0.507,3.44,1.224,5.058
			c0.363,0.807,0.838,1.575,1.418,2.274c0.579,0.703,1.289,1.31,2.025,1.794c0.741,0.482,1.5,0.872,2.214,1.268
			c0.578,0.316,1.121,0.668,1.663,1.029c0.182,0.377,0.358,0.757,0.525,1.141c-0.004,0.314-0.002,0.629,0.016,0.945
			c0.043,1.164,0.268,2.314,0.629,3.412c-0.125,0.008-0.25,0.013-0.375,0.021c-0.219-0.195-0.447-0.378-0.683-0.545
			c-1.413-1.003-2.993-1.498-4.22-2.336c-1.238-0.78-2.17-1.972-2.809-3.321c-0.322-0.672-0.574-1.382-0.748-2.112
			c-0.175-0.73-0.249-1.475-0.297-2.259c-0.117-1.555-0.032-3.237-0.516-4.915c-0.249-0.83-0.611-1.635-1.122-2.331
			c-0.507-0.698-1.124-1.296-1.796-1.793c-1.361-0.984-2.887-1.598-4.427-2.076c1.408,0.788,2.819,1.584,3.949,2.655
			c1.149,1.045,1.935,2.381,2.239,3.834c0.292,1.463,0.199,3.039,0.228,4.69c0.017,0.823,0.103,1.686,0.287,2.526
			c0.187,0.838,0.461,1.658,0.826,2.441c0.755,1.537,1.89,2.983,3.417,3.883c1.287,0.767,2.619,1.208,3.786,1.806
			c-1.496,0.128-2.988,0.283-4.465,0.441c-3.886,0.417-7.773,0.833-11.659,1.25c-1.632,0.175-3.344,0.391-4.929,0.854
			c-4.656,1.358-9.584,1.128-14.229-0.27c-5.106-1.536-9.2-0.734-14.324-2.314c-1.282-0.395-3.614-3.215-4.896-3.61
			c-1.795-0.553-5.023,1.902-6.818,1.349c-3.104-0.957-4.996-4.46-7.908-5.82c0-0.001-0.001-0.002-0.001-0.003
			c0.484-0.706,1.123-1.261,1.861-1.701c1.286-0.768,2.844-1.219,4.339-2.11c1.527-0.9,2.662-2.347,3.417-3.883
			c0.366-0.782,0.639-1.603,0.827-2.441c0.184-0.839,0.27-1.703,0.287-2.526c0.029-1.651-0.064-3.226,0.228-4.69
			c0.305-1.453,1.09-2.789,2.239-3.834c1.13-1.07,2.541-1.867,3.949-2.655c-1.54,0.479-3.066,1.092-4.427,2.076
			c-0.672,0.497-1.289,1.095-1.796,1.793c-0.511,0.696-0.872,1.5-1.122,2.331c-0.484,1.678-0.399,3.36-0.516,4.915
			c-0.048,0.784-0.122,1.529-0.297,2.259c-0.174,0.73-0.426,1.44-0.748,2.112c-0.639,1.349-1.571,2.542-2.809,3.321
			c-1.228,0.839-2.807,1.334-4.22,2.336c-0.451,0.319-0.88,0.692-1.256,1.111c0.487-1.27,0.777-2.627,0.828-4
			c0.017-0.316,0.02-0.631,0.016-0.945c0.168-0.384,0.343-0.765,0.525-1.141c0.542-0.361,1.084-0.714,1.663-1.029
			c0.713-0.397,1.472-0.786,2.214-1.268c0.736-0.484,1.446-1.091,2.025-1.794c0.58-0.699,1.055-1.467,1.418-2.274
			c0.717-1.618,1.12-3.334,1.224-5.058c0.219-3.458-0.598-6.823-1.85-9.914c0.647,3.274,1.086,6.593,0.663,9.796
			c-0.231,1.588-0.635,3.155-1.343,4.553c-0.347,0.699-0.757,1.36-1.253,1.934c-0.49,0.577-1.066,1.057-1.725,1.482
			c-0.507,0.341-1.062,0.653-1.63,0.974c0.376-0.617,0.775-1.22,1.193-1.82c0.724-1.068,1.553-2.175,2.051-3.493
			c0.249-0.652,0.434-1.343,0.495-2.042c0.059-0.698,0.022-1.393-0.098-2.068c-0.254-1.34-0.847-2.637-1.821-3.54
			c0.703,1.114,1.038,2.376,1.076,3.625c0.059,1.254-0.204,2.464-0.743,3.549c-0.55,1.086-1.317,2.08-2.128,3.119
			c-0.796,1.063-1.543,2.199-2.177,3.378c-0.015,0.03-0.029,0.06-0.045,0.089c-0.045-0.298-0.091-0.595-0.141-0.889
			c-0.277-1.553-0.633-3.063-0.867-4.566c-0.262-1.501-0.396-2.983-0.3-4.472c0.072-1.491,0.373-2.969,0.811-4.406
			c0.908-2.856,2.507-5.575,5.035-7.441c-1.432,0.643-2.686,1.689-3.729,2.9c-1.021,1.234-1.838,2.641-2.429,4.14
			c-0.609,1.494-1.797,3.914-0.976,10.371c-0.114-0.296-0.238-0.588-0.38-0.868c-0.865-1.627-2.106-2.886-3.175-4.132
			c-1.086-1.222-1.977-2.591-2.772-4.031c-1.557-2.901-2.543-6.121-3.067-9.464c-0.112,3.386,0.564,6.841,1.998,9.992
			c0.704,1.58,1.642,3.073,2.731,4.431c1.092,1.33,2.228,2.527,2.93,3.908c0.692,1.266,0.912,2.699,0.796,4.168
			c-0.296-1.159-0.721-2.33-1.461-3.356c-0.791-1.102-1.859-1.973-2.995-2.562c-2.26-1.224-4.619-1.76-6.567-3.333
			c0.735,1.005,1.763,1.796,2.816,2.463c1.061,0.66,2.156,1.232,3.133,1.889c0.494,0.326,0.937,0.693,1.358,1.07
			c0.193,0.205,0.406,0.391,0.571,0.616l0.262,0.324l0.227,0.348c0.616,0.914,0.989,2.016,1.237,3.154
			c0.257,1.144,0.406,2.318,0.481,3.507c-0.101,0.299-0.205,0.598-0.312,0.896c-0.133,0.361-0.277,0.719-0.415,1.079
			c-0.081-0.34-0.177-0.677-0.296-1.012c-0.509-1.541-1.571-2.896-2.795-3.933c-1.246-1.022-2.635-1.747-3.918-2.502
			c-1.294-0.733-2.525-1.501-3.461-2.531c-0.117-0.128-0.242-0.25-0.353-0.383l-0.313-0.415c-0.109-0.135-0.209-0.277-0.295-0.43
			c-0.087-0.151-0.191-0.292-0.266-0.451c-0.337-0.615-0.59-1.285-0.81-1.971c-0.825-2.786-0.813-5.85-0.862-8.88
			c-0.306,1.492-0.514,3.001-0.609,4.535c-0.074,1.532-0.034,3.097,0.318,4.647c0.317,1.55,1.036,3.078,2.117,4.318
			c1.078,1.25,2.458,2.109,3.774,2.885c1.338,0.75,2.647,1.437,3.776,2.303c1.124,0.861,2.02,1.946,2.593,3.243
			c0.259,0.596,0.454,1.227,0.607,1.875c-0.254,0.406-0.492,0.821-0.722,1.24c-0.079,0.008-0.158,0.009-0.236,0.02
			c-0.346,0.048-1.655-1.127-2.175-1.7c-0.868-0.995-2.05-1.59-3.138-2.08c-1.11-0.472-2.144-0.882-3.13-1.444
			c-1.982-1.057-3.729-2.513-4.958-4.377c-1.22-1.875-1.999-4.088-2.085-6.46c-0.559,2.325-0.094,4.891,1.057,7.066
			c0.569,1.102,1.36,2.092,2.252,2.954c0.905,0.854,1.933,1.562,3.004,2.159c1.074,0.579,2.236,1.033,3.309,1.436
			c1.078,0.397,2.057,0.871,2.84,1.577c0.426,0.391,0.779,0.87,1.079,1.397c-0.536,0.203-1.063,0.437-1.585,0.671
			c-3.16,1.418-6.319,2.836-9.479,4.254c0.109-0.854,0.094-1.72-0.07-2.545c-0.029,0.975-0.197,1.91-0.469,2.786
			c-1.499,0.673-2.998,1.346-4.497,2.018c0.566-0.438,1.122-0.936,1.583-1.582c0.642-0.889,1.069-1.986,1.257-3.097
			c0.209-1.111,0.232-2.234,0.189-3.333c-0.056-1.1-0.18-2.183-0.362-3.253c-0.029,2.173-0.022,4.372-0.512,6.37
			c-0.131,0.492-0.281,0.972-0.481,1.414c-0.045,0.114-0.106,0.215-0.158,0.324c-0.051,0.109-0.11,0.211-0.175,0.308l-0.186,0.298
			c-0.066,0.096-0.141,0.183-0.21,0.275c-0.556,0.739-1.287,1.29-2.056,1.815c-0.762,0.542-1.587,1.062-2.327,1.795
			c-0.295,0.302-0.567,0.653-0.84,0.984c-0.657-0.278-0.613-0.259-1.271-0.537c0.036-0.28,0.078-0.558,0.129-0.833
			c0.147-0.817,0.369-1.607,0.734-2.262l0.135-0.25l0.156-0.232c0.098-0.161,0.225-0.295,0.339-0.442
			c0.25-0.271,0.513-0.534,0.807-0.767c0.58-0.471,1.231-0.881,1.861-1.355c0.625-0.479,1.236-1.046,1.672-1.767
			c-1.157,1.128-2.559,1.513-3.901,2.391c-0.675,0.423-1.309,1.048-1.779,1.838c-0.439,0.736-0.691,1.575-0.868,2.407
			c-0.069-1.054,0.061-2.081,0.473-2.99c0.417-0.991,1.092-1.849,1.74-2.803c0.647-0.974,1.204-2.045,1.622-3.178
			c0.852-2.26,1.254-4.739,1.187-7.167c-0.311,2.397-0.897,4.707-1.822,6.788c-0.472,1.033-1.002,2.015-1.647,2.892
			c-0.635,0.894-1.372,1.797-1.886,2.964c-0.245,0.586-0.43,1.228-0.504,1.886c-0.076,0.656-0.078,1.317,0.001,1.952
			c0.089,0.726,0.242,1.423,0.434,2.095c-0.319-0.392-0.654-0.765-1.005-1.118c0.199-1.572,0.567-3.148,0.801-4.798
			c0.148-1.124,0.23-2.302,0.14-3.463c-0.099-1.157-0.31-2.299-0.672-3.371c-0.351-1.075-0.836-2.084-1.443-2.969
			c-0.619-0.869-1.364-1.619-2.215-2.08c1.502,1.338,2.451,3.289,2.991,5.337c0.26,1.031,0.439,2.091,0.482,3.16
			c0.057,1.068-0.023,2.131-0.178,3.208c-0.139,1.078-0.351,2.162-0.515,3.275c-0.029,0.211-0.057,0.424-0.084,0.638
			c-0.009-0.021-0.017-0.043-0.027-0.064c-0.376-0.846-0.82-1.66-1.293-2.423c-0.482-0.745-0.937-1.458-1.264-2.237
			c-0.321-0.779-0.476-1.646-0.442-2.546c0.023-0.895,0.221-1.801,0.639-2.6c-0.579,0.647-0.931,1.578-1.082,2.539
			c-0.071,0.484-0.094,0.983-0.058,1.484c0.036,0.502,0.146,0.997,0.294,1.465c0.296,0.945,0.788,1.739,1.218,2.505
			c0.248,0.43,0.485,0.863,0.709,1.306c-0.337-0.23-0.667-0.454-0.968-0.698c-0.392-0.305-0.734-0.649-1.025-1.063
			c-0.295-0.411-0.538-0.885-0.744-1.387c-0.42-1.003-0.661-2.127-0.798-3.266c-0.251-2.298,0.01-4.678,0.394-7.027
			c-0.744,2.217-1.228,4.63-1.099,7.111c0.061,1.237,0.301,2.468,0.727,3.628c0.215,0.579,0.497,1.13,0.842,1.631
			c0.344,0.505,0.765,0.94,1.203,1.287c0.44,0.346,0.891,0.625,1.315,0.91c0.306,0.201,0.595,0.424,0.881,0.653
			c0.128,0.275,0.29,0.623,0.418,0.899c-0.003,0.227-0.001,0.454,0.009,0.683c0.003,0.087,0.012,0.172,0.017,0.259
			c-0.595,0.267-1.191,0.534-1.786,0.801c-0.352-0.208-0.69-0.415-0.992-0.664c-0.735-0.559-1.289-1.415-1.668-2.382
			c-0.192-0.482-0.341-0.991-0.444-1.515c-0.104-0.524-0.148-1.058-0.177-1.62c-0.069-1.115-0.019-2.322-0.307-3.526
			c-0.148-0.595-0.363-1.172-0.666-1.672c-0.301-0.5-0.668-0.929-1.067-1.286c-0.808-0.706-1.715-1.146-2.63-1.489
			c0.836,0.565,1.675,1.136,2.346,1.904c0.682,0.75,1.149,1.708,1.33,2.75c0.173,1.05,0.118,2.18,0.135,3.364
			c0.01,0.59,0.061,1.21,0.17,1.812c0.111,0.601,0.274,1.19,0.491,1.751c0.449,1.102,1.123,2.14,2.03,2.785
			c0.131,0.094,0.263,0.18,0.394,0.262c-1.026,0.461-2.053,0.921-3.079,1.382c-1.534,0.688-3.232,1.391-4.847,0.921
			c-1.966-0.572-3.045-2.638-4.656-3.902c-1.09-0.855-2.42-1.333-3.725-1.798c-0.112-0.04-0.224-0.08-0.336-0.12
			c1.674-0.998,3.342-2.009,4.969-3.082c0.514-0.339,1.058-0.727,1.246-1.313c0.172-0.533,0.009-1.114-0.198-1.634
			c-0.901-2.267-2.679-4.171-4.879-5.226c-0.36-0.172-0.752-0.326-1.147-0.273c-0.294,0.039-0.559,0.189-0.816,0.338
			c-2.649,1.535-5.196,3.244-7.636,5.094c1.478-2.65,2.846-5.356,3.863-8.22c0.316-0.891,0.455-1.83,0.425-2.775
			c-0.017-0.543-0.094-1.15-0.454-1.578c-0.268-0.319-0.661-0.501-1.041-0.673c-0.782-0.354-1.563-0.709-2.345-1.063
			c-0.827-0.375-1.67-0.752-2.542-0.991c0.547-1.786,0.938-3.622,0.441-5.533c-0.169-0.65-0.476-1.264-0.901-1.784
			c-0.392-0.479-0.908-0.954-1.529-1.143c-0.511-0.155-1.058-0.109-1.591-0.073c-1.483,0.1-2.988,0.113-4.422,0.504
			c-0.75,0.205-1.512,0.543-1.953,1.183c-0.411,0.597-0.479,1.359-0.496,2.084c-0.041,1.71,0.133,3.424,0.507,5.093
			c-0.763,0.12-1.497,0.431-2.025,0.988c-0.748,0.789-0.987,1.926-1.026,3.017c-0.132-0.137-0.263-0.276-0.407-0.403
			c-0.277-0.246-0.584-0.476-0.943-0.567c-0.302-0.077-0.62-0.051-0.929-0.01c-1.728,0.231-3.392,0.93-4.767,2.002
			c-0.433,0.338-0.853,0.733-1.044,1.248c-0.21,0.565-0.116,1.192-0.019,1.787c0.145,0.891,0.29,1.786,0.576,2.643
			c0.408,1.224,1.094,2.335,1.925,3.329c-2.539,0.78-4.878,2.188-7.393,3.09c-0.985,0.353-2.047,0.611-3.109,0.718
			c-1.231,0.124-2.244,1.171-2.244,2.408v21.98h288.821C284.036,130.408,282.352,121.577,276.41,120.694z M92.387,101.843
			c-0.085,0.423-0.156,0.849-0.221,1.275c-0.193-0.052-0.385-0.103-0.579-0.149c0.058-0.365,0.122-0.727,0.168-1.095
			c0.109-0.804,0.168-1.616,0.195-2.432c0.477-0.484,0.966-0.955,1.472-1.405C92.983,99.28,92.633,100.552,92.387,101.843z
			 M92.146,97.439c0.323-0.938,0.582-1.909,0.731-2.921c0.114-0.765,0.109-1.557,0.027-2.347c0.397,1.536,0.804,2.867,0.933,3.71
			C93.246,96.372,92.682,96.893,92.146,97.439z M168.151,111.727c-0.243-1.207-0.572-2.397-0.983-3.561
			c0.506,0.449,0.995,0.92,1.472,1.405c0.024,0.716,0.079,1.428,0.164,2.136C168.586,111.71,168.369,111.721,168.151,111.727z
			 M206.446,96.37c-1.175,0.168-2.459,1.663-3.629,2.021c-1.722,0.527-3.319,0.002-4.946,0.696
			c-0.002-0.002-0.001-0.001-0.003-0.003c0.545-1.259,1.712-2.102,2.56-3.172c0.76-0.958,1.266-2.116,1.453-3.324
			c0.04-0.26,0.053-0.56-0.132-0.746c-0.196-0.196-0.519-0.169-0.785-0.092c-1.542,0.452-2.43,2.028-3.169,3.448c0,0,0,0,0,0
			c-0.592-2.017-0.053-4.222,0.723-6.191c0.778-1.972,2.182-3.771,2.602-5.84c0.379,1.384,0.96,2.712,1.739,3.916
			c1.077,1.664,2.522,3.125,3.205,4.986C206.571,93.445,206.615,94.906,206.446,96.37z"/>
		
			<circle style="stroke:#000000;stroke-width:0.25;stroke-linecap:round;stroke-linejoin:round;stroke-miterlimit:10;" cx="271.822" cy="89.639" r="2.197"/>
		
			<circle style="stroke:#000000;stroke-width:0.25;stroke-linecap:round;stroke-linejoin:round;stroke-miterlimit:10;" cx="268.671" cy="82.604" r="0.955"/>
		<path style="stroke:#000000;stroke-width:0.25;stroke-linecap:round;stroke-linejoin:round;stroke-miterlimit:10;" d="
			M275.101,83.559c0-0.668-0.542-1.21-1.21-1.21s-1.21,0.542-1.21,1.21s0.542,1.21,1.21,1.21S275.101,84.227,275.101,83.559z"/>
		<path style="stroke:#000000;stroke-width:0.25;stroke-linecap:round;stroke-linejoin:round;stroke-miterlimit:10;" d="
			M273.541,77.924c0-0.475-0.385-0.859-0.859-0.859c-0.475,0-0.859,0.385-0.859,0.859c0,0.475,0.385,0.86,0.859,0.86
			C273.157,78.784,273.541,78.399,273.541,77.924z"/>
		<path style="stroke:#000000;stroke-width:0.25;stroke-linecap:round;stroke-linejoin:round;stroke-miterlimit:10;" d="
			M61.04,12.76c0.133,0.022,0.265,0.04,0.395,0.056c0.124,0.255,0.327,0.477,0.559,0.644c0.366,0.263,0.801,0.41,1.228,0.553
			c-0.152-0.324-0.208-0.694-0.157-1.048c0.006-0.041,0.013-0.083,0.02-0.125c1.324-0.131,2.48-0.636,3.479-1.446
			c0.152,0.264,0.338,0.508,0.524,0.751c0.233,0.305,0.467,0.615,0.765,0.858c0.297,0.243,0.67,0.416,1.054,0.398
			c0.072-0.003,0.148-0.015,0.205-0.06c-0.205-0.143-0.418-0.296-0.529-0.52c-0.138-0.277-0.092-0.606-0.146-0.911
			c-0.053-0.302-0.208-0.586-0.434-0.793c0.233-0.143,0.415-0.367,0.508-0.624c0.092-0.255,0.098-0.534,0.185-0.79
			c0.08-0.234,0.227-0.443,0.421-0.597c0.192-0.153,0.431-0.254,0.581-0.448c-0.469-0.084-0.957,0.033-1.385,0.244
			c-0.428,0.211-0.804,0.511-1.171,0.815c-0.17,0.14-0.338,0.282-0.506,0.424c-0.04,0.034-0.081,0.071-0.115,0.112
			c-0.656-0.277-1.752-0.687-2.829-0.995c-0.237-0.068,0.011-0.928,0.384-1.076c-0.773,0.042-1.534,0.279-2.196,0.681
			c-2.681-0.084-4.345,1.513-4.335,1.685c0.004,0.074,0.048,0.139,0.092,0.199C58.253,11.59,60.011,12.588,61.04,12.76z"/>
		<path style="stroke:#000000;stroke-width:0.25;stroke-linecap:round;stroke-linejoin:round;stroke-miterlimit:10;" d="
			M65.89,21.71c0.004,0.074,0.048,0.139,0.092,0.199c0.615,0.844,2.373,1.842,3.402,2.013c0.133,0.022,0.265,0.04,0.395,0.056
			c0.124,0.255,0.327,0.477,0.559,0.644c0.366,0.263,0.801,0.41,1.228,0.553c-0.152-0.324-0.207-0.694-0.157-1.048
			c0.006-0.041,0.013-0.083,0.02-0.125c1.324-0.131,2.48-0.636,3.479-1.446c0.152,0.264,0.338,0.508,0.524,0.751
			c0.233,0.305,0.467,0.615,0.765,0.858c0.297,0.243,0.67,0.416,1.054,0.398c0.072-0.003,0.148-0.015,0.205-0.06
			c-0.205-0.143-0.418-0.296-0.529-0.52c-0.138-0.277-0.092-0.606-0.146-0.911c-0.053-0.302-0.208-0.586-0.434-0.793
			c0.233-0.143,0.415-0.367,0.508-0.624c0.092-0.255,0.098-0.534,0.185-0.79c0.079-0.234,0.227-0.443,0.421-0.597
			c0.192-0.153,0.431-0.253,0.581-0.448c-0.469-0.084-0.957,0.033-1.385,0.244c-0.428,0.211-0.804,0.511-1.171,0.815
			c-0.17,0.14-0.338,0.282-0.506,0.424c-0.041,0.035-0.081,0.071-0.115,0.112c-0.656-0.277-1.752-0.687-2.83-0.995
			c-0.237-0.068,0.011-0.928,0.384-1.076c-0.773,0.042-1.534,0.279-2.196,0.681C67.544,19.941,65.88,21.539,65.89,21.71z"/>
		<path style="stroke:#000000;stroke-width:0.25;stroke-linecap:round;stroke-linejoin:round;stroke-miterlimit:10;" d="
			M87.88,12.087c0.133,0.022,0.265,0.04,0.395,0.056c0.124,0.255,0.327,0.477,0.559,0.644c0.366,0.263,0.801,0.41,1.228,0.553
			c-0.152-0.324-0.208-0.694-0.157-1.048c0.006-0.041,0.013-0.083,0.02-0.125c1.324-0.131,2.48-0.636,3.479-1.446
			c0.152,0.264,0.338,0.508,0.524,0.751c0.233,0.305,0.467,0.615,0.765,0.858c0.297,0.243,0.67,0.416,1.054,0.398
			c0.072-0.003,0.148-0.015,0.205-0.06c-0.205-0.143-0.418-0.296-0.529-0.52c-0.138-0.277-0.092-0.606-0.146-0.911
			c-0.053-0.302-0.208-0.586-0.434-0.793c0.233-0.143,0.415-0.367,0.508-0.624c0.092-0.255,0.098-0.534,0.185-0.79
			c0.079-0.234,0.227-0.443,0.421-0.597c0.192-0.153,0.431-0.253,0.581-0.448c-0.469-0.084-0.957,0.033-1.385,0.244
			c-0.428,0.211-0.804,0.511-1.171,0.815c-0.17,0.14-0.338,0.282-0.506,0.424c-0.041,0.034-0.081,0.071-0.115,0.112
			c-0.656-0.277-1.752-0.687-2.83-0.996c-0.237-0.068,0.011-0.928,0.384-1.076c-0.773,0.042-1.534,0.279-2.195,0.681
			c-2.681-0.084-4.345,1.513-4.335,1.685c0.004,0.074,0.048,0.139,0.092,0.199C85.093,10.917,86.851,11.915,87.88,12.087z"/>
		<path style="stroke:#000000;stroke-width:0.25;stroke-linecap:round;stroke-linejoin:round;stroke-miterlimit:10;" d="
			M110.358,16.269c0.133,0.022,0.265,0.04,0.395,0.056c0.124,0.255,0.327,0.477,0.559,0.644c0.366,0.263,0.801,0.41,1.228,0.553
			c-0.152-0.324-0.208-0.694-0.157-1.048c0.006-0.041,0.013-0.083,0.02-0.125c1.324-0.131,2.48-0.636,3.479-1.446
			c0.152,0.264,0.338,0.508,0.524,0.751c0.233,0.305,0.467,0.615,0.765,0.858c0.297,0.243,0.67,0.416,1.054,0.398
			c0.072-0.003,0.148-0.015,0.205-0.06c-0.205-0.143-0.418-0.296-0.529-0.52c-0.137-0.277-0.092-0.606-0.145-0.911
			c-0.053-0.302-0.208-0.586-0.434-0.794c0.233-0.143,0.415-0.367,0.508-0.624c0.092-0.255,0.098-0.534,0.185-0.79
			c0.079-0.234,0.227-0.443,0.421-0.597c0.192-0.153,0.431-0.253,0.581-0.448c-0.469-0.084-0.957,0.033-1.385,0.244
			s-0.804,0.511-1.171,0.815c-0.17,0.14-0.338,0.282-0.506,0.424c-0.041,0.035-0.081,0.071-0.115,0.112
			c-0.656-0.277-1.751-0.687-2.83-0.995c-0.237-0.068,0.011-0.928,0.384-1.076c-0.773,0.042-1.534,0.279-2.196,0.681
			c-2.681-0.084-4.345,1.514-4.335,1.685c0.004,0.074,0.048,0.139,0.092,0.199C107.57,15.099,109.328,16.097,110.358,16.269z"/>
		<path style="stroke:#000000;stroke-width:0.25;stroke-linecap:round;stroke-linejoin:round;stroke-miterlimit:10;" d="
			M48.888,17.918c0.133,0.022,0.265,0.04,0.395,0.056c0.124,0.255,0.327,0.477,0.559,0.644c0.366,0.263,0.801,0.41,1.228,0.553
			c-0.152-0.324-0.207-0.694-0.157-1.048c0.006-0.041,0.013-0.083,0.02-0.125c1.324-0.131,2.48-0.636,3.479-1.446
			c0.152,0.264,0.338,0.508,0.524,0.751c0.233,0.305,0.467,0.615,0.765,0.858c0.297,0.243,0.67,0.416,1.054,0.398
			c0.072-0.003,0.148-0.015,0.205-0.06c-0.205-0.143-0.418-0.296-0.529-0.52c-0.138-0.277-0.092-0.606-0.146-0.911
			c-0.053-0.302-0.208-0.586-0.434-0.793c0.233-0.143,0.415-0.367,0.508-0.624c0.092-0.255,0.098-0.534,0.185-0.79
			c0.079-0.234,0.227-0.443,0.421-0.597c0.192-0.153,0.431-0.253,0.581-0.448c-0.469-0.084-0.957,0.033-1.385,0.244
			c-0.428,0.211-0.804,0.511-1.171,0.815c-0.17,0.14-0.338,0.282-0.506,0.424c-0.041,0.035-0.081,0.071-0.115,0.112
			c-0.656-0.277-1.752-0.687-2.83-0.996c-0.237-0.068,0.011-0.928,0.384-1.076c-0.773,0.042-1.534,0.279-2.196,0.681
			c-2.681-0.084-4.345,1.513-4.335,1.685c0.004,0.074,0.048,0.139,0.092,0.199C46.1,16.748,47.858,17.746,48.888,17.918z"/>
	</g>
</g>
<g id="Layer_1">
</g>
</svg>
