<?xml version="1.0" encoding="UTF-8"?>
<svg id="Camada_1" xmlns="http://www.w3.org/2000/svg" viewBox="0 0 500 356.33">
  <defs>
    <style>
      .cls-1 {
        fill: #289db9;
      }

      .cls-1, .cls-2, .cls-3, .cls-4, .cls-5, .cls-6, .cls-7, .cls-8, .cls-9, .cls-10, .cls-11, .cls-12, .cls-13 {
        stroke-width: 0px;
      }

      .cls-2 {
        fill: #e0e0e0;
      }

      .cls-3 {
        fill: #7f3e3b;
      }

      .cls-4, .cls-7, .cls-9, .cls-10, .cls-11 {
        isolation: isolate;
      }

      .cls-4, .cls-9 {
        opacity: .2;
      }

      .cls-4, .cls-10, .cls-12 {
        fill: #fff;
      }

      .cls-5 {
        fill: #f5f5f5;
      }

      .cls-6 {
        fill: #ebebeb;
      }

      .cls-14 {
        opacity: .7;
      }

      .cls-7 {
        opacity: .1;
      }

      .cls-7, .cls-9 {
        fill: #000;
      }

      .cls-8, .cls-11 {
        fill: #263238;
      }

      .cls-10 {
        opacity: .8;
      }

      .cls-11 {
        opacity: .5;
      }

      .cls-13 {
        fill: #630f0f;
      }
    </style>
  </defs>
  <g id="freepik--background-complete--inject-94">
    <rect class="cls-6" y="311.17" width="500" height=".25"/>
    <rect class="cls-6" x="416.78" y="322.94" width="33.12" height=".25"/>
    <rect class="cls-6" x="352.42" y="325.66" width="8.69" height=".25"/>
    <rect class="cls-6" x="238.24" y="315.46" width="146.54" height=".25"/>
    <rect class="cls-6" x="52.46" y="315.34" width="15.21" height=".25"/>
    <rect class="cls-6" x="76.57" y="315.34" width="34.32" height=".25"/>
    <rect class="cls-6" x="131.47" y="319.56" width="44.2" height=".25"/>
    <path class="cls-5" d="M408.11,263.68c-15.33-3.71-34.94,6.61-34.94,6.61,0,0,19-23.81-2.67-30.73s-30.33,8.63-30.33,8.63c0,0,3.5-9.36-1-12.38s-9.38.16-9.38.16c0,0,5.34-5.1,0-8.76s-11.05-.69-11.05-.69c0,0,12.89-14.86,0-26.75s-28.67.42-28.67.42c0,0,13.33-20.81,1.56-29.51s-31.18-.32-31.18-.32c0,0,14.38-15.59,5.38-18.59s-18.71,7.17-18.71,7.17c0,0,1.55-4.15-1-6.53s-8.5.63-8.5.63c0,0,6.23-10.83-9-17.2s-22.07,0-22.07,0c0,0,2.9-3.29,0-5.25-1.07-.94-2.71-.84-3.66.24-.2.23-.36.48-.46.76.47-1,3.29-7.57-1.87-11.69-5.58-4.46-17.18-.48-17.18-.48,0,0,5.77-12.26-9-13.53-14.15-1.23-17.81,9.43-18.08,10.29.25-.81-21.21-29.62-39.35-19.69-18.94,10.37.22,34.08.22,34.08,0,0-19.78-8.92-23.49,1.95s-1.4,21.62,10.16,35.21c-24.4-1.96-15.51,15.37-15.51,15.37,0,0-9.55-6.58-17.77,1.17s9,32.16,9,32.16c-2.79-1.14-5.97-.69-8.34,1.17-3.89,3.19,0,13.38,0,13.38,0,0-12.22-14.65-24.44-8.28s-2.67,25.69,0,35.24c-20.67,2.55-15.34,28-6.22,32.35h376.22s6.66-22.9-8.67-26.61Z"/>
    <path class="cls-6" d="M356.76,273.69c-50.24,0-90.16,14.4-124,14.4s-50.21-34.73-103.63-34.73-114,57.81-114,57.81h471s-79.13-37.48-129.37-37.48Z"/>
    <path class="cls-2" d="M424.25,260.02c9.68-1.24,19.2-3.47,28.42-6.66-12.25-6.58-28.5,5.66-28.5,5.66,0,0,17-15.92,17.25-19.5-12.84-.5-15.84,13.42-18.25,18.42,1-7.92-2.09-18.09-6.75-22.59-.5,3.84,2.25,19.42,4.83,23.5-8.25-7.46-20.33-6.83-20.33-6.83,0,0,12.86,6.53,19.52,8.42-10.77,9-20.88,50.73-20.88,50.73h7.27c4-35,15.25-50.48,15.25-50.48,2.11,7.23,5.04,14.19,8.75,20.75,5.59-11.09-6.83-20.59-6.83-20.59,7.02,1.93,14.23,3.05,21.5,3.34-1.92-5.75-21.25-4.17-21.25-4.17Z"/>
    <path class="cls-2" d="M386.6,248.51c9.18-6.96,17.72-14.72,25.53-23.19-14.18.27-25.94,22.21-25.94,22.21,0,0,11.25-26.16,10.29-30-12.71,6.86-11,22.91-11.64,29.45-1.68-8.73-8.12-17.42-14.19-19.37.8,4.24,8.73,18.7,12.63,21.41-10.58-2.94-22.17,4.66-22.17,4.66,0,0,14.76-.68,21.92-2.56-7.51,15.46-4.27,60-4.27,60h8c-7.87-38.38-2.09-60.73-2.09-60.73,4.41,6.15,9.66,11.66,15.58,16.38,1.72-14.62-13.61-17.26-13.61-17.26,7.7-2.11,15.12-5.11,22.13-8.93-3.77-4.81-22.17,7.93-22.17,7.93Z"/>
    <path class="cls-2" d="M84.57,268.14c-8.14-1.04-16.15-2.92-23.91-5.6,10.31-5.54,24,4.76,24,4.76,0,0-14.3-13.39-14.51-16.4,10.79-.42,13.32,11.28,15.35,15.49-.84-6.66,1.75-15.21,5.68-19,.42,3.23-1.9,16.34-4.07,19.77,6.94-6.28,17.11-5.75,17.11-5.75,0,0-10.82,5.49-16.43,7.08,9.07,7.57,17.57,42.68,17.57,42.68h-6.14c-3.38-29.48-12.83-42.47-12.83-42.47-1.78,6.09-4.26,11.95-7.39,17.46-4.7-9.33,5.75-17.32,5.75-17.32-5.9,1.62-11.97,2.57-18.09,2.81,1.64-4.88,17.91-3.51,17.91-3.51Z"/>
    <path class="cls-2" d="M135.55,234.53c11.23-8.51,21.68-18,31.23-28.36-17.35.33-31.74,27.16-31.74,27.16,0,0,13.77-32,12.59-36.67-15.54,8.39-13.4,28-14.23,36-2.06-10.67-9.93-21.3-17.36-23.68,1,5.18,10.68,22.86,15.45,26.19-12.94-3.6-27.12,5.69-27.12,5.69,0,0,18.06-.83,26.81-3.14-9.18,18.92-5.18,73.45-5.18,73.45h9.83c-9.62-46.94-2.55-74.27-2.55-74.27,0,0,6.36,9.64,19,20,2.07-17.91-16.68-21.13-16.68-21.13,9.41-2.59,18.49-6.26,27.07-10.92-4.67-5.9-27.12,9.68-27.12,9.68Z"/>
    <path class="cls-2" d="M68.18,286.59c-4.99-2.7-9.8-5.74-14.37-9.1,6.89.1,14.48,8.71,14.48,8.71,0,0-7.71-10.26-7.58-11.76,6.75,2.69,7.29,9,8.19,11.55.06-3.42,2.42-6.83,5.19-7.6,0,1.66-2.61,7.34-4.26,8.4,4.87-1.15,11.17,1.83,11.17,1.83-3.63-.12-7.24-.45-10.83-1,5,6.07,7.26,23.56,7.26,23.56h-3.92c.48-15.06-4.25-23.83-4.25-23.83-1.65,2.48-3.72,4.65-6.11,6.42-2.1-5.73,5.1-6.77,5.1-6.77-3.92-.83-7.77-2-11.49-3.5,1.43-1.91,11.42,3.09,11.42,3.09Z"/>
    <path class="cls-2" d="M206.43,268.14c8.14-1.04,16.15-2.92,23.9-5.6-10.3-5.54-24,4.76-24,4.76,0,0,14.3-13.39,14.51-16.4-10.8-.42-13.32,11.28-15.36,15.49.85-6.66-1.75-15.21-5.67-19-.42,3.23,1.89,16.34,4.06,19.77-6.94-6.28-17.1-5.75-17.1-5.75,0,0,10.82,5.49,16.42,7.08-9.06,7.57-17.57,42.68-17.57,42.68h6.12c3.39-29.48,12.83-42.47,12.83-42.47,1.8,6.09,4.29,11.94,7.43,17.46,4.7-9.33-5.74-17.32-5.74-17.32,5.9,1.62,11.97,2.57,18.08,2.81-1.65-4.88-17.91-3.51-17.91-3.51Z"/>
    <path class="cls-2" d="M288.07,286.59c4.99-2.7,9.8-5.74,14.37-9.1-6.89.1-14.48,8.71-14.48,8.71,0,0,7.71-10.26,7.57-11.76-6.74,2.69-7.28,9-8.18,11.55-.06-3.42-2.42-6.83-5.19-7.6,0,1.66,2.61,7.34,4.26,8.4-4.87-1.15-11.14,1.83-11.14,1.83,3.63-.12,7.24-.45,10.83-1-5,6.07-7.26,23.56-7.26,23.56h3.89c-.48-15.06,4.25-23.83,4.25-23.83,1.65,2.48,3.72,4.65,6.11,6.42,2.1-5.73-5.1-6.77-5.1-6.77,3.92-.83,7.77-2,11.49-3.5-1.43-1.91-11.42,3.09-11.42,3.09Z"/>
    <circle class="cls-5" cx="399.56" cy="40.25" r="30.78"/>
  </g>
  <g id="freepik--Shadow--inject-94">
    <ellipse id="freepik--path--inject-94" class="cls-5" cx="250" cy="345.01" rx="193.89" ry="11.32"/>
  </g>
  <g id="freepik--lifeguard-chair--inject-94">
    <path class="cls-8" d="M331.15,10.17c-1.34,8.65-4.39,16.75-6.89,25l-7.79,24.76-15.58,49.49-15.74,49.45-15.92,49.39c-.25.79-1.1,1.22-1.89.97-.79-.25-1.22-1.1-.97-1.89h0l15.63-49.44,15.86-49.4,16-49.36,8-24.68c2.77-8.2,5-16.57,8.91-24.39.04-.09.14-.12.23-.08,0,0,0,0,0,0,.09.02.15.09.15.18Z"/>
    <path class="cls-1" d="M327.07,22.37c50.76,16.23,85,50.9,76.55,77.46l-183.83-58.76c8.49-26.55,56.52-34.92,107.28-18.7Z"/>
    <path class="cls-10" d="M327.07,22.37c33.19,10.61,53.22,40.74,44.73,67.29l-120.19-38.42c8.49-26.55,42.27-39.47,75.46-28.87Z"/>
    <path class="cls-1" d="M327.07,22.37c11.72,3.75,14.33,28.31,5.85,54.86l-42.42-13.56c8.5-26.55,24.86-45.04,36.57-41.3Z"/>
    <path class="cls-1" d="M377.88,104.07l12.43,4c3.28,1.05,6.86-.05,9-2.75l4.31-5.46-31.82-10.2.35,7c.19,3.42,2.47,6.37,5.73,7.41Z"/>
    <path class="cls-1" d="M339.53,91.77l18.47,5.93c3.08.98,6.44.08,8.62-2.3l5.23-5.74-38.88-12.43.93,7.71c.4,3.17,2.59,5.84,5.63,6.83Z"/>
    <path class="cls-10" d="M339.53,91.77l18.47,5.93c3.08.98,6.44.08,8.62-2.3l5.23-5.74-38.88-12.43.93,7.71c.4,3.17,2.59,5.84,5.63,6.83Z"/>
    <path class="cls-1" d="M238.3,59.46l-12.43-4c-3.28-1.05-5.57-4.02-5.73-7.46l-.35-7,31.82,10.17-4.31,5.46c-2.11,2.73-5.7,3.86-9,2.83Z"/>
    <path class="cls-1" d="M276.65,71.71l-18.42-5.88c-3.08-.98-5.3-3.67-5.69-6.88l-.93-7.71,38.89,12.43-5.23,5.74c-2.18,2.39-5.54,3.29-8.62,2.3Z"/>
    <path class="cls-10" d="M276.65,71.71l-18.42-5.88c-3.08-.98-5.3-3.67-5.69-6.88l-.93-7.71,38.89,12.43-5.23,5.74c-2.18,2.39-5.54,3.29-8.62,2.3Z"/>
    <path class="cls-1" d="M297.4,78.34l21.38,6.84c2.98.95,6.24.14,8.43-2.1l5.71-5.85-42.42-13.56,1.25,8.08c.48,3.09,2.67,5.64,5.65,6.59Z"/>
    <rect class="cls-1" x="260.49" y="209.07" width="8.26" height="135.94" rx="2.78" ry="2.78"/>
    <rect class="cls-7" x="260.49" y="209.07" width="8.26" height="135.94" rx="2.78" ry="2.78"/>
    <path class="cls-9" d="M266.6,209.07v135.94c1.19,0,2.15-.96,2.15-2.15v-131.64c0-1.19-.96-2.15-2.15-2.15h0Z"/>
    <rect class="cls-1" x="189.78" y="209.07" width="8.26" height="135.94" rx="2.78" ry="2.78"/>
    <rect class="cls-7" x="189.78" y="209.07" width="8.26" height="135.94" rx="2.78" ry="2.78"/>
    <path class="cls-9" d="M195.89,209.07v135.94c1.19,0,2.15-.96,2.15-2.15v-131.64c0-1.19-.96-2.15-2.15-2.15h0Z"/>
    <path class="cls-1" d="M238.46,345.01h-4c-.94.03-1.73-.7-1.76-1.64,0-.17.01-.35.06-.51l47.75-231.73c.29-1.22,1.35-2.1,2.6-2.16h4c.94-.04,1.73.7,1.76,1.64,0,.18-.01.35-.06.52l-47.75,231.73c-.29,1.22-1.35,2.09-2.6,2.15Z"/>
    <path class="cls-9" d="M287.11,108.97l-21.78,105.67h-5.47l5.08,1.92-7.59,36.8h-5.35l5,1.88-7.59,36.84h-5.46l5.07,1.92-7.63,36.77h-5.28l4.9,1.86-2.55,12.35c1.25-.05,2.31-.93,2.6-2.15l47.75-231.74c.24-.9-.3-1.83-1.2-2.07-.16-.04-.33-.06-.5-.05Z"/>
    <path class="cls-1" d="M167.44,345.01h-4c-.94.04-1.73-.69-1.77-1.63,0-.18.01-.35.06-.52l47.76-231.73c.29-1.22,1.35-2.1,2.6-2.16h4c.94-.04,1.73.69,1.77,1.62,0,.18-.01.36-.06.54l-47.8,231.73c-.28,1.21-1.32,2.08-2.56,2.15Z"/>
    <path class="cls-9" d="M216.08,108.97l-3.34,16.18h-3.27l2.59,3.27-2.53,12.22h-3.27l2.59,3.27-6.58,31.86h-6.11l5.66,2.15-7.56,36.74h-5.79l5.37,2-7.54,36.68h-5.69l5.27,2-7.55,36.72h-5.81l5.39,2-7.55,36.71h-5.64l5.23,2-2.51,12.22c1.25-.05,2.31-.93,2.59-2.15l47.76-231.74c.24-.91-.3-1.84-1.21-2.08-.16-.04-.33-.06-.5-.05Z"/>
    <path class="cls-1" d="M209.83,123l.81-4c.29-1.22,1.35-2.1,2.6-2.15h69.48c.93-.04,1.72.68,1.76,1.61,0,.18-.01.36-.06.54l-.82,4c-.28,1.22-1.34,2.1-2.59,2.15h-69.48c-.93.04-1.72-.68-1.76-1.61,0-.18.01-.36.06-.54Z"/>
    <path class="cls-1" d="M206.62,138.49l.82-4c.29-1.22,1.35-2.1,2.6-2.15h69.47c.94-.04,1.73.69,1.77,1.63,0,.18-.01.35-.06.52l-.82,4c-.29,1.22-1.35,2.1-2.6,2.15h-69.47c-.94.04-1.73-.69-1.77-1.63,0-.18.01-.35.06-.52Z"/>
    <path class="cls-1" d="M175.18,173.59l.51-3.95c.18-1.21,1.2-2.12,2.43-2.16h93.68c1.03-.02,1.88.8,1.89,1.83,0,.11,0,.22-.02.33l-.51,3.95c-.18,1.21-1.2,2.12-2.43,2.15h-93.68c-1.02.02-1.87-.78-1.89-1.8,0-.12,0-.23.02-.35Z"/>
    <path class="cls-9" d="M247.9,173.59l.51-3.95c.18-1.21,1.2-2.12,2.43-2.16h21c1.03-.02,1.88.8,1.89,1.83,0,.11,0,.22-.02.33l-.51,3.95c-.18,1.21-1.2,2.12-2.43,2.15h-21c-1.02.02-1.87-.78-1.89-1.8,0-.12,0-.23.02-.35Z"/>
    <path class="cls-1" d="M159.18,212.49l.51-4c.18-1.21,1.2-2.12,2.42-2.15h111.39c1.02-.02,1.87.78,1.89,1.8,0,.12,0,.23-.02.35l-.51,4c-.18,1.21-1.21,2.12-2.43,2.15h-111.38c-1.02.02-1.87-.78-1.89-1.8,0-.12,0-.23.02-.35Z"/>
    <path class="cls-9" d="M249.61,212.49l.51-4c.18-1.21,1.21-2.12,2.43-2.15h20.95c1.02-.02,1.87.78,1.89,1.8,0,.12,0,.23-.02.35l-.51,4c-.18,1.21-1.21,2.12-2.43,2.15h-21c-1.02,0-1.85-.83-1.84-1.86,0-.1,0-.2.02-.29Z"/>
    <path class="cls-1" d="M151.43,251.21l.51-4c.18-1.21,1.21-2.12,2.43-2.15h119.13c1.02-.02,1.87.78,1.89,1.8,0,.12,0,.23-.02.35l-.51,4c-.18,1.21-1.21,2.12-2.43,2.15h-119.12c-1.03.02-1.88-.79-1.9-1.82,0-.11,0-.22.02-.33Z"/>
    <path class="cls-9" d="M241.86,251.21l.51-4c.18-1.21,1.21-2.12,2.43-2.15h28.7c1.02-.02,1.87.78,1.89,1.8,0,.12,0,.23-.02.35l-.51,4c-.18,1.21-1.21,2.12-2.43,2.15h-28.69c-1.03.02-1.88-.79-1.9-1.82,0-.11,0-.22.02-.33Z"/>
    <path class="cls-1" d="M143.69,289.93l.51-4c.18-1.21,1.21-2.12,2.43-2.15h126.87c1.02-.02,1.87.78,1.89,1.8,0,.12,0,.23-.02.35l-.51,4c-.18,1.21-1.21,2.12-2.43,2.15h-126.87c-1.02.02-1.87-.78-1.89-1.8,0-.12,0-.23.02-.35Z"/>
    <path class="cls-9" d="M234.12,289.93l.51-4c.18-1.21,1.21-2.12,2.43-2.15h36.44c1.02-.02,1.87.78,1.89,1.8,0,.12,0,.23-.02.35l-.51,4c-.18,1.21-1.21,2.12-2.43,2.15h-36.43c-1.03.02-1.88-.79-1.9-1.82,0-.11,0-.22.02-.33Z"/>
    <path class="cls-1" d="M128.2,328.65l.51-4c.18-1.21,1.21-2.12,2.43-2.15h142.36c1.02-.02,1.87.78,1.89,1.8,0,.12,0,.23-.02.35l-.51,4c-.18,1.21-1.2,2.12-2.43,2.15h-142.36c-1.02.02-1.87-.78-1.89-1.8,0-.12,0-.23.02-.35Z"/>
    <path class="cls-9" d="M218.63,328.65l.51-4c.18-1.21,1.21-2.12,2.43-2.15h51.93c1.02-.02,1.87.78,1.89,1.8,0,.12,0,.23-.02.35l-.51,4c-.18,1.21-1.2,2.12-2.43,2.15h-51.92c-1.02.03-1.87-.77-1.9-1.79,0-.12,0-.24.02-.36Z"/>
  </g>
  <g id="freepik--Character--inject-94">
    <path class="cls-8" d="M195.38,5.33c6.24.74,4.64,12.21,7,17.57-1,6.07-16.47,17.66-33.24,13.94,1-7.79-2.4-16.52,1.85-27,4.41-10.75,21.39-13.35,24.39-4.51Z"/>
    <path class="cls-3" d="M135.22,62.55l-2-5.28-6.22,6.77s3.54,3.61,7.24,4.24l.53-.9c.87-1.46,1.04-3.23.45-4.83Z"/>
    <path class="cls-3" d="M127.11,57.4l-1.68,2.43c-.72,1.06-.52,2.49.47,3.3l1.12.91,6.21-6.77-3.51-.86c-.99-.24-2.03.15-2.61.99Z"/>
    <path class="cls-3" d="M176.23,52.01c-.25.71-.45,1.22-.67,1.81s-.47,1.13-.71,1.68c-.49,1.1-1,2.18-1.53,3.25-1.06,2.15-2.24,4.24-3.53,6.26-2.6,4.15-5.72,7.96-9.28,11.33l-1.41,1.24-.35.32-.25.21-.52.4c-.67.44-1.4.77-2.16,1-1.13.32-2.31.42-3.48.29-.84-.1-1.68-.27-2.49-.52-2.48-.83-4.84-1.99-7-3.46-3.92-2.6-7.55-5.62-10.82-9-1.08-1.09-1.07-2.84.01-3.92.87-.86,2.19-1.05,3.27-.47h.1c3.82,2,7.73,4.17,11.52,5.8,1.68.78,3.45,1.36,5.27,1.74.27.03.55.03.82,0,.17,0,.15-.1-.17,0-.23.06-.46.16-.66.29l-.19.14h0l.07-.07.25-.27,1-1.07c2.69-3.03,5.05-6.33,7.06-9.85,1.06-1.77,2-3.62,2.94-5.47.46-.93.91-1.87,1.32-2.81l.62-1.41.54-1.3.11-.25c1.18-2.83,4.43-4.16,7.26-2.98,2.72,1.14,4.08,4.2,3.09,6.98l-.03.11Z"/>
    <path class="cls-1" d="M164.63,52.2c.14,3.09-4.74,10.23,1.28,14.37.71,6.24,1.6,12.38,3.26,22.61h31.41c-1.29-8.84-1-18.93,3.15-38.84.9-4.29-1.85-8.49-6.13-9.39-.29-.06-.57-.1-.87-.13-1.25-.13-2.58-.24-3.94-.3-4.75-.34-9.51-.34-14.26,0-1.54.14-3.13.34-4.65.55-5.48.79-9.48,5.6-9.25,11.13Z"/>
    <path class="cls-9" d="M195,48.48c0,4,3.39,11.71,6.34,14.73.43-2.77,1-5.77,1.6-9.06l-7.94-5.67Z"/>
    <path class="cls-3" d="M191.4,24.46c-.9,4.59-1.8,13,1.41,16.06-5.93,1.43-11.37,4.44-15.74,8.7-3.23-6,1.48-8.7,1.48-8.7,5.12-1.22,5-5,4.09-8.59l8.76-7.47Z"/>
    <path class="cls-9" d="M187.83,27.51l-5.18,4.42c.22.83.37,1.68.44,2.53,1.95-.28,4.64-2.43,4.85-4.47.11-.83.08-1.67-.11-2.48Z"/>
    <path class="cls-3" d="M196.24,16.04c-1.79,7.46-2.39,10.66-6.81,13.87-6.66,4.83-15.25,1-15.68-6.83-.39-7.06,2.6-18.08,10.38-19.8s13.87,5.29,12.11,12.76Z"/>
    <path class="cls-11" d="M195.45,19.1c-5.44-2-7.32-9-6.3-12.23,0,0,5.41-2.1,7.4.5s3.35,13.33-1.1,11.73Z"/>
    <path class="cls-3" d="M169.17,89.18s0,41.16,3.16,67.29c.53,24.54,3.41,81.84,3.41,81.84h6.19s12.32-42,5.74-81.84c12.55-41.5,8.88-67.29,8.88-67.29h-27.38Z"/>
    <path class="cls-9" d="M191.77,141.17c1.41-6.09,2.47-11.72,3.25-16.86-3.69,2.96-5.92,8.58-3.25,16.86Z"/>
    <path class="cls-3" d="M177.38,89.18s16.83,46.46,24,69.27c7.49,23.95,20.6,78.08,20.73,79.86h5.36s6.18-55.74-9.3-78.81c-1.17-56.73-17.59-70.32-17.59-70.32h-23.2Z"/>
    <path class="cls-8" d="M185.18,16.12c-.11.61-.53,1.05-.93,1s-.64-.62-.53-1.24.52-1,.93-1,.63.63.53,1.24Z"/>
    <path class="cls-8" d="M177.6,14.89c-.11.61-.52,1-.92,1s-.64-.62-.53-1.24.52-1,.92-1,.64.63.53,1.24Z"/>
    <path class="cls-8" d="M177.24,13.71l-1.4-.68s.56,1.28,1.4.68Z"/>
    <path class="cls-13" d="M179.53,16.27c-.8,1.29-1.76,2.47-2.88,3.5.55.57,1.32.86,2.11.8l.77-4.3Z"/>
    <path class="cls-8" d="M181.89,23.5c-.34,0-.67-.04-1-.1-.1-.01-.17-.11-.15-.21,0,0,0,0,0,0,.02-.1.11-.16.21-.15,1.55.3,3.14-.14,4.31-1.2.06-.07.17-.07.24,0,0,0,0,0,0,0,.07.06.07.17,0,.24,0,0,0,0,0,0-.97.93-2.27,1.44-3.62,1.41Z"/>
    <path class="cls-3" d="M197,20.84c-.57,1.28-1.66,2.26-3,2.69-1.71.48-2.55-1.39-2.07-3.29.44-1.7,1.85-4,3.55-3.63s2.31,2.55,1.52,4.23Z"/>
    <path class="cls-8" d="M187.11,10.51c-.09.04-.2.04-.29,0-.77-.52-1.74-.64-2.62-.33-.19.07-.4-.02-.48-.21-.07-.17,0-.37.17-.46,1.11-.42,2.35-.28,3.33.39.17.12.21.35.09.51-.05.07-.12.12-.2.15v-.05Z"/>
    <path class="cls-8" d="M174.76,10.85c-.09-.04-.16-.1-.2-.19-.09-.17-.02-.38.15-.47,0,0,.01,0,.02,0,1.05-.54,2.29-.54,3.34,0,.19.07.28.29.21.48s-.29.28-.48.21c-.04-.01-.07-.03-.1-.06-.83-.42-1.82-.42-2.65,0-.09.05-.19.06-.29.04Z"/>
    <path class="cls-8" d="M184.82,14.94l-1.4-.68s.58,1.28,1.4.68Z"/>
    <path class="cls-1" d="M200.58,89.18s-13.46,8.75-12.21,30.87c-3.92.56-19.83-16.74-19.2-30.87,4.98-8.41,31.41,0,31.41,0Z"/>
    <path class="cls-3" d="M198.56,85.9l-5.57-.95,2.72,8.78s4.91-1.23,7.31-4.12l-.51-.91c-.83-1.48-2.28-2.51-3.95-2.8Z"/>
    <path class="cls-3" d="M190,90.3l1.25,2.67c.54,1.16,1.89,1.71,3.09,1.26l1.35-.5-2.69-8.78-2.51,2.6c-.72.73-.91,1.82-.49,2.75Z"/>
    <path class="cls-3" d="M202.81,43.64c.58.47,1,.83,1.48,1.24s.9.82,1.34,1.23c.88.82,1.73,1.66,2.56,2.52,1.67,1.72,3.25,3.53,4.73,5.42,3.05,3.84,5.59,8.04,7.58,12.52l.71,1.75.17.43.12.31c.07.21.14.41.2.62.21.78.29,1.58.25,2.38-.07,1.17-.37,2.32-.88,3.38-.37.76-.82,1.49-1.32,2.17-1.61,2.08-3.5,3.93-5.61,5.49-3.75,2.83-7.8,5.25-12.08,7.21-1.4.61-3.03-.03-3.64-1.44-.47-1.07-.21-2.32.64-3.12l.08-.08c3.2-2.92,6.51-5.89,9.31-8.92,1.3-1.33,2.44-2.81,3.4-4.4.14-.23.24-.49.31-.75,0-.17,0-.18-.08.14-.03.24-.01.49.05.72.01.08.03.15.06.23v.05h0v-.09l-.17-.32-.67-1.32c-1.96-3.54-4.28-6.87-6.93-9.94-1.32-1.59-2.75-3.1-4.18-4.6-.72-.74-1.46-1.47-2.21-2.18l-1.12-1-1.05-1-.2-.19c-2.29-2.04-2.49-5.55-.45-7.84,1.99-2.23,5.38-2.49,7.68-.58l-.08-.04Z"/>
    <path class="cls-3" d="M229.87,241.18c-1.13-3.28-1.81-6.7-2-10.17,0,0-7.65-1.56-7.18,1,.85,4.62-2.14,8.91-7.63,9.66-3.13.42-1.09,3.45,1.23,3.45,5.81,0,5.39-.09,8.67-.2,2.8-.1,3.46.25,5.72.2,1.84-.06,1.77-1.87,1.19-3.94Z"/>
    <path class="cls-3" d="M184.88,240.65c-.54-2.1-2.3-3.25-.72-11.36,0,0-8.94.23-8.73,2.85.4,4.74-3.08,9.21-10.06,9.72-3.11.22-1.39,3.24.9,3.24,5.72,0,7.89-.13,11.11-.25,2.75-.1,3.78.3,6,.25,1.85-.05,2.04-2.33,1.5-4.45Z"/>
    <path class="cls-8" d="M131.22,68.71l-5,7.13-6.89-5.59,5.93-6.34c.61-.65,1.62-.72,2.31-.16l3.3,2.67c.7.55.86,1.55.35,2.29Z"/>
    <polygon class="cls-8" points="136.05 60.85 130.01 69.14 125.12 65.18 131.97 57.54 136.05 60.85"/>
    <path class="cls-1" d="M124.11,71.42c1.9,1.55,2.86,3.52,2.13,4.42s-2.85.37-4.76-1.17-2.86-3.52-2.13-4.42,2.86-.37,4.76,1.17Z"/>
    <path class="cls-12" d="M123.54,72.13c1.35,1.09,2.1,2.4,1.68,2.92s-2.08.33-3.43-.76-1.88-2.68-1.45-3.2,1.85-.06,3.2,1.04Z"/>
    <path class="cls-8" d="M134.74,58.29c1.13.91,1.72,2.06,1.31,2.56s-1.64.16-2.77-.75-1.71-2.06-1.31-2.56,1.65-.16,2.77.75Z"/>
    <path class="cls-8" d="M134.89,64.18l-5,7.12-6.89-5.53,6-6.4c.61-.65,1.62-.72,2.32-.16l3.29,2.68c.68.57.8,1.57.28,2.29Z"/>
    <polygon class="cls-8" points="139.72 56.32 133.68 64.6 128.79 60.65 135.64 53.01 139.72 56.32"/>
    <path class="cls-1" d="M127.78,66.89c1.91,1.54,2.86,3.52,2.14,4.41s-2.86.38-4.77-1.17-2.85-3.51-2.15-4.36,2.88-.42,4.78,1.12Z"/>
    <path class="cls-12" d="M127.21,67.59c1.35,1.09,2.1,2.4,1.68,2.92s-2.08.34-3.43-.75-1.88-2.68-1.45-3.2,1.85-.06,3.2,1.03Z"/>
    <path class="cls-8" d="M138.42,53.77c1.12.91,1.71,2.06,1.3,2.56s-1.64.16-2.77-.75-1.71-2.06-1.31-2.56,1.65-.17,2.78.75Z"/>
    <path class="cls-8" d="M176.17,60.47c-.11,0-.21-.07-.25-.17-3.19-7.45-3.27-15.6-.21-19.84.1-.12.28-.13.4-.03.1.09.13.24.05.36-2.85,4-2.85,11.49,0,18.56,2.33-7.39,10.38-16.79,18.82-19.06.15-.04.3.05.34.2.04.15-.05.3-.2.34-8.55,2.3-16.69,12.09-18.65,19.43-.03.12-.13.2-.25.21h-.05Z"/>
    <path class="cls-8" d="M177.61,61.12c-.34.85-1.3,1.26-2.14.92s-1.26-1.3-.92-2.14,1.3-1.26,2.14-.92c0,0,0,0,.01,0,.84.34,1.25,1.29.91,2.13h0Z"/>
    <path class="cls-12" d="M175.59,58.53l.55.22h0l-2.05,5.06h0l-2.04-.82h0l1.44-3.55c.32-.83,1.26-1.24,2.08-.91,0,0,.01,0,.02,0Z"/>
    <rect class="cls-8" x="172.66" y="61.1" width="5.46" height=".6" transform="translate(52.73 201) rotate(-67.99)"/>
    <path class="cls-8" d="M194.56,6.25c-3.8,2-14.37,2.6-18.72,1.86,0,0,4.1-6.92,11.55-6.67s7.17,4.81,7.17,4.81Z"/>
  </g>
  <g id="freepik--Lifebuoy--inject-94">
    <path class="cls-1" d="M344.37,258.68c-20.5-20.5-53.74-20.51-74.25,0-20.5,20.5-20.51,53.74,0,74.25,20.5,20.5,53.74,20.51,74.25,0h0c20.49-20.51,20.49-53.74,0-74.25ZM288.55,314.5c-10.33-10.32-10.33-27.07,0-37.39,10.32-10.33,27.07-10.33,37.39,0,10.33,10.32,10.33,27.07,0,37.39h0c-10.33,10.33-27.06,10.33-37.39,0Z"/>
    <g class="cls-14">
      <path class="cls-12" d="M324.54,246.22l-9.54,24.28c8.41,2.59,15,9.18,17.59,17.59l24.27-9.59c-5.29-15.11-17.17-26.99-32.28-32.28h-.04Z"/>
      <path class="cls-12" d="M288.55,314.5c-3.08-3.06-5.34-6.84-6.59-11l-24.3,9.58c5.29,15.11,17.17,26.99,32.28,32.28l9.59-24.29c-4.15-1.25-7.92-3.51-10.98-6.57Z"/>
      <path class="cls-12" d="M290,246.22c-15.12,5.28-27,17.16-32.29,32.28l24.3,9.59c2.56-8.42,9.15-15.01,17.57-17.57l-9.58-24.3Z"/>
      <path class="cls-12" d="M356.82,313.1l-24.29-9.58c-2.57,8.4-9.13,14.99-17.53,17.57l9.58,24.29c15.11-5.29,26.99-17.17,32.28-32.28h-.04Z"/>
    </g>
    <path class="cls-4" d="M260.5,304.04c-3,0-5.49-2.35-5.65-5.35-1.64-28.89,20.46-53.64,49.35-55.28,1.98-.11,3.96-.11,5.94,0,3.12.17,5.51,2.85,5.34,5.97s-2.85,5.51-5.97,5.34c-22.65-1.29-42.06,16.03-43.35,38.68-.09,1.56-.09,3.12,0,4.67.19,3.13-2.19,5.81-5.32,6,0,0-.01,0-.02,0l-.32-.03Z"/>
    <path class="cls-4" d="M310,333.43c-3.12.09-5.73-2.36-5.83-5.49-.09-3.08,2.29-5.66,5.37-5.82,12.83-1.07,23.01-11.25,24.07-24.08.28-3.12,3.03-5.43,6.15-5.15s5.43,3.03,5.15,6.15c-1.54,18.34-16.09,32.89-34.43,34.42-.16,0-.32-.01-.48-.03Z"/>
  </g>
</svg>