<?xml version="1.0" encoding="UTF-8"?>
<svg xmlns="http://www.w3.org/2000/svg" version="1.1" viewBox="0 0 650.9 409">
  <defs>
    <style>
      .cls-1, .cls-2, .cls-3, .cls-4, .cls-5, .cls-6, .cls-7, .cls-8, .cls-9, .cls-10, .cls-11, .cls-12, .cls-13, .cls-14, .cls-15, .cls-16, .cls-17 {
        stroke-width: 0px;
      }

      .cls-1, .cls-11, .cls-13 {
        fill: #000;
      }

      .cls-2 {
        fill: #289db9;
      }

      .cls-3 {
        fill: #37474f;
      }

      .cls-4 {
        fill: #ad6359;
      }

      .cls-5 {
        fill: #455a64;
      }

      .cls-18, .cls-11, .cls-13, .cls-14, .cls-15 {
        isolation: isolate;
      }

      .cls-6 {
        fill: #a6a6a6;
      }

      .cls-7 {
        fill: #dbdbdb;
      }

      .cls-8 {
        fill: #ebebeb;
      }

      .cls-9 {
        fill: #ff9bbc;
      }

      .cls-10 {
        fill: #d3766a;
      }

      .cls-11, .cls-19 {
        opacity: .1;
      }

      .cls-20, .cls-15 {
        opacity: .6;
      }

      .cls-12, .cls-14 {
        fill: #263238;
      }

      .cls-13 {
        opacity: .2;
      }

      .cls-14 {
        mix-blend-mode: multiply;
      }

      .cls-15, .cls-16 {
        fill: #fff;
      }

      .cls-17 {
        fill: #f7a9a0;
      }
    </style>
  </defs>
  <!-- Generator: Adobe Illustrator 28.6.0, SVG Export Plug-In . SVG Version: 1.0.2 Build 62)  -->
  <g class="cls-18">
    <g id="Camada_1">
      <g id="freepik--background-complete--inject-133">
        <path class="cls-8" d="M440.1,52.9h-127.9s12.7-34.6,32.2-34.6,25.6,23.9,25.6,23.9c0,0,13.2-13,24-13s20.2,17.2,20.2,17.2c0,0,15.2-9.2,25.8,6.6Z"/>
        <path class="cls-8" d="M629.8,22.8h-59.8s13.4-19.3,23.9-19.3,13.6,12.9,13.6,12.9c0,0,7.4-6,14.3-4.9s8,11.4,8,11.4Z"/>
        <path class="cls-8" d="M137.6,99.2H21.2s15.9-35.6,33-37.8,25.2,26.4,25.2,26.4c0,0,11-10.1,19.6-10.1s15.3,13.3,15.3,13.3c0,0,17.3-9.1,23.2,8.2Z"/>
        <path class="cls-8" d="M222.3,26.2h-78.6S157.2.4,171.9,0s22.4,19.5,22.4,19.5c0,0,22.8-18.3,28.1,6.6Z"/>
        <path class="cls-8" d="M308.6,78.8h-53.1s9.1-17.4,19-17.7,15.1,13.2,15.1,13.2c0,0,15.4-12.4,19,4.5Z"/>
        <path class="cls-7" d="M231.5,173.9c42.6,0,49.3-115.7,94.1-115.7s47.5,96.1,78,96.1,36.3-49,64.8-49,27.4,54.7,54.8,54.7,25.2-26.4,43.8-26.4,27.5,40.3,79.3,40.3H231.5Z"/>
        <path class="cls-8" d="M4.7,174c58.8,0,72.1-87.9,107.9-87.9s47,73.9,74.1,73.9,30.3-46.5,56.5-46.5,21.6,60.8,65.8,60.8H4.7Z"/>
      </g>
      <g id="freepik--Floor--inject-133">
        <polygon class="cls-12" points="0 173.8 81.4 173.6 162.7 173.5 325.5 173.3 488.2 173.5 569.6 173.5 650.9 173.8 569.6 174 488.2 174.1 325.5 174.3 162.7 174.1 81.4 174 0 173.8"/>
      </g>
      <g id="freepik--dragon-boat--inject-133">
        <path class="cls-3" d="M48.8,213.9s14.1-21.5,13.8-33.3-7.4-19.4-8.5-28.3.6-17-.8-17.3c-3.1-.6-11.2,11.8-11.6,20.8-2.9-5.7-4.8-11.8-5.6-18.2-1.9-14.1,2.7-26.1-.5-29.1-2.7-2.4-22.6,21.9-22.3,46.6,0,0-1.8-13.6-4.6-14.4s-8.5,31.9,4.5,55.3c7.6,13.7,35.7,17.9,35.7,17.9Z"/>
        <path class="cls-5" d="M45.3,211.7s9.8-14.9,9.5-23-5.1-13.4-5.9-19.5.4-11.8-.5-11.9c-2.1-.4-5.9,8-6.2,14.2-3.5-3.7-6.4-7.9-8.4-12.6-3.7-9.3-3.7-20.5-5.9-22.5-1.8-1.7-7.4,17.8-7.2,34.8,0,0-1.3-9.4-3.2-10s-5.8,22.1,3.1,38.2c5.2,9.4,24.6,12.4,24.6,12.4Z"/>
        <path class="cls-5" d="M477.2,140.8s-1.2,13.2-3.9,19.7-7.5,12.2-4.2,12.8,8.1-4.5,8.1-4.5c-.7,5.7-1.7,11.3-3.2,16.8-2.8,10.2-7.3,16.2-4,16.8s10.4-5.9,12-9.9c.2,6.8-.1,13.6-.9,20.4-1.4,10.7-6.4,21.4-3.1,21.9s9.4-8.6,11.7-15.2c0,0,.8,14.3-1.7,23.2-3.1,10.8-9.4,17-8.9,19.6s8.4,0,14.6-6.3c0,0-1.4,13.6-19.6,17.1-12.4,2.4-21.2,1.5-22.9,3s34,14.6,48.2-2.5-22.3-132.9-22.3-132.9Z"/>
        <path class="cls-2" d="M55.6,281.4c16.1,47.6,52,81.7,73,81.7h294.6c44,0,96.7,1.4,127.2,1.4,14.6,0,24-.4,25-1.4,42.7-42.7,5.8-111.8-9.4-136.1-19.7-31.6-22.2-86.2-22.2-86.2h-66.7c3.7,30.6,10.1,60.9,19,90.4,8.6,27.8,3.7,45-20,45H155.5c-24.1,0-42.7,0-63.6-13s-52.9-79.8-56.1-77.1,3.7,47.7,19.8,95.4Z"/>
        <path class="cls-2" d="M55.6,281.4c16.1,47.6,52,81.7,73,81.7h294.6c44,0,96.7,1.4,127.2,1.4,14.6,0,24-.4,25-1.4,42.7-42.7,5.8-111.8-9.4-136.1-19.7-31.6-22.2-86.2-22.2-86.2h-66.7c3.7,30.6,10.1,60.9,19,90.4,8.6,27.8,3.7,45-20,45H155.5c-24.1,0-42.7,0-63.6-13s-52.9-79.8-56.1-77.1,3.7,47.7,19.8,95.4Z"/>
        <path class="cls-2" d="M586.2,349.1c-.6,1-1.2,2-1.8,3-2.6,4-5.6,7.7-9,11-1,1-10.5,1.4-25,1.4-9.7,0-21.8-.1-35-.3h-4c-17.5-.3-36.9-.6-56.1-.9h-3.5c-9.7-.1-19.3-.2-28.5-.2H128.6c-6.2,0-13.6-2.9-21.5-8.3l-1.3-.9-1.3-1c-4.4-3.3-8.6-7-12.5-11-10.7-11.2-19.7-23.9-26.7-37.7-.5-1-1-1.9-1.4-2.9-3.2-6.5-5.9-13.1-8.2-19.9-.5-1.4-.9-2.7-1.3-4-.5-1.6-1-3.2-1.6-4.8-2.5-7.8-4.7-15.5-6.7-22.9-.3-1-.5-2-.8-2.9-1.6-6.3-3.1-12.3-4.3-17.9l-.7-3.4c-4.5-21.2-6.1-36.6-4.6-39.2h0c0-.1.1-.2.2-.3.2-.1.5,0,.8.2,1.8,1.4,5.8,7.8,10.9,16.3.5.8,1,1.6,1.5,2.5,2.3,3.8,4.8,8,7.4,12.3l1.5,2.5h0c2.6,4.2,5.3,8.5,8,12.7l1.4,2.1c6.2,9.3,12.5,17.8,18.4,23.5,1,1,2,1.9,3,2.7.2.2.4.3.6.5.8.6,1.6,1.2,2.5,1.8h.2c5.8,3.8,12.1,6.6,18.7,8.7,1,.3,2.1.6,3.1.9,10.1,2.7,20.3,3.3,31.6,3.4h330.8c16.2,0,23.5-8,23.9-21.9h0c0-1.6,0-3.2-.1-4.9-.1-1.4-.3-2.9-.5-4.4-.2-1-.3-2.1-.6-3.2h0c-.7-3.6-1.6-7.1-2.7-10.6-1.5-4.7-2.9-9.8-4.3-15.1-.2-.8-.4-1.6-.7-2.4-2.3-8.7-4.5-18-6.5-27.5-.5-2.2-.9-4.5-1.4-6.8h0c-.4-2-.8-4-1.2-6.1-.1-.8-.3-1.6-.4-2.4-1.5-8.4-2.8-16.7-3.9-24.8h0c-.2-1.3-.3-2.5-.5-3.8h0c0-.5-.1-1-.2-1.4h66.7s.3,7.2,1.7,17.8c.1.9.2,1.8.4,2.8,1,7.5,2.5,16.5,4.8,25.8l.6,2.4c1.7,7,3.9,13.9,6.5,20.7.7,1.7,1.4,3.4,2.1,5.1,1.8,4,3.8,7.9,6.1,11.6,1.5,2.3,3.1,5.1,4.9,8.2.6,1.1,1.2,2.2,1.8,3.3,7.2,12.8,13,26.4,17.3,40.5.3,1,.6,2.1.9,3.1,0,.1,0,.2,0,.4h0c.8,3,1.5,5.9,2.1,8.8h0c3.9,19.4,3.4,39.9-6.9,57.7Z"/>
        <g class="cls-19">
          <path class="cls-16" d="M501.4,140.8h2.6c-1.6,4.4-4.3,8.5-9.2,10-.7.2-1.4.4-2.2.4h-.4c-5.8.5-10.6-2-14.3-5.2h0c-.2-1.3-.3-2.5-.5-3.8,3.6,3.7,8.7,7.3,14.9,6.6,4.7-.6,7.5-4.1,9.1-8.1Z"/>
          <path class="cls-16" d="M536.1,140.8c-1.5,1.5-3.3,2.6-5.2,3.3-.5.2-1,.3-1.5.5-.5.1-.9.2-1.4.3-5,.7-9.5-1.2-13.2-4h4.6c2.9,1.6,6.2,2.1,9.4,1.4h.2c1.2-.3,2.3-.8,3.3-1.4h3.9Z"/>
          <path class="cls-16" d="M545.5,158.6c.1.9.2,1.8.4,2.8-7.2-2.9-12.7-9.5-15.6-13.7-.1,4.6-1.1,11.7-5.3,16.6-1.8,2.2-4.3,3.7-7,4.5-.9.2-1.7.4-2.6.5-.4,0-.8,0-1.2.1-11.1.6-17.2-7.7-20-13.5-.8,6-3.4,15-12.1,17.4-.1-.8-.3-1.6-.4-2.4,9.8-3,10.5-16,10.4-19.6v-1c0-.7.5-1.2,1.2-1.2.5,0,1,.3,1.2.9,0,0,0,.3.3.9.9,2.9,2.3,5.6,4,8.1,4,5.7,9.2,8.4,15.4,8.1,3.5,0,6.8-1.6,9.1-4.3,4.6-5.4,4.8-14.5,4.7-17.9,0-.8,0-1.3,0-1.3,0-.6.3-1.1.8-1.3h.2c.5,0,1,.2,1.2.6,0,0,.3.5.8,1.3,1.9,3.1,7.3,10.9,14.6,14.5Z"/>
          <path class="cls-16" d="M550.7,187.1l.6,2.4c-1.2.7-2.4,1.3-3.8,1.7-.6.2-1.2.4-1.9.6h-.5c-9.3,2.2-17.4-1.2-23.4-9.8-1.8-2.6-3.3-5.3-4.4-8.2-1,6.7-4.3,17.3-14.2,19.6-.8.2-1.6.3-2.4.4h-.1c-7.3.6-12.4-3.2-15.9-7.8-.5-2.2-.9-4.5-1.4-6.8,2.9,5.8,8.3,13,17.2,12.2,13.1-1.2,14.7-18,14.9-22.3v-1c0-.7.5-1.2,1.2-1.2.5,0,1,.4,1.2.9l.2.8c1.3,4.3,3.2,8.4,5.8,12.1,5.6,7.9,12.7,10.8,21.3,8.8,2-.5,3.9-1.3,5.7-2.4Z"/>
          <path class="cls-16" d="M559.9,215.3c-3.5-2.7-6.5-6.1-8.8-9.9-1.7-2.9-3.2-5.9-4.4-9-.8,3.4-1.8,6.7-3.2,9.9-3.8,8.4-9.2,13.2-15.7,14-.7,0-1.3.1-2,.1h-1.1c-7.9-.5-14.5-5.3-19.2-14-1.3-2.4-2.4-4.9-3.2-7.5-1.2,5.4-4,13.2-10.3,17-.2-.8-.4-1.6-.7-2.4,7.5-5,9.1-16.8,9.4-19.7,0-.4,0-.6,0-.6,0-.6.5-1.1,1.1-1.1.6,0,1.2.4,1.3,1,0,0,0,.1,0,.4.7,3.1,5.8,23.6,21.7,24.6s19.8-22.7,20.3-26.1c0-.2,0-.4,0-.4,0-.6.5-1,1.1-1.1.5,0,1,.3,1.2.8h0c0,.3,3,11.2,10.2,18.9.7,1.8,1.4,3.5,2.1,5.1Z"/>
          <path class="cls-16" d="M90.1,265.6c0,.3-.2.5-.4.7,0,0-.1,0-.2.1-.4.2-.8.2-1.2,0,0,0-.7-.5-1.9-1-5-2.5-18.7-8-27.7,1.4-2.7,2.9-4.2,6.7-4.4,10.6-.5-1.6-1-3.2-1.6-4.8.8-2.8,2.3-5.3,4.3-7.4,1.1-1.2,2.5-2.3,3.9-3.2.7-.4,1.4-.8,2.2-1.2,8.9-3.9,19.1-.1,23.9,2.1-.4-1.6-.7-3.2-1-4.8,1,1,2,1.9,3,2.7,0,.3.1.6.2.9.5,1.9.9,3.1.9,3.1,0,.2,0,.4,0,.5Z"/>
          <path class="cls-16" d="M92.8,303.1c.5.7.4,1.7-.3,2.2-.5.4-1.2.4-1.8,0,0,0-.4-.3-1-.6-3.5-1.9-15.3-7.1-24.4-.6-.5-1-1-1.9-1.4-2.9,8.1-5.5,17.9-3.2,23.7-1-3.4-6.5-8.3-19.2-3.1-31.2.6-1.3,1.2-2.6,2-3.8.8-1.3,1.7-2.5,2.8-3.5.1-.1.3-.3.4-.4.8.6,1.6,1.2,2.5,1.8h.2c-.7.8-1.4,1.6-2.1,2.4-.2.3-.4.6-.6.9-.9,1.3-1.6,2.6-2.2,4-5.5,12.8,1.9,26.8,4.6,31.2.5,1,.9,1.5.9,1.5Z"/>
          <path class="cls-16" d="M572.8,238.5c-1.1,2.8-2.8,5.4-4.8,7.6-2.8,2.9-6.5,4.9-10.5,5.5-1.1.2-2.2.3-3.3.3h-1.5c-16.1-.4-23.3-15.7-26.1-24.9-1.2,4.4-3.5,9.9-8,13.8-3.3,2.9-7.5,4.5-11.9,4.7-1.2,0-2.5,0-3.7,0h-.2c-1.1,0-2.1-.3-3.2-.6-.2-1-.3-2.1-.6-3.2,1.4.5,2.8.8,4.2.9,5.4.4,9.9-.9,13.5-3.9,6.7-5.8,8-16.1,8.2-18.3v-.4c0-.8.7-1.4,1.5-1.4.7,0,1.3.6,1.4,1.3,0,0,0,.2,0,.5.9,4.9,2.5,9.7,4.7,14.2,4.8,9.5,11.6,14.4,20.2,14.6,5.6.1,9.9-1.6,13.2-5,2.3-2.6,4.1-5.7,5-9,.7,1.1,1.3,2.1,1.9,3.3Z"/>
          <path class="cls-16" d="M590,279c.3,1,.6,2.1.9,3.1-.5,0-1,.1-1.5.2-.8,0-1.7.1-2.5.1-9.9,0-18.5-5-25.1-14.5-2.3-3.4-4.3-7-5.8-10.9-2.8,8.5-10.5,24.7-27.2,24.7h-.6c-.8,0-1.7,0-2.4-.1-1.1,0-2.2-.3-3.2-.5-4.7-.9-9-3.4-12.1-7.1-6-7-7.2-17.1-7.2-23.6-.9,1.2-1.9,2.5-3.1,3.8,0-1.6,0-3.2-.1-4.9,1.1-1.5,2-2.8,2.6-3.9s1-1.8,1.1-1.8c.3-.7,1.1-1,1.9-.8.7.2,1.2,1,1.1,1.7,0,0,0,.4,0,1-.3,3.9-1,17.9,6.2,26.3,3.6,4.2,8.8,6.5,15.4,6.6h.5c18.2,0,24.4-22.6,25.4-26.6,0-.4.1-.6.1-.6.2-.9,1-1.4,1.9-1.2.6.1,1.1.6,1.2,1.1,0,0,0,.1,0,.3,1,3.3,9.5,29.3,31.7,27.4.3,0,.6,0,.9-.1Z"/>
          <path class="cls-16" d="M122.9,294.4c.4.5.4,1.2,0,1.8-.3.5-.8.8-1.4.8-.2,0-.3,0-.5,0-.1,0-11.3-3.4-20.6,1.6-5.3,2.8-9,7.8-11.1,14.8-6.1,20.5,13.2,36.4,15.7,38.3l.2.2c.7.5.8,1.4.4,2.1h0l-1.3-1c-4.4-3.3-8.6-7-12.5-11-5-7.5-9.1-17.8-5.6-29.5.8-2.6,1.8-5.2,3.2-7.5.7-1.1,1.4-2.2,2.2-3.2,2-2.5,4.4-4.5,7.2-6,6.7-3.6,14-3.4,18.6-2.8-3.1-4.3-7.5-12.2-6.8-21,1,.3,2.1.6,3.1.9-.6,11.5,8.4,21,8.9,21.5,0,0,0,.1.1.2Z"/>
          <path class="cls-16" d="M153.2,283.3c.6.7.5,1.7-.2,2.2-.3.3-.8.4-1.2.3h-.8c-4.1-.5-22.3-1.3-27.4,14.8-6.3,20.2,11.9,33.8,14.7,35.8.1,0,.2.2.4.3.7.5.9,1.5.5,2.2-.3.5-.9.8-1.5.7,0,0-.4,0-1.2,0-4.5-.1-9,.5-13.3,1.8-7.8,2.4-13.2,6.9-16,13.4l-1.3-.9-1.3-1c.2-.5.4-.9.7-1.3,3.4-6.4,9.3-10.9,17.2-13.3,3.5-1,7.1-1.7,10.8-1.8-6.4-5.6-18.2-18.8-12.6-36.8.3-.9.6-1.9,1-2.8.4-.9.8-1.7,1.3-2.5,6.5-10.9,19.7-12,25.9-11.9-1.3-2-2.4-4.2-3.3-6.4h3.5c.9,2.1,2,4.1,3.3,5.9.5.8.9,1.2.9,1.3Z"/>
          <path class="cls-16" d="M591,282.6c.8,2.9,1.5,5.8,2.1,8.8h0c-1.3,6.3-4.2,14.5-10.5,20.6-5.8,5.7-13.5,8.6-23,8.6h-1c-1.3,0-2.6-.1-3.9-.3-1.5-.2-3-.4-4.4-.8-20-4.8-25.8-24.8-27.3-33.6-5.3,7.1-19.1,22.3-36.9,17.5-.7-.2-1.3-.4-2-.6s-1.5-.6-2.2-.9c-11.4-5.1-14.8-16.3-15.5-25.7h3.1c0,.6,0,1.3.2,1.9,1.3,11.2,6.5,18.5,15.4,21.6,20.1,7.1,35.2-15.4,37.3-18.6l.2-.4c.4-.8,1.4-1.1,2.1-.7.5.3.8.8.9,1.4,0,0,0,.1,0,.1.2,2.8,3.1,35.1,33,35.7,9,.2,16.2-2.4,21.6-7.7,9.2-9,10.5-23.2,10.7-27.1Z"/>
          <path class="cls-16" d="M586.2,349.1c-.6,1-1.2,2-1.8,3-18.9-2.3-28.8-21.7-32.1-29.5-2.8,4.6-6.2,8.7-10.1,12.4-10,9.2-21.4,12.3-33.1,9l-1-.3c-1.4-.4-2.7-.9-4-1.5-9.9-4.3-16.6-12.3-19.5-23.3-1.1-4.4-1.7-8.9-1.7-13.4-6.4,5.5-14.4,8.8-22.9,9.4-5.5.4-11-.5-16-2.8-3-1.3-5.8-3.2-8.2-5.4-6.4-5.9-9.2-15-7.9-26.2.2-1.5.4-2.9.6-4.3h3.3c-1.7,8.4-2.1,20.5,6.1,28.1,1.5,1.4,3.2,2.7,5,3.7.4.2.9.5,1.3.7h0c4.8,2.3,10.2,3.4,15.5,2.9,8.5-.6,16.8-4.2,22.2-9.7.5-.5,1-1.1,1.5-1.6.6-.7,1.6-.8,2.3-.2.4.3.6.9.6,1.4,0,0,0,.7-.2,1.9-.3,5,.2,9.9,1.5,14.8,2.9,10.8,9.5,18.2,19.5,21.9.4.2.9.3,1.3.5l.5.2c23.2,7.2,38-15.2,41.4-21.1.5-.9.7-1.4.8-1.4.4-.8,1.4-1.1,2.2-.7.4.2.7.5.8.9,0,0,.2.7.7,1.9,2.1,5.5,5,10.6,8.6,15.3,6.6,8.5,14.2,13,22.9,13.5Z"/>
          <path class="cls-16" d="M515.3,364.2h-4c-3.2-5.8-5.1-12.2-5.7-18.8-4.4,3.5-9.3,6.5-14.4,8.8-12.7,5.6-24.8,5.6-35.3,0-.7-.4-1.5-.8-2.2-1.3s-1.6-1-2.3-1.6c-15.5-11.6-13.2-30.4-11.3-38.4-7.8,3.2-26.5,9-40.4-2.6-.7-.6-1.4-1.2-2.1-1.9s-1.3-1.3-1.9-2.1c-8-9.6-7.5-21.5-5.6-30.2h3.5c-.3,1.3-.6,2.7-.8,4.2-1.6,10.5.9,19.1,7.2,25.6,12.9,13,32.1,6.5,39.2,3.5,1.7-.7,2.6-1.2,2.7-1.3.3-.2.7-.2,1-.2.4,0,.7.2,1,.4,0,0,.2.2.2.3h0c.4.5.4,1.1.2,1.7,0,0-.2.6-.5,1.7-1.2,4.3-1.8,8.8-1.7,13.3.3,10.8,4.8,19.1,13.4,24.5h0c20.2,12.7,41.8-2.4,48.4-7.8,1.3-1,2-1.7,2-1.7.3-.3.7-.5,1.1-.5.3,0,.6,0,.9.1.2,0,.3.2.5.3.4.3.6.8.6,1.4v2.1c.3,7.2,2.5,14.2,6.3,20.3Z"/>
          <path class="cls-16" d="M456.4,351.8s-.2.9-.4,2.4c-.5,3-.7,6.1-.7,9.2h-3.5c0-2.8.2-5.7.6-8.5-6.6,3.2-13.9,5-21.2,5.3-8.1.3-19.7-1.2-28.3-10.1-12.6-13-8.8-32.3-6.5-40.1-8.8,2.6-18.2,1.9-26.5-1.9-4.3-2-8-5-10.9-8.7-1.1-1.4-2.1-2.9-2.9-4.5-.7-1.4-1.3-2.8-1.8-4.3-1.6-4.6-2.1-9.6-1.5-14.4h3.6c-.6,4.5-.2,9,1.2,13.3,2.3,6.8,7.3,12.4,13.8,15.4,7.7,3.5,16.5,4,24.6,1.5.8-.2,1.7-.5,2.5-.8.9-.3,1.9.1,2.3,1.1.1.4.1.8,0,1.2,0,0-.4,1-.8,2.5-2,6.7-6,25.4,5.5,37.2,12.8,13.2,35.1,9.8,46.2,3.8.8-.4,1.6-.9,2.2-1.4.6-.4,1.3-.4,1.9,0h0c.6.4.9,1.1.7,1.8Z"/>
          <path class="cls-16" d="M404.2,353.7c-1,3.1-1.7,6.2-2.2,9.4h-3.5c.3-2.4.8-4.7,1.4-7.1-9.8,2.9-20.2,2.3-29.6-1.7-6.9-3-12.6-8.3-16.1-15-.9-1.8-1.7-3.6-2.3-5.5-.1-.4-.2-.7-.4-1.1-5-17.3.7-29.5,3.8-34.4-6.1-1.4-20.1-6.2-24.9-21.1-.1-.3-.2-.7-.3-1-.2-.9-.5-1.8-.6-2.7.6-.5,1-.7,1-.7.8-.5,1.9-.2,2.4.7.4.8.2,1.7-.5,2.3l-.7.5h2.1c4.3,13.2,16.7,17.5,22.1,18.7.8.2,1.7.4,2.5.5.6,0,1.2.5,1.5,1.1.2.6.1,1.3-.3,1.8-.3.4-.6.7-.8,1.1-2.5,3.5-8.9,15.1-3.9,32.4.3,1,.6,2,1,3,0,.2.1.3.2.5h0c2.9,7.2,8.5,12.9,15.6,15.9,11,4.9,23.4,3.7,30.1.4.9-.4,1.9,0,2.3.8.2.4.2.9,0,1.4h0Z"/>
          <path class="cls-16" d="M355.8,336.6s-.7,1-1.7,2.8c-2.6,4.6-4.6,9.5-6,14.6-.8,3-1.4,6.1-1.7,9.2h-3.4c.8-11.4,5.7-21.3,8.2-25.9-4.7-.2-9.3-1.1-13.7-2.5-7.4-2.5-13-6.5-16.8-11.9-.2-.3-.4-.5-.5-.8-2-3.1-3.4-6.4-4.1-10-4-18.4,4.7-30.4,10.2-35.9,1-1,2-1.9,3.1-2.7.6-.5,1-.7,1-.7.8-.5,1.9-.2,2.4.7.4.8.2,1.7-.5,2.3l-.7.5c-.3.2-.8.6-1.2,1-4.5,3.8-15,15.1-10.8,34.2,2.1,9.7,8.5,16.5,19,20,4.3,1.4,8.7,2.2,13.2,2.4,1.5,0,2.4,0,2.5,0,.6,0,1.2.3,1.6.8h0c0,.2.1.3.2.5h0c.2.5,0,1.1-.2,1.5Z"/>
          <path class="cls-16" d="M319.9,325.3c-4.2,2.6-7.9,5.9-11.1,9.6-6.8,8.2-9.3,17.1-7.4,26.6.1.6.2,1.1.4,1.6,0,.3.1.5.2.8,0-.3-.3-.5-.5-.8h-3.9c0-.3-.1-.6-.2-.9s0-.4-.1-.6c-1.9-10.4,1-20.5,8.4-29.4,2-2.4,4.3-4.7,6.7-6.7-6.5-.4-12.6-2.8-17.6-7-5.4-4.7-8.4-11.3-8.7-19,0,0,0,0,0-.1-.1-2.3.1-4.7.7-6.9,1.5-5.7,4.8-10.7,9.4-14.3.9-.7,1.8-1.4,2.7-2h8.4c-3.1,1.3-6.1,3-8.7,5.2-6,4.9-8.8,10.9-8.6,17.9.3,6.7,2.8,12.3,7.4,16.3,5.3,4.6,13,6.8,21.1,6,.9,0,1.8.5,2.1,1.3h0c.3.9,0,1.9-.9,2.3Z"/>
          <path class="cls-16" d="M301.6,363.1h-11.1c-2-.9-4-2-5.9-3.1-10.3-6.4-16.7-15.3-18.5-25.9v-.2c-.4-2.2-.5-4.5-.4-6.8.9-15.9,13.8-27.4,19-31.4-3.2-3.1-9.6-10.1-11.9-19.6h4.1c.7,2.4,1.7,4.8,3,7,2,3.4,4.4,6.5,7.2,9.3,1.2,1.2,2,1.8,2.1,1.8.5.4.8,1,.8,1.6,0,.6-.4,1.2-.9,1.6,0,0-1.1.7-2.6,2-5.8,4.7-19.1,17.5-16.4,33.7,1.6,9.6,7.2,17.4,16.6,23.3,3.4,2.1,7,3.8,10.8,5.1,1.9.7,3.1.9,3.2.9.4,0,.7.3,1,.5Z"/>
          <path class="cls-16" d="M269.5,330.8c0,.7-.4,1.4-1,1.7-.2.1-1.1.6-2.5,1.6-5.1,3.6-16.3,13.2-18.9,29h-4c2.6-17.5,15.2-28.3,20.7-32.3-13.4-9.1-18.7-21.1-18.5-30.7,0-1.9.3-3.9.8-5.8.1-.5.3-1,.5-1.5,2.4-6.8,6.8-12.6,12.7-16.7h7.7c-6.1,3.1-14.1,9.1-17.1,19.3-.2.7-.3,1.3-.5,2-2.1,11.9,7.4,23.4,16.1,29.7,1,.7,2,1.4,2.9,2,.6.4.9,1,.9,1.7Z"/>
          <path class="cls-16" d="M249.5,297.4c-.2.7-.6,1.2-1.3,1.4-1,.4-2,.8-2.9,1.3-5.8,2.8-18.5,10.3-23.7,24.9-3.4,9.6-2.4,20.2,2.6,29.1,1.8,3.3,4,6.3,6.7,9h-5.4c-1.8-2.2-3.4-4.6-4.8-7.1-5.5-9.9-6.5-21.7-2.8-32.4,0-.2.2-.5.3-.7.4-1,.8-2,1.2-2.9,6.5-14.1,19.2-21.2,24.8-23.8-5.6-6.4-8.5-13.1-8.8-20h4c.3,5.7,2.7,11.3,7.2,16.7.7.9,1.5,1.8,2.4,2.7.5.5.6,1.2.5,1.9Z"/>
          <path class="cls-16" d="M219.6,321.3c-.1.7-.6,1.3-1.3,1.5h-.2c-2.3,1-26.8,11.2-26.9,35.2h0c0,1.7.1,3.4.3,5.1h-4c0-.8-.2-1.5-.2-2.3,0-.9,0-1.9,0-2.8s0-2.3.2-3.4c1.9-20.4,19.8-30.9,26.8-34.3-3.7-4-10.7-13.3-10.8-26.1,0-1,0-2.1.1-3.1.2-2.4.6-4.7,1.3-7,.8-2.8,1.9-5.4,3.4-7.9h4.8c-2,2.7-3.5,5.8-4.4,9-5.9,20.4,10.1,34.1,10.2,34.3.2.2.3.3.4.5.2.4.3.8.2,1.3Z"/>
          <path class="cls-16" d="M204.1,293.2c-.1.4-.4.8-.7,1-.3.2-.8.4-1.2.4-.2,0-24-.2-31.1,17.1-9.5,23.2,8.9,38.1,16.2,42.9,1.5,1,2.5,1.6,2.8,1.7.6.3,1.1,1,1.1,1.8h0c0,0,0,.1,0,.2,0,.8-.6,1.5-1.4,1.7,0,0-1,.3-2.5.9-1.3.5-3,1.3-5,2.3h-7.8c3.2-2.2,6.6-4,10.2-5.5-6.9-4.8-21.7-17.3-20.1-36,.1-1.5.3-3,.7-4.5.5-2.3,1.2-4.6,2.1-6.8,3.4-8.3,10.5-14.3,20.6-17.4,3-.9,6.1-1.5,9.2-1.9-3.9-4-6.4-9.2-7.1-14.8h4c.9,6,4.3,11.3,9.2,14.8h.1c.6.6.9,1.5.6,2.2Z"/>
          <path class="cls-16" d="M167.2,319.7c-.1.7-.6,1.2-1.2,1.4,0,0-.5.2-1.3.5-5.2,1.9-24.3,10-27.6,26.7-1,4.9-.8,10,.5,14.8h-3.6c-1.3-5.1-1.4-10.4-.4-15.5.5-2.8,1.5-5.5,2.8-8,.6-1.1,1.2-2.1,1.9-3.1,6.8-10.1,18.3-15.6,23.8-17.7-5-4.7-15.8-17.1-11.1-33,.4-1.3.8-2.5,1.4-3.7.4-.9.9-1.9,1.4-2.8.6-1.1,1.3-2.1,2-3.1h4.7c-1.4,1.4-2.7,3-3.6,4.8-4.9,8.8-4.7,17.6.4,26.4,2.2,3.7,4.9,6.9,8.1,9.7.7.6,1.1.9,1.2,1,.5.4.8,1.1.7,1.7Z"/>
          <path class="cls-16" d="M63.1,261.3c.1.6-.3,1.3-.9,1.4-.5,0-1-.1-1.2-.5,0,0,0-.1-.1-.2-.9-1.2-6.4-8.5-14.8-12.3-.3-1-.5-2-.8-2.9,3.1,1.2,6,2.8,8.6,4.9,2.3,1.8,4.4,3.7,6.4,5.9-.5-6.1-.3-17.6,5.8-25l1.4,2.1c-6.5,8.6-4.8,23.4-4.4,26.1,0,.3,0,.4,0,.5Z"/>
          <path class="cls-16" d="M56.5,217.4l1.5,2.5c-3.1-.4-6.3.1-9.2,1.5-3.3,1.6-6.1,4.2-7.9,7.4l-.7-3.4c2-2.7,4.6-4.8,7.6-6.2,2.7-1.3,5.7-1.9,8.7-1.8Z"/>
          <path class="cls-16" d="M49,205.1c-1.6,4-2.2,8.4-1.7,12.7,0,.7-.4,1.3-1,1.4h-.2c-.6,0-1.1-.4-1.2-1,0-.5-1.2-8.7,2.5-15.5.5.8.9,1.6,1.5,2.5Z"/>
          <path class="cls-16" d="M36.6,186.3h-1s.1-.1.2-.2c.1-.1.4,0,.8.2Z"/>
        </g>
        <path class="cls-11" d="M544.8,152.5l-64.4,10.9c-1.3-7.7-2.4-15.3-3.2-22.6h66.7s.2,4.6,1,11.7Z"/>
        <path class="cls-5" d="M534.9,140.8c.4,3.5,1.4,12.5,3.3,24.7,0,.3,0,.6.2.9.4,2.7.9,5.6,1.5,8.5,0,.3.1.6.2.9.6,3.4,1.3,7,2.1,10.7,0,.3.1.6.2.9.8,3.8,1.7,7.8,2.7,11.8,0,.3.2.6.2.9.8,3.2,1.7,6.5,2.6,9.8.4,1.4.8,2.9,1.3,4.2,0,.3.2.6.3.9,1.5,4.6,3.1,8.9,4.8,13.2.1.3.2.6.4.9,1.9,4.6,3.9,9,5.9,13.5.1.3.3.6.4.9,2.3,5.1,4.5,10.2,6.6,15.6.1.3.2.6.3.9,2.1,5.3,3.8,10.8,5.2,16.3,0,.3.2.6.2.9,1.4,5.7,2.5,11.6,3.2,17.4,0,.3,0,.6,0,.9.6,5.6.9,11.3.9,16.9,0,1.5,0,3-.2,4.5,0,.3,0,.6,0,.9-.5,6.2-2,12.3-4.4,18-.1.3-.2.6-.4.9-1.7,4-3.8,7.7-6.3,11.3-.2.3-.4.6-.6.9-2.3,3.3-5,6.3-7.8,9.2-.3.3-.5.6-.8.8-2,2-4.2,3.9-6.5,5.6,14.6,0,24-.4,25-1.4,1.3-1.3,2.5-2.6,3.6-3.9.3-.3.6-.7.8-1,2.4-2.9,4.6-6,6.5-9.2.2-.3.4-.6.6-1,2.1-3.8,3.8-7.7,5.2-11.9.1-.3.2-.6.3-1,2-6.5,3-13.3,3.2-20.2v-1c0-7-.5-14-1.8-20.9,0-.3-.1-.6-.2-.9-1.1-5.7-2.5-11.3-4.2-16.8,0-.3-.2-.6-.3-.9-1.8-5.7-3.9-11.2-6-16.4-.1-.3-.2-.6-.4-.9-2.3-5.6-4.8-10.9-7.1-15.7-.2-.3-.3-.6-.5-.9-2.5-5.1-4.8-9.6-6.8-13.5l-.2-.5-.2-.4c-2.2-4.2-4.1-8.6-5.9-13l-.4-.9c-1.8-4.5-3.5-9.1-5-13.6,0-.3-.2-.6-.3-.9-1.3-3.8-2.4-7.6-3.4-11.3,0-.3-.2-.6-.2-.9-1-3.6-1.9-7.2-2.7-10.6,0-.3-.2-.6-.2-.9-.7-3-1.3-5.9-1.9-8.6,0-.3-.1-.6-.2-.9-2.8-14.1-3.8-23.9-3.8-23.9h-8.9Z"/>
        <path class="cls-12" d="M560.9,243.4c4.9-.9,9.8-1.6,14.7-1.9-.2-.3-.3-.6-.5-.9-4.9.3-9.8,1-14.7,1.9.1.3.3.6.4.9Z"/>
        <path class="cls-12" d="M567.8,259.9c5.1-.9,10.2-1.5,15.3-1.8-.1-.3-.2-.6-.4-.9-5.1.3-10.2.9-15.2,1.8,0,.3.2.6.3.9Z"/>
        <path class="cls-12" d="M573.3,277.1c5.3-.9,10.7-1.5,16.1-1.7,0-.3-.2-.6-.3-.9-5.4.2-10.8.8-16.1,1.7,0,.3.2.6.2.9Z"/>
        <path class="cls-12" d="M576.6,295.5c5.8-.4,11.6-1.2,17.3-2.4,0-.3-.1-.6-.2-.9-5.7,1.2-11.4,1.9-17.2,2.3,0,.3,0,.6,0,.9Z"/>
        <path class="cls-12" d="M577.2,317.8c6.2-.4,12.4-1.4,18.4-2.8v-1c-6,1.5-12.2,2.4-18.4,2.9,0,.4,0,.7,0,1Z"/>
        <path class="cls-12" d="M579,337c4.4,0,8.8-.3,13.1-.9.1-.3.2-.6.3-1-6.5.9-13.1,1.1-19.7.7-.1.3-.2.6-.4.9,2.2.2,4.4.3,6.6.3Z"/>
        <path class="cls-12" d="M576.1,349.5c3.4,0,6.8-.2,10.2-.5.2-.3.4-.6.6-1-6.9.8-13.9.8-20.9,0-.2.3-.4.6-.6.9,3.5.4,7.1.7,10.7.7Z"/>
        <path class="cls-12" d="M556.8,358.9c4.1.6,8.2.8,12.3.8,3.3,0,6.6-.2,9.9-.5.3-.3.6-.7.8-1-7.4.8-14.9.8-22.2-.1-.3.3-.5.5-.8.8Z"/>
        <path class="cls-12" d="M554.6,229c4.5-.9,9.1-1.5,13.7-1.9l-.2-.5-.2-.4c-4.6.4-9.1,1-13.6,1.9.1.3.2.6.4.9Z"/>
        <path class="cls-12" d="M549.1,214.1c0,.3.2.6.3.9,3.8-.7,8-1.3,12.5-1.7l-.4-.9c-4.5.4-8.7,1-12.5,1.7Z"/>
        <path class="cls-12" d="M545.1,199.2c0,.3.2.6.2.9,3.5-.6,7.3-1,11.3-1.3,0-.3-.2-.6-.3-.9-4,.3-7.8.7-11.2,1.3Z"/>
        <path class="cls-12" d="M542.2,186.5c0,.3.1.6.2.9,3.3-.4,6.9-.7,10.5-.8,0-.3-.2-.6-.2-.9-3.7.1-7.2.4-10.5.8Z"/>
        <path class="cls-12" d="M539.9,174.9c0,.3.1.6.2.9,3.1-.4,6.5-.6,9.9-.7,0-.3-.2-.6-.2-.9-3.4,0-6.8.4-9.9.7Z"/>
        <path class="cls-12" d="M538.2,165.4c0,.3,0,.6.2.9,3-.4,6.2-.7,9.5-.8,0-.3-.1-.6-.2-.9-3.3.2-6.5.4-9.5.8Z"/>
        <path class="cls-12" d="M520.1,2.3c-1.2,3.7-1.6,7.6-1.2,11.5.3,1.9.9,3.7,1.9,5.4.9,1.6,2.4,2.9,4.1,3.6,1.8.6,3.7.9,5.6,1,1.9.2,3.9.2,5.8.2,4,0,7.9.2,11.8.7,4.1.5,8,1.7,11.6,3.6,2.7,1.5,5.2,3.5,7.1,6,.7.9,1.2,1.9,1.6,2.9.8,1.9,1.4,3.8,1.8,5.8.5,2,.8,3.9,1.2,5.8.7,3.9,1.4,7.7,2.4,11.4.8,3.7,2.2,7.2,4.1,10.4.9,1.5,2.2,2.8,3.7,3.8.7.5,1.5.9,2.3,1.1.9.3,1.7.6,2.6.8,3.7.7,7.5.8,11.3.4,3.9-.4,7.9-.6,11.9-.5,2.1,0,4.1.4,6,1.1,2,.6,3.8,1.6,5.5,2.9,1.6,1.3,3,2.8,4.2,4.5,1.1,1.8,1.8,3.7,2.2,5.7.7,3.9.7,7.9.1,11.9-.5,3.9-1.4,7.7-2.6,11.5.9-3.8,1.6-7.7,1.9-11.6.4-3.9.2-7.7-.7-11.5-.4-1.8-1.2-3.6-2.2-5.1-3.3-4.6-8.8-7.3-14.5-7.1-3.9,0-7.7.3-11.6.8-4,.5-8.1.4-12.1-.2-1-.2-2-.5-3-.8-1.1-.3-2.1-.8-3-1.4-1.8-1.2-3.3-2.7-4.5-4.6-2.2-3.5-3.7-7.3-4.6-11.3-1-3.9-1.6-7.8-2.3-11.6-.6-3.8-1.5-7.5-2.8-11.1-.3-.8-.7-1.6-1.2-2.3-.6-.7-1.2-1.4-1.8-2.1-1.3-1.3-2.7-2.4-4.3-3.3-3.3-1.8-6.9-3.1-10.6-3.7-3.8-.6-7.7-1-11.6-1.2-2-.1-3.9-.3-5.9-.5-2-.2-4-.7-5.9-1.5-1-.4-1.8-1.1-2.5-1.8-.7-.7-1.3-1.6-1.8-2.4-1-1.8-1.6-3.7-1.8-5.7-.3-4,.3-7.9,1.7-11.6Z"/>
        <polygon class="cls-16" points="632.7 120 612.8 130.9 608.4 110.1 632.7 120"/>
        <path class="cls-7" d="M632.7,120l-9.7,5.6c-3.3,1.9-6.6,3.8-10,5.7l-.5.3v-.6c-.1,0-2.4-10.4-2.4-10.4-.8-3.5-1.5-6.9-2.2-10.4l-.2-.9.8.3,6.2,2.6,6.1,2.6,11.9,5.1ZM632.7,120l-12.4-4.8-6.1-2.3-6-2.4.6-.5c.8,3.5,1.5,6.9,2.3,10.4l2.2,10.4-.6-.3c3.2-1.8,6.6-3.5,9.9-5.2l10.2-5.3Z"/>
        <path class="cls-16" d="M604.9,132.9l-14.5,7.6s-28.5-8-49.7-7.9l2.5,6.9s56.5,14.2,58.4,13.1,3.3-19.7,3.3-19.7Z"/>
        <path class="cls-7" d="M604.9,132.9l-14.5,7.8h-.2c-8.1-2.1-16.3-3.9-24.6-5.2-4.1-.7-8.3-1.3-12.5-1.7s-8.3-.7-12.5-.7l.5-.6,2.5,6.9-.3-.3,19.4,4.8c6.5,1.6,13,3.1,19.4,4.7,3.2.8,6.5,1.5,9.7,2.2,1.6.4,3.3.7,4.9,1,.8.1,1.6.3,2.5.4.4,0,.8.1,1.2.2.2,0,.4,0,.6,0h.3c.1,0,0,0,.2,0,.2-.3.4-.6.5-1,.1-.4.2-.8.4-1.2.2-.8.4-1.6.5-2.4.3-1.6.6-3.3.8-4.9.5-3.2.9-6.5,1.2-9.9ZM604.9,132.9c-.2,3.3-.5,6.6-.9,10-.2,1.7-.4,3.3-.7,5-.1.8-.3,1.6-.5,2.5,0,.4-.2.8-.3,1.2-.1.4-.3.9-.7,1.2-.1.1-.3.2-.4.2h-1c-.4,0-.8,0-1.3-.1-.8-.1-1.7-.2-2.5-.4-1.7-.3-3.3-.6-4.9-.9-3.3-.7-6.5-1.4-9.8-2.1-6.5-1.4-13-3-19.5-4.5s-13-3.1-19.4-4.8h-.2c0,0,0-.3,0-.3l-2.5-6.9-.2-.6h.7c4.2,0,8.4.3,12.6.7s8.3,1.1,12.5,1.8,8.3,1.6,12.4,2.5,8.2,1.8,12.2,3h-.2l14.6-7.4Z"/>
        <path class="cls-2" d="M539.7,53.2c-8.5-2.7-11.6-.2-28-13.4-19.4-15.6-41.6-31.8-48.3-24.2s34.2,23.6,34.2,23.6c0,0-19.3-6.6-20.8-1.3s18.5,6.1,26.2,9.6c14.7,6.6,20.8,12.8,21.4,12.8,12-.1,15.2-7,15.2-7Z"/>
        <g class="cls-19">
          <path class="cls-1" d="M539.7,53.2c-8.5-2.7-11.6-.2-28-13.4-19.4-15.6-41.6-31.8-48.3-24.2s34.2,23.6,34.2,23.6c0,0-19.3-6.6-20.8-1.3s18.5,6.1,26.2,9.6c14.7,6.6,20.8,12.8,21.4,12.8,12-.1,15.2-7,15.2-7Z"/>
        </g>
        <path class="cls-5" d="M607.3,148.7s5.7,8.2,2.6,17.8-10.6,11.6-8.9,19.9c0,0-15.8-9.5-13.8-33.6l20.1-4.1Z"/>
        <path class="cls-3" d="M600,152.4c4.6,3.5,6.2,15.3-1.2,23.1-10.3,10.9-10,18.5-10,18.5,0,0-14.6-11-13.8-24.1s6.7-19.3,6.7-19.3l18.3,1.8Z"/>
        <path class="cls-5" d="M597.1,150.9c.6,5.8-1.2,11.6-5,16.1-6.5,7.8-19,9-21.7,20,0,0-11.4-13.5-2.5-33.9l29.3-2.2Z"/>
        <path class="cls-2" d="M542.7,51.8c12.5,5.7,14.9,25.8,21.9,29.4s34.5,13.6,38.9,12.6,6.9-10.2,18.1-11.1,23.5,7.2,24.3,13.1-9.4,9.9-9.4,9.9c0,0,5.8,3.2,6.2,6.8.3,2.8-1.8,9.6-7.3,8.9s-23.5-12-31.9-13.1-18.2,7.8-30.9,5.8-18.8-10.6-28.4-7.9-8.4,31.2,0,31.7,19.3-3.5,25.6-1.6,13.7,11.2,20.5,11.4,16.7-1.3,18.3,0-8.8,9.4-14,10.9-37.7-6.4-47.1-8.1-38.2-5.3-58-2.6-32.2-19.1-35.7-32.7,4-49.8,15.8-58.5c5.6-4.1,19.8-1.8,33.9-3.7,15.8-2.1,30.1-5.3,39-1.2Z"/>
        <path class="cls-5" d="M534.6,137.3l2.2-34.3-121.4-63.1s-10.1,25.4,9.7,39.4c0,0-8.1,21,9.5,30.5,0,0-1.8,18,17,22.8,0,0-1.7,11.7,12.7,16.1,14.4,4.4,70.3-11.3,70.3-11.3Z"/>
        <path class="cls-3" d="M536.8,103.1l-2.2,34.3h-.2c0,0-.2,0-.2,0h-.4c0,0-.5.2-.5.2l-.7.2-2.7.7c-12,3.2-44.1,11-54.7,7.8-13.2-4-11.6-14.7-11.6-14.7-17.2-4.3-15.5-20.8-15.5-20.8-16.1-8.7-8.6-27.8-8.6-27.8-16.3-11.5-10.5-31.4-9.1-35.3l106.4,55.4Z"/>
        <path class="cls-5" d="M538.9,104.6s-39.5-36.4-54.7-23.4c-4.7,4,4.8,16.9,14,21.4,0,0-27.6,3.6-27.2,17,.5,17,33.9,10.4,33.9,10.4,0,0-15.1,11.3-9.5,18,8.7,10.4,45.6-13.5,45.6-13.5,0,0-13.7-2.8-11.9-13.2s7.3-15.8,9.9-16.6Z"/>
        <path class="cls-3" d="M541.8,106.3s-30.5-19.2-39.8-8.8c-2.8,3.2,4.9,11.3,11.7,13.5,0,0-18.8,5.1-17.2,14.4,1.9,11.7,24.4,3.9,24.4,3.9,0,0-9.5,9.4-4.8,13.4,6.4,5.4,26-8.7,26-8.7,0,0-5.5-5.7-5.2-13.1s3.2-13.8,5-14.6Z"/>
        <path class="cls-2" d="M644,115.2c1.7,2-.3,5.4-2.8,6.4s-14.2.6-19.1-.6-15.6-9.9-20.8-10.2-16.2,7.8-25.8,7.2-23-10.2-29.6-9.8c-9,.6-6.1,25.1-2.2,26.4s19.2-2.1,24.5-1.2,16.3,11.1,20.7,11.9,18.1-1.4,20.9.6.2,6.3-2.8,7.6-18.3.6-22.9-1-12.4-10.6-18-11.5-20.1,3.7-26.9-.1-11.7-35.7,5.8-40.1,24.5,10,29.5,10.6,19.1-9.6,28.9-8.1c4.6.7,14.2,8.1,21.6,10.7,4.6,1.6,17.2-.7,18.9,1.3Z"/>
        <path class="cls-15" d="M644,115.2c1.7,2-.3,5.4-2.8,6.4s-14.2.6-19.1-.6-15.6-9.9-20.8-10.2-16.2,7.8-25.8,7.2-23-10.2-29.6-9.8c-9,.6-6.1,25.1-2.2,26.4s19.2-2.1,24.5-1.2,16.3,11.1,20.7,11.9,18.1-1.4,20.9.6.2,6.3-2.8,7.6-18.3.6-22.9-1-12.4-10.6-18-11.5-20.1,3.7-26.9-.1-11.7-35.7,5.8-40.1,24.5,10,29.5,10.6,19.1-9.6,28.9-8.1c4.6.7,14.2,8.1,21.6,10.7,4.6,1.6,17.2-.7,18.9,1.3Z"/>
        <path class="cls-2" d="M548,90.5c2.7-5.6,1-25.7-14.2-27.3-7.2-.8-1.3,8.2-1.3,8.2-4.1-3.2-9.1-5-14.2-5.2-8.7-.3-14.4,1.9-14.6,5s13,6.2,13,6.2c0,0-13.1,4.4-13.8,10-.4,3,4.3,4.7,13.2.6s31.8,2.6,31.8,2.6Z"/>
        <g class="cls-20">
          <path class="cls-16" d="M548,90.5c2.7-5.6,1-25.7-14.2-27.3-7.2-.8-1.3,8.2-1.3,8.2-4.1-3.2-9.1-5-14.2-5.2-8.7-.3-14.4,1.9-14.6,5s13,6.2,13,6.2c0,0-13.1,4.4-13.8,10-.4,3,4.3,4.7,13.2.6s31.8,2.6,31.8,2.6Z"/>
        </g>
        <path class="cls-16" d="M540.3,80c-5.6.8-9.7,5.7-9.3,11.4.3,4.5,4,10.2,11,9.7,7.3-.6,10.4-6.2,9.8-11.8-.5-4.5-5-10.1-11.5-9.3Z"/>
        <path class="cls-12" d="M540.7,83.7c-3.6.5-6.2,3.7-6,7.4.2,3.8,3.4,6.6,7.1,6.4s6.6-3.4,6.4-7.1c0-.2,0-.4,0-.6-.3-2.9-3.3-6.6-7.5-6.1Z"/>
        <path class="cls-2" d="M515.5,57c-10.5-2-13.9,1.4-35.3-12-25.3-15.8-54-32.1-60.9-22.1s44.1,23.3,44.1,23.3c0,0-24-5.2-25,1.4s22.9,4.7,32.6,7.7c18.4,5.7,26.5,12.3,27.3,12.2,14.4-1.9,17.2-10.5,17.2-10.5Z"/>
        <path class="cls-14" d="M626.2,102.1c2.3.3,4.6.1,6.8-.6,3.1-1.3,5.2-4.5,2.7-7.4-4.8-5.6-12.6,3.2-9.5,8Z"/>
        <path class="cls-12" d="M625.1,113.9c-1.9-5.2-5.6-9.6-10.5-12.4-2.4-1.3-5-2.2-7.7-2.6-2.7-.5-5.4-.4-8.1.2-5.4,1.3-10.7,2.9-15.8,4.8-5.2,1.8-10.5,3.6-16,5-10.8,2.8-22.5,3.8-33.7.8-2.7-.9-5.4-2.2-7.8-3.7-2.5-1.4-4.8-3-7.1-4.6-4.6-3.2-9-6.5-13.7-9.4-4.5-3-9.4-5.4-14.6-7.2-2.5-.8-5.2-1.4-7.8-1.6-2.7-.2-5.4,0-8,.4-5.4.9-10.6,2.5-15.6,4.6-5.1,2.1-10.1,4.5-15.4,6.5-5.3,2.1-10.9,3.3-16.5,3.7-2.8.1-5.7,0-8.5-.4l-2.1-.4-2.1-.4c-.7-.1-1.4-.4-2.1-.6s-1.4-.4-2-.7c-5.2-2.3-9.8-5.7-13.4-10.2-3.6-4.3-6.4-9.2-8.4-14.4,1.1,2.5,2.5,5,4,7.3,1.5,2.3,3.2,4.5,5,6.6,3.6,4.1,8.2,7.3,13.3,9.3.6.2,1.3.4,1.9.6s1.3.4,2,.5l2,.4,2,.3c2.7.3,5.4.4,8.1.2,5.4-.5,10.8-1.8,15.8-4,5.1-2.1,10-4.6,15.2-6.7,5.2-2.3,10.6-4,16.2-5,2.8-.5,5.8-.7,8.6-.5,2.9.2,5.7.8,8.5,1.7,5.4,1.8,10.6,4.3,15.4,7.5,4.8,3,9.2,6.4,13.7,9.6s9.1,6.3,14,8c1.2.4,2.6.6,3.9.9s2.7.5,4,.6c2.7.3,5.4.4,8.1.3,2.7,0,5.5-.3,8.2-.7,2.7-.4,5.4-.9,8.1-1.5,5.4-1.2,10.7-2.9,16-4.5,2.6-.8,5.3-1.7,8-2.5,2.7-.8,5.4-1.5,8.2-1.9,2.8-.5,5.7-.4,8.5.1,2.8.5,5.5,1.6,7.9,3,4.8,2.9,8.4,7.6,10.1,13Z"/>
      </g>
      <g id="freepik--character-1--inject-133">
        <path class="cls-3" d="M223.7,276.2h-68.2c-3.7,0-7.3,0-10.8,0h-3.1s-.9,0-.9,0h-1.7s-1.4,0-1.4,0c-15.9-.6-30-3.1-45.2-12.5l-.4-.3-.6-.4h0c0-.3-.1-.5-.2-.8,0-.4-.2-.8-.2-1.3s-.1-.6-.2-1,0-.6-.1-.9c0,0,0-.2,0-.2,0-.6-.1-1.2-.2-1.8,0-.4,0-.7,0-1.1h0c0-.6,0-1.1,0-1.6h0v-3.6c0-.6,0-1.2,0-1.9,0-.8.1-1.7.2-2.5,0-.2,0-.4,0-.6s0-.4,0-.6,0-.6.1-.9l2.8.3,7.1.8,4.3.5h0l8.4.9h.6c0,0,6.2.8,6.2.8l9.2,1h1.3c0,.1.2.1.2.1h.3l1.9.2h1c0,0,1,.1,1,.1h.9c0,0,1.6.1,1.6.1h.6c1.8.1,3.6.2,5.4.3h1.9c0,0,1.1.1,1.1.1h1.3s.4,0,.4,0h1.8c0,0,3.4.2,3.4.2h.9c7.3.2,14,.4,20.2.8h.8c1.4.1,2.7.2,4,.3l1.9.2h.2c1.2.1,2.3.3,3.5.4h.6c4.1.6,8.1,1.4,12,2.6,2.3.7,4.5,1.5,6.6,2.5h0c.7.3,1.4.7,2.1,1h.3c1.8,1.1,3.5,2.3,5.2,3.5,4.3,3.4,8.4,8.8,12.4,15.3Z"/>
        <path class="cls-12" d="M174.5,276.2h-19c-3.7,0-7.3,0-10.8,0h-3.1s-.9,0-.9,0h-1.7s-1.4,0-1.4,0c-15.9-.6-30-3.1-45.2-12.5l-.4-.3-.6-.4-.2-.8c0-.4-.2-.8-.2-1.3s-.1-.6-.2-1,0-.6-.1-.9v-.2c0-.6-.1-1.2-.2-1.8v-1.1c0,0,0,0,0,0,0-.5,0-1,0-1.5h0v-3.6c0-.6,0-1.2,0-1.9,0-.8.1-1.7.2-2.5,0-.2,0-.4,0-.6s0-.4,0-.6,0-.6.1-.9l2.7.3h0l7.1.8,4.3.5h0l8.4.9h.6c0,0,6.2.8,6.2.8l9.2,1h1.3c0,.1.2.1.2.1h.3l1.9.2h1c0,0,1,.1,1,.1h.9c0,0,1.6.1,1.6.1h.6c1.8.1,3.6.2,5.4.3h1.9c0,0,.9,0,.9,0h1.5c0,0,.3.3.3.3h0c.4.4.8.7,1.2,1.1,3.8,3.4,7.9,7.3,12.1,11.5,1,1,2,2,3,3.1l.2.2c1,1,2,2.1,3,3.2,2.4,2.7,4.7,5.2,7.1,7.8Z"/>
        <path class="cls-3" d="M211.7,276.2h-56.1c-3.7,0-7.3,0-10.8,0h-3.1s-.9,0-.9,0h-1.7s-1.4,0-1.4,0c-15.9-.6-30-3.1-45.2-12.5l-.4-.3-.6-.4h0c-1.5-1-2.9-2.1-4.1-3.3-.6-.5-1.1-1.1-1.7-1.6l-.5-.5c-1.2-1.2-2.3-2.4-3.5-3.8.3-1.1.6-2.2.9-3.3.4-1.4.8-2.7,1.3-4,.6-1.6,1.1-3,1.7-4.4.4-.8.7-1.6,1-2.3.9-2,1.7-3.4,2.1-4.2l.4-.7,1.8.2h0l10.4,1.2h.9c0,.1,7.1.9,7.1.9h0l11.3,1.3h0l1.6.2,3.4.4h0l2.1.2,3.5.4h.7c0,0,0,0,0,0l.9,1.3.6.9c.6.9,1.3,2,2,3h.1c.3.5.6.9.8,1.3.1.2.2.3.3.5.6.8,1,1.4,1.3,1.8,0,0,.5,0,1.2,0h.7c0,0,.6-.2.6-.2h0l1.5-.2h0l3.6-.5c11.4-1.7,32.6-4.6,44.2.7.6.3,1.2.6,1.8.9l.3.2c2,1.3,3.9,2.8,5.5,4.5,1.3,1.3,2.5,2.7,3.6,4.2.6.8,1.2,1.6,1.8,2.4.5.7,1,1.4,1.4,2.1.4.6.7,1.1,1.1,1.7,1.7,2.7,3.3,5.6,4.9,8.6h0c.7,1,1.2,2.1,1.7,3.1Z"/>
        <path class="cls-12" d="M114.2,244.7c0-.2-.2-.2-.3,0-1.2,4.1-3.9,7.6-7.4,9.9-4,2.5-9,3.1-13.6,3.9-.4,0-.3.8.1.8,2.7,0,5.3-.3,7.9-.9,2.4-.5,4.6-1.4,6.6-2.8,3.6-2.5,6-6.5,6.6-10.9Z"/>
        <path class="cls-12" d="M136.9,251.2c-.5-1.1-1.1-2.3-1.6-3.4-1.3-2.7-2.5-5.4-3.9-8-.1-.2-.6,0-.4.2.9,2,1.8,4,2.7,6,.5,1,.9,2.1,1.4,3.1.5,1,1,2,1.3,3,.3,1.1-.6,1.7-1.6,1.5-.9-.2-1.6-.7-2.1-1.5-1.1-1.7-2.1-3.4-2.8-5.3-.5-1.1-1.1-2.1-1.6-3.2s-1.2-2.2-1.8-3.4c0,0-.2,0-.1,0,.5,1.2.9,2.4,1.3,3.6s.9,2.4,1.4,3.6,1,2.2,1.5,3.3c.4,1,1,1.8,1.7,2.6,1.2,1.2,3.5,2,4.8.4.5-.8.5-1.8,0-2.6Z"/>
        <path class="cls-12" d="M211.8,276.2h-1.2c-1-1.9-2-3.8-3.1-5.7-.9-1.6-1.8-3.1-2.7-4.7-.5-.9-1-1.7-1.6-2.6-.1-.2-.2-.4-.4-.6l-1.1-1.7c-.4-.7-.9-1.4-1.3-2.1-.1-.1-.2-.3-.3-.5-.7-1.1-1.4-2.3-2.2-3.4,0-.1,0-.2.2-.1.5.6,1,1.3,1.5,1.9.4.5.7.9,1.1,1.4.6.8,1.2,1.6,1.7,2.5s1,1.4,1.4,2.2l.9,1.4.3.5c1.6,2.4,3,4.9,4.4,7.4l.5,1h0c.6,1.1,1.1,2.1,1.7,3.2Z"/>
        <path class="cls-12" d="M92.3,237.6c-.1.2-.2.5-.4.7-.4.8-.8,1.6-1.1,2.4-.1.3-.3.6-.4,1-.5,1.1-1,2.2-1.4,3.4-.5,1.3-1,2.7-1.5,4-1,2.8-1.7,5.7-2.1,8.6,0,0,0,0,0,.1l-.5-.5c.5-2.8,1.2-5.5,2.1-8.1.5-1.4,1-2.7,1.6-4s1.3-2.9,2-4.4c.4-.8.8-1.6,1.2-2.4l.4-.8c0,0,.1,0,0,0Z"/>
        <path class="cls-10" d="M124.7,193.1c15.4,13.1,43,26.1,52.8,21.8,9.2-4,17.3-21.5,25.3-39.9,1.5-3.5-26.3-8.1-28-4.4-3.5,7.8-8.8,19.4-10.4,19.9-4,1-20.3-2.9-34.4-6.8-17.1-4.8-11.4,4.3-5.2,9.5Z"/>
        <path class="cls-10" d="M206.3,160.3c-.4,9.4-4.7,20.1-6.9,22.6s-23-4.4-24.2-7.6-2.5-25,1.2-29.7,30.1,8.6,29.8,14.7Z"/>
        <path class="cls-2" d="M164,138.9c-.6,1,0,2.5,1.5,3.4.9.7,2.1.8,3.1.4l43.3,28.8,1.9-3-44.4-27c0-1.1-.7-2.1-1.7-2.7-1.5-.9-3.1-.9-3.8,0Z"/>
        <path class="cls-10" d="M175.7,152.3c1.5,2.7,3.9-.6,3.9-.6,0,0-2.2,5.6.4,7.8s5.2-2,5.4-2.3c-.1.3-2,5.5.9,7.4s5-2.6,5.1-2.9c0,.3-.2,4.5,2.3,5.5,4.3,1.7,5.1-9,8.1-11.3,0,0,4.5,4.6,4.7,4.6,0,0,1-10.1-2.4-13.9-1-1.2-2.7-1.5-4-.7,0,0,.7-3.2-1.6-4.8-1.1-.8-3.5.3-3.5.3.2-1.5-.4-3-1.6-3.9-1.6-1-3.7.2-3.7.2,0,0-.8-2.7-2.8-3.2-4.1-1.1-14.4,12-11.2,17.9Z"/>
        <path class="cls-12" d="M189.3,137.8s0-.1,0,0c-4.6,3.6-8.1,8.5-9.8,14.1,0,.2.2.3.3.2,2.5-5.2,5.7-10,9.6-14.2Z"/>
        <path class="cls-12" d="M195,141.3c0,0,0-.1,0,0-5.1,4-8.5,9.7-9.8,16.1,0,.2.1.5.2.2,1.1-4.3,6-12.3,9.7-16.2Z"/>
        <path class="cls-12" d="M191.5,162.2c1.3-6.2,4.4-11.4,8.4-16.2,0,0,0-.1-.1,0-2.6,1.8-4.8,5.2-6.3,7.9-1.4,2.5-2.2,5.4-2.2,8.3,0,.1.2.2.2,0Z"/>
        <path class="cls-12" d="M179.5,151.7c-.3,1.1-.5,2.3-.7,3.4-.2,1.1,0,2.3.4,3.3.2.5.6.8,1.1,1,.5.2,1,.3,1.5.2,1-.2,1.9-.9,2.4-1.8l1.4-2.2-.5,2.5c-.3,1.1-.3,2.2-.2,3.4,0,1.1.5,2.1,1.4,2.8.8.6,1.9.6,2.7,0,.8-.7,1.5-1.6,1.8-2.7l1.1-2.8v3c-.2.8-.1,1.7,0,2.5.1.8.5,1.5,1,2.1.5.5,1.3.7,2,.4.7-.4,1.3-.9,1.7-1.6.9-1.5,1.7-3.1,2.3-4.7.4-.8.7-1.6,1.1-2.4.3-.8.9-1.6,1.5-2.2-.6.7-1,1.4-1.3,2.3-.3.8-.6,1.6-.9,2.5-.5,1.7-1.3,3.3-2.1,4.9-.5.8-1.2,1.5-2,2-1,.4-2.1.2-2.9-.6-.7-.7-1.2-1.6-1.4-2.6-.2-.9-.3-1.8-.2-2.8l1,.2c-.4,1.2-1.2,2.3-2.1,3.2-.6.5-1.3.7-2,.7-.7,0-1.4-.2-2-.7-1-.8-1.7-2.1-1.8-3.4-.1-1.2,0-2.5.3-3.7l.8.3c-.7,1.1-1.8,1.9-3.1,2.1-.6,0-1.3,0-1.9-.3-.6-.3-1.1-.8-1.3-1.4-.4-1.1-.5-2.4-.2-3.6.2-1.2.6-2.3,1-3.4Z"/>
        <path class="cls-10" d="M174.9,171.9s-10.3-22.7.6-22.4c3.2.1,16.3,4.4,15.5,7-1,3.4-6.9,2.7-10.4,1.6,0,0,4.6,7.2.5,11.9-1.6,1.7-3.9,2.4-6.2,1.8Z"/>
        <path class="cls-12" d="M174.5,149.6c1.3-.1,2.5,0,3.8.2,1.2.2,2.5.5,3.7.9,2.4.7,4.8,1.7,7.1,2.9.6.3,1.2.7,1.6,1.2.3.3.5.6.6,1,0,.2.1.4.1.6,0,.2,0,.4,0,.6-.2.7-.7,1.3-1.4,1.8-.6.4-1.3.6-2,.7-1.3.2-2.6.2-3.9,0-1.3-.2-2.5-.5-3.8-.9l.5-.7c.5.8.9,1.7,1.2,2.7.3.9.6,1.9.7,2.8.1,1,.1,1.9,0,2.9-.2,1-.5,1.9-1,2.7.4-.9.6-1.8.7-2.7,0-.9,0-1.9-.2-2.8-.2-.9-.5-1.8-.8-2.6-.4-.8-.8-1.7-1.3-2.4l-.6-.9,1.1.3c1.2.3,2.4.6,3.6.7,1.2.2,2.4.2,3.6,0,1.1-.1,2-.8,2.5-1.8.3-.8-.8-1.6-1.8-2.2-1.1-.6-2.2-1.2-3.3-1.7-1.1-.5-2.3-1-3.5-1.4-2.3-1-4.7-1.6-7.2-1.8Z"/>
        <path class="cls-12" d="M128.6,182.8c-13.4-3.3-14.2,2.9-5.1,11.1,6.5,5.6,13.3,10.7,20.5,15.4l8.9-20.4-24.3-6.1Z"/>
        <path class="cls-3" d="M142.1,206.6c1.1-3,6-15.2,7.2-17.7,0-.2.2-.2.2,0-2.1,6-4.5,12-7.3,17.8,0,0,0,0,0,0,0,0,0,0,0,0Z"/>
        <path class="cls-3" d="M148.1,200.1l-4,9.2c-7.2-4.7-14-9.8-20.5-15.4-3.6-3.2-5.6-6.1-6-8.3,4.1,2.1,20.5,9.8,30.5,14.5Z"/>
        <path class="cls-12" d="M139.2,248.1h0v.2h-.2c-.2.2-.5.3-1,.5h0c-.5.2-1.1.4-1.8.6l-.8.3-1.9.6-1.6.5c-.4.1-.8.2-1.1.4-9.9,3.2-26.4,8.5-38.3,12.1l-.4-.3-.6-.4h0c-1.5-1-2.9-2.1-4.1-3.3-.6-.5-1.1-1.1-1.7-1.6l-.5-.5c-1.2-1.2-2.3-2.4-3.5-3.8-.3-.4-.6-.8-1-1.1.1-.6.2-1.2.4-1.8h0c.2-1.2.5-2.5.8-3.9s.6-2.8.9-4.2c.1-.7.3-1.4.5-2.1.3-1.3.6-2.6.9-3.9h0c.2-.9.5-1.9.7-2.9,0-.3.1-.6.2-.9.2-.7.4-1.4.6-2.1.4-1.3.7-2.6,1.1-4,1.1-4,2.4-8,3.8-11.9.3-.8.6-1.7.9-2.5,0-.1.1-.3.2-.5,2.3-6.3,5.1-12.5,8.4-18.4,1.2-2,2.4-4,3.8-5.9l.5-.6c0,0,0-.1.1-.2.7-.9,1.4-1.7,2.1-2.5.8-.9,1.9-1.7,3-2.2,2.4-1,5-1.4,7.5-1.1,1.6.2,3.1.6,4.5,1.2.3.1.5.2.7.4.3.2.6.4.9.7.3.5.7.9.9,1.4.2.4.5.9.8,1.4h0c.5,1.1,1.1,2.4,1.6,3.9.7,1.8,1.4,3.9,2.1,6.2h0c.2.8.5,1.6.7,2.5.5,1.7,1,3.4,1.4,5.3.7,2.6,1.4,5.3,2,8.1,0,0,0,.1,0,.2h0c0,.1,0,.2,0,.4.3,1.3.6,2.7.9,4,0,.4.2.8.3,1.2h0c.2.8.4,1.6.5,2.4.2,1,.4,2,.6,3l.6,2.4c.3,1.2.5,2.4.7,3.6.1.7.3,1.4.4,2.1.2,1.3.5,2.5.7,3.8h0l.6,3.6c0,.4.1.8.2,1.2,0,.2,0,.5.1.7,0,0,0,.1,0,.2.1.8.3,1.6.4,2.3.1.9.3,1.8.4,2.5h0c0,.2,0,.4,0,.6s0,.6.1.9v.3c0,.4,0,.7,0,1.1Z"/>
        <path class="cls-2" d="M140.9,239.5c0-.1,0-.3,0-.4,0-.3,0-.6-.1-.9s0-.3,0-.5,0-.3-.1-.5,0-.2,0-.3c-.2-.9-.5-1.8-.8-2.7-.3-.9-.7-1.8-1.1-2.6.2-1.1.3-2.2.3-3.2,0-.3,0-.6,0-.9s0-.5-.1-.7,0-.4-.1-.6v-.4c-.2-.4-.3-.7-.4-1-.3-.9-.7-1.8-1.3-2.6,0-.5.1-.9.2-1.4v-2.8c0,0,0-.2,0-.3v-.3c0,0,0-.4-.1-.6,0-.1,0-.2,0-.3,0-.2-.1-.5-.2-.7-.3-.9-.7-1.8-1.3-2.6,0,0-.1-.2-.2-.2l-.4-1.8c0,0,0-.2,0-.2-.2-.8-.3-1.6-.5-2.4-.4-1.9-.9-3.7-1.4-5.4-.2-.8-.4-1.5-.6-2.3h0c-.3-.9-.5-1.8-.8-2.7-.8-2.6-1.7-5-2.6-7.2h0c-1.1-2.7-2.5-5.2-4.2-7.5-.2-.2-.4-.5-.6-.7-.1-.2-.3-.3-.5-.4h0c-.2-.2-.4-.3-.6-.4h0c-1.9-1-4.1-1.5-6.3-1.5-2.5,0-4.9.3-7.2,1.2-2.1.8-4,2.1-5.4,3.9-.5.7-1,1.4-1.5,2.1h0c-.3.4-.6.9-1,1.4-4.5,6.9-8.3,14.3-11.4,22h0c0,.1-.1.3-.2.4-.3.8-.7,1.6-1,2.5-1.1,2.8-2.1,5.6-3,8.5-1,1.5-1.8,3.1-2.4,4.8,0,.2-.2.5-.3.8s0,.3-.1.4-.1.5-.2.8c0,0,0,0,0,.1,0,.2-.1.5-.2.8s-.1.5-.1.8c0,0,0,0,0,.1,0,0,0,.1,0,.2-.1.9-.1,1.9,0,2.8h0c-1,.9-1.8,2-2.4,3.3-.1.2-.2.4-.3.7,0,.1-.1.2-.1.4v.4c-.3.6-.5,1.3-.6,1.9v.7c0,1,0,1.9.1,2.9-.6,1.1-1.1,2.3-1.5,3.5,0,.2-.2.5-.3.8.7.9,1.3,1.7,2,2.5.4.5.8,1,1.2,1.5s.6.8,1,1.1c1.2,1.3,2.3,2.6,3.5,3.8l.5.5c.6.6,1.1,1.1,1.7,1.6l3.4-.9h0l9.7-2.5,6.1-1.5,3.3-.9c7.2-1.8,14.3-3.7,19.8-5.1l.8-.3h.2s.3-.1.3-.1l3.3-.9h0l.7-.2,1.5-.4,1.3-.4c.6-.2,1-.3,1.3-.4.2,0,.3-.1.4-.2h.1c.6-.9,1-1.9,1.1-2.9,0-.3.1-.6.1-.9,0-.8.1-1.6,0-2.3ZM103,187.7c.3-.3.6-.6.9-.9.1-.1.3-.2.4-.3h0c.1-.1.3-.2.5-.3.9-.5,1.9-.7,2.9-.4h.2c.3,0,.6.2.8.4h0c3.7,2.1,6,9.6,4.9,13.5-1.1,4-5,7.7-8.3,9.5l-.6.3h-.1c-.8.5-1.6.7-2.4.8h-.2c-3.2,0-5.1-2.3-5.2-6.7,0-2.4,1.1-6.6,2.8-10.2.9-2,2-3.9,3.4-5.5Z"/>
        <path class="cls-16" d="M140.7,237.7l-2.8.6-1.6.4-4.7,1h-.2s-.4.1-.4.1h-.1l-3.1.7-1.2.3h-.2s-1.7.4-1.7.4l-1,.2-18.7,4h0l-4.3.9-10.3,2.2-2.8.6h-.5c0,.1-4.7,1.1-4.7,1.1l-1.5.3h0l-1.6.3c-.7-.8-1.3-1.7-2-2.5,0-.3.2-.5.3-.8l4.1-.9,2-.4,5-1.1h.4c0,0,1.6-.4,1.6-.4h0l2.8-.6h0l7.2-1.5,19.6-4.2h0l1.3-.3h0l4.9-1,3.9-.8,6.9-1.5h0l2.4-.5c.3.9.6,1.8.8,2.7,0,.1,0,.2,0,.3s.1.3.1.5Z"/>
        <path class="cls-16" d="M138.9,228.3l-60,12.8c.1-1.4.5-2.7,1.1-4l58.2-12.5c.4,1.2.6,2.4.7,3.6Z"/>
        <path class="cls-16" d="M137.1,219.4l-54.6,11.7c.2-1.3.5-2.7,1-3.9l53.1-11.4c.4,1.2.5,2.4.5,3.6Z"/>
        <path class="cls-12" d="M101.8,211.9c0,3.8,0,7.5-.1,11.3s-.2,7.5-.3,11.2l-.5,11.3c-.2,3.7-.4,7.5-.7,11.2,0-3.8,0-7.5.1-11.3l.3-11.3c.2-3.8.3-7.5.5-11.2s.4-7.5.7-11.2Z"/>
        <path class="cls-12" d="M122.4,191.7c1.1,4.7,2.1,9.5,3,14.2s1.8,9.5,2.7,14.3,1.7,9.5,2.4,14.4c.2,1.2.3,2.4.5,3.6.2,1.2.3,2.4.3,3.6,0,2.4-.1,4.9-.3,7.3,0-2.4,0-4.8,0-7.3,0-.6,0-1.2-.1-1.8l-.3-1.8c-.2-1.2-.4-2.4-.6-3.6-.8-4.8-1.6-9.5-2.5-14.3l-2.5-14.3c-.8-4.7-1.7-9.5-2.4-14.3Z"/>
        <path class="cls-12" d="M79.4,243c4.9-1.1,9.7-2.2,14.6-3.2l14.6-3.1,14.6-3,7.3-1.5c2.4-.5,4.9-1,7.3-1.6-4.8,1.4-9.6,2.5-14.5,3.7s-9.7,2.1-14.6,3.2-9.8,2-14.7,2.9-9.8,1.8-14.7,2.6Z"/>
        <path class="cls-12" d="M82.4,233.9c4.4-1,8.9-2,13.4-2.9l13.4-2.8,13.4-2.7,6.7-1.4c2.2-.5,4.4-.9,6.7-1.4-4.4,1.3-8.8,2.4-13.2,3.4s-8.9,1.9-13.4,2.9-8.9,1.8-13.4,2.6-9,1.6-13.5,2.3Z"/>
        <rect class="cls-12" x="118.7" y="211.6" width="11.9" height="3.9" transform="translate(-49.9 38.4) rotate(-14.6)"/>
        <rect class="cls-12" x="120.6" y="218.7" width="11.9" height="3.9" transform="translate(-51.6 39.1) rotate(-14.6)"/>
        <rect class="cls-12" x="124.4" y="237.7" width="11.9" height="3.9" transform="translate(-56.3 40.7) rotate(-14.6)"/>
        <path class="cls-10" d="M122.4,191.7c-3.3.4-11.5-3.9-13.3-8.8-.1-.3.8-3.5,1.8-7.5.6-2.4,1.2-5.1,1.5-7.6,0-.5,15,6,15,6-1.3,3-2.3,6.1-2.9,9.3,0,.3,0,.7,0,1,0,0,0,.1,0,.2,0,2.1,1.5,6.9-2.1,7.3Z"/>
        <path class="cls-12" d="M124.5,184.3v.2c-.5,0-1.1,0-1.6-.1-9.1-1.5-9.9-13.3-9.9-16.3,2.7.8,14.5,5.9,14.5,5.9-1.3,3-2.3,6.1-2.9,9.3,0,.3,0,.7,0,1Z"/>
        <path class="cls-12" d="M131.2,144.2s5.2,2.1,6.3,7.3,0,10.8-.5,11.1-5.8-18.4-5.8-18.4Z"/>
        <path class="cls-10" d="M110.8,151.8c-1.7,5.6,1.4,21.7,5.3,25.2,5.8,5.2,15.2,5.6,19.6-1.3,4.3-6.7,0-27.6-4.5-30.9-6.5-4.8-17.9-1.3-20.4,6.9Z"/>
        <path class="cls-12" d="M126.9,161.5s0,0,0,.1c.2,1.1.3,2.4-.6,2.9,0,0,0,0,0,0,1.2-.4,1.1-2.1.7-3.1Z"/>
        <path class="cls-12" d="M125.7,160.5c-1.8.2-1.3,3.7.4,3.5s1.1-3.7-.4-3.5Z"/>
        <path class="cls-12" d="M132.9,160.6c0,0,0,0,0,0,.1,1.1.4,2.3,1.5,2.6h0c-1.2,0-1.6-1.6-1.6-2.6Z"/>
        <path class="cls-12" d="M133.7,159.3c1.7-.4,2.4,3.1.8,3.5s-2.2-3.1-.8-3.5Z"/>
        <path class="cls-12" d="M124.1,159.1c.4-.2.9-.4,1.3-.7.5-.2.9-.5,1.2-.9.1-.3,0-.7-.2-.9-.6-.3-1.3-.3-1.9,0-.6.3-1.1.8-1.4,1.4-.2.4,0,.9.5,1,.2,0,.4,0,.6,0Z"/>
        <path class="cls-12" d="M134.8,157.3c-.5,0-1,0-1.5-.2-.5,0-1-.1-1.4-.4-.2-.3-.3-.6,0-.9.4-.5,1.1-.8,1.8-.6.7,0,1.3.3,1.8.8.3.3.3.8,0,1.1-.1.1-.3.2-.5.2Z"/>
        <path class="cls-12" d="M127,171.6c.3.2.6.5,1,.5.4,0,.8-.2,1.1-.4,0,0,0,0,0,0-.3.5-.8.8-1.3.8-.5,0-.9-.4-1-.9,0,0,0,0,.1,0Z"/>
        <path class="cls-12" d="M127.7,168.2c.7.8,1.7,1.3,2.7,1.3.5,0,.9,0,1.3-.1,0,0,.2,0,.2,0h.2c.1-.1.2-.2.2-.4h0s0,0,0-.1h0c-.1-.9-.4-2.2-.4-2.2.3.1,2,.6,1.9.2-.6-3.8-1.7-7.5-3.1-11.1,0,0,0,0-.1,0,0,0,0,0,0,.1.6,3.5,1.8,6.9,2.4,10.4-.6-.2-1.2-.3-1.8-.3-.1,0,.6,2.4.6,2.8h0c-1.4.3-2.8.1-4-.6-.1,0-.2,0-.1.2Z"/>
        <path class="cls-12" d="M131.2,169c-.4.7-.9,1.2-1.6,1.6-.4.2-.8.3-1.2.2-.9-.1-1-.9-1-1.6,0-.4.1-.7.2-1.1,1.1.7,2.3.9,3.5.8Z"/>
        <path class="cls-9" d="M129.6,170.6c-.4.2-.8.3-1.2.2-.9-.1-1-.9-1-1.6,1-.1,1.9.4,2.2,1.4Z"/>
        <path class="cls-12" d="M112.6,165.3c3-.5,1.9-7.9,1.9-7.9,0,0,4.5-1.3,6.1-7.9,0,0,6.3,3.1,11.2,1.6,7.7-2.3,6.3-12.4,3.2-14.1-4.5-2.5-11.4,2.6-11.4,2.6,0,0-11.5-1.9-14,6-3,.5-5,3.3-4.7,6.3.2,5.5,5.4,13.8,7.6,13.4Z"/>
        <path class="cls-12" d="M113.5,158.4c2.2-.6,4.1-2,5.5-3.8,1.4-2,1.8-4.6,1-7,0,0,0-.1.1-.1,0,0,0,0,0,0,1,2.5.8,5.2-.4,7.6-1.3,2.2-3.7,3.6-6.2,3.6,0,0-.1,0-.1-.1,0,0,0-.1.1-.1Z"/>
        <path class="cls-12" d="M104.2,148.7c1.3-2.1,3.6-2.7,6-2.9,0,0,0,0,0,.1,0,0,0,0,0,0-2.4.2-4.4,1.6-5.4,3.8-1,2-.4,4.2.2,6.2,1.3,3.8,4,7,7.5,8.9,0,0,0,.1,0,.1-4.1-2-7.1-5.5-8.5-9.8-.6-2.1-1.1-4.6.1-6.6Z"/>
        <path class="cls-12" d="M123.4,140c.8-1.7,2.2-3,3.9-3.8,2.1-.8,4.4-.8,6.6,0,1.7.7,2.9,2.3,3.2,4.1.2,2.1-.3,4.2-1.4,6,0,0-.1,0,0,0,.9-1.7,1.2-3.5,1-5.4-.2-1.8-1.5-3.3-3.2-3.9-3.4-1.1-8-.3-9.8,3.2,0,0-.1,0-.2,0s0-.1,0-.2Z"/>
        <path class="cls-10" d="M114.9,165.1s-3.8-5.1-6.1-3.8.6,8.8,3.4,9.8c1.4.6,3.1,0,3.7-1.5,0,0,0,0,0-.1l-1-4.4Z"/>
        <path class="cls-12" d="M109.7,163.4h0c2,.8,3,2.6,3.8,4.4-.5-.7-1.4-1-2.2-.5,0,0-.1,0-.2.1,0,0,0,.1,0,.1.7-.2,1.5,0,1.9.6.4.5.7,1,.9,1.5,0,.2.4,0,.3-.1h0c0-2.5-2-5.9-4.7-6.1Z"/>
        <path class="cls-3" d="M203.1,273.2c0,.2,0,.4,0,.5-.5,1.1-1.3,2-2.4,2.5h-45.1c-3.7,0-7.3,0-10.8,0h-3.1s-.9,0-.9,0h-1.7s-1.4,0-1.4,0c-.8-.4-1.4-1-1.9-1.8h0c-.2-.3-.3-.7-.3-1,0-.1,0-.3,0-.4h0c0-.4.3-.8.6-1.1,1.5-1.8,5.6-3.4,11.4-4.6,4.7-.9,9.4-1.4,14.1-1.7h2.6c1.6-.2,3.3-.2,5-.2,2.6,0,5.2,0,7.6.2h0c4.8.2,9.5.8,14.2,1.7h0c5.8,1.2,9.9,2.8,11.3,4.6.2.2.3.4.4.6h0c.2.2.2.5.3.8Z"/>
        <path class="cls-2" d="M206,257.5v.5h0c0,1,0,2.1-.2,3.1-.1,1.1-.3,2.1-.6,3.2,0,0,0,.2,0,.3,0,.4-.2.8-.3,1.2-.6,2-1.4,4-2.3,5.9,0,0,0,.2-.1.3h0c-.1.7-.4,1.3-.9,1.7-.5.5-1.2,1-1.8,1.3-.6.3-1.2.6-1.8.8-.4.2-.8.3-1.2.5h-41.2c-3.7,0-7.3,0-10.8,0h-3.1s-.7-.3-.7-.3c-.6-.2-1.2-.5-1.8-.8h0c-.7-.3-1.3-.8-1.9-1.3-.4-.4-.7-.8-.9-1.4,0-.1,0-.3,0-.4,0,0-.1-.2-.1-.3-1.7-3.3-2.8-6.9-3.3-10.5h0c-.1-1-.2-2.1-.2-3.1v-.4c0-1,0-2,.1-3,0-.2,0-.4,0-.7,0-.5.1-.9.2-1.4.1-.8.3-1.5.4-2.2s.3-1.2.5-1.8.2-.8.4-1.2c0,0,0,0,0-.1l.3-.9c.2-.5.4-1,.6-1.5s.2-.6.4-.8c.4-.8.6-1.3.6-1.3h66.2s.3.5.6,1.3c1.5,3.4,2.5,6.9,2.8,10.6h0c0,.9.1,1.9.1,2.9Z"/>
        <path class="cls-13" d="M206,257.5v.5h0c0,1,0,2.1-.2,3.1-.1,1.1-.3,2.1-.6,3.2,0,0,0,.2,0,.3,0,.4-.2.8-.3,1.2-.6,2-1.4,4-2.3,5.9,0,0,0,.2-.1.3h0c-.1.7-.4,1.3-.9,1.7-.5.5-1.2,1-1.8,1.3-.6.3-1.2.6-1.8.8-.4.2-.8.3-1.2.5h-41.2c-3.7,0-7.3,0-10.8,0h-3.1s-.7-.3-.7-.3c-.6-.2-1.2-.5-1.8-.8h0c-.7-.3-1.3-.8-1.9-1.3-.4-.4-.7-.8-.9-1.4,0-.1,0-.3,0-.4,0,0-.1-.2-.1-.3-1.7-3.3-2.8-6.9-3.3-10.5h0c-.1-1-.2-2.1-.2-3.1v-.4c0-1,0-2,.1-3,0-.2,0-.4,0-.7,0-.5.1-.9.2-1.4.1-.8.3-1.5.4-2.2s.3-1.2.5-1.8.2-.8.4-1.2c0,0,0,0,0-.1l.3-.9c.2-.5.4-1,.6-1.5s.2-.6.4-.8c.4-.8.6-1.3.6-1.3h66.2s.3.5.6,1.3c1.5,3.4,2.5,6.9,2.8,10.6h0c0,.9.1,1.9.1,2.9Z"/>
        <ellipse class="cls-3" cx="169.3" cy="243.4" rx="33.8" ry="8"/>
        <ellipse class="cls-8" cx="169.3" cy="242.1" rx="33.1" ry="7.8"/>
        <path class="cls-16" d="M137.3,245.2c0,.6-.4,1-1,1s-1-.4-1-1,.4-1,1-1,1,.4,1,1Z"/>
        <path class="cls-16" d="M140.9,247.4c0,.6-.4,1-1,1s-1-.4-1-1,.4-1,1-1,1,.4,1,1Z"/>
        <path class="cls-16" d="M149.9,249.8c0,.6-.4,1-1,1s-1-.4-1-1,.4-1,1-1,1,.4,1,1Z"/>
        <path class="cls-16" d="M145.3,248.9c0,.6-.4,1-1,1s-1-.4-1-1,.4-1,1-1,1,.4,1,1Z"/>
        <path class="cls-16" d="M154.6,250.4c0,.6-.4,1-1,1s-1-.4-1-1,.4-1,1-1,1,.4,1,1Z"/>
        <path class="cls-16" d="M159.3,251c0,.6-.4,1-1,1s-1-.4-1-1,.4-1,1-1,1,.4,1,1Z"/>
        <path class="cls-16" d="M164.3,251.4c0,.6-.4,1-1,1s-1-.4-1-1,.4-1,1-1,1,.4,1,1Z"/>
        <path class="cls-16" d="M175.7,251.3c0,.6-.4,1-1,1s-1-.4-1-1,.4-1,1-1,1,.4,1,1Z"/>
        <path class="cls-16" d="M169.8,251.4c0,.6-.4,1-1,1s-1-.4-1-1,.4-1,1-1,1,.4,1,1Z"/>
        <path class="cls-16" d="M181.1,251c0,.6-.4,1-1,1s-1-.4-1-1,.4-1,1-1,1,.4,1,1Z"/>
        <circle class="cls-16" cx="185.2" cy="250.4" r="1"/>
        <path class="cls-16" d="M190.8,249.7c0,.6-.4,1-1,1s-1-.4-1-1,.4-1,1-1,1,.4,1,1Z"/>
        <path class="cls-16" d="M195.4,248.7c0,.6-.4,1-1,1s-1-.4-1-1,.4-1,1-1,1,.4,1,1Z"/>
        <circle class="cls-16" cx="198.8" cy="247.3" r="1"/>
        <path class="cls-16" d="M203.3,245c0,.6-.4,1-1,1s-1-.4-1-1,.4-1,1-1,1,.4,1,1Z"/>
        <path class="cls-16" d="M137.3,273.3c0,.6-.4,1-1,1s-1-.4-1-1,.4-1,1-1,1,.4,1,1Z"/>
        <path class="cls-16" d="M140.9,275.5c0,0,0,.2,0,.3,0,0,0,.2-.1.3h-1.7c0-.2-.1-.4-.1-.5,0-.2,0-.4.2-.5h0c.2-.3.5-.4.8-.4.5,0,.9.5.9,1Z"/>
        <path class="cls-16" d="M144.7,276.1h-.7c.1,0,.2,0,.4,0,.1,0,.3,0,.4,0Z"/>
        <path class="cls-16" d="M195.1,276.2h-1.5c.4-.4,1-.4,1.4,0,0,0,0,0,0,0Z"/>
        <path class="cls-16" d="M199.8,275.4c0,.3-.1.6-.4.8h-1.2c-.2-.1-.3-.3-.3-.5,0-.1,0-.2,0-.3,0-.6.4-1,1-1,.3,0,.7.2.8.5.1.2.2.3.2.5Z"/>
        <path class="cls-16" d="M203.3,273.1c0,.6-.4,1-1,1s-1-.4-1-1,.4-1,1-1,1,.4,1,1Z"/>
        <path class="cls-2" d="M132.6,254.4c.5.6,1.1,1.2,1.8,1.6.7.4,1.4.8,2.1,1.2.7.4,1.5.6,2.2.9s1.5.5,2.3.8c3.1.9,6.2,1.5,9.3,1.9,6.3.8,12.7,1.1,19.1,1.1,6.4,0,12.8-.3,19.1-1,3.2-.4,6.3-1,9.4-1.9.8-.2,1.5-.5,2.3-.7s1.5-.6,2.2-.9c.7-.3,1.4-.7,2.1-1.2.7-.4,1.2-1,1.7-1.7-.9,1.3-2.2,2.4-3.6,3.1-.7.4-1.4.7-2.2,1.1s-1.5.6-2.3.9c-3.1,1-6.2,1.7-9.4,2.2-6.4.9-12.8,1.3-19.2,1.3-6.4,0-12.8-.4-19.2-1.3-3.2-.5-6.3-1.2-9.4-2.2-.8-.3-1.5-.6-2.3-.9s-1.5-.6-2.2-1c-1.5-.7-2.8-1.7-3.7-3Z"/>
        <path class="cls-2" d="M132.3,257.5c.5.6,1.1,1.2,1.8,1.6.7.5,1.4.9,2.1,1.2.7.4,1.5.6,2.2.9s1.5.5,2.3.8c3.1.9,6.2,1.5,9.4,1.9,6.4.8,12.8,1.1,19.3,1.1,6.4,0,12.9-.3,19.3-1.1,3.2-.4,6.3-1,9.4-1.9.8-.2,1.5-.5,2.3-.8s1.5-.6,2.2-1c.7-.3,1.4-.7,2.1-1.2.7-.4,1.2-1,1.7-1.7-.9,1.4-2.2,2.4-3.7,3.1-.7.4-1.5.7-2.2,1.1s-1.5.6-2.3.9c-3.1,1-6.3,1.7-9.5,2.2-6.4.9-12.9,1.3-19.4,1.3-6.5,0-13-.4-19.4-1.3-3.2-.5-6.4-1.2-9.5-2.2-.8-.3-1.5-.6-2.3-.9s-1.5-.6-2.2-1.1c-1.5-.7-2.7-1.8-3.7-3.1Z"/>
        <path class="cls-2" d="M132.5,260.7c.5.6,1.1,1.2,1.8,1.6.7.5,1.3.8,2.1,1.2.7.4,1.5.6,2.2.9s1.5.5,2.3.8c3.1.9,6.2,1.5,9.4,1.9,6.4.8,12.7,1.1,19.1,1.1,6.4,0,12.8-.3,19.1-1,3.2-.4,6.3-1,9.4-1.9.8-.2,1.5-.5,2.3-.7s1.5-.6,2.2-.9c.7-.3,1.4-.8,2.1-1.2.7-.4,1.2-1,1.7-1.7-.9,1.3-2.2,2.4-3.6,3.1-.7.4-1.4.7-2.2,1.1s-1.5.6-2.3.9c-3.1,1-6.2,1.7-9.4,2.2-6.4.9-12.8,1.3-19.2,1.3-6.4,0-12.9-.4-19.2-1.3-3.2-.5-6.3-1.2-9.4-2.2-.8-.3-1.5-.6-2.3-.9s-1.5-.6-2.2-1c-1.5-.7-2.7-1.8-3.7-3.1Z"/>
        <path class="cls-2" d="M146.8,176.2c-1.1-.4-2.4.6-2.9,2.2-.4,1-.3,2.2.3,3.1l-18,47.9,3.3,1.1,16.1-48.6c1.1-.3,1.9-1.2,2.2-2.2.6-1.6.2-3.2-.9-3.6Z"/>
        <path class="cls-10" d="M128.1,243.3s0,0,0,.1c0,.2-.2.3-.4.4h-.2c-2.3,1.1-4.8,2.2-7.5,3.3-2.4,1-5,2-7.6,2.9l-1.7.6h0c-3.4,1.2-7,2.4-10.4,3.5s-6.8,1.9-10,2.6h0c-1.7.4-3.3.7-4.9,1,0,0,0,0-.1,0l-.4-.4c-1.2-1.2-2.3-2.4-3.5-3.8-.3-.4-.6-.8-1-1.1s-.8-1-1.2-1.5c-.7-.8-1.3-1.7-2-2.5-2.3-2.9-4.5-6-6.8-9.3,2.8-8.3,7.8-18.3,13.7-27.6l1.5-2.3h0c3-4.8,6.2-9.3,9.7-13.6,1.8-2.3,3.9-4.5,6.1-6.5.6-.5,1.1-.9,1.6-1.3l.4-.3c4.8-3.3,7-.9,3.1,10-1.6,4.5-3.2,8.9-4.6,12.9-.7,2-1.4,3.9-2,5.6,0,.1,0,.2-.1.3-.4,1-.7,2-1,2.8-.8,2.3-1.3,4.1-1.6,5.2-.2.7-.2,1.1,0,1.1h0c.2,0,1.8-.6,4-1.4.9-.3,2-.7,3-1.2h0c3-1.2,5.9-2.5,8.7-4.1h0c.6-.4,1.7.3,3,1.6.9,1,1.8,2.1,2.6,3.2.6.9,1.3,1.9,2,2.9.4.6.8,1.3,1.2,2,.7,1.1,1.3,2.2,1.9,3.3.4.7.8,1.4,1.1,2.1.6,1.2,1.1,2.3,1.6,3.4.2.5.4,1,.6,1.4,0,.2.2.5.3.7.2.5.3.9.4,1.3.2.6.3,1.1.4,1.7,0,.4.1.7,0,1.1Z"/>
        <path class="cls-10" d="M144.1,203c1.3,1.2,1.8,3.1,1.1,4.7,1.5.2,2.8.9,3.8,2,1.7,2-.7,5.5-.7,5.5,1.5.5,2.8,1.5,3.7,2.7,1.4,2.1-.5,6-.5,6,1.1,1.2,1.7,2.8,1.7,4.4-.1,4.4-5.9,7.8-9.5,10s-16.1,5-18.4,5.8l-14.3-23.3s13.5-14.5,18.2-16.5c3.9-1.7,12.3-3.5,14.9-1.4Z"/>
        <path class="cls-12" d="M144.8,207.4c-4.6.8-8.7,2.9-12.9,4.7-.1,0,0,.2,0,.1,4.2-1.9,8.7-2.9,12.9-4.6,0,0,0,0,0-.1,0,0,0,0-.1,0Z"/>
        <path class="cls-12" d="M148,214.9c-1,.3-2,.7-2.9,1.2-1,.5-2,1-3,1.6-2,1.1-3.9,2.2-5.9,3.4,0,0,0,.2,0,.1,2-1.1,4-2.1,6-3.1l3-1.5c1-.4,1.9-.9,2.8-1.5,0,0,0-.2,0-.2,0,0,0,0-.1,0Z"/>
        <path class="cls-12" d="M151.4,223.9c-.9.3-1.8.7-2.6,1.2-.9.5-1.8,1-2.7,1.5-1.8,1-3.6,2-5.4,2.9-.1,0,0,.2,0,.1,1.9-.9,3.7-1.9,5.6-2.8l2.7-1.4c.9-.4,1.7-.9,2.4-1.5,0,0,0,0,0,0,0,0,0,0,0,0Z"/>
        <path class="cls-12" d="M97.4,225.2c-2,1.5-4.1,2.8-6.2,4.1-2.1,1.2-4.3,2.5-6.6,3.5,1.9-1.7,3.9-3.1,6.1-4.4,2.1-1.3,4.4-2.4,6.8-3.2Z"/>
        <path class="cls-12" d="M108.9,196.7c4.1-12.9-2-14.2-10.6-5.7-5.9,6-11.3,12.4-16.4,19.2l19.6,10,7.4-23.5Z"/>
        <path class="cls-3" d="M107.8,200.8c-.5,1.7-1,3.4-1.5,5.2.4-.6.8-1.3,1.3-1.9h0c-.3.5-.6,1-.9,1.6-.2.2-.3.5-.5.7v.2c-.5,1.3-.8,2.7-1.3,4-.5,1.6-1,3.2-1.5,4.7s-1.3,3.4-1.8,5c-.7-.3-1.3-.6-1.9-1-.2,0-.1-.3,0-.2s1.7.7,1.8.7c.5-1.6.9-3.2,1.4-4.8s1-3.2,1.5-4.8c1-3.2,2.3-6.4,3.3-9.6,0,0,.1,0,.1,0Z"/>
        <path class="cls-3" d="M84.7,208.5c2.9,1.3,14.6,6.8,17,8.2.2,0,.2.2,0,.1-5.8-2.4-11.5-5.2-17-8.2-.1,0,0-.2,0-.1Z"/>
      </g>
      <g id="freepik--character-2--inject-133">
        <path class="cls-4" d="M255.3,222.7c12.2,10.5,27.2,20.1,36.1,22.8,6,1.8,23-12.5,35.2-27.8,2.4-3-12.7-24.4-15.1-21.1-6.4,8.9-18.2,23.1-20.6,23.4-2,.2-16.7-4-27.6-7.5-17.5-5.6-16.5,2.8-8,10.2Z"/>
        <path class="cls-6" d="M279.6,217.2l-7,22.5s-16.1-11.8-21.8-20-3.2-12.5,5.8-10.3,23,7.7,23,7.7Z"/>
        <path class="cls-12" d="M268.3,235.2c0-1.6,2.6-12.2,5.4-19.4,0,0,0,0,.1,0,0,0,0,0,0,.1-.2.8-4.6,18-5.4,19.4,0,.1-.2,0-.2,0Z"/>
        <path class="cls-11" d="M276,228.7l-3.5,11.1s-16.1-11.8-21.8-20c-3.9-5.6-3.9-9.5-.6-10.5l25.8,19.5Z"/>
        <path class="cls-6" d="M275.5,276.2h-55.4c0-.6,0-1.3.1-2,0-.5,0-1,.1-1.5.1-1.2.2-2.4.3-3.8.1-1,.2-2.1.3-3.3s.2-2.3.4-3.5c2-17,6.5-40,16-48.9,1.5-1.4,3.2-2.6,5-3.5,4.8-2.6,10.8-2,15,1.7.6.5,1.1,1.1,1.6,1.7,1.3,1.5,12.6,14.5,13.7,23,.5,4.6-.5,9.2-3,13.1l1.6,7.5.7,3.3.7,3.1.8,3.5.4,1.7.7,3.1.7,3.4.2,1.3Z"/>
        <path class="cls-12" d="M261.4,247.3c-2.7.6-5.4,1.4-8,2.5-1.3.5-2.5,1.1-3.8,1.8-.6.3-1.2.6-1.9.9-.7.3-1.3.5-2,.7,0,0,0,.1,0,.1.7,0,1.3-.2,2-.3.6-.2,1.3-.4,1.9-.6,1.3-.5,2.6-1.1,3.9-1.6,2.6-1.1,5.3-2.2,8-3.1.1,0,0-.2,0-.2Z"/>
        <path class="cls-12" d="M268.5,249.1c-2.3,0-4.6.2-6.9.5-1.1.1-2.3.4-3.4.6-.5.1-1.1.3-1.6.4s-1.1.4-1.7.5c0,0,0,.1,0,.1.5-.1,1.1-.1,1.7-.2l1.7-.3c1.1-.2,2.3-.3,3.4-.5,2.3-.4,4.5-.7,6.8-1,.2,0,.1-.2,0-.2Z"/>
        <path class="cls-2" d="M276.7,259.6v-1c-.3-3-4.5-9.6-4.5-9.6,0,0,3.6-9.1,1.5-14.5-4-10.1-11.4-19.7-16.1-23l-.2-.2c2.9,2.2,2.5,11.1.8,11.7s-8-1.9-10.5-4.1c-1.6-1.4-5-6.7-5.1-9.2,0-.3,0-.6.2-.9-2.3.8-7,4.2-8.1,6.2-5.8,10.6-11.8,24.9-14.2,38.1-1,2-1.8,4.1-2.3,6.2-.4,2.2-.2,4.4.4,6.5h0c-.4,1.1-.7,2.2-1,3.3-.4,1.7-.7,3.5-.7,5.3v1.2c0,.1,0,.3,0,.4h59.1s.3-2.9.4-4.9c0-1,.1-2.1.2-3.2,0-1.8.1-3.6.2-5.3,0-1.3,0-2.5,0-3.3ZM242.8,224.8c4.5,10.6-.9,19.5-8.9,21.7s-8-12.5-1.2-25.4c3.2-6.2,5.6-6.9,10.1,3.7Z"/>
        <path class="cls-2" d="M276.7,259.6v-1c-.3-3-4.5-9.6-4.5-9.6,0,0,3.6-9.1,1.5-14.5-4-10.1-11.4-19.7-16.1-23l-.2-.2c2.9,2.2,2.5,11.1.8,11.7s-8-1.9-10.5-4.1c-1.6-1.4-5-6.7-5.1-9.2,0-.3,0-.6.2-.9-2.3.8-7,4.2-8.1,6.2-5.8,10.6-11.8,24.9-14.2,38.1-1,2-1.8,4.1-2.3,6.2-.4,2.2-.2,4.4.4,6.5h0c-.4,1.1-.7,2.2-1,3.3-.4,1.7-.7,3.5-.7,5.3v1.2c0,.1,0,.3,0,.4h59.1c0,0,.3-2.9.4-4.9,0-1,.1-2.1.2-3.2,0-1.8.1-3.6.2-5.3,0-1.3,0-2.5,0-3.3ZM232.7,221c3.2-6.2,5.6-6.9,10.1,3.7s-.9,19.5-8.9,21.7-8-12.4-1.2-25.4h0Z"/>
        <path class="cls-16" d="M276.5,268.1c0,1.2-.1,2.3-.2,3.2l-1.7.2-42.6,4.7h-15.2c0-.1,0-.3,0-.4v-1.2l3.6-.4,16.5-1.8,37-4,2.6-.3Z"/>
        <path class="cls-16" d="M276.6,262.8l-59.2,6.5c.3-1.1.6-2.2,1-3.3h0c0,0,58.3-6.4,58.3-6.4,0,.8,0,1.9,0,3.2Z"/>
        <path class="cls-12" d="M235.8,245.8c.2,2.5.4,4.9.6,7.4s.2,4.9.4,7.4.2,4.9.2,7.4,0,4.9,0,7.4c-.2-2.5-.4-4.9-.6-7.4s-.2-4.9-.4-7.4-.2-4.9-.2-7.4,0-4.9,0-7.4Z"/>
        <path class="cls-12" d="M258,223c1.5,2.3,2.8,4.7,4.1,7.2s2.4,4.9,3.5,7.5c.3.6.5,1.3.8,1.9.2.7.4,1.4.5,2.1.2,1.4.2,2.8,0,4.2-.5,2.8-1.8,5.3-3.5,7.5v-.2c.2,1.1.2,2.3.2,3.5v3.4c-.1,2.3-.2,4.6-.3,6.8v-10.3c0-1.1-.1-2.3-.2-3.4h0c0-.1,0-.2,0-.2,1.6-2.2,2.7-4.7,3.2-7.4.2-1.3.2-2.7,0-4-.3-1.3-.7-2.6-1.2-3.8-1-2.5-2.2-5-3.3-7.5s-2.3-5-3.5-7.4Z"/>
        <path class="cls-12" d="M217.7,273c4.8-.7,9.5-1.3,14.3-1.9l14.3-1.7,14.3-1.5c4.8-.5,9.5-.9,14.3-1.3-4.7.7-9.5,1.3-14.2,1.9l-14.3,1.7-14.3,1.5c-4.8.5-9.6.9-14.3,1.3Z"/>
        <path class="cls-12" d="M219.1,262.4c4.6-.6,9.1-1.2,13.7-1.7l13.7-1.5,13.7-1.4c4.6-.4,9.2-.8,13.8-1.2-4.5.7-9.1,1.2-13.7,1.8l-13.7,1.5-13.7,1.4c-4.6.4-9.2.8-13.8,1.2Z"/>
        <rect class="cls-12" x="258" y="233.3" width="10" height="3.3" transform="translate(-61.4 96.7) rotate(-18.7)"/>
        <rect class="cls-12" x="260.6" y="239" width="10" height="3.3" transform="translate(-63.1 97.9) rotate(-18.7)"/>
        <path class="cls-12" d="M230,192.9c-1.3.9-1.6,2.7-.7,4.1.6.9,1.7,1.4,2.8,1.2,0,.4,0,.8,0,1.2.4,1.6,1.9,2.7,3.6,2.5,0,.3,0,.7,0,1,.4,1.6,1.9,2.6,3.5,2.2.6-.1,1.2-.5,1.6-1,.5,1.4,2,2.3,3.4,1.9.4,0,.8-.3,1.1-.5,0,0,0,.2,0,.3.4,1.6,1.9,2.5,3.5,2.2.9-.2,1.7-.9,2-1.7.7,1.5,2.4,2.1,3.9,1.4.8-.4,1.3-1,1.6-1.8.7.3,1.4.4,2.1.2.8-.2,1.6-.7,2-1.5,1.5.9,3.5.5,4.4-1,.3-.5.5-1,.5-1.5,1.6.3,3.1-.8,3.4-2.4,0-.3,0-.5,0-.8,1.7.4,3.4-.7,3.8-2.4.1-.5.1-1,0-1.4,0-.4-.2-.7-.4-1,.2,0,.3,0,.5,0,1.6-.4,2.5-1.9,2.2-3.5-.1-.5-.4-1-.8-1.4,1.6-.5,2.5-2.2,2.1-3.8-.1-.6-.4-1.1-.9-1.5,1.1-.7,1.7-2.1,1.4-3.4-.2-1-.9-1.8-1.8-2.2.9-1.3.6-3.1-.7-4,0,0-.2-.1-.3-.2.6-.8.9-1.8.7-2.8-.3-1.4-1.5-2.4-2.9-2.5.1-.5.1-.9,0-1.4-.3-1.4-1.7-2.4-3.1-2.2.1-.5.1-.9,0-1.4-.4-1.7-2.1-2.8-3.9-2.4-.2,0-.5.1-.7.3,0-.2,0-.3,0-.5-.4-1.7-2.1-2.8-3.9-2.4-.3,0-.5.1-.8.3,0-.3,0-.6,0-.9-.4-1.7-2.1-2.8-3.9-2.4-.9.2-1.6.7-2,1.5-.8-.8-1.9-1.2-3-.9-.8.2-1.5.7-2,1.4-.8-1.4-2.5-1.9-4-1.2-.6.3-1.1.9-1.4,1.6-.7-.5-1.6-.7-2.4-.5-1.2.3-2.1,1.3-2.2,2.6-.7-.5-1.7-.7-2.5-.5-1.5.3-2.5,1.7-2.5,3.2-1.6-.2-3.1.9-3.3,2.4,0,.4,0,.7,0,1.1,0,.4.2.7.4,1h-.2c-1.7.4-2.8,2.1-2.4,3.9,0,.3.2.6.3.9-.3,0-.5,0-.8,0-1.6.4-2.5,1.9-2.2,3.5.2.8.7,1.4,1.3,1.8-1.2,1.1-1.3,2.9-.2,4.1.2.2.4.4.6.5-1.5.9-2.1,2.8-1.2,4.4.5.9,1.4,1.5,2.5,1.6-.7.7-1,1.7-.8,2.7.3,1.2,1.3,2.1,2.5,2.3Z"/>
        <path class="cls-4" d="M245.2,211.1c.1,1.1,4.6,8.6,9.5,8.9,1.6,0,2.5-8.7,2.5-8.7l.2-.6,3-8.9-10-7.9-1.5-1.1s-.6,2.5-1.4,5.6c0,.1,0,.3-.1.4s-.1.3-.1.5c-.1.5-.2.9-.4,1.4,0,.4-.2.7-.2,1.1s-.2.8-.2,1.1c-.6,2.7-1,5.4-1.2,8.2Z"/>
        <path class="cls-12" d="M247.5,198.3c1.3,5.3,4.9,9.8,9.9,12.3l3-8.9-10-7.9-1.5-1.1s-.6,2.5-1.4,5.6Z"/>
        <path class="cls-2" d="M244,188.5c-2.3-3.9-3.2-8.4-2.5-12.9,1.3-7,10-11.8,17.8-10.4,3.5.5,6.7,2.3,9,5.1-4.5-3.7-10.8-4.2-15.9-1.4-9.1,4.8-9.7,16-8.4,19.6Z"/>
        <path class="cls-4" d="M273.5,186.7c1.2,16.4-8.5,18.9-12,19.2-3.2.2-14.1.6-17-15.6s4.4-21.9,11.7-22.8,16.2,2.9,17.3,19.2Z"/>
        <path class="cls-12" d="M245.5,190.8c2.7.1,3.1-5.5,3.1-5.5,0,0,5.4-.1,7-7.9,0,2.3-.9,4.6-2.2,6.5,0,0,9.5-1.2,13.4-9.3,0,0-1.5,4.1-3,5.6,2.4-.8,4.5-2.4,5.9-4.5,0,0,1.8,4.6,3.1,5.8,0,0-.8-16.7-16.2-14.5,0,0-9.7.9-13,8.6s2,15.3,2,15.3Z"/>
        <path class="cls-12" d="M269.7,181.1c-.4.1-.7.2-1.1.4-.4.2-.8.2-1.2.2-.2-.1-.4-.4-.4-.6.2-.5.6-.9,1.1-1,.5-.2,1-.2,1.5,0,.3.2.4.5.3.9,0,.1-.1.2-.2.2Z"/>
        <path class="cls-12" d="M258.6,185.1c.4,0,.8,0,1.1,0,.4,0,.8,0,1.2-.2.2-.2.3-.5.1-.7-.3-.4-.8-.7-1.4-.6-.5,0-1.1.2-1.5.5-.2.3-.2.7,0,.9,0,0,.2.1.3.2Z"/>
        <path class="cls-12" d="M261.3,186.9s0,0,0,.1c.2,1.1.2,2.4-.7,2.9,0,0,0,0,0,0,1.2-.3,1.2-2.1.8-3.1Z"/>
        <path class="cls-12" d="M260.1,185.9c-1.8.1-1.4,3.7.2,3.6s1.3-3.7-.2-3.6Z"/>
        <path class="cls-12" d="M259.5,186.1c-.3.2-.6.6-1,.7s-.8-.3-1.1-.6c0,0,0,0,0,0,0,.7.4,1.4,1.2,1.4s1.1-.6,1.2-1.4c0-.1,0-.3-.2-.2Z"/>
        <path class="cls-12" d="M267.8,185.6s0,0,.1,0c0,1.1.3,2.4,1.4,2.7h0c-1.3,0-1.6-1.7-1.5-2.8Z"/>
        <path class="cls-12" d="M268.7,184.3c1.8-.3,2.3,3.3.6,3.6s-2.1-3.3-.6-3.6Z"/>
        <path class="cls-12" d="M269.5,184.4c.3.1.6.5,1,.4s.6-.5.8-.9h0c.1.7,0,1.4-.7,1.7s-1.1-.3-1.4-1c0,0,0-.3.1-.2Z"/>
        <path class="cls-12" d="M262.1,196.8c.3.2.6.6,1,.6.4,0,.8-.2,1.2-.4M264.3,197.1c-.3.5-.8.7-1.4.7-.5,0-.8-.5-.9-.9,0,0,0,0,0,0l2.2.2Z"/>
        <path class="cls-12" d="M266.9,191.8s.5,1.7.6,2.5c0,0-.2.1-.5.2h0c-1.4.4-2.9,0-3.9-.9,0,0,0,0,0-.1,0,0,0,0,0,0,1.1.6,2.4.8,3.6.5,0-.2-.9-2.8-.8-2.9.6,0,1.3,0,1.9.2-.9-3.5-2.3-6.9-3.1-10.4,0,0,0-.1,0-.1,0,0,0,0,.1,0,1.6,3.5,2.9,7.2,3.8,11,0,.6-1.6.1-2,0Z"/>
        <path class="cls-12" d="M266.9,193.9c-.3.7-.8,1.4-1.5,1.9-.4.2-.8.4-1.2.4-1,0-1.2-.8-1.2-1.6,0-.4,0-.8.1-1.2,1.2.6,2.5.8,3.8.5Z"/>
        <path class="cls-9" d="M265.5,195.8c-.4.2-.8.4-1.2.4-1,0-1.2-.8-1.2-1.6,1-.2,2,.3,2.4,1.2Z"/>
        <path class="cls-4" d="M247.3,190.6s-3.5-5.2-5.9-4,.2,8.8,2.9,9.8c1.4.7,3.1,0,3.7-1.3,0,0,0,0,0-.1l-.8-4.4Z"/>
        <path class="cls-12" d="M242.3,188.8s0,0,0,0c1.9.8,2.9,2.6,3.6,4.5-.4-.7-1.3-1-2.1-.6,0,0-.1,0-.2.1,0,0,0,.1,0,.1.7-.2,1.4,0,1.9.6.4.5.6,1,.9,1.6,0,.2.4,0,.3-.1h0c0-2.5-1.8-6-4.4-6.3Z"/>
        <path class="cls-4" d="M342.8,208.2c-3.9,4.4-15.5,10.2-18.8,10.5s-13.9-19-12.5-22.1,15.8-16.9,21.7-17.9,13.7,24.9,9.6,29.5Z"/>
        <rect class="cls-12" x="201.1" y="233.9" width="209.8" height="4.5" transform="translate(-50.2 386.3) rotate(-60.5)"/>
        <path class="cls-2" d="M261.5,343.6l-14,24.8h-34.3l22.3-39.3c.9-1.6,2.4-2.9,4.1-3.6l16.9-6.8h.2c0,.1,3.7,2.2,3.7,2.2l2.1,17.7c.2,1.7-.1,3.5-1,5Z"/>
        <path class="cls-13" d="M261.5,343.6l-14,24.8h-34.3l22.3-39.3c.9-1.6,2.4-2.9,4.1-3.6l16.9-6.8h.2c0,.1,3.7,2.2,3.7,2.2l2.1,17.7c.2,1.7-.1,3.5-1,5Z"/>
        <path class="cls-11" d="M250.7,328.2c-1.7,3.5-3.5,6.9-5.4,10.3s-3.7,6.8-5.6,10.1-3.8,6.7-5.8,10l-3,5c-1,1.6-2,3.3-3.1,4.9.9-1.7,1.8-3.4,2.6-5.1l2.7-5.1c1.8-3.4,3.7-6.8,5.6-10.1s3.8-6.7,5.8-10,4-6.7,6.1-9.9Z"/>
        <path class="cls-11" d="M254.9,330.5c-1.6,3.3-3.3,6.5-5,9.7s-3.5,6.4-5.2,9.5-3.6,6.3-5.5,9.4l-2.8,4.7c-1,1.5-1.9,3.1-2.9,4.6.8-1.6,1.6-3.2,2.5-4.9l2.6-4.8c1.7-3.2,3.5-6.4,5.3-9.5s3.6-6.3,5.5-9.4,3.7-6.2,5.7-9.3Z"/>
        <path class="cls-4" d="M324.4,182.1c-.6,3.1,3.4,2,3.4,2,0,0-5.3,2.9-4.7,6.3s5.3,1.8,5.7,1.7c-.3.2-5.1,3-4.1,6.3s5.5,1.2,5.8,1.1c-.2.2-3,3.3-1.7,5.7,2.3,4.1,9.7-3.6,13.5-3.5,0,0,.6,6.4.6,6.6,0,0,7.2-7.2,7.1-12.3,0-1.5-1.1-2.8-2.6-3.1,0,0,2.6-2.1,1.9-4.7-.4-1.4-2.9-2-2.9-2,1.1-1,1.6-2.6,1.2-4.1-.6-1.9-3-2.2-3-2.2,0,0,1.1-2.6,0-4.3-2.5-3.5-18.9,0-20.1,6.6Z"/>
        <path class="cls-12" d="M344.2,179.7c0,0,0,0,0,0-5.9-.2-11.7,1.4-16.7,4.6-.1.1,0,.4.1.3,5.2-2.4,10.8-4,16.5-4.8Z"/>
        <path class="cls-12" d="M346.4,186c0,0,0-.1,0-.1-6.5-.2-12.8,2-17.9,6.1-.2.1-.2.4,0,.3,3.6-2.6,12.5-5.6,17.9-6.3Z"/>
        <path class="cls-12" d="M330.2,199.9c5-4,10.7-5.9,16.9-7.1,0,0,0-.1,0-.1-3.2-.2-7,.9-10,2.1-2.7,1-5.1,2.8-7,5,0,0,0,.3.1.2Z"/>
        <path class="cls-12" d="M327.8,184.1c-1,.7-1.9,1.4-2.7,2.2-.8.8-1.5,1.7-1.8,2.8-.1.5,0,1,.2,1.5.3.5.6.8,1.1,1.1.9.5,2,.6,3,.2l2.4-.8-2,1.6c-.9.7-1.7,1.5-2.3,2.5-.6.9-.9,2-.7,3,.2,1,1.1,1.7,2.1,1.7,1.1,0,2.2-.3,3.1-.9l2.7-1.4-2,2.2c-.6.6-1.1,1.3-1.5,2-.4.7-.6,1.5-.5,2.3,0,.7.6,1.3,1.2,1.6.8.2,1.6.1,2.4-.2,1.7-.6,3.3-1.3,4.8-2.1.8-.4,1.6-.8,2.4-1.1.8-.4,1.7-.6,2.6-.7-.9.1-1.7.4-2.5.9-.8.4-1.5.9-2.3,1.3-1.5,1-3.1,1.8-4.8,2.4-.9.4-1.9.5-2.9.3-1-.3-1.8-1.2-1.9-2.3,0-1,.1-2,.6-2.8.4-.8,1-1.6,1.6-2.3l.6.8c-1.1.7-2.4,1-3.7,1.1-.7,0-1.4-.3-2-.7-.5-.5-.9-1.1-1.1-1.8-.3-1.3,0-2.7.9-3.8.7-1,1.6-1.9,2.6-2.7l.4.8c-1.3.4-2.6.3-3.7-.4-.5-.4-1-.9-1.2-1.5-.3-.6-.3-1.3-.1-1.9.4-1.1,1.2-2.1,2.1-2.9.9-.8,1.9-1.4,3-2Z"/>
        <path class="cls-4" d="M313.5,193.8s8-23.7,15.8-16c2.3,2.3,9,14.4,6.6,15.8-3.1,1.8-6.8-2.7-8.7-6,0,0-1.6,8.4-7.8,9.1-2.3.2-4.5-.9-5.8-2.8Z"/>
        <path class="cls-12" d="M328.6,177.3c1,.8,1.9,1.7,2.6,2.8.8,1,1.5,2.1,2.1,3.2,1.3,2.2,2.4,4.6,3.2,7,.2.6.4,1.3.4,2,0,.4,0,.8-.2,1.1,0,.2-.2.4-.3.6-.1.2-.3.3-.5.4-.7.4-1.5.5-2.2.3-.7-.2-1.3-.4-1.9-.8-1.1-.7-2.1-1.6-2.9-2.7-.8-1-1.5-2.1-2.2-3.2h.8c-.2.8-.5,1.7-.9,2.6-.4.9-.9,1.7-1.4,2.5-.6.8-1.2,1.5-2,2.1-.8.6-1.6,1-2.6,1.3.9-.4,1.7-.9,2.4-1.5.7-.6,1.3-1.4,1.7-2.2.5-.8.9-1.6,1.2-2.5.3-.9.6-1.8.7-2.7l.2-1.1.6,1c.7,1,1.4,2,2.2,3,.8.9,1.7,1.8,2.7,2.4.9.7,2,.8,3,.4.8-.4.5-1.7.2-2.9-.4-1.2-.8-2.4-1.3-3.5-.5-1.2-1-2.3-1.5-3.4-1-2.3-2.4-4.5-4.1-6.3Z"/>
        <path class="cls-4" d="M230.8,220.7c-9.6,21.4-15.4,46.9-12.2,52.4,3.5,6,36.6,17,56.9,17.4,3.8,0,4.4-31.2.3-31.3-7.3-.2-31.3-3.4-33.5-5.1-1.9-1.5.2-11.1.1-27.5,0-12.6-6.7-16.7-11.6-5.9Z"/>
        <path class="cls-4" d="M310.6,261.9c.6,1.8,0,3.8-1.5,4.9,1.2,1,2.1,2.3,2.4,3.8.5,2.7-3.6,4.6-3.6,4.6,1.1,1.3,1.7,2.8,1.9,4.5.2,2.6-3.6,5.1-3.6,5.1.4,1.7,0,3.5-.8,5-2.4,4-9.5,4-14,4.1s-17.3-3.9-19.8-4.5l-.7-28.9s20.1-6.1,25.4-5.4c4.5.5,13.1,3.4,14.3,6.7Z"/>
        <path class="cls-12" d="M308.9,266.3c-4.6-1.7-9.5-2-14.3-2.6,0,0,0,0,0,0s0,0,0,0h0c4.8.5,9.5,2,14.3,2.6,0,0,.1,0,.1-.1,0,0,0,0,0,0Z"/>
        <path class="cls-12" d="M307.9,274.9c-1.1-.3-2.2-.4-3.3-.5-1.2,0-2.4-.1-3.6-.2-2.4,0-4.8-.1-7.1,0-.1,0-.1.2,0,.2,2.4,0,4.7.2,7.1.4l3.5.3c1.1.2,2.2.2,3.4.1,0,0,.1-.1.1-.2,0,0,0,0,0-.1Z"/>
        <path class="cls-12" d="M306.2,284.8c-1-.2-2-.3-3-.2h-3.2c-2.2,0-4.3-.1-6.5-.2,0,0,0,0,0,.1,0,0,0,0,0,0,2.2.1,4.4.3,6.6.4h3.2c1,.3,2,.3,3,0,0,0,0,0,0-.1,0,0,0,0-.1,0Z"/>
        <path class="cls-6" d="M243.5,244.3l-23.6.5s6.1-19.1,12.1-27,10.9-7,11.6,2.2,0,24.3,0,24.3Z"/>
        <path class="cls-12" d="M222.8,239.3c1.5-.5,12.4-1.4,20.1-1,0,0,0,0,0,0,0,0,0,0,0,0h0c-.9,0-18.5,1.3-20.1,1.1-.1,0-.1-.2,0-.2Z"/>
        <path class="cls-12" d="M244.7,229.9c0,0-.1,0-.1,0-.2.8-.3,1.6-.5,2.5,0,.2,0,.4,0,.6-.1-2-.2-4-.4-6,0,0,0,0-.1,0,0,0,0,0,0,0,.2,6.9-.2,10.2-.3,17.1l-2,.2c0,0-.1,0,0,.2,0,0,0,0,0,0h2.3c.1,0,.2,0,.2-.2.7-4.4.5-5.5.3-10,.1-.6.3-1.3.4-2,.1-.8.2-1.6.2-2.4Z"/>
      </g>
      <g id="freepik--character-3--inject-133">
        <path class="cls-17" d="M380.2,222.7c12.1,10.5,27.2,20.1,36.1,22.8,6,1.8,22.7-11.1,35-26.5,2.4-3-11-26.4-13.5-23-6.4,8.9-19.5,23.7-22,24-2,.2-16.6-4-27.6-7.5-17.5-5.6-16.6,2.8-8,10.1Z"/>
        <path class="cls-5" d="M404.5,217.2l-7,22.5s-16.1-11.8-21.8-20-3.2-12.5,5.8-10.3,23,7.7,23,7.7Z"/>
        <path class="cls-3" d="M400.9,228.7l-3.5,11.1s-16.1-11.8-21.8-20c-3.9-5.6-3.9-9.5-.6-10.5l25.8,19.5Z"/>
        <path class="cls-12" d="M393.2,235.2c0-1.6,2.6-12.2,5.5-19.4,0,0,0,0,.1,0,0,0,0,0,0,.1-.2.8-4.6,18-5.4,19.4,0,.1-.2,0-.2,0Z"/>
        <path class="cls-5" d="M394.6,276.2h-58.1c.1-.5.2-1,.3-1.6.3-1.4.6-2.8.9-4.2.2-.7.3-1.4.5-2.1.3-1.3.6-2.6.9-3.9.2-1,.5-1.9.7-2.9s.5-2,.8-3c.3-1.3.7-2.6,1-4,4.6-16.9,11.2-34.7,20-44.5,1.2-1.3,2.7-2.2,4.4-2.6h.4c.5-.2,1-.3,1.5-.3h.3c4.5-.3,9.1,1.7,10.1,3,3.5,4.4,7.6,19.6,10.8,34.4.3,1.2.5,2.4.8,3.6.2,1,.4,2,.6,3,.2.8.3,1.6.5,2.4.2,1.2.5,2.4.7,3.6.1.7.3,1.4.4,2.1.2,1.3.5,2.6.7,3.8s.4,2.5.6,3.6c.5,3.2.9,5.8,1.1,7.6.1.8.2,1.5.2,2.3Z"/>
        <path class="cls-2" d="M395.9,264.7c0,0,0-.2,0-.3,0-.3-.1-.6-.2-.9,0,0,0-.2,0-.2-.4-1.3-.9-2.6-1.6-3.9.2-1.1.3-2.2.3-3.2,0,0,0-.1,0-.2,0-.2,0-.5,0-.7-.1-.9-.3-1.8-.6-2.7-.3-.9-.7-1.8-1.3-2.6.1-.9.2-1.8.2-2.7v-.8c0,0,0-.4,0-.6s0-.4,0-.6c0-.5-.2-1.1-.4-1.6h0c-.3-1-.8-2-1.5-2.8-2.8-13-6.5-25.9-11.2-31.1-1.7-1.9-6.5-3.2-11.1-2.7h-.3c-.5,0-1,.1-1.5.2h-.4c-2.6.6-5,2.1-6.7,4.2-7.6,10.2-13.4,25.1-18,38.9-1,1.5-1.8,3.1-2.4,4.8h0c0,.3-.1.5-.2.8,0,0,0,0,0,.1,0,.3-.2.5-.2.8,0,0,0,.2,0,.3s-.1.4-.1.7c0,.1,0,.2,0,.3,0,.2,0,.4-.1.7,0,0,0,0,0,.1,0,0,0,.1,0,.2-.1.9-.1,1.9,0,2.8-1,.9-1.9,2-2.5,3.3-.2.4-.4.9-.5,1.3v.5c-.2.2-.2.4-.3.5s0,.4-.1.5v.5c0,0-.1.6-.1.6,0,1,0,1.9.1,2.9-.6,1.1-1.1,2.3-1.5,3.5,0,.2-.2.5-.3.7h53.8c4-1.2,7-2,8.1-2.4.2,0,.3-.1.4-.2.1-.2,1.1-1.1,1.4-3.8.1-1.7,0-3.4-.5-5.1ZM368.6,229.2c-1.5,5.3-8.2,10.4-11.5,10.5s-5.3-2.1-5.4-6.7,4.2-15.3,8-17.4c5.8-3.1,10.3,8.3,8.8,13.5h0Z"/>
        <path class="cls-16" d="M332.6,276.2h0c0,.2-.1.4-.2.6.1-.2.1-.4.2-.6Z"/>
        <path class="cls-16" d="M396.1,265.6l-2.8.6-1.6.4-5.4,1.1-6.3,1.4-24,5.1-9.2,2h-14.2c0-.2.2-.5.2-.7h0l4-.9,19.2-4.1,29.7-6.4,6.9-1.5,2.4-.5c.1.4.3.8.4,1.2,0,0,0,.2,0,.2.2.7.4,1.4.5,2Z"/>
        <path class="cls-16" d="M394.2,256.2l-60,12.8c.1-1.4.5-2.7,1.1-4l58.2-12.5c.4,1.2.6,2.4.7,3.6Z"/>
        <path class="cls-16" d="M392.5,247.3l-54.7,11.7c.2-1.3.5-2.7,1-3.9l53.1-11.4c.3,1.2.5,2.4.5,3.6Z"/>
        <path class="cls-12" d="M355.9,276.2c0-3,0-6.1,0-9.1s.1-6.1.2-9.1.2-6.1.4-9.1.4-6.1.6-9.1c0,3,0,6.1,0,9.1s-.1,6.1-.2,9.1-.2,6.1-.4,9.1-.3,6.1-.6,9.1Z"/>
        <path class="cls-12" d="M377.7,219.6c1.1,4.7,2.1,9.5,3,14.2s1.9,9.5,2.7,14.3,1.7,9.5,2.4,14.4c.2,1.2.4,2.4.5,3.6.2,1.2.3,2.4.3,3.6,0,2.4-.1,4.9-.3,7.3,0-2.4,0-4.8,0-7.3,0-.6,0-1.2-.1-1.8l-.3-1.8c-.2-1.2-.4-2.4-.6-3.6-.8-4.8-1.6-9.5-2.5-14.3l-2.5-14.3c-.8-4.8-1.7-9.5-2.5-14.3Z"/>
        <path class="cls-12" d="M334.8,270.9c4.9-1.1,9.7-2.2,14.6-3.2l14.6-3.1,14.6-3,7.3-1.5c2.4-.5,4.9-1,7.3-1.6-4.8,1.4-9.6,2.5-14.5,3.7s-9.7,2.1-14.6,3.2-9.8,2-14.7,2.9-9.8,1.8-14.7,2.6Z"/>
        <path class="cls-12" d="M337.8,261.8c4.4-1,8.9-2,13.3-2.9l13.4-2.8,13.4-2.7,6.7-1.4c2.2-.5,4.5-.9,6.7-1.4-4.4,1.3-8.8,2.4-13.2,3.4s-8.9,1.9-13.4,2.9-8.9,1.8-13.4,2.6-8.9,1.6-13.4,2.3Z"/>
        <rect class="cls-12" x="374.1" y="239.5" width="11.9" height="3.9" transform="translate(-48.6 103.8) rotate(-14.6)"/>
        <rect class="cls-12" x="376" y="246.6" width="11.9" height="3.9" transform="translate(-50.4 104.5) rotate(-14.6)"/>
        <rect class="cls-12" x="379.8" y="265.6" width="11.9" height="3.9" transform="translate(-55.1 106.1) rotate(-14.6)"/>
        <path class="cls-2" d="M332.6,276.2c0,.2-.1.4-.2.6,0-.2.1-.4.2-.6h0Z"/>
        <path class="cls-17" d="M355.7,220.7c-9.6,21.4-15.4,46.9-12.2,52.4,3.5,6,36.6,17,56.9,17.4,3.8,0,4.4-31.2.3-31.3-7.3-.2-31.3-3.4-33.5-5.1-1.9-1.5.2-11.1.1-27.5-.1-12.6-6.7-16.7-11.6-5.9Z"/>
        <path class="cls-17" d="M435.5,261.9c.6,1.8,0,3.8-1.5,4.9,1.3.9,2.1,2.3,2.5,3.8.5,2.7-3.6,4.6-3.6,4.6,1.1,1.3,1.7,2.8,1.9,4.5.2,2.6-3.6,5.1-3.6,5.1.4,1.7,0,3.5-.8,5-2.4,4-9.5,4-14,4.1s-17.3-3.9-19.9-4.5l-.7-28.9s20.1-6.1,25.4-5.4c4.5.5,13.1,3.4,14.2,6.7Z"/>
        <path class="cls-12" d="M433.8,266.3c-4.6-1.7-9.5-2-14.3-2.6,0,0,0,0,0,0s0,0,0,0h0c4.8.5,9.5,2,14.3,2.6,0,0,.1,0,.1-.1,0,0,0,0,0-.1Z"/>
        <path class="cls-12" d="M432.8,274.9c-1.1-.3-2.2-.4-3.3-.5-1.2,0-2.4-.1-3.6-.2-2.4,0-4.8-.1-7.1,0-.1,0-.1.2,0,.2,2.4,0,4.7.2,7.1.4,1.2,0,2.4.2,3.5.3,1.1.2,2.2.2,3.4.1,0,0,.1-.1.1-.2,0,0,0,0,0-.1Z"/>
        <path class="cls-12" d="M431.1,284.8c-1-.2-2-.3-3-.2h-3.3c-2.2,0-4.3-.1-6.5-.2,0,0,0,0,0,.1,0,0,0,0,0,0,2.2.1,4.4.3,6.6.4h3.2c1,.3,2,.3,3,0,0,0,0,0,0-.1,0,0,0,0-.1,0Z"/>
        <path class="cls-5" d="M368.3,244.3l-23.6.5s6.1-19.1,12.1-27,10.9-7,11.6,2.2,0,24.3,0,24.3Z"/>
        <path class="cls-12" d="M347.7,239.3c1.5-.5,12.4-1.4,20.1-1,.1,0,.1.2,0,.2-.9,0-18.5,1.3-20.1,1.1-.1,0-.1-.2,0-.2Z"/>
        <path class="cls-12" d="M369.6,229.9s0,0,0,0c0,0,0,0,0,0-.2.8-.4,1.6-.5,2.5,0,.2,0,.4,0,.6-.1-2-.2-4-.4-6,0,0,0,0-.1,0,0,0,0,0,0,0,.2,6.9-.2,10.2-.3,17.1l-2,.2c0,0-.1,0,0,.2,0,0,0,0,0,0h2.3c.1,0,.2,0,.2-.2.7-4.4.5-5.5.3-10,.1-.6.3-1.3.4-2,.1-.8.2-1.6.2-2.4Z"/>
        <path class="cls-17" d="M377.4,217.6c-3.3.4-11.5-3.9-13.3-8.8-.1-.3.8-3.5,1.8-7.5.6-2.4,1.2-5.1,1.5-7.6,0-.5,15,6,15,6-1.3,3-2.3,6.1-2.9,9.3,0,.3,0,.7,0,1,0,0,0,.1,0,.2,0,2,1.5,6.9-2.1,7.3Z"/>
        <path class="cls-12" d="M379.5,210.2v.2c-.5,0-1.1,0-1.6-.1-9.1-1.5-9.9-13.3-9.9-16.3,2.7.8,14.5,6,14.5,6-1.3,3-2.3,6.1-2.9,9.3,0,.3,0,.7,0,1Z"/>
        <path class="cls-12" d="M386.6,171.5s5.3,2.2,6.2,7.6-.4,11-.8,11.3-5.4-18.9-5.4-18.9Z"/>
        <path class="cls-17" d="M365.8,177.7c-1.7,5.6,1.4,21.7,5.3,25.2,5.8,5.2,15.2,5.6,19.6-1.3,4.3-6.7,0-27.6-4.5-30.9-6.5-4.8-17.9-1.3-20.4,6.9Z"/>
        <path class="cls-12" d="M381.9,187.4s0,0,0,.1c.2,1.1.3,2.4-.6,2.9,0,0,0,0,0,0,1.2-.4,1.1-2.1.7-3.1Z"/>
        <path class="cls-12" d="M380.7,186.5c-1.8.2-1.3,3.7.4,3.5s1.1-3.7-.4-3.5Z"/>
        <path class="cls-12" d="M387.9,186.5s0,0,0,0c.1,1.1.5,2.3,1.5,2.6h0c-1.2,0-1.6-1.6-1.6-2.6Z"/>
        <path class="cls-12" d="M388.7,185.2c1.7-.4,2.4,3.1.8,3.5s-2.2-3.1-.8-3.5Z"/>
        <path class="cls-12" d="M379.1,185c.4-.2.9-.4,1.3-.7.5-.2.9-.5,1.2-.9.1-.3,0-.7-.2-.9-.6-.3-1.3-.3-1.9,0-.6.3-1.1.8-1.4,1.4-.2.4,0,.9.5,1,.2,0,.4,0,.6,0Z"/>
        <path class="cls-12" d="M389.9,183.3c-.5,0-1,0-1.5-.2-.5,0-1-.1-1.5-.4-.2-.3-.3-.6,0-.9.4-.5,1.1-.8,1.8-.6.7,0,1.3.3,1.8.8.3.3.3.8,0,1.1-.1.1-.3.2-.5.2Z"/>
        <path class="cls-12" d="M382,197.5c.3.2.6.5,1,.5.4,0,.8-.2,1.1-.4,0,0,0,0,0,0-.3.5-.8.8-1.3.8-.5,0-.9-.4-1-.8,0,0,0,0,.1,0Z"/>
        <path class="cls-12" d="M382.7,194.1c.7.8,1.7,1.3,2.7,1.3.5,0,.9,0,1.3-.1,0,0,.2,0,.2,0h.2c.1-.1.2-.2.2-.4h0s0,0,0-.1h0c-.1-.9-.4-2.2-.4-2.2.3.1,2,.6,1.9.1-.6-3.8-1.6-7.4-3-11,0,0,0,0-.1,0,0,0,0,0,0,.1.6,3.5,1.8,6.9,2.4,10.4-.6-.2-1.2-.3-1.8-.3-.1,0,.5,2.4.6,2.8h0c-1.4.3-2.8,0-4-.6-.2,0-.3,0-.2.1Z"/>
        <path class="cls-12" d="M386.2,194.9c-.4.7-.9,1.2-1.6,1.6-.4.2-.8.3-1.2.2-.9-.1-1-.9-1-1.6,0-.4.1-.8.2-1.1,1.1.7,2.3.9,3.5.9Z"/>
        <path class="cls-9" d="M384.6,196.5c-.4.2-.8.3-1.2.2-.9-.1-1-.9-1-1.6,1-.1,1.9.4,2.2,1.4Z"/>
        <path class="cls-12" d="M367.5,192.3c1.9.3,3.3-5.5,3.6-7.7.3-1.9,0-8,.1-8.4s8.8,4.1,13.3,2.1,7-6.6,6.8-8.5-6.6-6.1-11.7-5.7-10.9,7.7-10.9,7.7c.7-1,1.3-2.1,1.8-3.3-.1-.2-3.2,1.5-3.4,3.9,0,0,.2-3,0-3s-2.4,2.8-1.6,4.6c0,0-2.6,2.9-2.5,5.7s2.3,12.2,4.5,12.6Z"/>
        <path class="cls-12" d="M387.6,176.9c-1.3.9-2.7,1.7-4.2,2.2-1.7.4-3.4.3-5.1-.1-1.7-.4-3.3-1.1-4.8-2-1.3-.8-2.5-1.8-3.8-2.5-.3-.2-.6.3-.4.6,2.5,2.6,5.7,4.4,9.3,5.1,3.3.6,6.8-.6,9-3.1,0,0,0,0,0,0Z"/>
        <path class="cls-17" d="M370,191s-3.8-5.1-6.1-3.8.6,8.8,3.4,9.8c1.4.6,3.1,0,3.7-1.5,0,0,0,0,0-.1l-1-4.4Z"/>
        <path class="cls-12" d="M364.8,189.3h0c2,.8,3,2.6,3.8,4.4-.5-.7-1.4-1-2.2-.5,0,0-.1,0-.2.1,0,0,0,.1,0,.1.7-.2,1.5,0,1.9.6.4.5.7,1,1,1.5,0,.2.4,0,.3-.1h0c0-2.5-2-5.9-4.8-6.1Z"/>
        <path class="cls-17" d="M468.7,208.2c-3.9,4.4-15.5,10.2-18.8,10.5s-13.9-19-12.5-22.1,15.8-16.9,21.7-17.9c5.9-1,13.7,24.9,9.6,29.5Z"/>
        <rect class="cls-12" x="327" y="233.9" width="209.8" height="4.5" transform="translate(13.8 495.9) rotate(-60.5)"/>
        <path class="cls-2" d="M387.4,343.6l-14,24.8h-34.3l22.2-39.3c.9-1.6,2.4-2.9,4.1-3.6l16.9-6.8h.2c0,.1,3.7,2.2,3.7,2.2l2.1,17.7c.2,1.7-.1,3.5-1,5Z"/>
        <path class="cls-13" d="M387.4,343.6l-14,24.8h-34.3l22.2-39.3c.9-1.6,2.4-2.9,4.1-3.6l16.9-6.8h.2c0,.1,3.7,2.2,3.7,2.2l2.1,17.7c.2,1.7-.1,3.5-1,5Z"/>
        <path class="cls-11" d="M376.6,328.2c-1.7,3.5-3.5,6.9-5.4,10.3s-3.7,6.8-5.6,10.1-3.8,6.7-5.8,10l-3,5c-1,1.6-2,3.3-3.1,4.9.9-1.7,1.8-3.4,2.6-5.1l2.7-5.1c1.8-3.4,3.7-6.8,5.6-10.1s3.8-6.7,5.8-10,4-6.7,6.1-9.9Z"/>
        <path class="cls-11" d="M380.8,330.5c-1.6,3.3-3.3,6.5-5,9.7s-3.5,6.4-5.3,9.5-3.6,6.3-5.5,9.4l-2.8,4.7c-1,1.5-1.9,3.1-2.9,4.6.8-1.6,1.6-3.2,2.5-4.9l2.6-4.8c1.7-3.2,3.5-6.4,5.2-9.5s3.6-6.3,5.5-9.4,3.7-6.2,5.7-9.3Z"/>
        <path class="cls-17" d="M450.3,182.1c-.6,3.1,3.4,2,3.4,2,0,0-5.3,2.9-4.7,6.3s5.3,1.8,5.7,1.7c-.3.2-5.1,3-4.1,6.3s5.5,1.2,5.8,1.1c-.2.2-3,3.3-1.7,5.7,2.3,4.1,9.7-3.6,13.5-3.5,0,0,.6,6.4.6,6.6,0,0,7.2-7.2,7.1-12.3,0-1.5-1.1-2.8-2.6-3.1,0,0,2.6-2.1,1.9-4.7-.3-1.4-2.8-2-2.8-2,1.1-1,1.6-2.6,1.2-4.1-.6-1.9-3-2.2-3-2.2,0,0,1.2-2.6,0-4.3-2.5-3.5-18.9,0-20.1,6.6Z"/>
        <path class="cls-12" d="M470.1,179.7c0,0,0,0,0,0-5.9-.2-11.7,1.4-16.6,4.6-.1.1,0,.4.1.3,5.2-2.4,10.8-4,16.5-4.8Z"/>
        <path class="cls-12" d="M472.3,186c0,0,0-.1,0-.1-6.5-.2-12.8,2-17.8,6.1-.2.1-.2.4,0,.3,3.5-2.6,12.5-5.6,17.8-6.3Z"/>
        <path class="cls-12" d="M456.1,199.9c5-4,10.7-5.9,16.9-7.1,0,0,0-.1,0-.1-3.2-.2-7,.9-10,2.1-2.7,1-5.1,2.8-7,5,0,0,0,.3.1.2Z"/>
        <path class="cls-12" d="M453.7,184.1c-1,.7-1.9,1.4-2.7,2.2-.8.8-1.5,1.7-1.8,2.8-.1.5,0,1,.2,1.5.3.5.6.8,1.1,1.1.9.5,2,.6,3,.2l2.4-.8-2,1.6c-.9.7-1.7,1.5-2.3,2.5-.6.9-.9,2-.7,3,.2,1,1.1,1.7,2.1,1.7,1.1,0,2.2-.3,3.1-.9l2.7-1.4-2,2.2c-.6.6-1.1,1.3-1.5,2-.4.7-.6,1.5-.5,2.3,0,.7.6,1.3,1.2,1.6.8.2,1.6.1,2.4-.2,1.7-.6,3.3-1.3,4.8-2.1.8-.4,1.6-.8,2.4-1.1.8-.4,1.7-.6,2.6-.7-.9.1-1.7.4-2.5.9-.8.4-1.5.9-2.3,1.3-1.5,1-3.1,1.8-4.8,2.4-.9.4-1.9.5-2.8.3-1-.3-1.8-1.2-1.9-2.3,0-1,.1-2,.6-2.8.4-.8,1-1.6,1.6-2.3l.6.8c-1.1.7-2.4,1-3.7,1.1-.7,0-1.4-.3-2-.7-.5-.5-.9-1.1-1.1-1.8-.3-1.3,0-2.7.9-3.8.7-1,1.6-1.9,2.6-2.7l.4.8c-1.3.4-2.6.3-3.7-.4-.5-.4-1-.9-1.2-1.5-.3-.6-.3-1.3-.1-1.9.4-1.1,1.2-2.1,2.1-2.9.9-.8,1.9-1.4,2.9-2Z"/>
        <path class="cls-17" d="M439.5,193.8s8-23.7,15.8-16c2.3,2.3,9,14.4,6.6,15.8-3.1,1.8-6.8-2.7-8.7-6,0,0-1.6,8.4-7.8,9.1-2.3.2-4.5-.9-5.8-2.8Z"/>
        <path class="cls-12" d="M454.5,177.3c1,.8,1.9,1.7,2.6,2.8.8,1,1.5,2.1,2.1,3.2,1.3,2.2,2.4,4.6,3.2,7,.2.6.4,1.3.4,2,0,.4,0,.8-.2,1.1,0,.2-.2.4-.3.6-.1.2-.3.3-.5.4-.7.4-1.5.5-2.2.3-.7-.2-1.3-.4-1.9-.8-1.1-.7-2.1-1.6-2.9-2.7-.8-1-1.5-2.1-2.2-3.2h.8c-.2.8-.5,1.7-.9,2.6-.4.9-.9,1.7-1.4,2.5-.6.8-1.2,1.5-2,2.1-.8.6-1.6,1-2.6,1.3.9-.4,1.7-.9,2.4-1.5.7-.6,1.3-1.4,1.7-2.2.5-.8.9-1.6,1.2-2.5.3-.9.6-1.8.7-2.7l.2-1.1.6,1c.7,1,1.4,2,2.2,3,.8.9,1.6,1.8,2.7,2.4.9.7,2,.8,3,.4.8-.4.5-1.7.2-2.9-.4-1.2-.8-2.4-1.3-3.5-.5-1.2-1-2.3-1.5-3.4-1-2.3-2.4-4.5-4.1-6.3Z"/>
      </g>
      <g id="freepik--Water--inject-133">
        <path class="cls-16" d="M27.6,335.1s25,45.9,83,58.2h0c.9.2,1.9.4,2.9.6,50.2,9.5,130.3-16.7,165.7-14.1,2.8.2,5.6.7,8.4,1.5,59,18.4,111.3,33.6,172,24.1,14.3-2.2,28.3-5.7,42-10.4h0c32.6-11.4,50.4-26.2,62-30.9,28.5-11.5,45.8,1.4,58.9,4h0c3,.7,6.1.6,9-.5,8.4-3.4.9-22-13.2-28.4-20.6-9.4-45.1-1.6-45.3-3.9-.8-10,42.4-11.6,39.5-22.9s-31.4-15.8-60,.8c-20.1,11.6-32.6,32.3-50.8,41.8-5.6,2.9-22.1,7.6-23.2,6.8s13.1-5.5,16.5-9.5-2.1-7.4-10-7.1-23.2,13.4-31.6,17.3-39.2-.5-37.4-6.1,30-9.4,46-14.9c1.7-.6,3.4-1.4,4.9-2.5,0,0,0,0,.1-.1,0,0,0,0,0,0h0c9.3-7.2,3.1-21.1-18.6-19.6-29.1,2-53.7,33.9-77.1,33.1-2.4,0,22.5-11.2,21.6-19.6-.5-5-10.2-7.8-21.6-3.3s-24.2,19.3-42.7,25.6-82.6-8.9-82.6-8.9c16.9-5.5,27.6-17.9,17.9-24.2s-29.7,10.4-65.2,20.2c-88.3,24.4-148.1,10.6-171.4-7Z"/>
        <path class="cls-7" d="M622.4,368.1h0c2.4.5,4.8.5,7.2,0,1.2-.2,2.3-.7,3.3-1.5.9-.8,1.5-1.8,1.8-3,.4-2.4.2-4.8-.7-7.1-.8-2.3-1.9-4.4-3.2-6.4-2.7-4-6.2-7.4-10.4-9.8-4.3-2.3-8.8-3.8-13.6-4.6-4.7-.9-9.5-1.2-14.3-1.1-4.8,0-9.6.5-14.4,1-1.2.1-2.4.3-3.6.3-.3,0-.6,0-.9,0-.2,0-.3,0-.5-.2-.2-.1-.2-.3-.2-.5,0-.6.1-1.3.4-1.8.6-1.1,1.5-2,2.6-2.6,1-.7,2.1-1.2,3.2-1.7,4.5-1.8,9-3.4,13.7-4.6,4.6-1.2,9.2-2.8,13.6-4.7,1.1-.5,2.1-1.1,3.1-1.8,1-.6,1.8-1.5,2.4-2.5.6-1,.7-2.2.3-3.3-.3-1.1-.9-2.1-1.7-3-1.6-1.8-3.6-3.1-5.8-4-2.2-.9-4.5-1.5-6.9-1.9-4.7-.7-9.6-.8-14.3-.2-9.5,1.2-18.8,4.1-27.3,8.6-8.6,4.4-16,10.5-23,17.2s-13.5,13.7-21,19.7c-3.8,3.1-7.9,5.7-12.3,7.7-4.5,1.8-9.1,3.3-13.7,4.6-1.2.3-2.3.6-3.5.9-1.2.3-2.4.5-3.7.6h-.3c-.1,0-.3,0-.4-.3,0-.2,0-.4.1-.6,0,0,.1-.1.2-.2.3-.2.5-.4.8-.5.5-.3,1.1-.6,1.6-.8l3.3-1.5c2.2-1,4.4-2,6.4-3.2,1-.6,2-1.2,3-1.9.9-.6,1.6-1.6,2-2.6.1-.5,0-1-.1-1.5-.3-.5-.6-.9-1-1.2-.9-.7-2-1.2-3.1-1.5-2.3-.6-4.6-.8-7-.6-2.3.4-4.6,1.2-6.6,2.4-2.1,1.1-4.2,2.3-6.2,3.6-4,2.6-8,5.3-12.1,7.9-2,1.3-4.2,2.5-6.4,3.6-2.3.8-4.8,1.2-7.2,1.2-4.8.2-9.7,0-14.5-.8-2.4-.3-4.8-.8-7.1-1.4-2.4-.5-4.7-1.4-6.8-2.7-.6-.3-1-.8-1.4-1.3-.5-.6-.5-1.4-.2-2.1.3-.6.7-1.1,1.3-1.5.5-.4,1-.7,1.6-1,2.2-1.1,4.4-2,6.8-2.7,4.6-1.4,9.3-2.6,14-3.7s9.4-2.2,14-3.5c2.3-.6,4.6-1.3,6.9-2,2.3-.6,4.4-1.6,6.4-3h.1c0,0,.2-.2.2-.2l-.2.3h0v-.2l.5-.2h-.3c1.2-.9,2.2-2.1,3-3.4.7-1.4,1.1-2.9,1-4.4-.2-3.1-2.3-5.8-5-7.5-2.7-1.7-5.7-2.7-8.9-3.1-3.2-.4-6.4-.5-9.6-.1-6.4.7-12.6,2.5-18.4,5.4-5.8,2.8-11.5,6-16.9,9.5-5.5,3.4-10.9,7-16.5,10.3s-11.6,6.1-18.1,7.4c-.8.1-1.6.3-2.4.4-.8,0-1.6.1-2.5.1h-1.2s0,0-.1,0c0,0-.2,0-.2,0-.2-.1-.3-.3-.3-.5,0-.1,0-.2,0-.3,0-.1.2-.2.3-.3.2-.1.3-.3.5-.4.7-.5,1.4-.9,2.1-1.3,2.8-1.6,5.6-3.3,8.2-5.1,2.7-1.7,5.2-3.8,7.5-6,1.1-1.1,2-2.4,2.7-3.8.3-.7.4-1.4.4-2.2,0-.7-.4-1.4-.8-2-1-1.2-2.3-2-3.8-2.4-1.5-.5-3.1-.7-4.6-.8-3.2,0-6.4.4-9.4,1.4-3.1,1-6,2.4-8.6,4.1-2.7,1.7-5.3,3.6-8,5.5-5.2,3.9-10.5,7.6-16.1,11-2.8,1.6-5.7,3.1-8.7,4.4l-2.3.9-1.1.4c-.4.1-.8.2-1.2.3-1.6.4-3.2.7-4.8.9-3.2.3-6.5.4-9.8.3-3.2,0-6.5-.3-9.7-.6-6.5-.6-12.9-1.4-19.3-2.4-12.8-2-25.5-4.5-38.2-7.5l-1.2-.3,1.2-.4c5.6-1.8,10.8-4.5,15.4-8.2,2.3-1.8,4.1-4.1,5.4-6.7.6-1.3.7-2.7.5-4.1-.3-1.4-1.1-2.6-2.2-3.5-1.1-1-2.3-1.6-3.7-2-1.4-.3-2.8-.4-4.3-.2-2.9.4-5.7,1.2-8.4,2.2-5.5,2.1-10.9,4.6-16.2,6.9-10.7,4.9-21.8,8.9-33.1,12.2-5.7,1.5-11.4,2.9-17.1,4.3l-8.6,1.8-4.3.9-2.2.5-2.2.4-8.7,1.5c-1.5.2-2.9.5-4.4.7l-4.4.5-8.8,1.1c-2.9.3-5.9.5-8.8.7l-4.4.3c-1.5.1-2.9.1-4.4.2l-8.8.3h-8.9c-2.9-.1-5.9-.4-8.8-.6-11.8-.7-23.5-2.5-34.9-5.4-11.4-3-22.5-7.4-32.1-14.3,9.6,6.9,20.8,11.2,32.1,14.2,11.4,2.9,23.1,4.6,34.9,5.2,2.9.2,5.9.4,8.8.4h8.8c0,.1,8.8-.2,8.8-.2,1.5,0,2.9,0,4.4-.2l4.4-.4c2.9-.2,5.9-.5,8.8-.7l8.8-1.1,4.4-.5c1.5-.2,2.9-.5,4.4-.7l8.7-1.5,2.2-.4,2.2-.5,4.3-.9,8.6-1.8c5.7-1.4,11.4-2.9,17.1-4.4,11.3-3.3,22.4-7.3,33.1-12.2,5.4-2.4,10.7-4.9,16.3-6.9,2.8-1.1,5.6-1.9,8.6-2.3,1.5-.2,3-.1,4.5.2,1.5.4,2.9,1.1,4,2.1.6.5,1.1,1.1,1.5,1.7.4.7.7,1.4.9,2.1.3,1.5,0,3.1-.5,4.5-1.3,2.7-3.2,5.1-5.5,7-4.6,3.7-9.9,6.5-15.6,8.3v-.7c12.6,2.9,25.3,5.4,38.1,7.4,6.4,1,12.8,1.8,19.3,2.4,3.2.3,6.4.5,9.7.6,3.2.1,6.4,0,9.6-.3,1.6-.2,3.2-.4,4.7-.9.4-.1.8-.2,1.1-.3l1.1-.4,2.2-.9c3-1.3,5.9-2.7,8.6-4.3,5.5-3.3,10.9-7,16-10.9,2.6-1.9,5.2-3.8,8-5.6,2.7-1.8,5.7-3.2,8.8-4.3,3.1-1,6.4-1.5,9.7-1.4,1.7,0,3.3.3,4.9.8,1.7.5,3.1,1.4,4.2,2.7.6.7.9,1.5,1,2.4,0,.9,0,1.8-.4,2.6-.7,1.5-1.7,2.9-2.9,4.1-2.3,2.3-4.9,4.4-7.6,6.1-2.7,1.8-5.5,3.5-8.3,5.1-.7.4-1.4.8-2,1.3l-.5.3h-.1c0,.1,0,0,0,0,0-.1,0-.3-.2-.4-.1,0-.1,0-.1,0h1.2c.8,0,1.6,0,2.4-.1.8,0,1.6-.2,2.4-.3,6.3-1.2,12.2-4.1,17.8-7.3s11-6.8,16.5-10.3c5.4-3.6,11.1-6.7,17-9.5,3-1.4,6-2.6,9.1-3.5,3.1-1,6.3-1.6,9.6-1.9,3.3-.4,6.6-.3,9.8.2,3.3.4,6.5,1.5,9.3,3.3,1.4.9,2.7,2.1,3.6,3.5,1,1.4,1.6,3,1.7,4.7.1,1.7-.3,3.4-1.1,4.9-.8,1.5-1.9,2.8-3.3,3.8h-.3c0,.1.5-.4.5-.4h0v.2h-.2c0,.1-.2.3-.2.3h-.2c-2,1.5-4.3,2.6-6.6,3.2-2.3.7-4.6,1.4-7,2-4.7,1.2-9.4,2.3-14,3.5s-9.4,2.3-13.9,3.7c-2.3.7-4.5,1.5-6.6,2.6-1,.5-1.9,1.2-2.5,2.1-.5.9.4,1.8,1.3,2.4,2.1,1.2,4.3,2,6.6,2.5,2.3.6,4.6,1.1,7,1.4,4.7.7,9.5,1,14.3.8,2.4,0,4.7-.4,7-1.2,2.2-1,4.2-2.2,6.2-3.5,4-2.6,8-5.3,12.1-7.9,2-1.3,4.1-2.5,6.3-3.6,2.1-1.2,4.5-2,6.9-2.4,2.5-.2,4.9,0,7.3.6,1.2.3,2.3.9,3.3,1.6.5.4,1,.9,1.3,1.5.3.6.3,1.3.2,2-.4,1.2-1.2,2.3-2.3,3-1,.7-2,1.4-3.1,2-2.1,1.2-4.3,2.2-6.5,3.2l-3.3,1.5c-.5.3-1.1.5-1.6.8-.3.1-.5.3-.7.4h-.1q0,.1,0,0c0-.2,0,0,0-.1h.2c1.2,0,2.3-.3,3.5-.5,1.2-.3,2.3-.6,3.5-.9,4.6-1.2,9.2-2.7,13.7-4.5,4.3-2,8.4-4.6,12.1-7.6,7.5-6,14.1-13.1,21.1-19.7s14.5-12.9,23.1-17.3c8.6-4.5,17.9-7.5,27.5-8.6,4.8-.6,9.7-.5,14.5.2,2.4.4,4.8,1.1,7,2,1.1.5,2.2,1,3.2,1.7,1,.7,2,1.5,2.8,2.4.8.9,1.5,2,1.8,3.2.5,1.2.3,2.6-.3,3.7-.6,1.1-1.5,2-2.6,2.6-1,.7-2.1,1.3-3.2,1.8-4.4,1.9-9,3.5-13.7,4.7-4.7,1.3-9.3,2.8-13.7,4.6-1.1.5-2.1,1-3.2,1.7-1,.6-1.9,1.5-2.5,2.5-.3.5-.4,1.1-.4,1.6,0,.2,0,.2,0,.3.1,0,.2.1.3.1.3,0,.6,0,.9,0,1.2,0,2.4-.1,3.6-.2,4.8-.5,9.6-1,14.4-1,4.8,0,9.6.3,14.4,1.2,4.8.9,9.3,2.4,13.6,4.7,4.2,2.4,7.8,5.8,10.4,9.9,1.3,2,2.4,4.2,3.2,6.5.8,2.3,1.1,4.7.6,7.1-.3,1.2-.9,2.3-1.8,3.1-1,.7-2.1,1.2-3.3,1.5-2.4.5-4.8.4-7.2,0h0Z"/>
        <path class="cls-7" d="M612.6,355.7c-4.7-3.1-9.8-5.6-15.1-7.5-5.3-2-10.8-3.1-16.4-3.4-5.6-.3-11.2.7-16.3,2.9-5.1,2.3-9.9,5.2-14.5,8.5-4.6,3.3-8.9,6.9-13.2,10.5s-8.7,7.3-13.2,10.7c-4.5,3.4-9.3,6.5-14.2,9.3-5,2.7-10.1,5-15.5,6.9,5.3-2,10.4-4.5,15.2-7.3,4.9-2.9,9.5-6,14-9.5,4.4-3.5,8.8-7.1,13-10.8s8.6-7.3,13.2-10.6c4.6-3.4,9.5-6.2,14.7-8.6,5.3-2.2,11-3.2,16.7-2.9,5.7.3,11.3,1.6,16.6,3.7,2.6,1,5.2,2.2,7.7,3.5,2.5,1.3,4.9,2.8,7.2,4.5Z"/>
        <path class="cls-7" d="M301.8,382.4c-12.5-5.1-25.2-10-38.4-12.8-6.6-1.5-13.3-2.4-20-2.6-6.7,0-13.4.7-20,2.2-6.6,1.4-13.1,3.2-19.6,5.2s-12.9,4.1-19.3,6.2-12.9,4.2-19.4,6.1-13.1,3.6-19.8,4.1c6.7-.7,13.2-2.6,19.7-4.6s12.9-4.2,19.3-6.3,12.8-4.3,19.3-6.3,13-3.9,19.6-5.3c6.6-1.5,13.4-2.3,20.2-2.2,6.8.2,13.5,1.2,20.1,2.8,6.6,1.6,13.1,3.5,19.4,5.9,3.2,1.2,6.3,2.4,9.4,3.7s6.2,2.7,9.4,4Z"/>
        <path class="cls-7" d="M367.9,396.1c-12.9-2.2-25.6-5.2-38.1-9-12.5-3.8-24.8-8.3-36.8-13.6-6-2.7-11.7-5.8-17.8-8-6.1-2.3-12.4-3.8-18.9-4.5-6.5-.7-13-.6-19.5.4-3.2.5-6.4,1.1-9.6,2-3.1.9-6.2,1.9-9.3,3.1,18.2-8.1,38.8-8.8,57.5-1.8,3.1,1,6.1,2.5,9.1,3.8s5.9,2.8,8.9,4.1c11.9,5.3,24.2,9.9,36.6,13.7,6.2,2,12.5,3.7,18.8,5.4s12.7,3.2,19.1,4.4Z"/>
        <path class="cls-7" d="M604.9,317.1c-.8.4-1.7.6-2.6.8-.9.2-1.8.4-2.6.5-1.8.3-3.5.6-5.2,1-3.5.7-6.9,1.7-10.2,3-3.3,1.3-6.4,2.9-9.4,4.8l-2.1,1.6c-.7.5-1.3,1.2-2,1.7-1.3,1.2-2.6,2.5-3.8,3.8,2.1-2.9,4.6-5.5,7.5-7.7,2.9-2.1,6.1-3.9,9.5-5.1,3.4-1.3,6.8-2.2,10.4-2.8,1.8-.3,3.5-.5,5.3-.7,1.8-.1,3.5-.4,5.3-.9Z"/>
        <path class="cls-7" d="M158.5,356.1c-9.3,2.4-18.8,4.1-28.4,4.9-9.6.9-19.3,1.1-28.9.6-4.8-.2-9.6-.8-14.4-1.3l-7.1-1.1c-1.2-.2-2.4-.4-3.6-.6l-3.5-.8c-9.4-2-18.7-4.8-27.6-8.4l6.8,2.3,3.4,1.1c1.1.4,2.3.6,3.5.9l7,1.9c2.3.5,4.7,1,7,1.5l3.5.7c1.2.2,2.4.4,3.6.6l7.1,1.1c4.8.4,9.5,1,14.3,1.2,9.6.5,19.2.4,28.8-.3,2.4-.2,4.8-.4,7.2-.6s4.8-.6,7.1-.9c4.8-.7,9.5-1.5,14.2-2.6Z"/>
        <path class="cls-7" d="M464,325.1c-3.5-.9-7.2-1.3-10.8-1.2-3.6,0-7.2.4-10.7,1.3-3.5.9-6.9,2.1-10.2,3.7-3.2,1.6-6.4,3.5-9.5,5.4-6.2,3.8-12.3,7.9-18.7,11.5-3.2,1.8-6.5,3.3-10,4.7-3.4,1.3-7.1,2.2-10.7,2.5,7.3-1,13.9-4.3,20.2-7.9s12.4-7.7,18.5-11.6c3.1-1.9,6.3-3.8,9.6-5.4,3.3-1.6,6.8-2.9,10.4-3.7,7.2-1.6,14.7-1.3,21.8.7Z"/>
        <path class="cls-7" d="M526.5,339.8c-2.7,3.8-5.8,7.2-9.4,10.2-3.5,3-7.4,5.6-11.5,7.8-4.1,2.2-8.4,3.9-12.9,5.1l-1.7.5-.8.2-.8.2-3.4.6c-1.1.2-2.3.3-3.4.4-1.2.1-2.3.2-3.5.3,4.6-.6,9.1-1.5,13.5-2.8l1.6-.5.8-.2.8-.3,3.2-1.2c1.1-.4,2.1-1,3.1-1.4l1.6-.7c.5-.3,1-.5,1.5-.8,1-.5,2-1,3-1.6l2.9-1.8,2.8-2c.9-.7,1.8-1.4,2.7-2.1s1.8-1.5,2.6-2.2,1.7-1.5,2.5-2.3c1.7-1.6,3.2-3.2,4.7-5Z"/>
        <path class="cls-7" d="M362.5,338.3c-5,5.5-10.7,10.3-16.9,14.3-3.1,2-6.4,3.7-9.9,5.2-3.5,1.4-7.1,2.4-10.8,2.9-3.7.4-7.4.5-11.1.5-3.7-.1-7.4-.3-11.1-.7-7.3-.8-14.6-2.1-21.8-4,3.6.7,7.2,1.4,10.9,1.9s7.3,1,11,1.3,7.3.5,11,.6c3.7,0,7.3-.2,11-.6,3.6-.5,7.2-1.4,10.5-2.7,3.4-1.4,6.7-3.1,9.8-5,3.1-1.9,6.1-4.1,9-6.4,2.9-2.3,5.7-4.7,8.3-7.3Z"/>
        <path class="cls-2" d="M322.1,377.3c.7-2,15.2-3.9,17.8.6s-4.8,7.3-8.9,6.4-10-3.8-8.9-7Z"/>
        <path class="cls-2" d="M320.1,368.9c2.9.3,2.8,5.6-2.5,5.1s-2.1-5.6,2.5-5.1Z"/>
        <path class="cls-2" d="M182.5,358.6c1.5.9.1,3.8-2.6,2.2s.2-3.6,2.6-2.2Z"/>
        <path class="cls-2" d="M380.3,331.3c1.5.9.1,3.8-2.6,2.2s.2-3.6,2.6-2.2Z"/>
        <path class="cls-2" d="M169.4,354.6c2.2-1,4.5-.6,4.8.8s-.8,3.2-3.4,4.7-6.8,1.7-7.4.9,3.9-5.4,6-6.3Z"/>
      </g>
    </g>
  </g>
</svg>