<?xml version="1.0" encoding="UTF-8"?>
<svg xmlns="http://www.w3.org/2000/svg" version="1.1" viewBox="0 0 673.2 328.9">
  <defs>
    <style>
      .cls-1, .cls-2 {
        fill: #289db9;
      }

      .cls-1, .cls-2, .cls-3, .cls-4, .cls-5, .cls-6, .cls-7, .cls-8, .cls-9, .cls-10, .cls-11, .cls-12 {
        stroke-width: 0px;
      }

      .cls-2, .cls-8, .cls-10, .cls-12 {
        isolation: isolate;
      }

      .cls-2, .cls-12 {
        opacity: .5;
      }

      .cls-3 {
        fill: #a6a6a6;
      }

      .cls-4 {
        fill: #dbdbdb;
      }

      .cls-5, .cls-12 {
        fill: #ebebeb;
      }

      .cls-6 {
        fill: #ff9bbc;
      }

      .cls-7 {
        fill: #d3766a;
      }

      .cls-8 {
        opacity: .1;
      }

      .cls-8, .cls-10 {
        fill: #000;
      }

      .cls-9 {
        fill: #263238;
      }

      .cls-10, .cls-13 {
        opacity: .2;
      }

      .cls-11 {
        fill: #fff;
      }
    </style>
  </defs>
  <!-- Generator: Adobe Illustrator 28.6.0, SVG Export Plug-In . SVG Version: 1.0.2 Build 62)  -->
  <g>
    <g id="Camada_1">
      <g id="Camada_1-2" data-name="Camada_1">
        <g id="freepik--background-complete--inject-55">
          <path class="cls-5" d="M363.2,29.4h99.9s-9.9-27-25.1-27-20,18.7-20,18.7c0,0-10.3-10.2-18.7-10.2s-15.8,13.4-15.8,13.4c0,0-11.9-7.2-20.2,5.1h0Z"/>
          <path class="cls-12" d="M330.3,72.4h46.7s-10.4-15.2-18.6-15.2-10.6,10.1-10.6,10.1c0,0-5.8-4.7-11.2-3.9-5.4.8-6.2,8.9-6.2,8.9h0Z"/>
          <path class="cls-12" d="M12.3,53.8h46.7s-10.4-15.1-18.6-15.1-10.7,10.1-10.7,10.1c0,0-5.8-4.7-11.2-3.9s-6.2,8.9-6.2,8.9Z"/>
          <path class="cls-5" d="M572.1,75.9h90.9s-12.5-27.8-25.8-29.5-19.7,20.6-19.7,20.6c0,0-8.6-7.9-15.3-7.9s-12,10.4-12,10.4c0,0-13.5-7.1-18.1,6.4h0Z"/>
          <path class="cls-5" d="M80.9,111.3h90.9s-12.4-27.8-25.8-29.5-19.7,20.7-19.7,20.7c0,0-8.6-7.9-15.3-7.9s-12,10.4-12,10.4c0,0-13.5-7.2-18.1,6.3Z"/>
          <path class="cls-12" d="M61.8,20.4h61.4S112.7.3,101.2,0s-17.5,15.2-17.5,15.2c0,0-17.8-14.3-22,5.2h.1Z"/>
          <path class="cls-12" d="M499.3,121.3h61.4s-10.5-20.1-22-20.4-17.5,15.2-17.5,15.2c0,0-17.8-14.3-21.9,5.2h0Z"/>
          <path class="cls-3" d="M234.5,168.4s9-14.5,9.4-24.8c.4-11.1-6.4-23-6.4-23l.5-.4s9.6,12.2,8.7,25.1c-.9,12.5-8.1,23.1-8.1,23.1h-4.1Z"/>
          <path class="cls-3" d="M237.5,120.2s5.7-5.1,8.4-5,8,6.2,8,6.4-4.6-3.2-4.6-3.2l2.7,3.5-3.9-3.6,1.2,3-2.2-3.3.6,3.2-2.1-3,1.1,2.3-1.7-1.9.6,1.7-1.5-1.5,1.2,2.2-2-2,.8,1.7-1.2-1.2c-.2-.2.3,1.2.3,1.2l-1.6-1.7.4,1.5-.8-.9.2.9-.8-.9.2.8-1.3-.8.2.4-2.2.2h0Z"/>
          <path class="cls-3" d="M237.6,120.1s9.1,1,11.4,2.6,5.4,7.3,5.4,7.3l-4.6-4.7,2.3,4.7-3.3-5,.7,4.2-2.4-4.7.9,4.1-1.7-4.7.6,4.5-2.1-4.9.6,3.5-1.8-3.9.7,3.5-2.5-4.6.9,3.9-1.8-4.2.2,2-1.4-2.5.5,1.7-1.5-2.1.2,1.4-1.2-2h0Z"/>
          <path class="cls-3" d="M237.6,120.2s.5-6.3,2.2-7.8,7.1-3.1,7.1-3.1l-3.3,1.6,3.2-.3-4.4.9,3.5.2-3.8.5,3.6.9-4-.3,2.1.8-2.7.2,3.1.4-3.6.5h2.5l-3.5.9h2.5c-.9.4-1.8.6-2.8.8l1.5.2-1.7.3,1.3.5h-1.7l1.3.3-1.4.4.6.2-1.1.5-.6,1.2v.2Z"/>
          <path class="cls-3" d="M237.7,120.1s-2.9,4.8-2.2,8.1c.7,3.3,4.4,9.3,4.4,9.3l-1.9-3.8,2.6,2.4-2.9-3.8,2.9,1.7-2.6-2.7,2.4.9-2.2-2,2.4.9-2.4-1.9,2.2.5-2.8-1.8,2.7.8-2-1.2,1.9.3-2.4-1.4h2l-2.4-1.4,2.2.6-2.2-1.3h1.8c0,0-1.5-1-1.6-1s1.4.2,1.4.2l-1.3-1.4h.7c0,0-.7-2.1-.7-2.1h0Z"/>
          <path class="cls-3" d="M237.6,120.2s-2.7-6.2-5.3-7.5-7.3-1.2-7.3-1.2l3.3.7-3,.2,4.9.5-4.7.4,5.8.6-5.2.4,4.4.8-2.3.6,3.4-.2-2.9.6,3.7.4-2.6.6h4.5l-2.6.7h2.8l-1.7.4s2.4.5,2.6.5-1.4,0-1.4,0l2.7.6h-.9l1.9.7h0Z"/>
          <path class="cls-3" d="M237.6,120.1s0-7.7-1-9.6c-.9-1.3-2.2-2.2-3.7-2.7l2,1.5-2-.3,2,1.2-2.2-.2,2.6,1.2-2.2-.2,2,.9h-1.3l1.9,1.1-1.6-.4,1.8,1.2-1.6-.4,2,1.4-1.5-.5,1.9,1.4-1.4-.4,1.4.9-.9-.2,1.1.9-1-.4,1.1,1.2-.7-.2,1.1,2.5h.2Z"/>
          <path class="cls-3" d="M237.7,120.3s-8.7-2.7-12.6-1.4-5.8,6-5.8,6l2.8-2.9-.9,3.1,2.5-3.7-.7,3.4,1.7-3.5-.6,3.6,1.9-3.8-.4,3.9,1.9-4.1-.5,3,1.9-3.4-1,4,2.2-4-.6,3.5c0-.2,1.5-3.3,1.5-3.3l-.3,2.3,1.2-2.2-.2,1.7,1.4-2-.5,1.9,1.4-1.9-.2,1.1c.5-.4,1-.8,1.5-1.2.1,0,2.5-.2,2.5-.2h0Z"/>
          <path class="cls-3" d="M237.7,120.2s-5,1.3-6.5,3.5-.1,10.4-.1,10.4v-4.8l1,2.3-.9-3.5,1.7,2.4-1.5-3.9,1.8,2.9-1.3-3.9,1.7,2.8-1-3.7,1.4,2.9-.5-3.5,1,2.1-.5-2.7.9,1.6-.3-2.4.5,1.3.2-1.7v.9l.6-1.8v.9l.6-1.2,1.1-1h.1Z"/>
          <path class="cls-3" d="M233.6,168.4h10.1s-.6-3.6,4-5.3c-2,.2-3.7,1.3-4.8,3,0,0,2.3-6.1,7.2-7.2-3.7.8-6.9,3.3-8.6,6.7,0,0-1-5.3,6.3-8.3,0,0-6.6.5-9.1,8.7,0,0,1.3-7.1-4.1-10.1,0,0,3.4,3.4,2.9,7.6,0,0-1.5-5.2-7.9-5,0,0,6.2,2,6.7,6.2,0,0-2.2-3.3-5.7-3.4,0,0,3.2,1.5,3.7,3,0,0-2-1.8-3.7-.9,0,0,3.6.6,2.9,5h.1Z"/>
          <path class="cls-3" d="M94.6,168.4s6.5-10.5,6.8-17.9c.3-8-4.6-16.6-4.6-16.6l.4-.3s6.9,8.8,6.3,18.1c-.6,9-5.9,16.7-5.9,16.7h-3Z"/>
          <path class="cls-3" d="M96.8,133.5s4.1-3.7,6.1-3.6,5.8,4.5,5.8,4.6-3.3-2.3-3.3-2.3l1.9,2.5-2.8-2.6.9,2.2-1.6-2.4.4,2.3-1.5-2.2.8,1.7-1.2-1.4.4,1.2-1-1.1.8,1.6-1.4-1.4.6,1.3-.8-.9c0-.1.2.8.2.8l-1.2-1.2.3,1.1-.6-.6v.6c0,0-.5-.6-.5-.6v.6c0,0-.8-.6-.8-.6v.3c0,0-1.5.2-1.5.2h0Z"/>
          <path class="cls-3" d="M96.8,133.5s6.6.7,8.2,1.9,3.9,5.3,3.9,5.3l-3.3-3.4,1.6,3.4-2.4-3.6.5,3-1.8-3.4.7,3-1.3-3.4.4,3.2-1.5-3.5.4,2.6-1.3-2.9.5,2.5-1.7-3.3.7,2.8-1.3-3,.2,1.5-1-1.8.4,1.2-1.1-1.6v1c0,0-.8-1.5-.8-1.5h0Z"/>
          <path class="cls-3" d="M96.8,133.5s.4-4.6,1.6-5.6,5.1-2.3,5.1-2.3l-2.3,1.1,2.3-.2-3.2.7h2.6c0,0-2.8.5-2.8.5l2.6.7-2.9-.2,1.5.5-1.9.2,2.2.3-2.6.4h1.8l-2.6.6h1.8c-.6.3-1.3.5-2,.6h1.1c0,.1-1.2.4-1.2.4l.9.4h-1.2l.9.2-1,.3.4.2-.8.4-.5.9h.2Z"/>
          <path class="cls-3" d="M96.9,133.4s-2.1,3.5-1.6,5.9,3.2,6.7,3.2,6.7l-1.4-2.7,1.9,1.7-2.1-2.7,2.1,1.2-1.9-1.9,1.7.6-1.6-1.5,1.7.7-1.7-1.4,1.6.4-2-1.3,1.9.6-1.5-.9,1.4.2-1.7-1h1.4l-1.7-1,1.6.4-1.6-.9h1.3l-1.1-.7,1,.2-.9-1h.5l-.5-1.5h0Z"/>
          <path class="cls-3" d="M96.8,133.5s-1.9-4.5-3.8-5.4c-1.7-.6-3.5-.9-5.2-.9l2.4.5-2.2.2,3.6.3-3.4.3,4.2.5-3.7.3,3.2.5-1.7.4h2.5c0-.1-2.1.3-2.1.3l2.7.3-1.9.5h3.2l-1.9.5h2l-1.2.3s1.8.4,1.9.4-1,0-1,0l1.9.4h-.7l1.3.5h-.1Z"/>
          <path class="cls-3" d="M96.8,133.4s0-5.6-.8-7c-.6-.9-1.6-1.6-2.6-1.9l1.4,1.1-1.4-.2,1.5.9h-1.6c0,0,1.9.7,1.9.7l-1.6-.2,1.4.7h-1l1.3.8-1.1-.3,1.3.9-1.2-.3,1.4,1-1.1-.3,1.4,1-1-.3,1,.7h-.6c0-.1.8.6.8.6l-.7-.3.8.8-.5-.2.8,1.9h.2Z"/>
          <path class="cls-3" d="M96.9,133.6s-6.3-2-9.1-1-4.2,4.3-4.2,4.3l2-2.1-.6,2.2,1.8-2.7-.5,2.5,1.2-2.5-.4,2.6,1.4-2.7-.3,2.8,1.4-3-.4,2.2,1.4-2.5-.7,2.9,1.6-2.9-.4,2.5c0-.1,1.1-2.4,1.1-2.4l-.2,1.7.9-1.6-.2,1.2,1-1.4-.3,1.4,1-1.4-.2.8c.3-.3.7-.6,1.1-.9h1.8-.2Z"/>
          <path class="cls-3" d="M96.9,133.5s-3.6.9-4.7,2.5,0,7.5,0,7.5v-3.4l.8,1.6-.6-2.5,1.2,1.8-1.1-2.8,1.3,2.1-1-2.8,1.2,2-.8-2.7,1,2.1-.4-2.5.7,1.5-.3-2,.6,1.2v-1.6c0,0,.3,1,.3,1l.2-1.2v.7l.4-1.4v.7l.5-.9.8-.7v-.2Z"/>
          <path class="cls-3" d="M93.9,168.4h7.3s-.5-2.6,2.9-3.8c-1.4.1-2.7,1-3.4,2.2,0,0,1.6-4.4,5.2-5.2-2.7.6-5,2.4-6.2,4.8,0,0-.7-3.9,4.6-6,0,0-4.8.4-6.6,6.3,0,0,1-5.2-3-7.3,0,0,2.5,2.4,2.1,5.5-.8-2.4-3.2-3.9-5.7-3.6,0,0,4.5,1.4,4.8,4.5-.9-1.4-2.4-2.3-4.1-2.5,0,0,2.3,1.1,2.6,2.2,0,0-1.4-1.3-2.7-.6,0,0,2.6.4,2.1,3.6h0Z"/>
          <path class="cls-3" d="M137.6,168.4h6.9s-11.8-10-13.6-19.8,1.5-14.1,1.5-14.1l-.7-.4c-2.3,4.5-3,9.7-2,14.8,1.8,8.2,7.9,19.6,7.9,19.6h0Z"/>
          <path class="cls-3" d="M131.7,134.9s-6.3,2.3-8.3,4.2-2.5,9.4-2.5,9.4l1.3-5.2-.6,4.5,1.6-5.8v5.6c0,0,.9-7.1.9-7.1v5.8c0,0,.8-6.1.8-6.1l.5,4.7.2-5,.5,3.8.6-4.6v4.1c0,0,1.1-4.8,1.1-4.8l-.2,3,1.4-3.3-.5,2.5,1-3.1-.2,1.7,2.2-4.3h.2Z"/>
          <path class="cls-3" d="M131.7,134.9s3.7,2.1,4.2,5.1-.8,9.1-.8,9.1v-4.9l-1.3,3.2.7-4.7-1.2,3.5.5-4.6-1.1,2.4.8-3.9-1.2,1.9.9-3.2-1.2,1.9.7-3.4-1,1.6.5-2.6-.8,1,.5-1.7-.2-.7h0Z"/>
          <path class="cls-3" d="M131.5,135.4s-2.5-4.5-6.4-5.8-8.2.7-8.2.7l4.6-.3-3.1,1.2,4.5-.4-3.4,1.8,4.8-1.2s-3,2.9-2.9,2.8,3.7-2.4,3.7-2.4l-2,3.2,3.2-2.6-2,3.2,2.9-2.4-2.4,2.8,3.5-1.7-1.9,1.9,2.6-1.1-1.1,1.1,2.2-1.1,1.4.6v-.3Z"/>
          <path class="cls-3" d="M131.7,134.9s.4-7.3-1.3-10.7-7.3-5.1-7.3-5.1l3.8,3-3.8-1.5,4.3,2.3s-3.5-.6-3.6-.7l4.2,1.6h-4.3l4.4.9h-3.9c0,0,4.1,1.1,4.1,1.1h-4.1c0,0,5.1,1.2,5.1,1.2l-4.2-.3,4.2,1.3h-3.6c0,0,4,1.2,4,1.2l-3.3-.3,3.5,1.1h-2.1c0-.1,2.6.9,2.6.9h-1.9l2.2.7-1.4.2,1.7.7h-1.9l1.9,1,.8,1.3h0Z"/>
          <path class="cls-3" d="M131.7,135.4s3.7-2,6.7-1.6,6.8,3.7,6.8,3.7l-2.5-1.2,1.2,2.1-2-2.3.7,3-1.3-2.9v2.6l-1.5-2.8v2.7l-1.2-2.6v3.1c.1,0-1.4-3.1-1.4-3.1l-.2,2.2-.7-2.6-.4,1.8-.6-1.6-.5,1.4-.4-1.8-.3,1.4-.7-1.3h-1.7v-.2Z"/>
          <path class="cls-3" d="M131.8,134.7s-.5-6.6,1-9.5,6-5.9,6-5.9l-2.7,3,3-.8-3.7,1.9h3.4l-3.8.8c.8.4,1.7.7,2.6,1,.3,0-3.1-.4-3.1-.4l2.4,1.7-2.9-.8,2.6,1.4-2.8-.4,2.1,1h-2.5c0,0,1.7.7,1.8.7h-2.2c0-.1,1.9,1.1,1.9,1.1h-2c0-.1,1.7.7,1.7.7h-1.7l1.2.4-1.4.3h1.4c0,.1-1.4.5-1.4.5l1.3.3-1.3.2.9.3-1.2.2.7.4-.9.3.5.2-.8,1.4h-.1Z"/>
          <path class="cls-3" d="M131.7,135.4s2.7-6.1,5.8-8,9.8-1.2,9.8-1.2l-5.5,1,4.1,1.6-5.2-.7,3.5,1.7-4.7-1.1,3.2,1.9-4.7-1.4,3.7,2.3-4.6-1.7,2.9,2.7-3.6-2.1,2.7,2.6-3.3-2,1.8,2.5-2.5-1.8,1.5,2.1-2.1-1.5,1.2,1.8-1.8-1,1.1,1.6-1.8-1.1,1.2,1.3s-1.6-.8-1.7-.8.7.8.7.8l-1.1-.2-.9.7h.3Z"/>
          <path class="cls-3" d="M133.4,168.4s.4-2.7-3.4-5.6c0,0,2.9,1.1,3.7,3.5-.2-2.7-2.1-4.9-4.7-5.6,2.7.2,4.9,2,5.8,4.6,0,0-.3-5-4.2-7.2,0,0,3.8,1.4,5.7,7,0,0,2.8-4,7.3-4.6,0,0-4.4,1.8-4.5,5.2,0,0,3.2-4.3,7.2-4,0,0-4.6,1.2-4.6,4.4,1-1.7,2.9-2.7,4.8-2.6,0,0-5,2-2.9,5h-10.4.2Z"/>
          <path class="cls-3" d="M271.7,168.4h5.9s-10-8.5-11.6-16.9,1.3-12,1.3-12l-.6-.4c-2,3.9-2.6,8.3-1.7,12.6,1.5,7,6.7,16.7,6.7,16.7h0Z"/>
          <path class="cls-3" d="M266.7,139.9s-5.3,2-7,3.6-2.1,8-2.1,8l1.1-4.5-.5,3.8,1.4-4.9v4.8c-.1,0,.8-6.1.8-6.1v4.9l.7-5.2.5,4,.2-4.2.4,3.2.5-3.9v3.5c-.1,0,1-4,1-4l-.2,2.6,1.2-2.8-.4,2.1.9-2.6-.2,1.4,1.8-3.8h0Z"/>
          <path class="cls-3" d="M266.7,139.9s3.1,1.8,3.6,4.4-.6,7.8-.6,7.8v-4.1l-1,2.8.6-4-1,3,.4-3.9-1,2.1.6-3.4-1,1.6.7-2.8-1.1,1.6.6-2.9-.8,1.4.4-2.2-.6.9.4-1.4-.3-.7v-.2Z"/>
          <path class="cls-3" d="M266.5,140.3s-2.1-3.8-5.5-5-7,.6-7,.6l3.9-.2-2.6,1,3.8-.4-2.9,1.5,4-1s-2.5,2.5-2.4,2.4,3.1-2.1,3.1-2.1l-1.7,2.7,2.7-2.2-1.7,2.7,2.5-2-2,2.4,3-1.5-1.6,1.6,2.2-.9-1,.9,1.9-.9,1.2.5h.1Z"/>
          <path class="cls-3" d="M266.7,139.9s.3-6.2-1.1-9.1-6.2-4.4-6.2-4.4l3.2,2.6-3.2-1.3,3.7,2s-3-.5-3.1-.6l3.6,1.4h-3.6l3.7.7h-3.4c0,.1,3.5.9,3.5.9h-3.5c0,.1,4.4,1,4.4,1l-3.6-.3,3.6,1.1h-3c0-.1,3.4,1.1,3.4,1.1l-2.8-.2,3,.9h-1.8c0-.1,2.2.8,2.2.8h-1.7l1.9.6-1.2.2,1.5.6h-1.7l1.7.9.6,1.1h-.1Z"/>
          <path class="cls-3" d="M266.7,140.3s3.2-1.8,5.7-1.4,5.8,3.2,5.8,3.2l-2.1-1.1,1,1.7-1.7-1.9.6,2.6-1.1-2.4v2.2l-1.3-2.4v2.3l-1-2.3v2.6l-1.2-2.6-.2,1.9-.6-2.2-.3,1.5-.5-1.4-.5,1.2-.3-1.5-.3,1.2-.6-1.1h-1.5.1Z"/>
          <path class="cls-3" d="M266.7,139.7s-.4-5.7.8-8.1,5.1-5,5.1-5l-2.3,2.6,2.6-.7-3.1,1.6h2.9l-3.3.7c.7.4,1.5.7,2.2.9.2,0-2.6-.4-2.6-.4l2,1.4-2.5-.6,2.2,1.2-2.4-.4,1.8.8h-2.1l1.5.6h-1.9c0-.1,1.6.9,1.6.9h-1.7c0-.1,1.5.6,1.5.6h-1.5l1,.4-1.2.3h1.2c0,.1-1.2.4-1.2.4l1.1.2-1.1.2.8.3-1,.2.6.4-.8.3.4.2-.8,1.1h.2Z"/>
          <path class="cls-3" d="M266.7,140.3s2.3-5.2,4.9-6.8,8.4-1,8.4-1l-4.7.8,3.5,1.4-4.4-.6,3,1.4-4-1,2.7,1.6-4-1.2,3.1,2-3.9-1.5,2.5,2.3-3-1.8,2.3,2.2-2.8-1.7,1.5,2.1-2.1-1.5,1.3,1.8-1.8-1.3,1,1.6-1.5-.9.9,1.3-1.6-.9,1,1.1s-1.4-.6-1.5-.6.6.6.6.6l-.9-.2-.8.7h.3Z"/>
          <path class="cls-3" d="M268.1,168.4s.4-2.3-2.9-4.8c0,0,2.5,1,3.2,2.9-.2-2.3-1.8-4.2-4-4.8,2.3.2,4.2,1.7,4.9,3.9,0,0-.2-4.3-3.6-6.2,0,0,3.2,1.2,4.9,5.9,0,0,2.4-3.4,6.2-3.9,0,0-3.8,1.5-3.8,4.4,0,0,2.8-3.7,6.2-3.4,0,0-3.9,1-3.9,3.8.8-1.5,2.4-2.3,4.1-2.2,0,0-4.3,1.7-2.5,4.3h-8.9,0Z"/>
          <path class="cls-3" d="M34.6,168.4h6.4s-10.8-9.2-12.5-18.2,1.4-13,1.4-13l-.7-.4c-2.1,4.2-2.8,9-1.8,13.6,1.6,7.6,7.2,18,7.2,18h0Z"/>
          <path class="cls-3" d="M29.3,137.6s-5.8,2.1-7.6,3.9-2.3,8.6-2.3,8.6l1.3-4.8-.5,4.1,1.5-5.3v5.2c-.1,0,.9-6.6.9-6.6v5.3l.8-5.6.5,4.3.2-4.6.4,3.5.5-4.2v3.8c-.1,0,1-4.4,1-4.4l-.3,2.8,1.3-3-.5,2.3,1-2.8-.2,1.6,2-4h0Z"/>
          <path class="cls-3" d="M29.3,137.6s3.4,2,3.8,4.7-.7,8.4-.7,8.4v-4.5l-1.1,3,.7-4.3-1.1,3.2.4-4.3-1,2.2.7-3.6-1.1,1.7.8-3-1.1,1.8.7-3.1-.9,1.5.4-2.4-.7,1,.5-1.5-.3-.7h0Z"/>
          <path class="cls-3" d="M29,138.1s-2.3-4.1-5.9-5.4-7.6.6-7.6.6l4.2-.3-2.8,1.1,4.1-.4-3.1,1.7,4.4-1.1s-2.8,2.7-2.6,2.5,3.4-2.2,3.4-2.2l-1.9,2.9,2.9-2.4-1.8,2.9,2.7-2.2-2.2,2.5,3.2-1.6-1.7,1.7,2.4-1-1,1,2-1,1.3.5v.2Z"/>
          <path class="cls-3" d="M29.3,137.6s.3-6.7-1.2-9.9-6.7-4.7-6.7-4.7l3.5,2.8-3.5-1.4,4,2.1s-3.2-.6-3.4-.6l3.8,1.5h-3.9l4,.8h-3.6c0,.1,3.8,1,3.8,1h-3.8c0,.1,4.7,1.1,4.7,1.1l-3.9-.3,3.9,1.2h-3.3c0-.1,3.7,1.1,3.7,1.1l-3.1-.3,3.2,1h-2c0-.1,2.4.9,2.4.9h-1.8l2,.7-1.2.2,1.6.7h-1.7l1.8.9.7,1.1h0Z"/>
          <path class="cls-3" d="M29.3,138.1s3.4-1.9,6.2-1.5,6.3,3.4,6.3,3.4l-2.3-1.1,1.1,1.9-1.9-2.1.6,2.8-1.2-2.6v2.4l-1.4-2.6v2.4l-1-2.4v2.9l-1.3-2.9-.2,2-.7-2.4-.3,1.7-.6-1.4-.5,1.3-.3-1.7-.3,1.3-.6-1.2h-1.6v-.2Z"/>
          <path class="cls-3" d="M29.3,137.4s-.4-6.1.9-8.7,5.6-5.4,5.6-5.4l-2.5,2.8,2.8-.7-3.3,1.8h3.2l-3.6.7c.8.4,1.6.7,2.4,1,.3,0-2.8-.4-2.8-.4l2.2,1.6-2.7-.7,2.4,1.3-2.5-.4,1.9.9h-2.3s1.6.7,1.7.7h-2c0-.1,1.7,1,1.7,1h-1.8c0-.1,1.6.6,1.6.6h-1.6l1.1.4-1.3.3h1.2c0,.1-1.3.5-1.3.5l1.2.2-1.2.2.9.3-1.1.2.7.4-.8.3.4.2-.9,1.1-.2-.2Z"/>
          <path class="cls-3" d="M29.3,138.1s2.5-5.6,5.3-7.3,9-1.1,9-1.1l-5.1.9,3.8,1.5-4.7-.6,3.2,1.5-4.3-1,2.9,1.8-4.3-1.3,3.4,2.1-4.2-1.6,2.7,2.4-3.3-2,2.5,2.4-3-1.8,1.7,2.3-2.2-1.6,1.4,1.9-1.9-1.4,1.1,1.7-1.6-.9,1,1.4-1.7-1,1.1,1.2s-1.5-.7-1.6-.7.7.7.7.7l-1-.2-.9.8h0Z"/>
          <path class="cls-3" d="M30.8,168.4s.4-2.5-3.1-5.2c0,0,2.7,1,3.4,3.2-.2-2.5-1.9-4.5-4.3-5.2,2.4.2,4.5,1.9,5.3,4.2,0,0-.3-4.6-3.9-6.7,0,0,3.5,1.3,5.2,6.4,0,0,2.6-3.7,6.7-4.2,0,0-4.1,1.6-4.1,4.8,0,0,3-4,6.6-3.7,0,0-4.2,1.1-4.2,4.1.9-1.6,2.6-2.5,4.5-2.4,0,0-4.6,1.8-2.7,4.6h-9.5.1Z"/>
          <path class="cls-3" d="M3.9,168.5s41.7-6,61.8-7.1c20.1-1.1,101.4,3.7,104.1,4.2s80.3-2.1,99.6-2.8c19.3-.7,336,5.9,336,5.9H3.9v-.2Z"/>
          <polygon class="cls-3" points="0 168.5 84.4 168.2 168.8 168.1 337.6 168 506.4 168.1 590.8 168.2 675.3 168.5 590.8 168.7 506.4 168.8 337.6 169 168.8 168.8 84.4 168.7 0 168.5"/>
        </g>
        <g id="freepik--Sun--inject-55">
          <circle class="cls-2" cx="248.7" cy="46.9" r="34" transform="translate(162.6 284.9) rotate(-80.8)"/>
          <circle class="cls-1" cx="248.7" cy="46.9" r="24.5" transform="translate(162.6 284.9) rotate(-80.8)"/>
        </g>
        <g id="freepik--Character--inject-55">
          <path class="cls-9" d="M478,166.4c-.3-1.1-.3-2.3.1-3.4.5-1,1.2-1.8,2.1-2.4-.5.4-1,.9-1.3,1.5-1.3,2.2.3,4.7-.1,7-.1.7-.5,1.3-1,1.8-.6.5-1.1,1-1.5,1.6-.7,1-.9,2.3-.5,3.4.4,1.3,1.3,2.3,2.6,2.9,1.3.7,2.8,1.2,4.3,1.2s2.6-.4,3.6-1.2c.5-.4.9-.9,1.3-1.5.3-.6.6-1.3,1-1.9.4-.6,1-1.1,1.8-1.3.7-.2,1.4-.2,2-.4h.6c.7,0,1.5-.1,2.1-.5.7-.4,1.2-1,1.6-1.7.5-.7.7-1.6.7-2.5s-.1-1.3-.3-1.9c-.2-.7-.2-1.4-.2-2.2.2-.8,1.6-1.8,1.7-3.5,0-1.3-.4-2.5-1.1-3.5,0-.5-.1-1-.3-1.5-1-2.8-4-4.2-6.8-4.4-1.3-.1-2.5.1-3.7.7-1.3.8-1.8,2.2-2.3,3.5-.3.7-.7,1.4-1.2,1.9-.4.5-.9.9-1.4,1.3l-.3.2c-.6.3-1.2.7-1.7,1.1-.8.6-1.5,1.5-1.8,2.4-.8,2.2.9,4.3.3,6.6h0c.2-1.2.1-2.4-.3-3.5v.2ZM492.7,173.7c1-.3,1.9-.8,2.6-1.6.8-.8,1.4-1.9,1.6-3,0-.4.1-.7.1-1.1h0c.1.5.1,1.1,0,1.6-.2,1.1-.7,2.2-1.6,3-.8.7-1.8,1-2.8,1h0Z"/>
          <path class="cls-7" d="M586.8,227.9c-1,.3-29.8-2.5-30.9-3.3,0,0,0-1.4,0-4.7-.4-.7-.9-1.3-1.5-1.8-10.3-10.7-11.3-11.6-11.3-11.6l15.4-10.6,12.3,15.3,3.2,4s11,7.7,12.1,8.7,1.7,3.9.7,4.1h0Z"/>
          <path class="cls-7" d="M567.4,206.8l-13.6,10.7s-16.3-17.7-19.6-18.2c-1.6-.3-29.6,11.4-42.3,11.2-8.9-.1-12-15.1-12-15.1l19.4-2.2c14.4-5.1,31.1-15.4,40.3-13.2,9.9,2.4,27.8,26.8,27.8,26.8h0Z"/>
          <path class="cls-9" d="M479.9,195.3s3.1,15,12,15.1c8.6.1,24.4-5.3,34.1-8.7l-31-8.1-15.1,1.7Z"/>
          <path class="cls-7" d="M479.9,195.3s-3.5,12,2,17.5,50.5,10.1,57.6,8.7,8.5-12.4,1.4-15.8c-6.8-3.2-36.8-7.9-37.5-8.3-.4-1.5-.6-3.1-.4-4.7l-3.3.2-19.8,2.3h0Z"/>
          <path class="cls-1" d="M503.5,191.6l-23.5,3.7s-4.2,13.6,2.7,18.1c0,0,1-11.6,20.8-15.9,0,0-1.1-4.4,0-5.9h0Z"/>
          <path class="cls-11" d="M501.4,192.1c.2,0,.4.2.4.5h0c0,.2-.2.4-.5.4s-.4-.2-.4-.5.2-.4.5-.4h0ZM495.2,198.9c0,.2.1.5.4.5h0c.2,0,.4-.2.4-.4s-.1-.4-.3-.4-.4.1-.5.4h0ZM490.3,198.3c0,.2.1.4.4.5.2,0,.4-.1.5-.4,0-.2-.1-.4-.4-.5h0c-.2,0-.4.1-.5.4ZM485.5,197.8c0,.2.1.4.4.5.2,0,.4-.1.5-.4,0-.2-.1-.4-.4-.5-.2,0-.5.1-.5.4h0ZM480.6,197.2c0,.2.1.5.4.5h0c.2,0,.4-.2.4-.4s-.1-.4-.3-.4-.4.1-.5.4h0ZM502.9,196.3c0,.2.1.4.4.5v-.8c-.3,0-.3.2-.4.3h0ZM498.1,195.7c0,.2,0,.5.3.5s.5,0,.5-.3h0c0-.2,0-.5-.3-.5s-.5,0-.5.3h0ZM493.2,195.2c0,.2.1.5.4.5s.5-.1.5-.4h0c0-.2-.1-.5-.4-.5s-.5.1-.5.4h0ZM488.3,194.6c0,.2.1.4.4.5.2,0,.4-.1.5-.4,0-.2-.1-.4-.4-.5-.2,0-.5.1-.5.4h0ZM484.6,204.7c0,.2,0,.5.3.5s.5,0,.5-.3h0c0-.2-.1-.4-.4-.5-.2,0-.5.1-.5.4h.1ZM479.7,204.2c0,.2,0,.5.3.5s.5,0,.5-.3h0c0-.2,0-.5-.3-.5s-.5,0-.5.3h0ZM487.5,201.6c0,.2,0,.5.3.5s.5,0,.5-.3h0c0-.2-.2-.4-.4-.4s-.4.1-.4.3h0ZM482.6,201c0,.2.1.4.4.5.2,0,.4-.1.5-.4,0-.2-.1-.4-.4-.5-.2,0-.4.2-.4.4h-.1ZM481.8,208c0,.2.2.4.4.4s.4-.1.4-.3,0-.5-.3-.5-.5,0-.5.3h0Z"/>
          <path class="cls-7" d="M502,191.8c-1,.7-2.1,1.3-3.2,1.8-5.2,2-18.9,1.7-18.9,1.7.2-6.1,1.4-12.1,3.5-17.9,3.7-10.1,9.1-7.6,11-6.1,2.3,1.8,7,8.8,7.3,10.2.6,2.3-1.2,4.9-1.2,4.9l1.5,5.4h0Z"/>
          <path class="cls-1" d="M499.4,177.6c-1.2,0-2.3.7-3,1.7-1.3-.8-2.8-1.2-4.3-1.1-2.3.2-4,2.6-4,2.6l-6.3,1s-1.2,4.2-1.1,4.8c0,0,10.2,3.7,19.8,0,1-1.3,1.6-2.9,1.5-4.6,0-1.9-2.6-4.3-2.6-4.3h0Z"/>
          <path class="cls-9" d="M498.3,191.2c-.2.2-.3.5-.3.7v.8c0,.3.3.3.3,0s0-.5-.2-.8c.2.2.4.5.3.8,0,.2-.1.4-.3.4s-.4-.2-.4-.4v-.9c0-.3.3-.5.6-.7h0Z"/>
          <path class="cls-11" d="M498.4,177.8s.1.2,0,.3c0,.2-.2.4-.5.4h0c-.2,0-.3-.1-.4-.3h0c.2-.2.5-.3.7-.4h.2ZM496.8,185c0,.2.1.4.4.5.2,0,.4-.1.5-.4,0-.2-.1-.5-.4-.5h0c-.2,0-.4.1-.5.4h0ZM491.9,184.4c0,.2.1.4.4.5.2,0,.4-.1.5-.4,0-.2-.1-.4-.4-.5-.2,0-.4.1-.5.4h0ZM487.1,183.8c0,.2.1.5.4.5h0c.2,0,.4-.2.4-.4s-.1-.4-.3-.4-.4.1-.5.4h0ZM482.2,183.3c0,.2.1.4.4.5.2,0,.4-.1.5-.4,0-.2-.1-.5-.4-.5h0c-.2,0-.4.1-.5.4h0ZM499.6,181.8c0,.2.1.4.4.5.2,0,.4-.1.5-.4,0-.2-.1-.4-.4-.5-.2,0-.4.1-.5.4h0ZM494.7,181.2c0,.2.1.5.4.5h0c.2,0,.5,0,.5-.3s0-.5-.3-.5h0c-.2,0-.4.1-.4.4h-.2ZM489.9,180.7c0,.2.1.4.4.5s.4-.1.5-.4c0-.2-.1-.4-.4-.5h0c-.2,0-.4.2-.4.4h-.1ZM494,188h.6c0-.1-.1-.2-.2-.2s-.3,0-.3.2h-.1ZM489,187.7c0,.2.1.4.4.5.2,0,.4-.1.5-.4,0-.2-.1-.4-.4-.5-.2,0-.4.1-.5.4h0ZM484.2,187.1c0,.2.1.4.4.5.2,0,.5,0,.5-.3s0-.5-.3-.5h0c-.2,0-.4.2-.4.4h-.2Z"/>
          <path class="cls-7" d="M489,171c0,.4,2.2,3.4,4.2,3.3.7,0,.7-3.6.7-3.6v-.3l1-3.7-4.3-2.9-.6-.4-.4,2.3v2c-.2,1.1-.3,2.2-.3,3.4h-.3Z"/>
          <path class="cls-9" d="M489.5,165.7c.7,2.1,2.3,3.9,4.5,4.7l.9-3.7-4.3-2.9-.6-.4-.5,2.3h0Z"/>
          <path class="cls-7" d="M499.5,159.6c1.8,6.5-2,8.3-3.4,8.7s-5.7,1.4-8.1-5,0-9.2,2.9-10.1,6.8,0,8.5,6.4h.1Z"/>
          <path class="cls-9" d="M498,158.9h-.5c-.2,0-.3,0-.5-.1,0,0-.1-.2,0-.3.1-.2.3-.3.5-.2.2,0,.4,0,.6.2.1,0,.1.2,0,.4h-.2.1Z"/>
          <path class="cls-9" d="M493.7,159.9c.2,0,.3-.1.4-.2.2,0,.3-.1.4-.3v-.3c-.2-.1-.4-.1-.6,0-.2,0-.4.2-.5.4-.2.2,0,.4.3.3h0Z"/>
          <path class="cls-9" d="M495.5,165c.1,0,.3.2.4.2.2,0,.3,0,.5-.2h0c-.1.2-.3.3-.5.3s-.3-.2-.4-.4h0Z"/>
          <path class="cls-9" d="M497.1,162.9s.2.6.3,1h-.2c-.5.2-1.1.1-1.6-.3h0c.5.2,1,.2,1.5.1l-.4-1.1h.8c-.4-1.4-1.1-2.7-1.5-4.1h0c.7,1.4,1.3,2.8,1.8,4.3,0,.2-.6,0-.8,0h.1Z"/>
          <path class="cls-9" d="M494.1,161.5h0c0,.1-.2.1-.2.1-.3,0-.4-.3-.4-.6h0s.2.3.4.3.2,0,.3-.2v.3h0Z"/>
          <path class="cls-9" d="M494,161.4v-.4c0-.1.2-.2.3-.2s.3,0,.4.1c0,0,.1.2.2.3v.6-.6c0-.2-.2-.3-.4-.3s-.3.2-.3.4v.6c-.1-.2-.2-.4-.2-.6h0Z"/>
          <path class="cls-9" d="M498.3,160.6h.3c.2-.1.2-.4.2-.7h0c0,.2-.1.4-.3.4h-.3v.3h0Z"/>
          <path class="cls-9" d="M498.4,160.5c0-.1-.1-.2-.2-.3-.1,0-.3-.1-.4,0-.1,0-.2.1-.3.3v.6c0,.1.1.3.2.4v-.6c0-.2,0-.4.2-.4s.3,0,.4.2.2.4.3.6c0-.2,0-.4-.1-.7h-.1Z"/>
          <path class="cls-9" d="M497.1,163.9c-.1.3-.3.5-.5.6-.1,0-.3.1-.4.1-.3,0-.4-.3-.4-.5v-.4c.4.2.9.3,1.3.2h0Z"/>
          <path class="cls-6" d="M496.6,164.5c-.1,0-.3.1-.4.1-.3,0-.4-.3-.4-.5.3,0,.7,0,.8.4Z"/>
          <path class="cls-9" d="M488.6,163.4c1.5-.4.9-2.8.9-2.8,0,0,1.7-.6,1.2-3.4,1,1,2.4,1.5,3.7,1.3.5,0-1.5-.9-1.5-.9,2,.8,4.2.7,6-.3.3-.1-1.3-3.9-4.5-4.6-2.8-.7-5.7.6-7.1,3.1-1.1.9-1.8,2.2-1.7,3.7.3,2.1,2.4,4.2,3,4h0Z"/>
          <path class="cls-1" d="M493,155.2c0,.6-1.2,1.1-2.5,1s-2.3-.7-2.3-1.4,1.2-1.1,2.5-1,2.3.7,2.3,1.4Z"/>
          <path class="cls-9" d="M492.5,155c0,.5-.9.8-1.9.7s-1.8-.5-1.7-1,.9-.8,1.9-.8,1.8.5,1.7,1h0Z"/>
          <path class="cls-1" d="M492.6,154.5l-.4-.2c.5-.7,1.3-1,2.1-.8v.4c-.1,0-1.3-.3-1.8.5h0Z"/>
          <path class="cls-1" d="M487.7,163.2s-.2-1.6-.2-2,1.9-5.6,1.9-5.6h.2c0,.1.2.2.2.2-.1.3-1.8,5-1.9,5.4s.2,1.9.2,1.9h-.4Z"/>
          <path class="cls-1" d="M498.4,153.7c0,.6-1.2,1.1-2.5,1s-2.3-.7-2.3-1.4,1.2-1.1,2.5-1,2.3.7,2.3,1.4Z"/>
          <path class="cls-9" d="M497.8,153.6c0,.5-.9.8-1.9.8s-1.8-.6-1.7-1,.9-.8,1.9-.8,1.8.5,1.7,1Z"/>
          <path class="cls-7" d="M489.2,163.5s-1.8-1.8-2.7-1.1.8,3.5,2,3.7c.6.2,1.2-.2,1.4-.8h0l-.7-1.7h0Z"/>
          <path class="cls-9" d="M487,163.2h0c.8.2,1.4.8,1.8,1.5-.2-.3-.6-.3-.9-.1h-.1c.3,0,.6,0,.8.2.2.2.3.3.5.6,0,0,.2,0,.1,0h0c0-.9-1.1-2.2-2.2-2.1h0Z"/>
          <path class="cls-7" d="M486.7,171.4c-9.2,7.6-23,27.8-24.8,30.7-1.2,2,9.2,8.8,9.8,7.4.8-1.9,14.9-25.8,18.5-34.7,2-4.9-1.6-5-3.5-3.4Z"/>
          <path class="cls-7" d="M472.4,208.1c-.5,1-2.3,5.3-3.3,5.8s-5.8-.2-8.2-.5-2.8-1-2.7-1.8,5.2-.4,5.2-.4c0,0-7,1.2-8.8,1.3s-5.8.7-6.2-.8c-.2-.7,1-1.2,1-1.2,0,0-1.7.3-1.9-.6s1.2-1.4,1.2-1.4c0,0-1.1,0-1-.7.1-1.7,6.7-1.8,6.7-1.8,0,0-5.2,1.8-5.2.4,0-2,10.4-2.9,11.5-3.6.8-.5,1.4-1.1,1.9-1.9l9.7,7.2h0Z"/>
          <path class="cls-9" d="M458.2,211.9c0-.2.1-.5.3-.6l.6-.3c.5-.1,1-.2,1.4-.3,1-.1,2-.2,3-.3-1-.1-2-.1-3,0-.5,0-1,.2-1.5.4-.2.1-.5.3-.7.5s-.3.5-.2.7h.1Z"/>
          <path class="cls-9" d="M449.4,210.4c.7,0,1.4-.2,2.1-.3s1.4-.2,2.1-.4l2.1-.4,2.1-.4c-.7,0-1.5,0-2.2.1-.7,0-1.4.2-2.1.3s-1.4.3-2.1.5-1.4.3-2.1.6h.1Z"/>
          <path class="cls-9" d="M456.5,207h-2c-.7,0-1.3.1-2,.3-.7.1-1.3.3-1.9.5s-1.3.4-1.9.7c.6-.1,1.3-.3,1.9-.5s1.3-.3,1.9-.4,1.3-.2,2-.4,1.3-.2,1.9-.3h.1Z"/>
          <path class="cls-9" d="M455.7,205.2c-1.1,0-2.2,0-3.2.3-1,.2-2.1.6-3,1.1,1-.2,2.1-.5,3.1-.7s2-.4,3.1-.6h0Z"/>
          <path class="cls-9" d="M488.4,178.5c.4-.8.8-1.5,1.1-2.2h0c-.2.5-.5,1.1-.7,1.6l.2-.2.4-.6h0c-.1.2-.2.4-.4.6l-.2.3h-.1v.2c0,.1-.1.3-.2.4-.3.8-.7,1.5-1.1,2.2,0,0-.1,0,0,0,.3-.8.7-1.5,1-2.3h0Z"/>
          <path class="cls-9" d="M484,187.4c-1.2,2.5-2.5,4.9-4,7.2h0c1.1-2,3.9-7.1,4-7.2h0Z"/>
        </g>
        <g id="freepik--Yacht--inject-55">
          <rect class="cls-3" x="564.6" y="211.9" width="31.5" height="1.9" transform="translate(115 619.7) rotate(-61.3)"/>
          <rect class="cls-3" x="618.1" y="215.8" width="35.3" height="1.9" transform="translate(140.3 670.4) rotate(-61.3)"/>
          <rect class="cls-3" x="486.4" y="204.8" width="20.8" height="1.9" transform="translate(77.8 542.7) rotate(-61.3)"/>
          <rect class="cls-3" x="433.2" y="197.4" width="9.1" height="1.9" transform="translate(53.5 487.1) rotate(-61.3)"/>
          <path class="cls-1" d="M575.2,228.3c-15.8-4.3-128.7-19.6-128.7-19.6l-85.6-42.6-3.1-4.9-164.1-5.7-.9,2.6-44.1-10.3-.6-3.8-25.6-9.5,17.8-24.2h-10l-17.3,23.2-15.6,1.1,51.1,30.1-14.6,17.5h-7.2v8.1h30.8l46.3,11s-39.2,20.3-64.6,41.5c0,0,177.6-9.4,256.9-12.7,66-2.7,164,3.4,191.5,3.6,5.6,0-3.9-2.8-12.5-5.1v-.3Z"/>
          <path class="cls-1" d="M31,290.6h47.9s120.5-26.2,187.2-37.9c66.7-11.6,397.8-13.4,398-13.8s-33.1-5.9-35.3-6.4-203.2-22.4-296-20.4S31,290.6,31,290.6Z"/>
          <path class="cls-1" d="M654.8,239h-.2c0,.1-49.6,35.9-49.6,35.9h0l-30.3,21.8-2.8-.7-32.2,6.4c-19.1,3.8-38.7,3.8-57.8,0l-23-4.5-34.3,5.4c-20.2,3.2-40.9,2.2-60.7-3l-16.5-4.3-26.9,5.2c-23.4,4.6-47.6,3.4-70.4-3.3l-6.4-1.9-26.8,5.4c-22.3,4.5-45.3,3.8-67.2-2l-12.6-3.3-30.1,6.3c-18.7,3.9-38,4.1-56.8.7l-28-5.1-7.7,1.5h0l-.3-1-2.2-7.8s19.2-4.3,48.5-10.4c53.7-11.1,141.5-28,208.6-34.9,7.7-.8,15.1-1.5,22.1-2,102.5-7.3,363.6-4.3,363.6-4.3h0Z"/>
          <path class="cls-10" d="M654.8,239h-.2c0,.1-49.6,35.9-49.6,35.9h0l-30.3,21.8-2.8-.7-32.2,6.4c-19.1,3.8-38.7,3.8-57.8,0l-23-4.5-34.3,5.4c-20.2,3.2-40.9,2.2-60.7-3l-16.5-4.3-26.9,5.2c-23.4,4.6-47.6,3.4-70.4-3.3l-6.4-1.9-26.8,5.4c-22.3,4.5-45.3,3.8-67.2-2l-12.6-3.3-30.1,6.3c-18.7,3.9-38,4.1-56.8.7l-28-5.1-7.7,1.5h0l-.3-1-2.2-7.8s19.2-4.3,48.5-10.4c53.7-11.1,141.5-28,208.6-34.9,7.7-.8,15.1-1.5,22.1-2,102.5-7.3,363.6-4.3,363.6-4.3h0Z"/>
          <path class="cls-10" d="M605,274.8l-30.3,21.8-2.8-.7-32.2,6.4c-19.1,3.8-38.7,3.8-57.8,0l-23-4.5-34.3,5.4c-20.2,3.2-40.9,2.2-60.7-3l-16.5-4.3-26.9,5.2c-23.4,4.6-47.6,3.4-70.4-3.3l-6.4-1.9-26.8,5.4c-22.3,4.5-45.3,3.8-67.2-2l-12.6-3.3-30.1,6.3c-18.7,3.9-38,4.1-56.8.7l-28-5.1-7.7,1.5-.3-1c1.3-.1,117.5-11.1,206.8-17.9,31.5-2.4,59.6-4.3,78.2-5.1l6.6-.2c8.8-.3,19.6-.5,31.9-.8,22.9-.4,50.8-.7,80-.8h31c30,0,60.1,0,86.5.2,29.9.2,55.1.6,70,1.1h-.2Z"/>
          <path class="cls-9" d="M397.4,213.4c-24.2-1.1-46.5-1.6-64.7-1.2-31,.7-75,9.6-119.8,21.3-11.6.8-23,1.6-33.9,2.4,12.4-12.4,47-42.3,94.8-47.4,60.6-6.6,123.6,24.9,123.6,24.9Z"/>
          <g class="cls-13">
            <path class="cls-11" d="M278.2,188.1l-38.9,38.9c-7.3,1.7-14.6,3.5-22,5.4l41.4-41.4c5-1.1,10-2,15.1-2.6,1.5-.1,2.9-.3,4.4-.4h0Z"/>
            <path class="cls-11" d="M375.6,204.3l-8.1,8.1c-5.6-.1-11.1-.2-16.3-.3l12.1-12.1c4.4,1.4,8.6,2.9,12.3,4.3Z"/>
            <path class="cls-11" d="M317.5,189.4l-27.1,27.1c-3.3.5-6.6,1.1-10,1.7l29.7-29.7c2.5.3,5,.6,7.4.9Z"/>
            <path class="cls-11" d="M228.9,201.2l-33.6,33.6-8.9.6,24.5-24.5c5.8-3.6,11.8-6.8,18-9.7Z"/>
            <path class="cls-11" d="M355.5,197.6l-14.5,14.5h-2.7l15.1-15.1,2.1.6Z"/>
          </g>
          <path class="cls-9" d="M446.5,208.6c-.9.3-37.6,2.5-37.6,2.5l-40.9-19.9s30.7-4,37-3.6,41.5,21,41.5,21Z"/>
          <g class="cls-13">
            <path class="cls-11" d="M433.6,201.3l-8.8,8.8c-8.4.5-15.9,1-15.9,1l-1.1-.5,15.1-15.2c3.6,2,7.4,4,10.7,5.9h0Z"/>
            <path class="cls-11" d="M409.7,189l-15.1,15.1-5.6-2.7,13.8-13.8h2.1c1.6.2,3.2.7,4.7,1.4h.1Z"/>
          </g>
          <path class="cls-3" d="M167.3,237.4l-1.4-1.2c.6-.7,14.5-16.3,60.7-26,49.2-10.4,133.3-15,175.3-16.1,77.3-2,268,8.4,269.9,8.5h1.5l-19,34.7-1.6-.9,17.5-32c-17.9-1-194.7-10.3-268.3-8.4-41.9,1.1-125.9,5.7-174.9,16-45.5,9.6-59.5,25.3-59.6,25.4h-.1Z"/>
          <rect class="cls-3" x="548.5" y="214.7" width="38" height="1.9" transform="translate(105.8 609.9) rotate(-61.3)"/>
          <rect class="cls-3" x="508.5" y="211.4" width="35.3" height="1.9" transform="translate(87.2 571.9) rotate(-61.3)"/>
          <rect class="cls-3" x="456.3" y="209.1" width="33.2" height="1.9" transform="translate(61.6 524) rotate(-61.3)"/>
          <rect class="cls-3" x="403.4" y="207.6" width="31.7" height="1.9" transform="translate(35 476.2) rotate(-61.3)"/>
          <rect class="cls-3" x="348.5" y="208.9" width="31.3" height="1.9" transform="translate(5.2 428.4) rotate(-61.3)"/>
          <rect class="cls-3" x="291.7" y="212.4" width="32.1" height="1.9" transform="translate(-27.2 380.8) rotate(-61.3)"/>
          <rect class="cls-3" x="236.8" y="217.5" width="29.1" height="1.9" transform="translate(-61 334) rotate(-61.3)"/>
          <rect class="cls-3" x="185.4" y="225.6" width="19.4" height="1.9" transform="translate(-97.3 288.9) rotate(-61.3)"/>
          <polygon class="cls-1" points="357.8 161.1 355.7 155.1 338.9 142.2 222.3 151.7 199.8 155.5 357.8 161.1"/>
          <polygon class="cls-10" points="357.8 161.1 355.7 155.1 338.9 142.2 222.3 151.7 199.8 155.5 357.8 161.1"/>
          <rect class="cls-1" x="130.3" y="98.8" width="19.6" height="11.2"/>
          <polygon class="cls-1" points="120.6 94.8 163.9 97.9 163.9 94.8 120.6 91.1 120.6 94.8"/>
          <rect class="cls-1" x="135.7" y="94.5" width="9.8" height="4.8"/>
          <path class="cls-1" d="M3.8,290.6h75.1s93.5-32.9,189.6-45.2,319.5-11.9,319.5-11.9c0,0-155.4-14.3-223.8-10.2s-276.3,19.2-276.5,19.3-1.7,1.9-1.7,1.9l2.9,1.9-26.2,31.2-49.1,2.7-9.8,10.2h0Z"/>
          <path class="cls-8" d="M3.8,290.6h75.1s93.5-32.9,189.6-45.2,319.5-11.9,319.5-11.9c0,0-155.4-14.3-223.8-10.2s-276.3,19.2-276.5,19.3-1.7,1.9-1.7,1.9l2.9,1.9-26.2,31.2-49.1,2.7-9.8,10.2h0Z"/>
          <path class="cls-9" d="M274.3,265.5c6.7-1,21.5-1.9,41.3-2.6,1.2,0,2.3.9,2.3,2.2s-.3,1.4-.9,1.8l-19.1,14.1c-.4.3-.9.4-1.4.4l-78.5-1c-1.2,0-2.2-1-2.2-2.2s.7-1.9,1.8-2.2c14.3-3.2,35.6-7.6,56.7-10.6h0Z"/>
          <path class="cls-9" d="M430.3,264.3l-24.5,18.2c-.4.3-.9.4-1.4.4l-70.5-.9c-1.2,0-2.2-1.1-2.1-2.3,0-.7.4-1.3.9-1.7l22.6-15.9c.4-.2.8-.4,1.2-.4,22.3-.6,47.2-1,72.4-1.3,1.2,0,2.2,1,2.2,2.2s-.3,1.3-.9,1.8h0Z"/>
          <path class="cls-9" d="M548.1,264.1l-26.8,19.9c-.4.3-.9.4-1.4.4l-85-1.1h0l32.4-23c.4-.3.8-.4,1.3-.4,28.2-.2,55.4-.1,78.3.2,1.2,0,2.2,1,2.2,2.3s-.4,1.4-.9,1.8h0Z"/>
          <g class="cls-13">
            <path class="cls-11" d="M304.2,263.4l-18,18-16.4-.2,16.8-16.8c5-.3,10.9-.7,17.6-1Z"/>
            <path class="cls-11" d="M420.8,260.4l-22.5,22.4-16.4-.2,22-22c5.5,0,11.2-.2,16.8-.2h.1Z"/>
            <path class="cls-11" d="M536.1,260l-24.3,24.3h-8.2c0-.1,24.3-24.4,24.3-24.4h8.2Z"/>
            <path class="cls-11" d="M249.6,269.5l-11.2,11.2h-8.2c0-.1,9.1-9.2,9.1-9.2,3.3-.6,6.7-1.3,10.2-1.9h0Z"/>
            <path class="cls-11" d="M376.8,261.1l-21.1,21.1h-2.6l21-21h2.8,0Z"/>
            <path class="cls-11" d="M519.9,259.9l-24.2,24.2h-2.7l24.2-24.2h2.7Z"/>
          </g>
        </g>
        <g id="freepik--Birds--inject-55">
          <path class="cls-9" d="M383.8,100.1c-.6-.3-1.2-.6-1.8-.8-.6-.2-1.3-.4-2-.5h-.8v.2c-.1,0-.3.2-.3.2-.3.2-.5.5-.7.7-.5.5-.9,1-1.3,1.6l.5-.2c-.7-.2-1.4-.3-2-.4h-2.3c-.3.4-.6.6-.8.9-.2.3-.4.6-.6.9-.4.6-.7,1.2-1,1.8.4-.5.9-1.1,1.3-1.6.2-.3.4-.5.7-.7.2-.2.5-.4.7-.6.3,0,.5,0,.8,0,.3,0,.7,0,1,0,.7,0,1.3.3,1.9.4h.3l.2-.2c.4-.5.8-1.1,1.2-1.6.2-.3.4-.5.6-.7h.1v-.2h.4c.6,0,1.3,0,1.9.2.6,0,1.3.3,2,.4h0Z"/>
          <path class="cls-9" d="M376.6,119.7c-.8-.6-1.6-1.2-2.5-1.7s-1.8-1-2.8-1.3c-.3,0-.6,0-.9,0h-.5c0,0-.4.3-.4.3-.4.3-.9.6-1.3.9-.8.6-1.6,1.3-2.3,2h.8c-.9-.6-1.9-1-2.9-1.4-.5-.2-1-.3-1.5-.4-.3,0-.6,0-.9,0h-.5c-.2,0-.3,0-.5,0-.5.2-1,.5-1.4.9-.4.3-.8.7-1.1,1.1-.7.8-1.3,1.6-1.9,2.4.8-.6,1.6-1.3,2.4-1.9.4-.3.8-.6,1.2-.9.4-.3.8-.5,1.2-.6.4,0,.8,0,1.2,0,.5,0,.9.3,1.4.5.9.4,1.8.8,2.7,1.2l.4.2.3-.3c.7-.7,1.4-1.3,2.2-1.9.4-.3.7-.6,1.1-.9,0,0,.2,0,.3-.2h.1c.2,0,.4,0,.5,0,.9.2,1.9.5,2.7.8,1,.3,1.9.7,2.8,1.1h0Z"/>
          <path class="cls-9" d="M176,74.4c-.5-.4-1.1-.8-1.7-1.1-.6-.4-1.2-.6-1.9-.8h-.9l-.2.2c-.3.2-.6.4-.8.6-.5.4-1,.9-1.5,1.4h.5c-.6-.4-1.3-.6-1.9-.9-.3,0-.7-.2-1.1-.2h-1.2c-.3.2-.6.4-.9.6-.3.2-.5.5-.7.8-.5.5-.9,1.1-1.2,1.6.5-.4,1-.9,1.6-1.3.3-.2.5-.4.8-.6.2-.2.5-.3.8-.4h.8c.3,0,.6.2.9.3.6.2,1.2.5,1.8.8h.3c0,0,.2,0,.2,0,.4-.5.9-.9,1.4-1.3.2-.2.5-.4.7-.6h.2v-.2h.4c.6,0,1.2.3,1.8.5.7.2,1.3.4,1.9.7h0Z"/>
          <path class="cls-9" d="M192.4,71.7c-.6-.8-1.2-1.6-1.9-2.4s-1.5-1.4-2.3-2c-.3-.2-.6-.3-.9-.4h-.9c-.5.2-1,.4-1.5.5-1,.3-1.9.8-2.8,1.2h.8c-.8-.6-1.5-1.3-2.4-1.9-.4-.3-.9-.6-1.4-.9-.2,0-.5-.3-.8-.4-.1,0-.3,0-.4,0h-.5c-.6,0-1.1.2-1.6.4-.5.2-1,.4-1.4.7-.9.5-1.8,1.1-2.6,1.7,1-.4,1.9-.8,2.9-1.1.5-.2,1-.3,1.4-.4s.9-.2,1.4-.2.8.2,1.1.5c.4.3.8.5,1.2.9.8.6,1.5,1.3,2.2,2l.4.3.4-.2c.9-.4,1.8-.8,2.6-1.2.4-.2.9-.4,1.3-.5h.4c.2,0,.4,0,.5,0,.8.5,1.6,1,2.4,1.6.8.4,1.5,1.1,2.3,1.7h.1Z"/>
          <path class="cls-9" d="M400,114.9c-.6-.8-1.2-1.6-1.9-2.4-.7-.8-1.5-1.5-2.3-2.1-.3-.2-.6-.3-.9-.4h-.9c-.5,0-1,.3-1.5.5-1,.3-1.9.8-2.8,1.2h.8c-.7-.6-1.5-1.3-2.4-1.9-.4-.3-.9-.6-1.4-.9-.3,0-.5-.3-.8-.4-.2,0-.3,0-.5,0h-.5c-.6,0-1.1.2-1.6.4-.5.2-1,.4-1.4.7-.9.5-1.8,1.1-2.6,1.7,1-.4,1.9-.8,2.9-1.1.5-.2,1-.3,1.4-.4s.9-.2,1.4-.2.8.2,1.1.5c.4.3.8.5,1.2.9.8.6,1.5,1.3,2.2,2l.4.3.4-.2c.9-.4,1.8-.8,2.6-1.2.4-.2.9-.4,1.3-.5h.5c.2,0,.4,0,.5.2.8.5,1.6,1,2.4,1.6.8.5,1.5,1.1,2.3,1.7h0Z"/>
        </g>
        <g id="freepik--Water--inject-55">
          <path class="cls-4" d="M158.6,328.3c3.7-.1,7.3-.7,10.8-1.6s7-1.9,10.5-3.1,6.9-2.4,10.3-3.8,6.8-2.8,10.1-4.3h.2l10.7,3.1c1.8.5,3.6,1,5.4,1.5s3.6.9,5.4,1.2c7.2,1.4,14.6,2.2,22,2.2s7.4-.2,11-.6c3.7-.4,7.3-.9,10.9-1.7,1.8-.4,3.6-.8,5.4-1.2s3.6-1,5.3-1.5l10.7-3h.2c3.4,1.1,6.9,2.3,10.3,3.3s7,1.8,10.5,2.5c7.1,1.3,14.2,1.9,21.4,1.9s14.3-.9,21.4-2.3l2.6-.5,2.6-.6c1.7-.4,3.5-.9,5.2-1.4l10.5-2.8h.2c7.9,2.4,15.7,5.1,23.8,6.7,8.1,1.6,16.3,2.3,24.5,2.1,8.2-.3,16.4-1.4,24.4-3.3l24.2-5.3h.2c7.5,3.4,15.3,6.3,23.2,8.6,4,1.1,8,2.1,12,2.9,4.1.7,8.2,1.2,12.3,1.3-4.1,0-8.3-.4-12.3-1.1-4.1-.7-8.1-1.7-12.1-2.8s-7.9-2.4-11.8-3.8-7.8-2.9-11.5-4.6h.2l-24.1,5.4c-8,2-16.3,3.1-24.5,3.4-8.3.3-16.6-.4-24.7-2-8.1-1.5-16-4.3-23.9-6.6h.2l-10.5,2.8c-1.7.5-3.5,1-5.2,1.4l-2.6.7-2.6.6c-7.1,1.5-14.3,2.3-21.6,2.3s-14.5-.6-21.6-2c-3.6-.6-7.1-1.5-10.6-2.5s-6.9-2.2-10.3-3.3h.2l-10.7,3c-1.8.5-3.6,1-5.4,1.5s-3.6.9-5.4,1.2c-3.6.8-7.3,1.2-11,1.7s-7.4.5-11.1.5c-7.4,0-14.8-.8-22.1-2.2-1.8-.3-3.6-.8-5.4-1.2s-3.6-1-5.4-1.5l-10.6-3.1h.2c-3.3,1.5-6.7,2.8-10.1,4.2s-6.8,2.5-10.3,3.7-7,2.2-10.5,3c-3.5.9-7.2,1.4-10.8,1.6l-.3-.6Z"/>
          <path class="cls-4" d="M657.5,187.8c-2.2.2-4.5.3-6.7.2-2.2,0-4.5-.3-6.7-.7s-4.4-.9-6.5-1.6c-2.2-.7-4.3-1.5-6.3-2.5h.3c-2.8.8-5.5,1.8-8.4,2.4-2.9.6-5.8.9-8.7.9s-2.9,0-4.4-.2-2.9-.4-4.3-.7c-2.9-.6-5.7-1.5-8.4-2.3h.3c-4.1,1.2-8.3,2.2-12.5,2.8-2.1.3-4.3.5-6.4.6-2.1,0-4.3-.1-6.4-.7,2.1.4,4.2.5,6.3.4,2.1-.2,4.2-.4,6.3-.8,2.1-.4,4.2-.8,6.2-1.4s4.1-1.1,6.1-1.7h.2c2.8.8,5.6,1.7,8.4,2.2,2.8.5,5.7.8,8.5.9,2.9,0,5.7-.3,8.6-.8,1.4-.3,2.8-.6,4.2-1l4.2-1.1h.3c2,1,4,1.9,6.2,2.5,2.1.7,4.3,1.3,6.5,1.7,2.2.5,4.4.8,6.6.9,2.2.2,4.5.2,6.7,0h-.2Z"/>
          <path class="cls-4" d="M142.5,215.7c-6.8.6-13.7.3-20.4-.9-3.4-.6-6.7-1.4-9.9-2.5-3.3-1-6.5-2.3-9.6-3.8h.3c-4.2,1.2-8.4,2.7-12.8,3.5-4.4.9-8.8,1.4-13.2,1.4s-4.5-.1-6.7-.3-4.4-.6-6.6-1-4.3-1-6.4-1.6l-6.4-1.9h.3c-6.2,1.9-12.6,3.4-19,4.4-3.2.5-6.5.8-9.7.9-3.3.1-6.5-.2-9.7-1,3.2.7,6.4.9,9.7.6,3.2-.2,6.4-.6,9.6-1.1,3.2-.6,6.4-1.2,9.5-2s6.3-1.6,9.3-2.6h.3l6.4,1.8c2.1.6,4.2,1.2,6.4,1.6,4.3.9,8.7,1.3,13.1,1.3s8.8-.4,13.1-1.3c2.2-.4,4.3-1,6.4-1.6l6.4-1.8h.3c3,1.5,6.2,2.8,9.4,3.9,3.2,1.1,6.5,1.9,9.9,2.6,6.7,1.4,13.5,1.8,20.3,1.3h-.3Z"/>
          <path class="cls-4" d="M22.2,297.8l28.7,5c19.1,3.3,38.7,2.8,57.7-1.3l28.5-6h.2c8.8,2.2,17.4,4.8,26.3,6.2,4.4.8,8.9,1.3,13.4,1.6s9,.5,13.5.4,9-.3,13.5-.8,8.9-1.2,13.4-2l26.5-5.2h.1c8.3,2.7,16.9,4.8,25.5,6.2,8.7,1.4,17.4,2,26.2,1.7,8.8-.2,17.5-1.2,26.1-2.9l25.8-5.1h.1l13.7,3.5c4.6,1.2,9.1,2.3,13.8,3.1,9.2,1.6,18.6,2.4,28,2.3,4.7,0,9.4-.3,14-.8s9.3-1.3,14-2l27.9-4.4h.2l14,2.8c4.7.9,9.3,1.9,14,2.7,9.4,1.5,18.9,2.1,28.4,1.8,4.8-.2,9.5-.5,14.2-1.1s9.4-1.5,14.1-2.4l28.1-5.5h.2c7.6,1.9,15.2,4,22.9,5.2,7.7,1.3,15.5,2,23.4,2s15.7-.5,23.4-1.7c3.9-.5,7.7-1.4,11.5-2.2s7.6-2,11.4-3h0M664.6,295.9c-3.8,1.1-7.5,2.1-11.3,3.1s-7.6,1.8-11.5,2.4c-7.8,1.3-15.6,1.9-23.5,1.9s-15.7-.6-23.5-1.9c-7.8-1.2-15.4-3.3-23-5.1h.2l-28,5.7c-9.3,2.1-18.9,3.3-28.4,3.6-9.6.3-19.1-.3-28.6-1.8-4.7-.8-9.4-1.8-14.1-2.7l-14-2.8h.2l-27.9,4.4c-4.6.7-9.3,1.5-14,2s-9.4.8-14.1.8c-9.4,0-18.9-.8-28.2-2.5-4.6-.8-9.2-2-13.8-3.2l-13.7-3.6h.1l-25.9,5c-8.6,1.7-17.4,2.7-26.2,2.8-4.4,0-8.8,0-13.2-.3s-8.8-.7-13.1-1.4c-8.7-1.4-17.2-3.4-25.6-6.1h.1l-26.5,5.4c-4.4.9-8.9,1.6-13.4,2.1s-9,.8-13.5.9-9,0-13.6-.4-9-.8-13.5-1.6-8.9-1.6-13.3-2.8l-13.1-3.5h.2l-28.6,5.8c-9.5,2-19.2,3.2-28.9,3.4-9.7.2-19.4-.6-29-2.3l-28.6-5.3M22.1,297.8h0Z"/>
        </g>
      </g>
    </g>
  </g>
</svg>